<svg width="200" height="61" viewBox="0 0 200 61" fill="none" xmlns="http://www.w3.org/2000/svg">
<path d="M183.764 0C187.403 1.65809 190.68 3.95391 193.467 6.73865L181.743 18.3453C178.7 15.348 174.487 13.4773 169.869 13.4773C160.485 13.4773 152.889 21.0662 152.889 30.4196C152.889 39.7729 160.485 47.3406 169.869 47.3406C174.487 47.3406 178.679 45.4912 181.721 42.4939L193.404 54.1643C190.616 56.9065 187.36 59.1811 183.764 60.8392H200V0H183.764ZM136.355 30.4196C136.355 16.8998 144.313 5.27188 155.889 0H130.439V60.8392H155.953C144.398 55.546 136.355 43.9181 136.355 30.4196ZM86.9029 60.8392H114.523L86.9029 27.8262V60.8392ZM113.076 0H85.3069L113.076 33.1831V0ZM63.0493 6.73865L51.3459 18.3453C48.2605 15.348 44.0685 13.4773 39.4297 13.4773C30.0458 13.4773 22.4705 21.0662 22.4705 30.4196C22.4705 39.7729 30.0458 47.3406 39.4297 47.3406C44.0685 47.3406 48.2392 45.4912 51.3246 42.4939L62.9641 54.1643C60.1979 56.9065 56.9422 59.1811 53.3461 60.8392H69.5606V0H53.3461C56.9848 1.65809 60.2617 3.95391 63.0493 6.73865ZM5.9368 30.4196C5.9368 16.8998 13.8951 5.27188 25.4495 0H0V60.8392H25.5134C13.9589 55.546 5.9368 43.9181 5.9368 30.4196Z" fill="white"/>
</svg>
