<svg width="28" height="28" viewBox="0 0 28 28" fill="none" xmlns="http://www.w3.org/2000/svg">
<path fill-rule="evenodd" clip-rule="evenodd" d="M28 0.875008C28 0.612863 27.8825 0.36453 27.6797 0.198333C27.477 0.0321368 27.2105 -0.0344112 26.9534 0.0169994L18.375 1.73268L9.7966 0.0169994C9.68332 -0.0056564 9.56668 -0.0056564 9.4534 0.0169994L0.703398 1.767C0.294402 1.8488 0 2.20791 0 2.62501V27.125C0 27.3872 0.117533 27.6355 0.32026 27.8017C0.522987 27.9679 0.789548 28.0344 1.0466 27.983L9.625 26.2673L18.2034 27.983C18.3167 28.0057 18.4333 28.0057 18.5466 27.983L27.2966 26.233C27.7056 26.1512 28 25.7921 28 25.375V0.875008ZM9.125 24.9651V1.48488L9.625 1.38488L10.125 1.48488V24.9651L9.72306 24.8847C9.65833 24.8717 9.59167 24.8717 9.52694 24.8847L9.125 24.9651ZM17.875 26.5151V3.03488L18.2769 3.11527C18.3417 3.12821 18.4083 3.12821 18.4731 3.11527L18.875 3.03488V26.5151L18.375 26.6151L17.875 26.5151Z" fill="#E42313"/>
</svg>
