<svg width="200" height="47" viewBox="0 0 200 47" fill="none" xmlns="http://www.w3.org/2000/svg">
<path d="M45.3226 28.0202H41.353L44.8249 23.4072H49.535L53.0069 28.0202H49.0373L47.1799 25.5377L45.3226 28.0202ZM44.5457 45.847V29.7258H49.8142V45.8166L44.5457 45.847Z" fill="#E42313"/>
<path d="M52.3817 23.6864H57.6502V45.8166H52.3817V23.6864Z" fill="#E42313"/>
<path d="M64.3148 39.0611C64.4058 41.2583 65.6804 42.7029 67.9141 42.7029C68.5325 42.738 69.1475 42.5889 69.6812 42.2745C70.2149 41.9601 70.6434 41.4945 70.9125 40.9366H75.8472C74.8882 44.6573 71.4406 46.2658 67.8473 46.2658C62.6092 46.2658 59.0462 43.1096 59.0462 37.7136C59.0462 32.785 62.9794 29.2524 67.7259 29.2524C73.4922 29.2524 76.3692 33.5922 76.1264 39.0489H64.3148M70.8518 36.1112C70.7608 34.2902 69.4862 32.8153 67.7259 32.8153C65.8625 32.8153 64.6243 34.1506 64.3148 36.1112H70.8518Z" fill="#E42313"/>
<path d="M88.9396 45.8166H86.8638V44.1111H86.8152C86.1293 45.501 84.5148 46.108 82.7849 46.108C78.8942 46.108 76.9641 43.0306 76.9641 39.4313C76.9641 35.832 78.8457 32.876 82.7121 32.876C84.0049 32.876 85.8623 33.3616 86.7909 34.8547H86.8395V28.3662H88.9396V45.8166ZM83.0702 44.2749C85.8623 44.2749 86.9366 41.8835 86.9366 39.5163C86.9366 37.0156 85.8076 34.7273 82.9549 34.7273C80.1021 34.7273 79.1613 37.1552 79.1613 39.583C79.1613 41.9502 80.3752 44.2446 83.0702 44.2446V44.2749Z" fill="#E42313"/>
<path d="M101.686 41.8106C101.122 44.5966 99.1185 46.108 96.284 46.108C92.2537 46.108 90.3417 43.322 90.2143 39.4313C90.2143 35.6438 92.7089 32.8578 96.1565 32.8578C100.63 32.8578 101.996 37.0398 101.874 40.099H92.4115C92.3387 42.2962 93.589 44.2446 96.3447 44.2446C98.0563 44.2446 99.2521 43.413 99.6223 41.7803H101.686M99.6769 38.2598C99.6563 37.3077 99.2635 36.4015 98.5828 35.7355C97.902 35.0695 96.9875 34.6967 96.0351 34.6969C93.8622 34.6969 92.5693 36.3297 92.4236 38.2598H99.6769Z" fill="#E42313"/>
<path d="M103.216 23.6864H119.519V28.3055H108.976V32.8274H118.092V37.2887H108.976V45.8166H103.216V23.6864Z" fill="#E42313"/>
<path d="M125.686 29.7258V32.5482H125.746C126.523 30.5027 128.314 29.4163 130.602 29.4163C131.01 29.4156 131.417 29.4584 131.816 29.5437V34.3449C131.162 34.1505 130.484 34.0463 129.801 34.0353C127.197 34.0353 125.831 35.8562 125.831 37.8532V45.8167H120.563V29.7258H125.686Z" fill="#E42313"/>
<path d="M131.822 34.6969C131.824 33.8215 132.056 32.9619 132.496 32.2052C132.936 31.4485 133.569 30.8214 134.329 30.3874C135.916 29.5977 137.674 29.216 139.446 29.2767C143.258 29.2767 146.948 30.1143 146.948 34.6726V41.7075C146.948 43.0731 146.948 44.5541 147.555 45.8288H142.25C142.086 45.3373 141.982 44.8278 141.94 44.3114C141.233 44.9786 140.399 45.4974 139.488 45.8373C138.577 46.1771 137.607 46.3311 136.635 46.2901C133.57 46.2901 131.173 44.7484 131.173 41.4343C131.173 36.1961 136.872 36.5785 140.532 35.8562C141.431 35.6681 141.928 35.3585 141.928 34.3631C141.928 33.1491 140.472 32.6939 139.385 32.6939C137.928 32.6939 137 33.3494 136.751 34.703H131.822M138.645 43.0428C141.151 43.0428 141.989 41.6225 141.862 38.3023C141.121 38.7636 139.755 38.8608 138.608 39.1703C137.461 39.4799 136.441 39.9412 136.441 41.2158C136.441 42.4904 137.461 43.0367 138.645 43.0367V43.0428Z" fill="#E42313"/>
<path d="M148.872 29.7258H153.989V31.9291H154.049C155.009 30.2842 157.175 29.2645 159.1 29.2645C164.465 29.2645 164.896 33.1674 164.896 35.4981V45.8166H159.628V38.0413C159.628 35.838 159.876 33.6044 156.993 33.6044C155.009 33.6044 154.141 35.2796 154.141 37.0459V45.8166H148.872V29.7258Z" fill="#E42313"/>
<path d="M177.327 35.6195C177.286 34.9739 176.995 34.3696 176.516 33.9354C176.036 33.5012 175.406 33.2714 174.759 33.2948C171.81 33.2948 171.342 35.8077 171.342 38.0413C171.342 40.1172 172.247 42.2537 174.474 42.2537C176.295 42.2537 177.242 41.1976 177.479 39.4981H182.595C182.134 43.8015 178.771 46.278 174.523 46.278C169.667 46.278 166.092 42.9639 166.092 38.0413C166.092 32.9246 169.345 29.2645 174.523 29.2645C178.523 29.2645 182.092 31.3707 182.462 35.6195H177.327Z" fill="#E42313"/>
<path d="M188.18 39.0611C188.271 41.2583 189.539 42.7029 191.773 42.7029C192.392 42.7384 193.008 42.5896 193.543 42.2752C194.078 41.9608 194.507 41.495 194.777 40.9366H199.712C198.747 44.6573 195.305 46.2658 191.712 46.2658C186.474 46.2658 182.905 43.1096 182.905 37.7136C182.905 32.785 186.844 29.2524 191.585 29.2524C197.351 29.2524 200.234 33.5922 199.985 39.0489H188.18M194.717 36.1112C194.626 34.2902 193.351 32.8153 191.585 32.8153C189.727 32.8153 188.489 34.1506 188.18 36.1112H194.717Z" fill="#E42313"/>
<path d="M44.5457 0.991763H53.4378C56.9825 0.991763 59.1798 2.92193 59.1798 5.93858C59.1798 8.21473 58.1722 10.0963 55.8961 10.7276V10.7822C58.0933 11.2071 58.5424 12.8216 58.7306 14.6729C58.9188 16.5242 58.7792 18.5879 59.8414 19.8868H57.0372C56.3209 19.1159 56.7155 17.0765 56.3452 15.2253C56.0842 13.374 55.6351 11.8141 53.195 11.8141H47.0585V19.8868H44.5457V0.991763ZM52.2967 9.69574C54.6518 9.69574 56.6669 9.08877 56.6669 6.33919C56.6669 4.48185 55.6593 3.11009 53.3043 3.11009H47.0585V9.69574H52.2967Z" fill="white"/>
<path d="M73.9717 15.547C73.3647 18.5818 71.1917 20.2024 68.1205 20.2024C63.7563 20.2024 61.6926 17.1676 61.5591 13.0037C61.5591 8.90061 64.2601 5.88396 67.993 5.88396C72.8488 5.88396 74.3177 10.412 74.1841 13.72H63.9445C63.8656 16.0993 65.2131 18.2176 68.1933 18.2176C70.0142 18.2176 71.3374 17.3193 71.738 15.547H73.9717ZM71.7987 11.7352C71.7812 10.7026 71.3582 9.71833 70.6212 8.99492C69.8842 8.27152 68.8922 7.86701 67.8595 7.86875C65.5044 7.86875 64.1023 9.64111 63.9445 11.7352H71.7987ZM68.3875 0.542603H71.2707L67.8048 4.34832H66.1114L68.3875 0.542603Z" fill="white"/>
<path d="M88.3326 18.7214C88.3326 23.1645 86.2932 25.4406 81.9837 25.4406C79.4162 25.4406 76.4542 24.4087 76.3207 21.4164H78.5665C78.6757 23.0613 80.6302 23.644 82.1112 23.644C85.0489 23.644 86.2143 21.5256 86.2143 18.4543V17.556H86.1597C85.7647 18.3346 85.1541 18.9831 84.4008 19.4244C83.6475 19.8656 82.7831 20.0809 81.9109 20.0446C77.832 20.0446 75.7987 16.8398 75.7987 13.113C75.7987 9.8839 77.3829 5.88396 82.1172 5.88396C82.9408 5.85075 83.7576 6.04573 84.4773 6.44739C85.1971 6.84904 85.7919 7.44175 86.1961 8.1601V6.20565H88.3326V18.7214ZM86.1111 12.767C86.1111 10.3391 85.0489 7.86875 82.2204 7.86875C79.3919 7.86875 78.1719 10.2238 78.1719 12.8459C78.1719 15.2738 79.0702 18.0598 82.0323 18.0598C84.9943 18.0598 86.0929 15.3345 86.0929 12.767H86.1111Z" fill="white"/>
<path d="M94.0807 3.74135H91.8349V0.991763H94.0807V3.74135ZM91.8349 6.20565H94.0807V19.8868H91.8349V6.20565Z" fill="white"/>
<path d="M103.507 5.88396C107.847 5.88396 110.147 9.03414 110.147 13.0584C110.147 17.0826 107.816 20.2024 103.507 20.2024C99.1974 20.2024 96.8302 17.0522 96.8302 13.0584C96.8302 9.06449 99.1367 5.88396 103.507 5.88396ZM103.507 18.2176C105.862 18.2176 107.756 16.3967 107.756 13.0584C107.756 9.72002 105.85 7.86875 103.507 7.86875C101.164 7.86875 99.2581 9.72609 99.2581 13.0584C99.2581 16.3906 101.122 18.2176 103.507 18.2176Z" fill="white"/>
<path d="M112.769 6.20565H114.882V8.37254H114.936C115.366 7.57994 116.011 6.92538 116.797 6.48488C117.584 6.04438 118.479 5.836 119.379 5.88396C122.979 5.88396 124.089 7.94766 124.089 10.8854V19.8868H121.844V10.6244C121.87 10.2536 121.816 9.88146 121.686 9.53343C121.555 9.18541 121.351 8.86973 121.087 8.60802C120.823 8.34631 120.505 8.14476 120.156 8.01716C119.807 7.88957 119.434 7.83894 119.064 7.86876C116.338 7.86876 115.015 9.68967 115.015 12.16V19.8868H112.769V6.20565Z" fill="white"/>
<path d="M26.9496 17.2404C26.7755 17.2912 26.6051 17.3541 26.4397 17.4286C26.4033 17.4286 26.3729 17.4286 26.379 17.38C26.4215 17.2161 25.6688 17.9141 25.6324 17.6471C25.6324 17.5985 25.6688 17.6471 25.5657 17.6471C25.8388 17.6835 23.8783 18.3026 23.8783 18.254C23.8282 18.1586 23.8062 18.051 23.8148 17.9435C23.8234 17.8361 23.8622 17.7333 23.9268 17.6471C24.0846 17.2525 23.593 16.7002 23.7812 16.8641C23.7509 16.8402 23.7264 16.8098 23.7095 16.7751C23.6927 16.7404 23.6839 16.7023 23.6839 16.6638C23.6839 16.6252 23.6927 16.5871 23.7095 16.5525C23.7264 16.5178 23.7509 16.4873 23.7812 16.4635C23.8661 16.5242 23.7812 16.4635 23.8297 16.2753C23.8844 16.2389 23.7265 16.0265 23.8661 16.0993C23.9815 15.9217 24.0575 15.7215 24.0889 15.5121C24.1203 15.3027 24.1064 15.089 24.0482 14.8854C23.7265 14.1327 23.8661 8.73066 24.0482 8.93703C24.1029 8.5607 23.7569 8.28757 23.9208 8.00836C23.9208 7.72308 23.6658 7.71701 23.7023 7.52278C23.5566 6.95223 22.7554 6.96437 22.8404 6.84297C22.4155 6.93402 20.8495 9.45295 20.8374 9.51972C20.9345 9.4226 19.7751 11.1585 19.7994 11.1646C19.672 11.1646 19.5324 11.3649 19.502 11.6259C19.502 11.6563 18.8465 12.4514 18.895 12.2936C18.6705 12.6638 18.4095 13.0159 18.2092 13.3922C18.367 13.2951 17.9239 13.7018 17.9907 13.6896C18.0574 13.6775 17.4929 14.9036 17.4869 14.8004C17.4808 14.6972 16.8799 15.4073 16.7888 15.4073C16.6492 15.984 14.5127 14.5697 14.4702 13.9263C14.4702 13.9263 14.4277 13.3194 14.1424 13.2587L12.7464 11.9901C11.8845 10.8429 11.2047 10.8733 9.93613 9.76251C9.80481 9.42946 9.63361 9.11355 9.42628 8.8217C8.94677 8.9431 8.29731 9.68967 8.43084 9.87176C8.23054 9.95674 8.18805 9.70181 8.10915 9.61076C8.13061 10.2506 8.20163 10.8878 8.32159 11.5167C8.29124 11.7534 8.43084 12.9613 8.48547 12.7792L8.57651 12.8823C8.57651 12.8823 8.43084 13.0644 8.57651 13.1798C8.77681 13.5257 9.18349 13.7867 9.03174 14.248C8.85572 14.3391 9.03174 14.9703 9.03174 14.764C8.83751 15.7594 11.1744 17.6349 10.8527 18.9642C10.7009 19.0795 11.3018 19.7897 11.1744 19.7533C10.8144 20.0134 10.3988 20.1859 9.96041 20.2571C9.83902 20.3299 9.71155 20.2571 9.57802 20.2571C9.44448 20.2571 8.36407 19.7958 8.09094 19.9961C8.09094 19.9961 7.21083 19.7958 7.20476 19.8382C7.36257 19.6561 6.20932 20.081 6.38535 19.7047C6.45818 19.4134 5.38384 20.0143 5.65091 19.8565C5.65091 19.8565 5.17747 20.1175 5.18961 20.0446C5.20175 19.9718 4.78294 20.0446 4.88612 20.0446C4.81329 20.0446 4.35806 19.8929 4.42482 19.9414C4.17597 19.7715 4.12134 20.0021 3.81785 19.8565C3.68218 19.9068 3.53731 19.9275 3.39297 19.9172H2.7253C2.7253 19.9172 2.15475 20.0992 2.11833 19.9172C2.11833 19.9172 1.62668 20.2813 1.48101 20.0385C1.54171 19.8382 0.874038 20.2024 0.795132 20.2146C0.716225 20.2267 0.394532 20.0568 0.455229 20.1599C0.400602 20.1599 0 20.6819 0 20.6819C0 20.6819 2.21545 22.3147 1.87554 22.0598C2.12876 22.253 2.39437 22.4294 2.67068 22.5878C2.57963 22.8245 3.49616 22.5878 3.35049 23.1159C4.20025 22.6182 5.94226 24.9368 6.5553 24.5908C6.6342 24.5908 6.8952 24.9975 6.98018 24.9672C6.84057 24.8458 7.42327 25.1614 7.24118 25.1492C7.32008 25.2403 7.28973 25.2099 7.56894 25.4952C8.26696 25.4952 8.5583 26.0415 8.78288 26.2357C9.54767 27.7046 6.355 29.131 6.094 29.8776C6.094 29.92 6.094 29.9504 6.03937 29.9383C5.98474 29.9261 5.59628 30.1446 5.54165 30.3813L5.06215 30.9883C4.64334 30.8669 3.56292 32.5725 3.1259 32.8092L2.09405 33.2827C2.00514 33.3728 1.92393 33.4703 1.85126 33.574C1.76857 33.7211 1.64943 33.8444 1.50529 33.9321C1.25079 34.1416 1.00765 34.3644 0.776923 34.5998L0.613041 34.9033L0.874039 35.0186C0.797446 35.1029 0.732154 35.1967 0.679808 35.2978C0.64339 35.3707 0.552343 35.5831 0.752644 35.6256C0.952945 35.6681 1.08041 35.6741 1.12897 35.7713C1.17753 35.8684 2.00908 35.9351 2.07584 35.923L2.54928 35.7166C3.16325 35.5832 3.79871 35.5832 4.41269 35.7166C5.08264 35.5718 5.73864 35.3687 6.37321 35.1097C6.4339 35.1097 7.58715 34.7151 7.58715 34.7151C7.89671 34.5695 8.60079 34.4541 8.8011 34.1992C9.18292 34.0335 9.60095 33.9687 10.015 34.011C10.1122 34.0657 12.8192 33.5012 12.9103 33.1552C12.9719 33.1638 13.0294 33.1911 13.075 33.2334C13.1206 33.2758 13.1521 33.3311 13.1652 33.3919C13.1778 33.9016 13.1454 34.4115 13.0681 34.9154C13.0681 34.7758 12.6857 35.1764 12.8192 35.3889C13.0924 35.4738 13.0742 35.3889 13.2441 35.7713C13.1652 35.5952 13.2441 36.5785 13.2441 36.9306C13.2441 37.1187 13.5537 37.75 13.056 37.9928C13.056 37.9928 12.7707 38.5998 12.7586 38.5998C12.795 38.3084 12.795 38.7454 12.7586 38.6665C13.0135 38.5451 12.9346 39.322 12.8799 39.4131C12.9285 39.2917 12.7464 39.5648 12.7282 39.4738C12.3215 40.275 13.1774 40.36 12.6857 40.451C12.8982 40.5178 13.0074 41.58 12.9953 41.4282C13.0444 41.7786 13.0132 42.1356 12.9042 42.4722C12.8314 42.2477 12.71 42.8789 12.7464 43.0792C12.8314 43.4798 12.6311 44.2385 13.0135 44.4145C12.9528 44.2567 13.2988 44.7787 13.2988 44.7787C14.191 45.1551 14.4095 43.9897 14.8101 43.8015C14.9437 43.8015 15.0954 43.237 15.2289 43.2795C15.2289 43.237 15.7752 40.6695 16.1879 40.8031C16.5011 40.321 16.781 39.818 17.0256 39.2978C17.0256 39.3281 16.6857 38.9275 17.3958 38.618C17.7418 38.7394 17.9057 37.8107 18.0028 37.2887C18.0028 36.9852 18.2395 37.1309 18.2699 36.8092C18.5733 36.3909 18.8145 35.9309 18.9861 35.4435C19.0893 35.4435 19.1014 34.9701 19.1742 35.0368C18.98 34.8669 19.3381 34.6726 19.2956 34.527C19.3624 34.272 19.3381 34.0414 19.4474 34.0657C19.5566 33.5679 19.8662 33.7865 19.933 33.8289C19.9997 33.8714 20.285 33.7865 20.3093 34.1506C20.1697 34.3388 20.7706 34.5088 20.722 34.6241C20.722 34.5391 23.6112 37.9624 24.4124 38.624C24.4488 38.6544 26.7007 40.888 26.6036 40.8638C26.8524 40.9973 27.0588 41.4707 27.077 41.4161C26.9799 41.5618 27.508 41.7985 27.599 41.7985C27.9389 42.4055 27.9571 42.2719 28.1392 42.1687C28.1999 42.4358 28.6491 42.3083 28.813 42.3933C28.7644 42.2659 29.1711 42.1505 29.08 42.0109C29.2075 42.0534 29.0011 41.5254 29.08 41.5921C28.9404 41.3372 28.0846 40.2022 28.1453 39.9958C28.1453 39.929 28.2667 39.9533 28.3274 39.9958C28.3881 40.0383 28.2181 39.8622 28.1635 39.8137C28.3213 39.8137 28.3517 39.7287 28.2667 39.5648C28.1149 39.6437 27.9025 38.6787 28.036 38.5391C28.0907 38.2963 27.338 35.2614 26.986 34.964C26.9668 34.682 26.9159 34.403 26.8342 34.1324C26.2273 33.7622 26.7371 33.0338 26.3304 32.9185C26.2333 33.1006 25.8145 32.4086 25.7538 31.8381C25.5535 31.48 25.7538 30.6241 25.6203 30.7516C25.505 30.6181 26.2273 30.3085 26.4094 30.703C27.9389 31.31 30.8585 30.3267 31.9146 31.1401C32.1634 30.6727 32.7279 31.0369 32.4244 30.9519C32.382 31.0065 32.4791 31.0369 32.5458 31.0551C32.9478 30.9897 33.3578 30.9897 33.7598 31.0551C33.3106 30.9458 34.4214 31.0187 34.3668 31.0005C35.0822 30.9363 35.7776 30.7299 36.4123 30.3935C36.8675 30.2539 36.7825 30.0172 36.9767 29.5862C36.8978 29.9504 37.0921 29.216 36.7097 28.9792C34.476 28.4208 32.6976 26.7699 30.47 26.1872C29.6081 26.0051 28.2121 23.8928 27.4716 24.0264C28.819 22.4846 30.1301 20.9551 31.5201 19.6501C31.7932 19.383 34.5549 16.3785 34.5549 16.4149C34.6642 16.2632 34.8159 15.7655 34.8038 15.9779C34.8017 15.8777 34.7653 15.7813 34.7006 15.7048C34.7006 15.7412 33.6566 14.9278 33.3835 15.4377C33.7537 15.6623 32.643 15.7412 32.3698 15.808C32.3357 15.8241 32.2984 15.8325 32.2606 15.8325C32.2228 15.8325 32.1855 15.8241 32.1513 15.808C31.8721 15.7412 31.5079 16.0568 31.3258 16.0993C30.9192 15.7351 29.8934 16.4089 29.4321 16.5667C29.2452 16.5603 29.0588 16.5441 28.8737 16.5181C28.7158 16.773 28.7219 16.7002 28.7583 16.6759C28.5155 16.8384 28.2494 16.9632 27.9693 17.0462C28.03 17.0462 27.6233 17.2404 27.4655 17.204C27.4655 17.2708 27.4048 17.465 27.1681 17.4164C26.9314 17.3679 27.0103 17.3011 26.9435 17.3739" fill="#E42313"/>
</svg>
