<svg width="200" height="47" viewBox="0 0 200 47" fill="none" xmlns="http://www.w3.org/2000/svg">
<path d="M45.3226 28.0201H41.353L44.8249 23.4071H49.535L53.0069 28.0201H49.0373L47.1799 25.5376L45.3226 28.0201ZM44.5457 45.8469V29.7257H49.8142V45.8165L44.5457 45.8469Z" fill="#E42313"/>
<path d="M52.3817 23.6863H57.6502V45.8165H52.3817V23.6863Z" fill="#E42313"/>
<path d="M64.3148 39.0609C64.4058 41.2582 65.6804 42.7028 67.9141 42.7028C68.5325 42.7379 69.1475 42.5888 69.6812 42.2744C70.2149 41.96 70.6434 41.4944 70.9125 40.9365H75.8472C74.8882 44.6572 71.4406 46.2657 67.8473 46.2657C62.6092 46.2657 59.0462 43.1094 59.0462 37.7134C59.0462 32.7848 62.9794 29.2523 67.7259 29.2523C73.4922 29.2523 76.3692 33.5921 76.1264 39.0488H64.3148M70.8518 36.111C70.7608 34.2901 69.4862 32.8152 67.7259 32.8152C65.8625 32.8152 64.6243 34.1505 64.3148 36.111H70.8518Z" fill="#E42313"/>
<path d="M88.9396 45.8165H86.8638V44.1109H86.8152C86.1293 45.5009 84.5148 46.1079 82.7849 46.1079C78.8942 46.1079 76.9641 43.0305 76.9641 39.4312C76.9641 35.8318 78.8457 32.8759 82.7121 32.8759C84.0049 32.8759 85.8623 33.3615 86.7909 34.8546H86.8395V28.3661H88.9396V45.8165ZM83.0702 44.2748C85.8623 44.2748 86.9366 41.8834 86.9366 39.5162C86.9366 37.0154 85.8076 34.7271 82.9549 34.7271C80.1021 34.7271 79.1613 37.155 79.1613 39.5829C79.1613 41.9501 80.3752 44.2445 83.0702 44.2445V44.2748Z" fill="#E42313"/>
<path d="M101.686 41.8105C101.122 44.5965 99.1185 46.1079 96.284 46.1079C92.2537 46.1079 90.3417 43.3219 90.2143 39.4312C90.2143 35.6437 92.7089 32.8577 96.1565 32.8577C100.63 32.8577 101.996 37.0397 101.874 40.0988H92.4115C92.3387 42.2961 93.589 44.2445 96.3447 44.2445C98.0563 44.2445 99.2521 43.4129 99.6223 41.7802H101.686M99.6769 38.2597C99.6563 37.3076 99.2635 36.4014 98.5828 35.7354C97.902 35.0694 96.9875 34.6966 96.0351 34.6968C93.8622 34.6968 92.5693 36.3296 92.4236 38.2597H99.6769Z" fill="#E42313"/>
<path d="M103.216 23.6863H119.519V28.3054H108.976V32.8273H118.092V37.2886H108.976V45.8165H103.216V23.6863Z" fill="#E42313"/>
<path d="M125.686 29.7257V32.5481H125.746C126.523 30.5026 128.314 29.4161 130.602 29.4161C131.01 29.4155 131.417 29.4582 131.816 29.5436V34.3448C131.162 34.1504 130.484 34.0462 129.801 34.0352C127.197 34.0352 125.831 35.8561 125.831 37.8531V45.8165H120.563V29.7257H125.686Z" fill="#E42313"/>
<path d="M131.822 34.6968C131.824 33.8214 132.056 32.9618 132.496 32.2051C132.936 31.4483 133.569 30.8213 134.329 30.3873C135.916 29.5976 137.674 29.2158 139.446 29.2765C143.258 29.2765 146.948 30.1142 146.948 34.6725V41.7073C146.948 43.073 146.948 44.554 147.555 45.8287H142.25C142.086 45.3372 141.982 44.8277 141.94 44.3112C141.233 44.9785 140.399 45.4973 139.488 45.8372C138.577 46.177 137.607 46.331 136.635 46.29C133.57 46.29 131.173 44.7483 131.173 41.4342C131.173 36.196 136.872 36.5784 140.532 35.8561C141.431 35.668 141.928 35.3584 141.928 34.363C141.928 33.149 140.472 32.6938 139.385 32.6938C137.928 32.6938 137 33.3493 136.751 34.7029H131.822M138.645 43.0427C141.151 43.0427 141.989 41.6224 141.862 38.3022C141.121 38.7635 139.755 38.8606 138.608 39.1702C137.461 39.4797 136.441 39.941 136.441 41.2157C136.441 42.4903 137.461 43.0366 138.645 43.0366V43.0427Z" fill="#E42313"/>
<path d="M148.872 29.7257H153.989V31.929H154.049C155.009 30.2841 157.175 29.2644 159.1 29.2644C164.465 29.2644 164.896 33.1672 164.896 35.498V45.8165H159.628V38.0412C159.628 35.8379 159.876 33.6042 156.993 33.6042C155.009 33.6042 154.141 35.2795 154.141 37.0458V45.8165H148.872V29.7257Z" fill="#E42313"/>
<path d="M177.327 35.6194C177.286 34.9738 176.995 34.3695 176.516 33.9353C176.036 33.5011 175.406 33.2713 174.759 33.2947C171.81 33.2947 171.342 35.8076 171.342 38.0412C171.342 40.1171 172.247 42.2536 174.474 42.2536C176.295 42.2536 177.242 41.1975 177.479 39.498H182.595C182.134 43.8014 178.771 46.2778 174.523 46.2778C169.667 46.2778 166.092 42.9638 166.092 38.0412C166.092 32.9244 169.345 29.2644 174.523 29.2644C178.523 29.2644 182.092 31.3706 182.462 35.6194H177.327Z" fill="#E42313"/>
<path d="M188.18 39.0609C188.271 41.2582 189.539 42.7028 191.773 42.7028C192.392 42.7383 193.008 42.5894 193.543 42.2751C194.078 41.9607 194.507 41.4949 194.777 40.9365H199.712C198.747 44.6572 195.305 46.2657 191.712 46.2657C186.474 46.2657 182.905 43.1094 182.905 37.7134C182.905 32.7848 186.844 29.2523 191.585 29.2523C197.351 29.2523 200.234 33.5921 199.985 39.0488H188.18M194.717 36.111C194.626 34.2901 193.351 32.8152 191.585 32.8152C189.727 32.8152 188.489 34.1505 188.18 36.111H194.717Z" fill="#E42313"/>
<path d="M44.5457 0.991641H53.4378C56.9825 0.991641 59.1798 2.92181 59.1798 5.93846C59.1798 8.21461 58.1722 10.0962 55.8961 10.7275V10.7821C58.0933 11.207 58.5424 12.8215 58.7306 14.6728C58.9188 16.5241 58.7792 18.5878 59.8414 19.8867H57.0372C56.3209 19.1158 56.7155 17.0764 56.3452 15.2251C56.0842 13.3739 55.6351 11.814 53.195 11.814H47.0585V19.8867H44.5457V0.991641ZM52.2967 9.69562C54.6518 9.69562 56.6669 9.08865 56.6669 6.33906C56.6669 4.48173 55.6593 3.10997 53.3043 3.10997H47.0585V9.69562H52.2967Z" fill="white"/>
<path d="M73.9717 15.5468C73.3647 18.5817 71.1917 20.2023 68.1205 20.2023C63.7563 20.2023 61.6926 17.1674 61.5591 13.0036C61.5591 8.90049 64.2601 5.88383 67.993 5.88383C72.8488 5.88383 74.3177 10.4118 74.1841 13.7198H63.9445C63.8656 16.0992 65.2131 18.2175 68.1933 18.2175C70.0142 18.2175 71.3374 17.3192 71.738 15.5468H73.9717ZM71.7987 11.735C71.7812 10.7025 71.3583 9.7182 70.6212 8.9948C69.8842 8.27139 68.8922 7.86689 67.8595 7.86863C65.5044 7.86863 64.1023 9.64099 63.9445 11.735H71.7987ZM68.3875 0.54248H71.2707L67.8048 4.3482H66.1114L68.3875 0.54248Z" fill="white"/>
<path d="M88.3326 18.7213C88.3326 23.1643 86.2932 25.4405 81.9837 25.4405C79.4162 25.4405 76.4542 24.4086 76.3207 21.4163H78.5665C78.6757 23.0611 80.6302 23.6438 82.1112 23.6438C85.0489 23.6438 86.2143 21.5255 86.2143 18.4542V17.5559H86.1597C85.7647 18.3345 85.1541 18.983 84.4008 19.4242C83.6475 19.8655 82.7831 20.0808 81.9109 20.0445C77.832 20.0445 75.7987 16.8397 75.7987 13.1129C75.7987 9.88378 77.3829 5.88383 82.1172 5.88383C82.9408 5.85063 83.7576 6.04561 84.4773 6.44726C85.1971 6.84892 85.7919 7.44163 86.1961 8.15998V6.20553H88.3326V18.7213ZM86.1111 12.7669C86.1111 10.339 85.0489 7.86863 82.2204 7.86863C79.3919 7.86863 78.1719 10.2237 78.1719 12.8458C78.1719 15.2737 79.0702 18.0597 82.0323 18.0597C84.9943 18.0597 86.0929 15.3344 86.0929 12.7669H86.1111Z" fill="white"/>
<path d="M94.0807 3.74122H91.8349V0.991641H94.0807V3.74122ZM91.8349 6.20553H94.0807V19.8867H91.8349V6.20553Z" fill="white"/>
<path d="M103.507 5.88383C107.847 5.88383 110.147 9.03402 110.147 13.0582C110.147 17.0825 107.816 20.2023 103.507 20.2023C99.1974 20.2023 96.8302 17.0521 96.8302 13.0582C96.8302 9.06437 99.1367 5.88383 103.507 5.88383ZM103.507 18.2175C105.862 18.2175 107.756 16.3966 107.756 13.0582C107.756 9.7199 105.85 7.86863 103.507 7.86863C101.164 7.86863 99.2581 9.72597 99.2581 13.0582C99.2581 16.3905 101.122 18.2175 103.507 18.2175Z" fill="white"/>
<path d="M112.769 6.20553H114.882V8.37242H114.936C115.366 7.57982 116.011 6.92526 116.797 6.48476C117.584 6.04426 118.479 5.83588 119.379 5.88383C122.979 5.88383 124.089 7.94754 124.089 10.8853V19.8867H121.844V10.6243C121.87 10.2535 121.816 9.88134 121.686 9.53331C121.555 9.18528 121.351 8.86961 121.087 8.6079C120.823 8.34619 120.505 8.14464 120.156 8.01704C119.807 7.88944 119.434 7.83882 119.064 7.86863C116.338 7.86863 115.015 9.68955 115.015 12.1599V19.8867H112.769V6.20553Z" fill="white"/>
<path d="M26.9496 17.2403C26.7755 17.2911 26.6051 17.354 26.4397 17.4284C26.4033 17.4284 26.3729 17.4284 26.379 17.3799C26.4215 17.216 25.6688 17.914 25.6324 17.647C25.6324 17.5984 25.6688 17.647 25.5657 17.647C25.8388 17.6834 23.8783 18.3025 23.8783 18.2539C23.8282 18.1585 23.8062 18.0508 23.8148 17.9434C23.8234 17.836 23.8622 17.7332 23.9268 17.647C24.0847 17.2524 23.593 16.7001 23.7812 16.864C23.7509 16.8401 23.7264 16.8097 23.7095 16.775C23.6927 16.7403 23.6839 16.7022 23.6839 16.6637C23.6839 16.6251 23.6927 16.587 23.7095 16.5523C23.7264 16.5176 23.7509 16.4872 23.7812 16.4634C23.8661 16.5241 23.7812 16.4634 23.8297 16.2752C23.8844 16.2388 23.7265 16.0263 23.8661 16.0992C23.9815 15.9216 24.0575 15.7214 24.0889 15.512C24.1203 15.3025 24.1064 15.0888 24.0482 14.8852C23.7265 14.1326 23.8661 8.73053 24.0482 8.9369C24.1029 8.56058 23.7569 8.28744 23.9208 8.00824C23.9208 7.72296 23.6658 7.71689 23.7023 7.52266C23.5566 6.95211 22.7554 6.96425 22.8404 6.84285C22.4155 6.9339 20.8495 9.45283 20.8374 9.5196C20.9345 9.42248 19.7751 11.1584 19.7994 11.1645C19.672 11.1645 19.5324 11.3648 19.502 11.6258C19.502 11.6561 18.8465 12.4513 18.895 12.2935C18.6705 12.6637 18.4095 13.0158 18.2092 13.3921C18.367 13.295 17.9239 13.7016 17.9907 13.6895C18.0574 13.6774 17.4929 14.9034 17.4869 14.8003C17.4808 14.6971 16.8799 15.4072 16.7888 15.4072C16.6492 15.9839 14.5127 14.5696 14.4702 13.9262C14.4702 13.9262 14.4277 13.3192 14.1424 13.2585L12.7464 11.99C11.8845 10.8428 11.2047 10.8731 9.93613 9.76239C9.80481 9.42934 9.63361 9.11343 9.42628 8.82158C8.94677 8.94297 8.29731 9.68955 8.43084 9.87164C8.23054 9.95662 8.18805 9.70169 8.10915 9.61064C8.13061 10.2505 8.20163 10.8877 8.32159 11.5165C8.29124 11.7533 8.43084 12.9611 8.48547 12.779L8.57651 12.8822C8.57651 12.8822 8.43084 13.0643 8.57651 13.1796C8.77681 13.5256 9.18349 13.7866 9.03174 14.2479C8.85572 14.339 9.03174 14.9702 9.03174 14.7638C8.83751 15.7593 11.1744 17.6348 10.8527 18.9641C10.7009 19.0794 11.3018 19.7896 11.1744 19.7531C10.8144 20.0133 10.3988 20.1858 9.96041 20.2569C9.83902 20.3298 9.71155 20.2569 9.57802 20.2569C9.44448 20.2569 8.36407 19.7956 8.09094 19.9959C8.09094 19.9959 7.21083 19.7956 7.20476 19.8381C7.36257 19.656 6.20932 20.0809 6.38535 19.7046C6.45818 19.4132 5.38384 20.0141 5.65091 19.8563C5.65091 19.8563 5.17747 20.1173 5.18961 20.0445C5.20175 19.9717 4.78294 20.0445 4.88612 20.0445C4.81329 20.0445 4.35806 19.8928 4.42482 19.9413C4.17597 19.7714 4.12134 20.002 3.81785 19.8563C3.68218 19.9067 3.53731 19.9274 3.39297 19.917H2.7253C2.7253 19.917 2.15475 20.0991 2.11833 19.917C2.11833 19.917 1.62668 20.2812 1.48101 20.0384C1.54171 19.8381 0.874038 20.2023 0.795132 20.2144C0.716226 20.2266 0.394532 20.0566 0.455229 20.1598C0.400602 20.1598 0 20.6818 0 20.6818C0 20.6818 2.21545 22.3146 1.87554 22.0596C2.12876 22.2529 2.39437 22.4293 2.67068 22.5877C2.57963 22.8244 3.49616 22.5877 3.35049 23.1158C4.20025 22.6181 5.94226 24.9367 6.5553 24.5907C6.6342 24.5907 6.8952 24.9974 6.98018 24.967C6.84057 24.8456 7.42327 25.1613 7.24118 25.1491C7.32008 25.2402 7.28973 25.2098 7.56894 25.4951C8.26696 25.4951 8.5583 26.0414 8.78288 26.2356C9.54767 27.7045 6.355 29.1309 6.094 29.8774C6.094 29.9199 6.094 29.9503 6.03937 29.9381C5.98474 29.926 5.59628 30.1445 5.54165 30.3812L5.06215 30.9882C4.64334 30.8668 3.56292 32.5724 3.1259 32.8091L2.09405 33.2826C2.00514 33.3727 1.92393 33.4702 1.85126 33.5739C1.76857 33.721 1.64943 33.8443 1.50529 33.932C1.25079 34.1414 1.00765 34.3643 0.776923 34.5997L0.613041 34.9032L0.874039 35.0185C0.797446 35.1027 0.732154 35.1966 0.679808 35.2977C0.64339 35.3705 0.552343 35.583 0.752644 35.6255C0.952945 35.668 1.08041 35.674 1.12897 35.7711C1.17753 35.8683 2.00908 35.935 2.07584 35.9229L2.54928 35.7165C3.16325 35.5831 3.79871 35.5831 4.41269 35.7165C5.08264 35.5717 5.73864 35.3686 6.37321 35.1095C6.4339 35.1095 7.58715 34.715 7.58715 34.715C7.89671 34.5693 8.60079 34.454 8.8011 34.1991C9.18292 34.0333 9.60095 33.9685 10.015 34.0109C10.1122 34.0655 12.8193 33.5011 12.9103 33.1551C12.9719 33.1637 13.0294 33.191 13.075 33.2333C13.1206 33.2756 13.1521 33.331 13.1652 33.3918C13.1778 33.9015 13.1454 34.4113 13.0681 34.9153C13.0681 34.7757 12.6857 35.1763 12.8192 35.3887C13.0924 35.4737 13.0742 35.3887 13.2441 35.7711C13.1652 35.5951 13.2441 36.5784 13.2441 36.9305C13.2441 37.1186 13.5537 37.7499 13.056 37.9927C13.056 37.9927 12.7707 38.5996 12.7586 38.5996C12.795 38.3083 12.795 38.7453 12.7586 38.6664C13.0135 38.545 12.9346 39.3219 12.8799 39.413C12.9285 39.2916 12.7464 39.5647 12.7282 39.4737C12.3215 40.2749 13.1774 40.3598 12.6857 40.4509C12.8982 40.5177 13.0074 41.5799 12.9953 41.4281C13.0443 41.7785 13.0132 42.1355 12.9042 42.4721C12.8314 42.2475 12.71 42.8788 12.7464 43.0791C12.8314 43.4797 12.6311 44.2384 13.0135 44.4144C12.9528 44.2566 13.2988 44.7786 13.2988 44.7786C14.191 45.1549 14.4095 43.9895 14.8101 43.8014C14.9437 43.8014 15.0954 43.2369 15.2289 43.2794C15.2289 43.2369 15.7752 40.6694 16.1879 40.8029C16.5011 40.3209 16.781 39.8179 17.0256 39.2976C17.0256 39.328 16.6857 38.9274 17.3958 38.6178C17.7418 38.7392 17.9057 37.8106 18.0028 37.2886C18.0028 36.9851 18.2395 37.1308 18.2699 36.8091C18.5733 36.3908 18.8145 35.9308 18.9861 35.4434C19.0893 35.4434 19.1014 34.9699 19.1742 35.0367C18.98 34.8667 19.3381 34.6725 19.2956 34.5268C19.3624 34.2719 19.3381 34.0413 19.4474 34.0655C19.5566 33.5678 19.8662 33.7863 19.933 33.8288C19.9997 33.8713 20.285 33.7863 20.3093 34.1505C20.1697 34.3387 20.7706 34.5086 20.722 34.624C20.722 34.539 23.6112 37.9623 24.4124 38.6239C24.4488 38.6543 26.7007 40.8879 26.6036 40.8636C26.8524 40.9972 27.0588 41.4706 27.077 41.416C26.9799 41.5616 27.508 41.7984 27.599 41.7984C27.9389 42.4053 27.9571 42.2718 28.1392 42.1686C28.1999 42.4357 28.6491 42.3082 28.813 42.3932C28.7644 42.2657 29.1711 42.1504 29.08 42.0108C29.2075 42.0533 29.0011 41.5252 29.08 41.592C28.9404 41.3371 28.0846 40.202 28.1453 39.9957C28.1453 39.9289 28.2667 39.9532 28.3274 39.9957C28.3881 40.0382 28.2181 39.8621 28.1635 39.8136C28.3213 39.8136 28.3517 39.7286 28.2667 39.5647C28.1149 39.6436 27.9025 38.6785 28.036 38.5389C28.0907 38.2961 27.338 35.2613 26.986 34.9639C26.9668 34.6819 26.9159 34.4029 26.8342 34.1323C26.2273 33.7621 26.7371 33.0337 26.3304 32.9184C26.2333 33.1005 25.8145 32.4085 25.7538 31.838C25.5535 31.4798 25.7538 30.624 25.6203 30.7515C25.505 30.6179 26.2273 30.3084 26.4094 30.7029C27.9389 31.3099 30.8585 30.3266 31.9146 31.1399C32.1634 30.6726 32.7279 31.0368 32.4244 30.9518C32.382 31.0064 32.4791 31.0368 32.5458 31.055C32.9478 30.9896 33.3578 30.9896 33.7598 31.055C33.3106 30.9457 34.4214 31.0185 34.3668 31.0003C35.0822 30.9362 35.7776 30.7298 36.4123 30.3934C36.8675 30.2538 36.7825 30.017 36.9767 29.5861C36.8978 29.9503 37.0921 29.2158 36.7097 28.9791C34.476 28.4207 32.6976 26.7697 30.47 26.1871C29.6081 26.005 28.2121 23.8927 27.4716 24.0262C28.819 22.4845 30.1301 20.955 31.5201 19.65C31.7932 19.3829 34.5549 16.3784 34.5549 16.4148C34.6642 16.2631 34.8159 15.7653 34.8038 15.9778C34.8017 15.8776 34.7653 15.7812 34.7006 15.7046C34.7006 15.7411 33.6566 14.9277 33.3835 15.4376C33.7537 15.6622 32.643 15.7411 32.3698 15.8078C32.3357 15.824 32.2984 15.8324 32.2606 15.8324C32.2228 15.8324 32.1855 15.824 32.1513 15.8078C31.8721 15.7411 31.5079 16.0567 31.3258 16.0992C30.9192 15.735 29.8934 16.4087 29.4321 16.5665C29.2452 16.5602 29.0588 16.544 28.8737 16.518C28.7158 16.7729 28.7219 16.7001 28.7583 16.6758C28.5155 16.8382 28.2494 16.9631 27.9693 17.046C28.03 17.046 27.6233 17.2403 27.4655 17.2039C27.4655 17.2706 27.4048 17.4649 27.1681 17.4163C26.9314 17.3677 27.0103 17.301 26.9435 17.3738" fill="#E42313"/>
</svg>
