<svg width="248" height="54" viewBox="0 0 248 54" fill="none" xmlns="http://www.w3.org/2000/svg">
<path d="M10.4162 14.8995H3.92928V34.818H10.4162V14.8995Z" fill="#E42313"/>
<path d="M10.0841 7.0369H4.27864L0 12.7465H4.89111L7.17276 9.67075L9.47167 12.7465H13.5864V11.7068L10.0841 7.0369Z" fill="#E42313"/>
<path d="M13.5864 7.42245V11.7068V12.7465V34.818H20.0906V7.42245H13.5864Z" fill="#E42313"/>
<path d="M28.2813 22.8097H36.3555C36.2347 20.5744 34.6648 18.7419 32.5039 18.7419C30.2179 18.7419 28.6824 20.3924 28.2986 22.8097H28.2813ZM28.2813 26.4485C28.4021 29.1734 29.9548 30.9755 32.7152 30.9755C34.268 30.9755 35.8077 30.2434 36.4159 28.7878H42.4931C41.307 33.3927 37.0542 35.3941 32.6376 35.3941C26.1808 35.3941 21.7943 31.478 21.7943 24.8067C21.7943 18.7029 26.6509 14.3276 32.4866 14.3276C39.599 14.3276 43.1487 19.695 42.8425 26.4572H28.2813V26.4485Z" fill="#E42313"/>
<path d="M51.3739 32.9075C54.8158 32.9075 56.1399 29.9401 56.1399 27.003C56.1399 23.9143 54.7554 21.0812 51.2359 21.0812C47.7465 21.0812 46.5604 24.066 46.5604 27.1243C46.5604 30.0614 48.07 32.8902 51.3739 32.8902M58.607 34.8006H56.0493V32.6909H55.989C55.1522 34.4021 53.1552 35.1688 51.0245 35.1688C46.2283 35.1688 43.8518 31.3437 43.8518 26.9381C43.8518 22.5194 46.1981 18.7983 50.9641 18.7983C52.5471 18.7983 54.846 19.3961 55.989 21.2458H56.0493V13.2013H58.607V34.8006Z" fill="#E42313"/>
<path d="M62.9159 25.4998H71.857C71.7363 23.0523 69.9075 21.0942 67.3627 21.0942C64.6843 21.0985 63.0841 23.1172 62.9159 25.4998ZM74.3241 29.8622C73.6384 33.3061 71.1583 35.1862 67.669 35.1862C62.6873 35.1862 60.3452 31.7422 60.19 26.9554C60.19 22.2595 63.2652 18.8156 67.5137 18.8156C73.0259 18.8156 74.7166 23.988 74.5657 27.7785H62.9159C62.8253 30.5033 64.3608 32.9162 67.7595 32.9162C69.8773 32.9162 71.3394 31.8765 71.7966 29.8578H74.3241" fill="#E42313"/>
<path d="M76.2262 34.818V7.42245H96.3341V13.1277H83.3429V18.7419H94.5657V24.2609H83.3429V34.818H76.2262Z" fill="#E42313"/>
<path d="M97.6281 14.8995H103.934V18.3867H104.012C104.969 15.8482 107.177 14.5182 109.981 14.5182C110.468 14.5182 111.003 14.5659 111.503 14.6872V20.622C110.667 20.3924 109.903 20.2408 109.019 20.2408C105.819 20.2408 104.132 22.4761 104.132 24.967V34.8353H97.6453" fill="#E42313"/>
<path d="M119.893 31.361C122.985 31.361 124.02 29.6022 123.869 25.4868C122.955 26.0543 121.264 26.1756 119.862 26.5568C118.417 26.8947 117.184 27.5185 117.184 29.0954C117.184 30.7026 118.43 31.361 119.893 31.361ZM111.486 21.0336C111.607 18.4344 112.828 16.7362 114.579 15.6965C116.33 14.7002 118.629 14.319 120.885 14.319C125.577 14.319 130.128 15.3587 130.128 21.0032V29.7062C130.128 31.387 130.128 33.2411 130.891 34.8136H124.357C124.128 34.1855 124.05 33.592 123.977 32.9335C122.304 34.6923 119.819 35.3811 117.443 35.3811C113.664 35.3811 110.68 33.4707 110.68 29.3553C110.68 22.8703 117.714 23.3728 122.209 22.4545C123.321 22.2249 123.93 21.8436 123.93 20.6177C123.93 19.1188 122.148 18.5513 120.807 18.5513C119.008 18.5513 117.865 19.3614 117.563 21.0466H111.486V21.0336Z" fill="#E42313"/>
<path d="M132.504 14.8995H138.81V17.6243H138.888C140.074 15.5882 142.739 14.319 145.103 14.319C151.715 14.319 152.245 19.1535 152.245 22.0299V34.8006H145.758V25.1663C145.758 22.4415 146.065 19.6733 142.498 19.6733C140.061 19.6733 138.978 21.7397 138.978 23.9273V34.7876H132.474" fill="#E42313"/>
<path d="M167.579 22.1989C167.531 20.5181 166.039 19.3224 164.413 19.3224C160.79 19.3224 160.208 22.4285 160.208 25.1966C160.208 27.7655 161.32 30.4123 164.059 30.4123C166.298 30.4123 167.454 29.1127 167.76 27.003H174.066C173.488 32.3271 169.36 35.4028 164.089 35.4028C158.133 35.4028 153.703 31.3047 153.703 25.2009C153.703 18.8676 157.723 14.3406 164.089 14.3406C169.024 14.3406 173.427 16.9572 173.885 22.2032" fill="#E42313"/>
<path d="M180.954 22.8097H189.011C188.903 20.5744 187.337 18.7419 185.159 18.7419C182.856 18.7419 181.333 20.3924 180.954 22.8097ZM180.954 26.4485C181.075 29.1734 182.627 30.9755 185.388 30.9755C186.958 30.9755 188.48 30.2434 189.088 28.7878H195.166C193.979 33.3927 189.727 35.3941 185.297 35.3941C178.84 35.3941 174.454 31.478 174.454 24.8067C174.454 18.7029 179.31 14.3276 185.146 14.3276C192.259 14.3276 195.808 19.695 195.502 26.4572H180.937L180.954 26.4485Z" fill="#E42313"/>
<path d="M242.239 46.9464C240.932 47.4444 239.427 46.9044 238.78 45.6996L238.778 45.7003C237.584 43.4954 234.891 42.4895 232.533 43.3886C230.174 44.2876 228.816 46.8124 229.387 49.2799C229.705 50.6352 228.949 52.0118 227.623 52.5174L224.401 53.7452C222.38 54.5156 220.085 53.4786 219.318 51.4486L204.936 13.3865C204.169 11.3565 205.201 9.05109 207.222 8.2807L210.444 7.05289C211.75 6.55484 213.255 7.09488 213.902 8.29967C215.097 10.5046 217.789 11.5105 220.148 10.6114C222.506 9.7124 223.865 7.1876 223.293 4.72006C222.976 3.36479 223.731 1.98817 225.058 1.4826L228.279 0.254798C230.3 -0.51559 232.595 0.521371 233.362 2.55135L247.746 40.6128C248.513 42.6428 247.481 44.9482 245.46 45.7185L242.239 46.9464Z" fill="white"/>
<path d="M231.14 22.2671C231.042 22.298 230.947 22.3347 230.854 22.3769C230.835 22.3677 230.818 22.3651 230.819 22.3468C230.845 22.258 230.426 22.6473 230.405 22.4957C230.391 22.4709 230.424 22.5036 230.365 22.4879C230.518 22.5088 229.422 22.855 229.422 22.8354C229.397 22.7829 229.387 22.7246 229.392 22.6666C229.397 22.6086 229.418 22.5532 229.452 22.5062C229.539 22.2906 229.264 21.9837 229.367 22.0686C229.351 22.0556 229.337 22.0391 229.328 22.0202C229.319 22.0013 229.314 21.9805 229.314 21.9595C229.314 21.9385 229.319 21.9177 229.328 21.8988C229.337 21.8799 229.351 21.8634 229.367 21.8504C229.416 21.8831 229.367 21.84 229.395 21.7433C229.426 21.725 229.34 21.6127 229.417 21.644C229.487 21.6257 229.6 21.2404 229.521 20.9621C229.34 20.5467 229.416 17.5305 229.509 17.6467C229.539 17.439 229.346 17.2862 229.439 17.1321C229.447 16.9753 229.293 16.9688 229.309 16.863C229.229 16.5429 228.785 16.5468 228.828 16.4815C228.591 16.5325 227.716 17.938 227.708 17.9733C227.761 17.9211 227.118 18.8877 227.131 18.8943C227.059 18.876 226.979 19.0027 226.963 19.1477C226.963 19.1647 226.597 19.6075 226.637 19.52C226.506 19.7264 226.368 19.9236 226.255 20.1326C226.341 20.0765 226.095 20.3051 226.124 20.2972C226.14 20.2724 225.855 20.9804 225.855 20.9177C225.882 20.8224 225.506 21.2639 225.462 21.2704C225.382 21.5892 224.19 20.8041 224.167 20.4448C224.167 20.4305 224.144 20.1091 223.982 20.0712C224.052 20.1326 223.135 19.2966 223.204 19.3632C222.722 18.7257 222.344 18.7427 221.634 18.1235C221.563 17.9301 221.467 17.7469 221.348 17.5788C221.079 17.6454 220.717 18.0621 220.793 18.1653C220.677 18.2111 220.653 18.0674 220.613 18.0177C220.573 18.1758 220.729 19.0837 220.729 19.0837C220.712 19.2143 220.791 19.8844 220.819 19.7838L220.87 19.8439C220.87 19.8439 220.791 19.9432 220.889 20.0072C221 20.2019 221.221 20.3377 221.143 20.6042C221.047 20.6538 221.154 21.0065 221.143 20.889C221.029 21.4481 222.335 22.4931 222.156 23.2312C222.073 23.2965 222.404 23.6923 222.335 23.6727C222.224 23.8033 221.886 23.8896 221.649 23.9523C221.581 23.9914 221.509 23.9523 221.435 23.9327C221.36 23.9131 220.772 23.6792 220.605 23.7994C220.605 23.8164 220.114 23.6858 220.111 23.7067C220.198 23.6087 219.555 23.8373 219.653 23.6361C219.695 23.4728 219.094 23.8059 219.242 23.7171C219.232 23.7237 218.98 23.866 218.987 23.8229C218.994 23.7798 218.757 23.8229 218.812 23.8321C218.778 23.8216 218.524 23.7472 218.56 23.7733C218.418 23.6792 218.39 23.806 218.223 23.7237C218.148 23.7531 218.068 23.7652 217.988 23.7589C217.977 23.7589 217.609 23.7733 217.609 23.7589C217.64 23.7459 217.292 23.8608 217.267 23.7694C217.282 23.7524 216.994 23.9718 216.911 23.836C216.949 23.7263 216.589 23.9274 216.53 23.9353C216.471 23.9431 216.307 23.8491 216.342 23.9065C216.312 23.9222 216.088 24.1978 216.088 24.1978C216.13 24.2109 217.322 25.1044 217.135 24.9646C217.276 25.0719 217.425 25.1696 217.579 25.2573C217.528 25.3879 218.039 25.2651 217.958 25.5538C218.432 25.2729 219.406 26.5818 219.749 26.3754C219.789 26.3754 219.936 26.6027 219.986 26.5845C219.908 26.5191 220.232 26.6916 220.128 26.6837C220.175 26.7373 220.16 26.7177 220.314 26.8797C220.707 26.8627 220.869 27.1827 220.997 27.2899C221.427 28.1115 219.651 28.9031 219.498 29.3185C219.498 29.3394 219.497 29.3577 219.466 29.3499C219.487 29.3695 219.221 29.4675 219.189 29.5968L218.918 29.939C218.682 29.8711 218.08 30.8247 217.835 30.9462L217.258 31.214C217.21 31.2629 217.166 31.3163 217.127 31.3734C217.082 31.4547 217.016 31.5233 216.937 31.5732C216.793 31.6904 216.656 31.8155 216.526 31.9481L216.437 32.1166L216.58 32.1793C216.538 32.2259 216.503 32.2777 216.474 32.3335C216.453 32.374 216.403 32.4929 216.516 32.519C216.629 32.5451 216.697 32.5451 216.724 32.6013C216.752 32.6575 217.216 32.6901 217.254 32.6836C217.292 32.677 217.516 32.5699 217.516 32.5699C217.738 32.4981 218.469 32.5085 218.563 32.583C218.546 32.583 219.626 32.3217 219.656 32.2303C219.691 32.2303 220.319 32.0121 220.319 32.0121C220.491 31.9298 220.886 31.8658 221.012 31.7248C220.891 31.747 221.518 31.5314 221.696 31.6176C221.751 31.6477 223.267 31.3342 223.315 31.1395C223.349 31.1449 223.381 31.1602 223.406 31.1834C223.432 31.2066 223.45 31.2368 223.458 31.2702C223.421 31.47 223.458 32.0226 223.377 32.1193C223.377 32.0409 223.166 32.263 223.238 32.3805C223.39 32.4262 223.383 32.3727 223.478 32.5947C223.432 32.4916 223.488 33.0428 223.478 33.2479C223.486 33.3511 223.653 33.7012 223.373 33.8383C223.323 33.9486 223.268 34.0563 223.207 34.161C223.229 34.0003 223.229 34.2446 223.198 34.1989C223.34 34.1297 223.298 34.5647 223.266 34.6169C223.294 34.5464 223.191 34.6992 223.182 34.6496C222.952 35.0963 223.434 35.1447 223.157 35.1956C223.275 35.2309 223.338 35.8265 223.331 35.7377C223.358 35.9333 223.34 36.1323 223.28 36.3203C223.239 36.1897 223.171 36.5476 223.191 36.6443C223.239 36.865 223.127 37.2883 223.34 37.3863C223.309 37.2974 223.5 37.5914 223.5 37.5914C223.999 37.8004 224.123 37.1485 224.343 37.0466C224.42 37.0296 224.505 36.7292 224.578 36.7553C224.578 36.7292 224.885 35.3001 225.116 35.3719C225.105 35.3719 225.501 34.788 225.58 34.5359C225.58 34.5529 225.39 34.3282 225.79 34.1571C225.981 34.2198 226.073 33.7077 226.122 33.4138C226.133 33.2479 226.252 33.3289 226.272 33.1525C226.438 32.9167 226.57 32.6591 226.665 32.387C226.72 32.3936 226.729 32.1258 226.768 32.1624C226.659 32.0683 226.862 31.9599 226.836 31.8776C226.873 31.7365 226.861 31.6163 226.924 31.6163C226.981 31.3394 227.156 31.4596 227.195 31.4857C227.276 31.5327 227.39 31.4622 227.403 31.6673C227.323 31.7705 227.665 31.8671 227.632 31.9285C227.621 31.8789 229.246 33.79 229.693 34.1558C229.714 34.1754 230.972 35.4203 230.917 35.4085C231.057 35.4764 231.172 35.7299 231.179 35.7116C231.124 35.7926 231.416 35.9284 231.469 35.9284C231.659 36.2589 231.668 36.1897 231.772 36.1335C231.803 36.2811 232.056 36.2106 232.149 36.2642C232.123 36.1923 232.348 36.1335 232.299 36.0499C232.367 36.0747 232.252 35.7808 232.315 35.8161C232.234 35.6776 231.759 35.0454 231.791 34.9278C231.802 34.8899 231.861 34.9056 231.895 34.9108C231.895 34.8742 231.833 34.8364 231.802 34.8089C231.889 34.8089 231.909 34.7619 231.861 34.6678C231.776 34.7162 231.658 34.1754 231.73 34.0996C231.761 33.9624 231.337 32.2708 231.145 32.1049C231.132 31.9484 231.104 31.7935 231.061 31.6425C230.731 31.4374 231.003 31.0298 230.776 30.9566C230.725 31.0559 230.489 30.6719 230.455 30.3531C230.345 30.152 230.455 29.6739 230.378 29.7457C230.316 29.6739 230.717 29.5014 230.82 29.7235C231.675 30.0435 233.307 29.5093 233.897 29.9665C234.036 29.7052 234.351 29.9077 234.181 29.8567C234.155 29.8894 234.213 29.9077 234.249 29.9181C234.171 29.9012 234.824 29.8567 234.923 29.909C234.672 29.8489 235.291 29.8894 235.268 29.8789C235.046 29.8319 235.709 29.9599 236.414 29.5236C236.667 29.4453 236.62 29.3146 236.726 29.0717C236.683 29.2794 236.792 28.8666 236.576 28.7346C235.33 28.4224 234.337 27.5054 233.094 27.1788C232.612 27.0769 231.832 25.9 231.417 25.9731C232.172 25.1175 232.903 24.2619 233.677 23.5342C233.838 23.3866 235.391 21.7093 235.391 21.7302C235.451 21.644 235.537 21.3671 235.529 21.486C235.527 21.4303 235.508 21.3768 235.473 21.3331C235.473 21.354 234.888 20.9007 234.738 21.1829C234.942 21.3135 234.319 21.354 234.171 21.388C234.153 21.3995 234.132 21.4064 234.111 21.4083C234.09 21.4101 234.069 21.4067 234.049 21.3984C233.892 21.3619 233.689 21.5356 233.587 21.5604C233.359 21.3579 232.787 21.7342 232.528 21.8217C232.423 21.8196 232.319 21.81 232.215 21.7929C232.13 21.9353 232.132 21.8948 232.154 21.8818C232.017 21.9715 231.867 22.0415 231.71 22.0895C231.747 22.1025 231.519 22.1979 231.433 22.1783C231.441 22.2162 231.397 22.322 231.263 22.2985C231.162 22.2684 231.176 22.2319 231.14 22.2684" fill="#E42313"/>
<path d="M140.553 50.5321C139.804 50.5321 139.152 50.344 138.596 49.968C138.043 49.5919 137.614 49.0771 137.309 48.4236C137.003 47.7701 136.851 47.0253 136.851 46.1892C136.851 45.3458 137.005 44.5955 137.314 43.9383C137.627 43.2811 138.059 42.7663 138.612 42.3939C139.164 42.0179 139.806 41.8299 140.537 41.8299C141.097 41.8299 141.604 41.9394 142.058 42.1585C142.512 42.3739 142.887 42.6787 143.181 43.073C143.479 43.4637 143.667 43.9201 143.743 44.4422H142.761C142.66 43.9675 142.414 43.5623 142.025 43.2264C141.64 42.8868 141.149 42.7171 140.553 42.7171C140.019 42.7171 139.546 42.8631 139.135 43.1552C138.725 43.4436 138.403 43.847 138.17 44.3655C137.941 44.8803 137.827 45.4772 137.827 46.1563C137.827 46.8391 137.939 47.4433 138.165 47.969C138.39 48.4911 138.706 48.9001 139.114 49.1958C139.524 49.4915 140.004 49.6394 140.553 49.6394C140.924 49.6394 141.262 49.57 141.567 49.4313C141.876 49.2889 142.134 49.0881 142.342 48.8289C142.552 48.5696 142.694 48.2611 142.767 47.9033H143.748C143.676 48.4108 143.496 48.8635 143.209 49.2615C142.925 49.6558 142.556 49.9661 142.102 50.1925C141.651 50.4189 141.135 50.5321 140.553 50.5321Z" fill="white"/>
<path d="M145.839 50.3568V41.9449H146.816V50.3568H145.839ZM146.336 40.4991C146.136 40.4991 145.965 40.4315 145.823 40.2964C145.681 40.1577 145.61 39.9916 145.61 39.7981C145.61 39.6046 145.681 39.4403 145.823 39.3052C145.965 39.1664 146.136 39.0971 146.336 39.0971C146.536 39.0971 146.706 39.1664 146.848 39.3052C146.99 39.4403 147.061 39.6046 147.061 39.7981C147.061 39.9916 146.99 40.1577 146.848 40.2964C146.706 40.4315 146.536 40.4991 146.336 40.4991Z" fill="white"/>
<path d="M150.353 45.0993V50.3568H149.382V41.9449H150.326V43.2647H150.413C150.609 42.8339 150.915 42.4889 151.329 42.2296C151.747 41.9668 152.263 41.8353 152.878 41.8353C153.441 41.8353 153.935 41.954 154.361 42.1913C154.79 42.425 155.122 42.77 155.359 43.2264C155.598 43.6827 155.718 44.2432 155.718 44.9077V50.3568H154.748V44.9679C154.748 44.2779 154.555 43.732 154.17 43.3304C153.788 42.9288 153.276 42.728 152.632 42.728C152.192 42.728 151.802 42.8229 151.46 43.0128C151.118 43.2026 150.847 43.4765 150.647 43.8343C150.451 44.1884 150.353 44.6101 150.353 45.0993Z" fill="white"/>
<path d="M161.66 50.5321C160.879 50.5321 160.203 50.3495 159.632 49.9844C159.061 49.6157 158.62 49.1063 158.307 48.4565C157.998 47.8029 157.844 47.0508 157.844 46.2001C157.844 45.3531 157.998 44.601 158.307 43.9438C158.62 43.283 159.05 42.7663 159.599 42.3939C160.152 42.0179 160.79 41.8299 161.513 41.8299C161.968 41.8299 162.406 41.9138 162.827 42.0818C163.249 42.2461 163.627 42.4998 163.962 42.843C164.3 43.1826 164.567 43.6116 164.763 44.13C164.959 44.6448 165.058 45.2545 165.058 45.9592V46.4411H158.514V45.5813H164.065C164.065 45.0409 163.956 44.5553 163.738 44.1245C163.523 43.6901 163.224 43.3469 162.838 43.0949C162.457 42.843 162.015 42.7171 161.513 42.7171C160.983 42.7171 160.515 42.8594 160.112 43.1442C159.708 43.429 159.392 43.8051 159.163 44.2724C158.938 44.7397 158.823 45.2509 158.82 45.8058V46.3206C158.82 46.9887 158.934 47.5729 159.163 48.0731C159.396 48.5696 159.725 48.9548 160.15 49.2286C160.575 49.5025 161.079 49.6394 161.66 49.6394C162.057 49.6394 162.404 49.5773 162.702 49.4532C163.004 49.329 163.256 49.1629 163.46 48.9548C163.667 48.7431 163.823 48.5112 163.929 48.2593L164.85 48.5605C164.723 48.9147 164.514 49.2414 164.223 49.5408C163.936 49.8402 163.576 50.0812 163.144 50.2637C162.715 50.4426 162.22 50.5321 161.66 50.5321ZM161.012 40.7784L162.408 38.292H163.558L161.884 40.7784H161.012Z" fill="white"/>
<path d="M167.196 50.3568V41.9449H168.14V43.2373H168.227C168.394 42.8029 168.672 42.4615 169.061 42.2132C169.454 41.9613 169.925 41.8353 170.473 41.8353C171.051 41.8353 171.526 41.9723 171.897 42.2461C172.271 42.5163 172.551 42.8887 172.736 43.3633H172.807C172.996 42.896 173.303 42.5254 173.729 42.2516C174.158 41.9741 174.677 41.8353 175.288 41.8353C176.066 41.8353 176.68 42.0818 177.131 42.5747C177.582 43.0639 177.807 43.7795 177.807 44.7215V50.3568H176.837V44.7215C176.837 44.057 176.668 43.5586 176.33 43.2264C175.992 42.8941 175.546 42.728 174.994 42.728C174.354 42.728 173.861 42.9252 173.516 43.3195C173.171 43.7138 172.998 44.214 172.998 44.82V50.3568H172.006V44.6338C172.006 44.0643 171.848 43.6043 171.531 43.2538C171.215 42.9033 170.77 42.728 170.195 42.728C169.81 42.728 169.463 42.8229 169.154 43.0128C168.849 43.2026 168.607 43.4673 168.429 43.8069C168.254 44.1428 168.167 44.5298 168.167 44.9679V50.3568H167.196Z" fill="white"/>
<path d="M182.716 50.5485C182.211 50.5485 181.749 50.4499 181.331 50.2528C180.913 50.0519 180.58 49.7635 180.333 49.3875C180.086 49.0078 179.962 48.5477 179.962 48.0074C179.962 47.5912 180.041 47.2407 180.197 46.9559C180.353 46.6711 180.575 46.4374 180.862 46.2549C181.149 46.0723 181.489 45.9281 181.882 45.8222C182.274 45.7164 182.707 45.6342 183.18 45.5758C183.648 45.5174 184.045 45.4663 184.368 45.4225C184.695 45.3786 184.944 45.3093 185.115 45.2143C185.286 45.1194 185.372 44.9661 185.372 44.7543V44.5572C185.372 43.984 185.201 43.5331 184.859 43.2045C184.521 42.8722 184.034 42.7061 183.398 42.7061C182.794 42.7061 182.302 42.8394 181.92 43.1059C181.542 43.3724 181.277 43.6864 181.124 44.0479L180.202 43.7138C180.391 43.2538 180.653 42.8868 180.988 42.613C181.322 42.3355 181.696 42.1365 182.111 42.0161C182.525 41.8919 182.945 41.8299 183.37 41.8299C183.69 41.8299 184.023 41.8718 184.368 41.9558C184.717 42.0398 185.041 42.1858 185.339 42.3939C185.637 42.5984 185.879 42.885 186.064 43.2538C186.249 43.6189 186.342 44.0825 186.342 44.6448V50.3568H185.372V49.026H185.312C185.195 49.2743 185.023 49.5152 184.794 49.7489C184.565 49.9826 184.277 50.1743 183.932 50.3239C183.587 50.4736 183.181 50.5485 182.716 50.5485ZM182.847 49.6558C183.363 49.6558 183.81 49.5408 184.188 49.3108C184.566 49.0808 184.857 48.7759 185.061 48.3962C185.268 48.0129 185.372 47.5912 185.372 47.1311V45.9153C185.299 45.9847 185.177 46.0468 185.006 46.1015C184.839 46.1563 184.645 46.2056 184.423 46.2494C184.205 46.2896 183.987 46.3243 183.768 46.3535C183.55 46.3827 183.354 46.4082 183.18 46.4301C182.707 46.4886 182.303 46.5798 181.969 46.704C181.635 46.8281 181.378 46.9997 181.2 47.2188C181.022 47.4342 180.933 47.7116 180.933 48.0512C180.933 48.5623 181.115 48.9585 181.478 49.2396C181.842 49.5171 182.298 49.6558 182.847 49.6558Z" fill="white"/>
<path d="M194.551 43.7905L193.662 44.0424C193.575 43.7905 193.452 43.5623 193.292 43.3578C193.132 43.1534 192.923 42.9909 192.665 42.8704C192.41 42.7499 192.094 42.6897 191.716 42.6897C191.149 42.6897 190.683 42.8248 190.32 43.0949C189.956 43.3651 189.775 43.7138 189.775 44.141C189.775 44.5024 189.898 44.7963 190.145 45.0227C190.396 45.2454 190.782 45.4225 191.301 45.5539L192.566 45.8661C193.268 46.0377 193.793 46.3097 194.142 46.6821C194.495 47.0545 194.671 47.5218 194.671 48.084C194.671 48.5587 194.54 48.9804 194.279 49.3491C194.017 49.7179 193.651 50.0081 193.183 50.2199C192.717 50.428 192.177 50.5321 191.563 50.5321C190.745 50.5321 190.071 50.3477 189.54 49.9789C189.009 49.6065 188.67 49.0698 188.52 48.3688L189.453 48.1388C189.573 48.639 189.807 49.0169 190.156 49.2725C190.509 49.528 190.972 49.6558 191.547 49.6558C192.19 49.6558 192.705 49.5116 193.09 49.2232C193.475 48.9311 193.668 48.566 193.668 48.1279C193.668 47.7883 193.555 47.5035 193.33 47.2735C193.104 47.0399 192.763 46.8683 192.305 46.7587L190.936 46.4301C190.209 46.2549 189.671 45.9774 189.322 45.5977C188.973 45.218 188.799 44.747 188.799 44.1848C188.799 43.7211 188.924 43.314 189.175 42.9635C189.426 42.6094 189.771 42.3319 190.211 42.1311C190.651 41.9303 191.152 41.8299 191.716 41.8299C192.483 41.8299 193.095 42.0051 193.553 42.3556C194.015 42.7025 194.348 43.1807 194.551 43.7905Z" fill="white"/>
</svg>
