<svg width="10" height="13" viewBox="0 0 10 13" fill="none" xmlns="http://www.w3.org/2000/svg">
<path d="M8.66995 10.7905C8.36831 10.905 8.02094 10.7809 7.87154 10.504L7.8711 10.5041C7.59535 9.99732 6.97382 9.76613 6.42932 9.97277C5.88481 10.1794 5.57126 10.7597 5.70309 11.3269C5.77647 11.6384 5.60204 11.9548 5.29584 12.071L4.55221 12.3532C4.08563 12.5303 3.55574 12.292 3.37866 11.8254L0.0585648 3.07685C-0.118507 2.61027 0.119836 2.08037 0.586423 1.9033L1.33005 1.62109C1.63169 1.50662 1.97905 1.63074 2.12845 1.90766C2.40419 2.41447 3.02572 2.64566 3.57022 2.43902C4.11473 2.23238 4.42829 1.65206 4.29645 1.0849C4.22307 0.773389 4.39751 0.456977 4.70371 0.340773L5.44733 0.0585647C5.91392 -0.118507 6.44381 0.119836 6.62088 0.586423L9.94144 9.33476C10.1185 9.80135 9.88016 10.3312 9.41357 10.5083L8.66995 10.7905Z" fill="#25303B"/>
<path d="M6.10774 5.11805C6.08531 5.12516 6.06331 5.13358 6.04188 5.14327C6.03734 5.14117 6.03342 5.14057 6.03372 5.13637C6.03976 5.11595 5.94307 5.20543 5.93824 5.1706C5.93492 5.16489 5.94247 5.1724 5.92887 5.16879C5.96422 5.1736 5.71132 5.25317 5.71132 5.24866C5.70548 5.23661 5.70303 5.2232 5.70426 5.20987C5.70548 5.19655 5.71032 5.1838 5.71827 5.173C5.73821 5.12346 5.67477 5.0529 5.69864 5.07241C5.69481 5.06944 5.69171 5.06563 5.68958 5.06129C5.68745 5.05695 5.68634 5.05218 5.68634 5.04734C5.68634 5.04251 5.68745 5.03774 5.68958 5.0334C5.69171 5.02905 5.69481 5.02525 5.69864 5.02227C5.70982 5.02978 5.69864 5.01987 5.70498 4.99765C5.71223 4.99345 5.69229 4.96763 5.71012 4.97483C5.72613 4.97063 5.75242 4.88206 5.73398 4.8181C5.69229 4.72262 5.70982 4.02934 5.73127 4.05607C5.73822 4.00833 5.6938 3.9732 5.71525 3.93777C5.71707 3.90174 5.68141 3.90024 5.68504 3.87592C5.66661 3.80235 5.56418 3.80325 5.57415 3.78824C5.51946 3.79995 5.31733 4.12302 5.31551 4.13113C5.3279 4.11912 5.17924 4.3413 5.18226 4.34281C5.16564 4.3386 5.14722 4.36773 5.14359 4.40105C5.14359 4.40496 5.05899 4.50674 5.06836 4.48663C5.03814 4.53407 5.00611 4.5794 4.98013 4.62744C5.00007 4.61453 4.94326 4.66708 4.94991 4.66527C4.95354 4.65957 4.88767 4.82231 4.88767 4.80789C4.89402 4.78598 4.8073 4.88746 4.79703 4.88896C4.7786 4.96222 4.50334 4.78177 4.4982 4.6992C4.4982 4.6959 4.49277 4.62204 4.4553 4.61333C4.47162 4.62744 4.25981 4.43528 4.27582 4.4506C4.16463 4.30407 4.07732 4.30798 3.91325 4.16566C3.89701 4.12119 3.87486 4.07908 3.84738 4.04045C3.78514 4.05577 3.70174 4.15155 3.71927 4.17527C3.69238 4.18577 3.68694 4.15275 3.67757 4.14134C3.6685 4.17767 3.70446 4.38634 3.70446 4.38634C3.70054 4.41637 3.71866 4.5704 3.72531 4.54728L3.7371 4.56109C3.7371 4.56109 3.71866 4.58391 3.74132 4.59862C3.76701 4.64336 3.81807 4.67458 3.79994 4.73583C3.77788 4.74724 3.80266 4.82831 3.79994 4.80129C3.77365 4.9298 4.07519 5.17 4.0338 5.33964C4.01476 5.35465 4.09122 5.44563 4.0752 5.44112C4.04952 5.47115 3.97156 5.49096 3.91687 5.50538C3.90116 5.51438 3.88454 5.50538 3.86732 5.50087C3.8501 5.49637 3.71443 5.44262 3.67576 5.47025C3.67576 5.47415 3.56245 5.44413 3.56185 5.44893C3.58179 5.42641 3.43344 5.47895 3.4561 5.43272C3.46577 5.39518 3.32708 5.47175 3.36123 5.45133C3.35881 5.45283 3.30079 5.48556 3.30231 5.47565C3.30382 5.46574 3.24913 5.47565 3.26182 5.47775C3.25396 5.47535 3.19534 5.45824 3.2038 5.46424C3.17087 5.44262 3.16452 5.47175 3.12585 5.45283C3.10868 5.45961 3.09018 5.46238 3.07177 5.46094C3.06905 5.46094 2.98415 5.46424 2.98415 5.46094C2.9914 5.45794 2.91102 5.48436 2.90528 5.46334C2.90861 5.45944 2.84213 5.50988 2.8231 5.47865C2.83186 5.45343 2.74877 5.49967 2.73517 5.50147C2.72158 5.50327 2.68351 5.48166 2.69166 5.49487C2.68471 5.49847 2.63305 5.56182 2.63305 5.56182C2.64272 5.56483 2.91797 5.7702 2.87477 5.73807C2.90737 5.76272 2.94159 5.78519 2.97719 5.80533C2.96541 5.83535 3.08355 5.80713 3.06482 5.87348C3.1742 5.80893 3.39899 6.10978 3.47815 6.06234C3.48752 6.06234 3.52136 6.11458 3.53284 6.11038C3.51502 6.09537 3.58965 6.135 3.56578 6.1332C3.57666 6.14551 3.57303 6.14101 3.60868 6.17824C3.69933 6.17434 3.73679 6.2479 3.7664 6.27252C3.86551 6.46137 3.45549 6.64333 3.42014 6.73881C3.42014 6.74361 3.42014 6.74781 3.41289 6.74601C3.41772 6.75052 3.35639 6.77303 3.34883 6.80276L3.2863 6.88143C3.23191 6.86581 3.09292 7.085 3.03642 7.11292L2.90317 7.17447C2.89197 7.18572 2.88185 7.19798 2.87295 7.2111C2.86241 7.22979 2.84736 7.24558 2.82914 7.25704C2.79591 7.28396 2.76423 7.31273 2.73427 7.34321L2.71372 7.38194L2.74666 7.39636C2.73697 7.40705 2.72874 7.41896 2.72218 7.43178C2.71735 7.44109 2.70587 7.46842 2.73185 7.47442C2.75784 7.48043 2.77354 7.48043 2.77989 7.49334C2.78623 7.50625 2.8935 7.51375 2.90226 7.51225C2.91102 7.51075 2.96269 7.48613 2.96269 7.48613C3.01406 7.46962 3.18266 7.47202 3.20441 7.48913C3.20048 7.48913 3.44975 7.42908 3.4567 7.40807C3.46486 7.40807 3.60989 7.35792 3.60989 7.35792C3.64947 7.33901 3.74072 7.32429 3.76973 7.29187C3.74193 7.29697 3.88666 7.24743 3.92775 7.26725C3.94044 7.27415 4.29033 7.20209 4.30151 7.15736C4.30936 7.1586 4.31666 7.1621 4.32252 7.16744C4.32838 7.17278 4.33252 7.17972 4.33444 7.18738C4.32598 7.23332 4.33444 7.36033 4.31571 7.38254C4.31571 7.36453 4.26706 7.41557 4.28368 7.44259C4.31873 7.4531 4.31722 7.44079 4.33897 7.49184C4.3284 7.46812 4.34139 7.59482 4.33897 7.64196C4.34079 7.66568 4.37946 7.74615 4.3148 7.77767C4.30328 7.80302 4.29048 7.82778 4.27643 7.85184C4.28157 7.81491 4.28157 7.87105 4.27432 7.86054C4.30725 7.84463 4.29758 7.94461 4.29002 7.95662C4.29667 7.94041 4.2728 7.97554 4.27069 7.96413C4.21751 8.06682 4.329 8.07793 4.26494 8.08964C4.29214 8.09774 4.30665 8.23466 4.30514 8.21424C4.31125 8.25919 4.30722 8.30493 4.29335 8.34815C4.28398 8.31813 4.26827 8.40039 4.2728 8.42261C4.28398 8.47335 4.258 8.57064 4.30725 8.59316C4.3 8.57274 4.34411 8.64029 4.34411 8.64029C4.45923 8.68833 4.48793 8.53851 4.53869 8.51509C4.55652 8.51119 4.57616 8.44213 4.59308 8.44813C4.59308 8.44213 4.66378 8.11365 4.71726 8.13017C4.71454 8.13017 4.80609 7.99596 4.82422 7.93801C4.82422 7.94191 4.78041 7.89027 4.87287 7.85093C4.91698 7.86535 4.93813 7.74765 4.94931 7.68009C4.95203 7.64196 4.97953 7.66058 4.98406 7.62004C5.0223 7.56583 5.05281 7.50662 5.0747 7.4441C5.08739 7.4456 5.08951 7.38405 5.09857 7.39245C5.07349 7.37083 5.12032 7.34591 5.11428 7.327C5.12274 7.29457 5.12002 7.26695 5.13452 7.26695C5.14782 7.20329 5.18801 7.23092 5.19707 7.23692C5.21581 7.24773 5.24209 7.23152 5.24511 7.27866C5.22668 7.30238 5.30554 7.3246 5.29799 7.33871C5.29557 7.3273 5.67053 7.76656 5.77387 7.85064C5.7787 7.85514 6.06907 8.14128 6.05638 8.13857C6.08871 8.15419 6.1153 8.21244 6.11681 8.20823C6.10412 8.22685 6.1715 8.25808 6.18389 8.25808C6.2277 8.33404 6.22981 8.31812 6.25368 8.30521C6.26093 8.33914 6.31924 8.32293 6.3407 8.33524C6.33465 8.31873 6.38663 8.30521 6.37545 8.286C6.39116 8.2917 6.36457 8.22415 6.37907 8.23225C6.36034 8.20043 6.25066 8.05511 6.25821 8.02808C6.26063 8.01938 6.27423 8.02298 6.28208 8.02418C6.28208 8.01577 6.26788 8.00707 6.26063 8.00076C6.28077 8.00076 6.28531 7.98995 6.27423 7.96833C6.25459 7.97944 6.22739 7.85514 6.24401 7.83772C6.25126 7.8062 6.15337 7.41737 6.10896 7.37924C6.10604 7.34327 6.09956 7.30766 6.08962 7.27295C6.01347 7.22581 6.07632 7.13213 6.02375 7.11532C6.01196 7.13814 5.95757 7.04987 5.94972 6.97661C5.92434 6.93037 5.94972 6.82047 5.93189 6.83699C5.91769 6.82047 6.01015 6.78084 6.03402 6.83188C6.23132 6.90544 6.6081 6.78264 6.74437 6.88773C6.7764 6.82768 6.84921 6.87422 6.80993 6.86251C6.80389 6.87002 6.81719 6.87422 6.82565 6.87662C6.80752 6.87272 6.95829 6.86251 6.98125 6.87452C6.92324 6.86071 7.06615 6.87002 7.06072 6.86761C7.00965 6.8568 7.16254 6.88623 7.3254 6.78595C7.38372 6.76793 7.37283 6.73791 7.39731 6.68206C7.38734 6.7298 7.41272 6.63492 7.36287 6.60459C7.07522 6.53283 6.84589 6.32206 6.55885 6.247C6.44766 6.22358 6.26758 5.95305 6.1718 5.96986C6.34613 5.7732 6.51474 5.57654 6.69361 5.4093C6.73077 5.37537 7.08912 4.98985 7.08912 4.99465C7.10302 4.97483 7.12296 4.91118 7.12114 4.9385C7.12069 4.92572 7.11614 4.91341 7.10815 4.90337C7.10815 4.90818 6.97309 4.80399 6.93834 4.86884C6.98548 4.89887 6.84166 4.90818 6.80752 4.91598C6.80338 4.91863 6.79866 4.92022 6.79377 4.92064C6.78887 4.92106 6.78394 4.92029 6.77942 4.91839C6.74316 4.90998 6.69632 4.94991 6.67276 4.95562C6.62018 4.90908 6.48815 4.99555 6.42832 5.01567C6.40412 5.01519 6.37999 5.01298 6.35611 5.00906C6.33647 5.04179 6.33677 5.03248 6.34191 5.02948C6.3102 5.05011 6.27572 5.06618 6.23948 5.07722C6.24794 5.08022 6.19537 5.10214 6.17542 5.09764C6.17724 5.10634 6.16727 5.13066 6.13615 5.12526C6.11288 5.11835 6.1162 5.10995 6.10774 5.11835" fill="#E42313"/>
</svg>
