<svg width="161" height="92" viewBox="0 0 161 92" fill="none" xmlns="http://www.w3.org/2000/svg">
<path d="M71.24 36H62.36V32H75.56V35.84L68.68 60H64.2L71.24 36Z" fill="white"/>
<path d="M85.0956 60.4C82.9623 60.4 81.3356 59.8 80.2156 58.6C79.0956 57.3733 78.5356 55.6267 78.5356 53.36V51.16H82.6956V53.68C82.6956 55.4933 83.4556 56.4 84.9756 56.4C86.4956 56.4 87.2556 55.4933 87.2556 53.68V47.4C87.2556 45.56 86.4956 44.64 84.9756 44.64C83.4556 44.64 82.6956 45.56 82.6956 47.4V47.64H78.5356L79.3356 32H90.9356V36H83.2556L82.8956 42.68H82.9756C83.8023 41.32 85.069 40.64 86.7756 40.64C88.3756 40.64 89.589 41.1867 90.4156 42.28C91.2423 43.3733 91.6556 44.96 91.6556 47.04V53.36C91.6556 55.6267 91.0956 57.3733 89.9756 58.6C88.8556 59.8 87.229 60.4 85.0956 60.4Z" fill="white"/>
<path d="M63.1858 4.11397L63.2096 4.10144L65.1363 3.0872L65.6092 2.83827L66.1425 2.80444C68.4449 2.65836 69.6758 2.7523 70.8125 2.90445C70.9923 2.92852 71.162 2.95274 71.328 2.97642C72.1106 3.08809 72.8103 3.18793 74.1025 3.20559L63.1858 4.11397ZM63.1858 4.11397L63.1623 4.12702M63.1858 4.11397L63.1623 4.12702M63.1623 4.12702L56.9639 7.56223L56.9044 7.59524M63.1623 4.12702L56.9044 7.59524M56.9044 7.59524L56.8467 7.63145M56.9044 7.59524L56.8467 7.63145M56.8467 7.63145C56.6855 7.73264 56.5047 7.84366 56.3128 7.9615C55.8416 8.25089 55.3035 8.58138 54.8238 8.90838L54.8233 8.90871M56.8467 7.63145L54.8233 8.90871M54.8233 8.90871C53.0327 10.13 52.073 11.133 51.2805 11.9614M54.8233 8.90871L51.2805 11.9614M20.4816 27.6059L20.4824 27.6062C20.7199 27.6796 21.0592 27.7976 21.3919 27.9132C21.5625 27.9725 21.7314 28.0312 21.8839 28.083C22.4038 28.2595 22.9291 28.426 23.409 28.5428C23.4309 28.5481 23.4524 28.5533 23.4735 28.5583C23.5723 28.1705 23.7357 27.6362 24.0253 27.12C25.0505 25.2926 26.9724 24.6104 29.4081 24.4823L20.4816 27.6059ZM20.4816 27.6059C18.9888 27.1451 17.607 27.4759 16.5316 28.0044C15.4907 28.5159 14.5865 29.2801 13.8565 29.9891C13.1277 30.6969 12.4452 31.4782 11.8822 32.1227L11.8532 32.1559C11.2373 32.861 10.8098 33.3443 10.4706 33.6508L10.4705 33.651M20.4816 27.6059L10.4705 33.651M10.4705 33.651C9.68197 34.3638 8.88041 35.4621 8.2602 36.4151C7.61561 37.4055 7.00184 38.4963 6.63086 39.3405L6.63062 39.3411M10.4705 33.651L6.63062 39.3411M6.63062 39.3411C5.29506 42.3823 3.72866 46.4036 3.18256 49.9282L2.93786 51.5074M6.63062 39.3411L2.93786 51.5074M2.93786 51.5074L4.26847 52.3925M2.93786 51.5074L4.26847 52.3925M4.26847 52.3925C5.2152 53.0223 6.02395 53.579 6.74274 54.0738C7.88002 54.8568 8.7921 55.4846 9.66923 56.0014C11.2485 56.9318 12.8594 57.6124 15.7751 58.6206M4.26847 52.3925L15.7751 58.6206M32.7729 73.074C32.6085 72.9776 32.4513 72.8867 32.301 72.7998C30.4661 71.7385 29.6817 71.2848 29.6817 69.0697C29.6817 66.5386 28.1142 66.1846 26.9507 65.9219C26.4241 65.803 25.9802 65.7028 25.802 65.4279M32.7729 73.074L23.7043 66.7879M32.7729 73.074C34.2947 73.9652 35.5227 73.7099 36.871 73.4296C37.9617 73.2029 39.131 72.9598 40.5981 73.2941C42.0149 73.6169 43.3478 73.7352 44.6911 73.8544L44.6913 73.8544C46.28 73.9954 47.8834 74.1376 49.6577 74.6211C50.1701 74.7604 50.5431 74.8348 50.8734 74.9007C51.5442 75.0345 52.0386 75.1331 53.1665 75.6697M32.7729 73.074L23.7044 66.7881M25.802 65.4279C24.9586 64.1274 25.2948 63.1215 25.5933 62.2283C25.9355 61.2043 26.2282 60.3283 24.6374 59.3264C23.774 58.7825 17.9344 56.7221 16.5921 56.2579M25.802 65.4279L23.7043 66.7879M25.802 65.4279L23.7044 66.7881M16.5921 56.2579L15.775 58.6206C15.7751 58.6206 15.7751 58.6206 15.7751 58.6206M16.5921 56.2579L15.7751 58.6206M16.5921 56.2579L15.7751 58.6206M15.7751 58.6206C16.4343 58.8486 18.2128 59.4738 19.9281 60.1074C20.7872 60.4247 21.6152 60.7386 22.2736 61.0028C22.8016 61.2148 23.1021 61.3493 23.2305 61.408M23.2305 61.408C23.097 61.7993 22.8383 62.5652 22.7812 63.3874C22.7051 64.4824 22.9559 65.6338 23.7043 66.7879M23.2305 61.408C23.2501 61.417 23.2657 61.4241 23.2775 61.4296C23.2995 61.4397 23.3082 61.4438 23.3049 61.4417L23.3051 61.4418C23.473 61.5475 23.5432 61.6111 23.5598 61.6273M23.2305 61.408C23.2323 61.4029 23.234 61.3979 23.2357 61.3929C23.2536 61.3406 23.269 61.2954 23.2811 61.2581C23.3521 61.0407 23.3666 60.9552 23.3676 60.9553C23.3688 60.9555 23.3487 61.0906 23.392 61.2689C23.3941 61.2772 23.3961 61.2854 23.3983 61.2935C23.3983 61.2936 23.3983 61.2937 23.3984 61.2938C23.4528 61.4985 23.5402 61.6056 23.5598 61.6273M23.7043 66.7879L23.7044 66.7881M23.5598 61.6273C23.5625 61.6301 23.5638 61.6314 23.5637 61.6315C23.5637 61.6315 23.5623 61.6301 23.5598 61.6273ZM23.7044 66.7881C24.1339 67.4504 24.7187 67.7888 25.0913 67.9596C25.4623 68.1296 25.8297 68.2253 26.0555 68.2805C26.266 68.332 26.4221 68.3671 26.5474 68.3953C26.7772 68.4469 26.9031 68.4752 27.0703 68.5386C27.0945 68.5478 27.1141 68.5559 27.1297 68.5628M53.1665 75.6697L52.0922 77.9271M53.1665 75.6697L52.0924 77.9272C52.0924 77.9272 52.0923 77.9272 52.0922 77.9271M53.1665 75.6697C53.8803 76.0094 54.5479 76.2329 55.2378 76.4638L55.2378 76.4638C56.1954 76.7844 57.1958 77.1193 58.4223 77.7994C59.4028 78.343 61.6724 79.1384 63.8563 79.9038L63.8564 79.9039L63.8565 79.9039L63.8566 79.904L63.8567 79.904C66.2647 80.748 68.5685 81.5554 68.9248 81.9483L72.75 85.5222C76.1417 86.1477 78.405 86.3291 81.8169 86.2451C82.504 86.2281 83.1329 86.3382 83.8387 86.4616C84.8412 86.6369 85.9987 86.8394 87.6982 86.7437C91.2252 86.5448 96.5231 83.349 101.225 80.5131C103.581 79.0914 105.788 77.7601 107.547 76.9421C108.518 76.4905 109.324 76.0629 110.029 75.6895C113.1 74.0611 114.23 73.4617 118.6 76.3823M52.0922 77.9271C51.3857 77.591 51.0684 77.5012 50.8004 77.4393C50.7507 77.4278 50.6641 77.4104 50.55 77.3874C50.2013 77.3171 49.5955 77.195 49.0015 77.0334L49.0004 77.0331C47.5913 76.6492 46.2879 76.5078 44.8356 76.3772C44.7106 76.3659 44.5839 76.3547 44.4556 76.3434C43.1312 76.2264 41.6337 76.0941 40.0427 75.7316C39.1274 75.5231 38.4728 75.6562 37.3565 75.8832C37.2357 75.9078 37.1094 75.9335 36.9769 75.9599C35.5875 76.2372 33.6904 76.5085 31.5095 75.2312L31.5093 75.2311C31.3772 75.1537 31.239 75.0738 31.0989 74.9928C30.7329 74.781 30.354 74.5619 30.0363 74.3608C29.5746 74.0687 29.0441 73.6962 28.5762 73.1897C27.4873 72.0112 27.1817 70.6107 27.1817 69.0697C27.1817 68.796 27.1516 68.6397 27.1297 68.5628M52.0922 77.9271L67.3299 83.8796M27.1297 68.5628C27.157 68.575 27.1718 68.5833 27.1778 68.587M27.1297 68.5628C27.1226 68.5382 27.1164 68.5217 27.1123 68.5122M27.1778 68.587C27.1798 68.5884 27.1809 68.5891 27.1809 68.5891C27.181 68.5891 27.18 68.5883 27.1778 68.587ZM27.1778 68.587C27.1699 68.5812 27.148 68.5634 27.1244 68.5306C27.119 68.5231 27.115 68.5169 27.1123 68.5122M27.1123 68.5122C27.1091 68.505 27.1072 68.5017 27.107 68.5019C27.1068 68.5021 27.1084 68.5057 27.1123 68.5122ZM118.6 76.3823L117.211 78.4607C117.211 78.4607 117.211 78.4607 117.211 78.4607M118.6 76.3823L117.211 78.4607M118.6 76.3823C119.391 76.911 120.671 76.9255 122.211 76.9429C124.533 76.9692 127.446 77.0022 130.16 78.8167M117.211 78.4607C114.6 76.716 113.887 76.7829 113.498 76.8601C113.158 76.9275 112.719 77.1047 111.866 77.5475C111.677 77.6457 111.468 77.7562 111.242 77.8764C110.529 78.2541 109.638 78.7267 108.602 79.2088L108.602 79.2089C106.962 79.9713 104.958 81.1812 102.688 82.5511C101.49 83.2748 100.217 84.043 98.885 84.8136C97.0359 85.8833 95.1193 86.9241 93.2935 87.7217C91.5058 88.5026 89.608 89.1399 87.839 89.2397L87.8388 89.2397C86.1418 89.3353 84.8895 89.1738 83.8839 89.0061C83.674 88.9711 83.4894 88.9392 83.3243 88.9108C82.6486 88.7942 82.2996 88.734 81.8787 88.7444L81.8785 88.7444C78.2914 88.8327 75.8555 88.637 72.2966 87.9807L71.5776 87.8481L71.0433 87.3489L67.3299 83.8796M117.211 78.4607C118.291 79.183 119.557 79.3336 120.443 79.3924C120.978 79.4279 121.672 79.4368 122.317 79.4451C122.692 79.4499 123.051 79.4545 123.352 79.464C125.284 79.525 127.103 79.7804 128.771 80.8951L130.16 78.8167M67.3299 83.8796C67.3832 83.9063 67.4081 83.9206 67.4117 83.9227L67.4119 83.9228C67.4086 83.9208 67.3779 83.902 67.3306 83.8661C67.308 83.849 67.2687 83.8183 67.2193 83.7738C67.1766 83.7355 67.1264 83.6868 67.0728 83.6276L67.1424 83.7044L67.2181 83.7751L67.3299 83.8796ZM130.16 78.8167C130.722 79.1921 131.177 79.507 131.561 79.7727L131.561 79.7728L131.561 79.7729C132.449 80.3869 132.957 80.7382 133.516 80.9648C134.263 81.268 135.1 81.3482 137.058 81.5357L137.435 81.5719M130.16 78.8167L128.771 80.8951C129.363 81.2909 129.736 81.5495 130.076 81.7856C130.321 81.9557 130.55 82.1141 130.831 82.3037C131.366 82.6639 131.914 83.0104 132.559 83.2744C133.669 83.7284 134.904 83.8445 136.623 84.0062C136.807 84.0235 136.997 84.0413 137.193 84.0601M137.435 81.5719L124.315 66.9197C124.304 66.9118 124.292 66.904 124.279 66.8961C124.261 66.8849 124.243 66.874 124.225 66.8634C124.087 66.7836 123.933 66.7223 123.77 66.6853C123.406 66.6025 123.146 66.6716 123.097 66.6857C123.087 66.6886 123.082 66.6904 123.083 66.6897C123.087 66.6879 123.137 66.6682 123.265 66.6039C123.364 66.5543 123.414 66.5273 123.551 66.4578C123.661 66.4016 123.802 66.3312 123.955 66.2625L123.994 66.2452L124.033 66.2292C124.242 66.1437 124.435 66.0608 124.615 65.9807L122.58 65.2666M137.435 81.5719C138.119 81.6377 138.992 82.1084 139.888 82.5913C140.844 83.1072 141.827 83.6369 142.633 83.7015C142.929 83.7252 143.191 83.8068 143.502 83.9032C144.086 84.0846 144.839 84.3185 146.3 84.3185C150.817 84.3185 153.041 83.2563 153.888 78.6137C154.02 77.8891 154.121 77.5014 154.196 77.2116L154.196 77.2113L154.196 77.2107L154.196 77.2104C154.347 76.6258 154.395 76.4393 154.395 74.6848C154.395 73.7397 154.674 72.7053 154.968 71.6094C155.644 69.0954 156.407 66.2573 154.1 63.4294M137.435 81.5719L154.1 63.4294M137.193 84.0601C137.182 84.059 137.176 84.0583 137.176 84.0587C137.176 84.0605 137.297 84.087 137.59 84.2204C137.913 84.3673 138.27 84.5595 138.733 84.809L138.794 84.8417C139.247 85.0858 139.805 85.3855 140.368 85.6291C140.909 85.8638 141.632 86.1274 142.422 86.1926M137.193 84.0601C137.193 84.0602 137.194 84.0603 137.195 84.0604L137.195 84.0604C137.194 84.0603 137.193 84.0602 137.193 84.0601ZM142.422 86.1926C142.435 86.1953 142.472 86.2038 142.55 86.2264C142.557 86.2284 142.582 86.2363 142.62 86.248C142.765 86.2926 143.093 86.3935 143.285 86.4463C144.023 86.6489 144.949 86.8185 146.3 86.8185C148.644 86.8185 150.998 86.5697 152.89 85.2651C154.894 83.8829 155.867 81.6962 156.348 79.0623C156.438 78.5693 156.508 78.2663 156.562 78.0502C156.571 78.0133 156.583 77.9668 156.597 77.9137C156.641 77.7438 156.702 77.507 156.742 77.3079C156.876 76.6435 156.895 75.9608 156.895 74.6848C156.895 74.2599 157.003 73.6981 157.234 72.8163C157.275 72.6601 157.32 72.4918 157.368 72.3138C157.561 71.5968 157.797 70.7218 157.952 69.8493C158.368 67.5029 158.311 64.6358 156.037 61.8489M142.422 86.1926C142.412 86.1905 142.418 86.1923 142.433 86.1935M142.422 86.1926C142.426 86.1929 142.429 86.1932 142.433 86.1935M156.037 61.8489C155.185 60.8044 154.093 60.2822 153.131 59.9871C152.273 59.7237 151.336 59.5917 150.59 59.4866C150.543 59.4799 150.496 59.4733 150.451 59.4669C148.736 59.2239 147.543 58.9971 146.555 58.2329M156.037 61.8489L154.1 63.4294M156.037 61.8489C156.037 61.849 156.037 61.8491 156.037 61.8492L154.1 63.4294M146.555 58.2329C146.555 58.2328 146.555 58.2328 146.555 58.2327L145.026 60.2106L146.555 58.2329ZM146.555 58.2329C144.904 56.9562 143.054 56.4064 141.164 56.6775C139.353 56.937 137.811 57.9044 136.577 59.064L136.577 59.0641C135.351 60.217 134.786 60.2431 134.744 60.2441L134.741 60.2442C134.716 60.2454 134.592 60.2513 134.153 59.9021C134.041 59.8134 133.931 59.7203 133.79 59.6012L133.783 59.5952C133.656 59.4875 133.491 59.3477 133.322 59.2157C133.03 58.9886 132.416 58.5269 131.594 58.3486C130.548 58.1218 129.546 58.4158 128.763 59.0613C128.116 59.5949 127.673 60.3198 127.34 60.9879C127.34 60.988 127.34 60.9882 127.34 60.9883L129.578 62.1024M129.578 62.1024C129.256 62.7499 129.262 63.3596 129.268 63.9629C129.282 65.3875 129.296 66.7762 124.98 68.5429C124.844 68.6039 124.706 68.6746 124.568 68.7457L124.568 68.7457C123.911 69.0832 123.238 69.4292 122.682 68.7778C122.014 67.9966 122.254 66.1968 122.58 65.2666M129.578 62.1024C130.556 60.1383 131.238 60.716 132.187 61.5194C133.398 62.5445 135.043 63.9372 138.289 60.8858L129.578 62.1024ZM122.58 65.2666L124.615 65.9803C124.772 65.9104 124.917 65.8425 125.053 65.7769M122.58 65.2666C122.751 64.7799 122.919 64.3365 123.083 63.9048L123.083 63.9047C123.409 63.0441 123.718 62.2298 123.996 61.2102C124.088 60.8715 124.169 60.643 124.239 60.4425C124.378 60.047 124.478 59.761 124.558 58.9548C124.593 58.6002 124.622 58.2461 124.652 57.8927L124.652 57.8916C124.72 57.0889 124.787 56.2893 124.913 55.4938L124.303 50.1197M124.303 50.1197L126.798 50.2808C126.803 50.2049 126.807 50.1288 126.812 50.0524M124.303 50.1197L126.787 49.8379L126.812 50.0524M124.303 50.1197C124.58 45.8376 123.555 40.3279 122.504 36.1495L124.929 35.5403C124.929 35.5402 124.929 35.5401 124.929 35.54M126.812 50.0524L127.397 55.2121L127.435 55.5495L127.382 55.8849C127.271 56.5889 127.216 57.244 127.153 57.995C127.122 58.3671 127.089 58.7627 127.046 59.1994L127.046 59.1997C126.973 59.9406 126.873 60.4308 126.717 60.9191C126.645 61.1449 126.602 61.2647 126.566 61.364C126.517 61.4985 126.482 61.5956 126.408 61.8682L126.408 61.8689C126.098 63.0022 125.716 64.0122 125.368 64.9322C125.259 65.2224 125.152 65.5036 125.053 65.7769M126.812 50.0524C127.065 45.4034 125.974 39.6986 124.929 35.54M125.053 65.7769C125.014 65.884 124.976 65.9899 124.939 66.0946M125.053 65.7769L124.939 66.0946M124.939 66.0946C124.906 66.1905 124.86 66.3513 124.822 66.5545C124.785 66.7557 124.762 66.9603 124.757 67.143C124.753 67.3336 124.769 67.4433 124.777 67.4787C124.787 67.5258 124.764 67.3661 124.583 67.1545L124.939 66.0946ZM124.929 35.54C124.456 33.6581 124.168 32.1906 123.921 30.9333C123.884 30.7442 123.848 30.5598 123.812 30.3796C123.548 29.0457 123.282 27.7772 122.78 26.5877C121.709 24.0469 119.737 22.273 116.027 19.5101C115.122 18.8356 114.821 17.9334 114.723 16.0388C114.709 15.7696 114.699 15.4338 114.688 15.0663C114.666 14.3604 114.641 13.5376 114.579 12.8451C114.474 11.6708 114.243 10.3299 113.612 9.01705L113.612 9.01686C111.95 5.56094 109.266 4.03459 106.391 3.47552C104.27 3.06299 101.892 3.16834 99.8982 3.25668C99.4493 3.27657 99.0199 3.29559 98.6172 3.30765L124.929 35.54ZM142.433 86.1935L142.434 86.1936L142.433 86.1935ZM85.2079 2.90083L85.2082 2.90083C86.0512 2.89013 86.6879 2.94187 87.1968 2.98323C87.297 2.99137 87.3923 2.99912 87.4832 3.0059C88.0051 3.04484 88.5421 3.06958 89.4524 3.00095L85.2079 2.90083ZM85.2079 2.90083C83.58 2.92166 81.9967 2.98968 80.4581 3.05578M85.2079 2.90083L80.4581 3.05578M51.2805 11.9614C51.2088 12.0364 51.1384 12.11 51.0689 12.1821M51.2805 11.9614L51.0689 12.1821M51.0689 12.1821C50.3377 12.9414 49.648 13.6157 48.0619 14.5241M51.0689 12.1821L48.0619 14.5241M48.0619 14.5241C46.5853 15.3698 45.5851 15.9491 44.9109 16.3916M48.0619 14.5241L44.9109 16.3916M44.9109 16.3916C44.2251 16.8416 43.6268 17.3053 43.1609 17.9929M44.9109 16.3916L43.1609 17.9929M43.1609 17.9929C42.9537 18.2986 42.8121 18.5922 42.7245 18.7751M43.1609 17.9929L42.7245 18.7751M42.7245 18.7751C42.7061 18.8135 42.6888 18.8498 42.6722 18.8847M42.7245 18.7751L42.6722 18.8847M42.6722 18.8847C42.6006 19.0351 42.5414 19.1595 42.4558 19.3209M42.6722 18.8847L42.4558 19.3209M42.4558 19.3209C42.2603 19.6896 41.9029 20.2913 41.1225 21.302L42.4558 19.3209ZM94.8113 3.14548C96.3551 3.24761 97.6841 3.33554 98.6171 3.30765L94.8113 3.14548ZM94.8113 3.14548C94.6563 3.13522 94.4991 3.12482 94.3399 3.11438M94.8113 3.14548L94.3399 3.11438M94.3399 3.11438C92.7187 3.00804 90.8564 2.89487 89.4529 3.00091L94.3399 3.11438ZM80.4581 3.05578C80.1641 3.06841 79.8718 3.08097 79.5811 3.09311M80.4581 3.05578L79.5811 3.09311M79.5811 3.09311C77.7523 3.16952 75.9634 3.23096 74.1025 3.20559L79.5811 3.09311ZM24.3455 28.6853C24.3457 28.6855 24.3403 28.6862 24.3285 28.6869C24.3393 28.6855 24.3452 28.6852 24.3455 28.6853ZM41.1225 21.302C40.7563 21.7762 40.3936 22.2978 40.0902 22.7339C39.9698 22.9071 39.8587 23.0669 39.7605 23.2048C39.365 23.7602 39.0773 24.1146 38.8104 24.3583C38.5735 24.5746 38.398 24.661 38.2296 24.7034C38.0494 24.7489 37.6952 24.789 37.0436 24.6369C34.5244 24.0486 32.8124 24.2005 31.02 24.3595C30.497 24.4059 29.9671 24.4529 29.4082 24.4823L41.1225 21.302Z" stroke="#E42313" stroke-width="5"/>
</svg>
