<svg width="161" height="204" viewBox="0 0 161 204" fill="none" xmlns="http://www.w3.org/2000/svg">
<mask id="path-1-outside-1_85_711" maskUnits="userSpaceOnUse" x="-0.697266" y="0.455566" width="162" height="204" fill="black">
<rect fill="white" x="-0.697266" y="0.455566" width="162" height="204"/>
<path fill-rule="evenodd" clip-rule="evenodd" d="M31.3661 65.5894C31.2882 66.1954 31.0123 67.2946 31.6964 67.6765C32.114 67.9095 31.6555 68.5988 31.7192 69.1182C31.8158 69.9063 30.6497 70.8638 31.1583 72.1018C31.3644 72.6037 31.3776 73.2071 32.1632 72.7046C32.8018 72.2962 33.6808 72.0895 33.7501 73.1187C33.7973 73.8186 35.0385 75.3264 33.4774 75.3264C33.2406 75.3264 32.1023 75.2806 32.0147 75.4522C31.9769 75.5259 32.2837 75.9306 32.2837 76.3469C32.2837 76.5974 32.2801 76.7767 32.095 76.9623C31.3416 77.8497 31.8237 77.2625 31.1457 77.5651C31.0076 77.6268 30.541 78.4007 30.6094 78.5353C30.9999 79.3032 30.7694 78.981 31.4867 79.4007C31.7733 79.5683 31.625 80.0525 31.3399 80.2187C31.1785 80.3128 30.4763 81.2447 30.4116 81.4507C30.3732 81.5733 29.6466 82.7525 29.4869 83.1076C29.0742 84.0259 29.1721 83.8435 28.5504 84.707C28.0012 85.4696 28.2018 86.3425 29.0082 86.7936C29.5384 87.0902 29.6524 87.1951 29.0274 87.4354L28.9698 87.4491L28.6993 88.0075C28.917 88.2899 29.126 88.6213 29.4141 88.8311C30.1503 89.3669 29.9333 89.3028 30.0397 90.2116C30.1027 90.7494 30.4329 91.0215 29.7288 91.2951C29.4855 91.3897 28.9665 91.1683 28.5943 91.6936C28.1684 92.2947 28.5483 94.1255 27.0843 92.4348C26.7218 92.0162 26.1598 91.7468 25.9726 92.475C25.8532 92.9393 25.276 92.2898 24.7772 92.7686C24.4737 93.0599 25.041 93.4204 24.3158 93.8436C23.63 94.2439 24.2402 95.3361 24.468 95.8463C24.6756 96.3117 25.1682 96.1841 24.9712 97.0418C24.9173 97.2771 24.6753 97.4796 24.6932 98.0067C24.6968 98.1119 24.6416 98.9624 24.583 99.0553C24.013 99.9588 23.7637 99.8532 22.7649 100.075C22.2656 100.185 21.2361 100.279 21.9529 101.018C22.4239 101.505 22.9249 101.575 22.7793 102.401C22.7676 102.467 22.7607 102.474 22.7637 102.542C22.724 103.036 22.6266 104.004 23.4612 103.785C23.6811 103.727 24.6303 103.846 24.6303 104.262C24.6303 105.128 24.8074 106.904 24.2546 107.578C23.4353 108.576 22.4909 108.114 22.2447 108.997C22.2115 109.116 22.3105 109.864 22.2447 110.236C22.2001 110.489 22.21 111.894 22.1398 112.064C22.088 112.191 22.042 112.524 21.9194 112.781C21.6012 113.449 21.6417 113.629 21.0857 114.162C20.4898 114.732 20.2064 115.528 20.5559 116.308C20.7368 116.712 20.7137 117.791 20.5614 118.147C20.5472 118.169 20.1701 118.884 20.0581 118.959C19.7864 119.141 19.5873 118.876 19.6578 119.61C19.6956 120.003 19.9641 119.799 19.5319 120.307C19.4148 120.445 19.1562 120.794 19.1562 120.984C19.1562 121.173 19.3343 122.243 19.5337 122.259C19.7401 122.276 20.6126 122.425 20.4829 122.74C20.258 123.287 20.8485 123.869 21.1121 124.292C21.5219 124.95 21.0639 125.972 21.0037 126.692C20.9604 127.209 20.3053 127.938 19.9112 128.228C19.2847 128.689 20.0472 129.455 19.9795 129.619C19.6931 130.315 19.5754 130.057 19.946 130.878C20.3666 131.809 19.9979 131.983 20.2331 132.718C20.4337 133.345 19.0975 133.349 19.8939 134.237C20.0459 134.407 19.9881 134.437 20.079 134.59C20.088 135.625 20.1834 135.241 19.8411 136.198C19.6562 136.715 20.1546 137.107 20.121 137.626C20.1208 137.63 20.2952 138.463 20.308 138.633C20.3629 139.36 21.5646 139.398 21.9511 139.958C22.2654 140.413 22.2641 140.598 22.4928 141.1C22.8905 141.974 23.3671 142.351 24.0119 142.98C24.186 143.149 24.6648 143.659 24.7826 143.861C24.8585 143.991 25.5794 144.565 24.7981 144.406C24.3361 144.312 23.8561 144.187 23.3862 144.177C23.0627 144.17 22.9079 144.079 22.5275 144.191C21.5923 144.467 22.694 144.731 21.35 145.516C20.5333 145.992 19.9935 146.227 19.046 145.84C18.5483 145.637 18.2108 145.419 17.905 145.853C17.6805 146.172 16.486 146.372 16.4541 146.395C16.2496 146.541 16.4968 146.936 16.704 147.071C17.0457 147.295 17.6719 147.88 17.2476 148.286C16.8991 148.619 17.1224 148.728 16.393 148.971C15.8962 149.136 15.8388 149.708 14.738 149.691C14.231 149.684 13.4039 149.637 13.0481 149.978L12.948 150.09C12.7166 151.653 12.7421 151.057 12.2768 150.831C11.8464 150.622 11.8222 151.262 11.7105 151.369C11.481 151.59 10.5238 151.634 10.6181 152.397C10.6411 152.584 11.291 152.713 11.4588 152.774C11.8444 152.915 12.2559 153.024 12.2559 153.487C12.2413 153.491 12.0316 153.629 11.9532 153.654C11.2373 153.88 10.7458 154.29 10.7458 155.052C10.7458 155.753 11.2612 156.518 10.9765 156.948C10.6919 157.378 10.0741 156.678 9.31294 157.215C8.52176 157.774 7.5662 157.865 6.63969 157.689C6.09849 157.587 4.80987 157.671 5.50238 158.395C5.68413 158.586 6.11079 158.827 6.31613 159.108C6.55065 159.428 6.75256 159.894 6.83564 160.298C6.94662 160.278 7.08057 160.357 7.26511 160.592C7.32066 160.663 7.751 161.99 7.95419 162.354C8.13936 162.686 8.20303 163.074 8.45225 163.475C8.63717 163.772 8.75159 164.062 8.96404 164.396C10.2376 166.396 8.50604 166.941 9.00602 168.585C9.18155 169.162 9.20121 169.831 9.44638 170.502C9.79555 171.457 9.85529 173.044 11.2388 172.986C12.9933 172.911 12.3938 173.701 13.0246 173.786C13.5057 173.851 14.203 172.927 15.2268 173.077C15.3582 173.096 15.9515 173.555 16.1215 173.661C16.294 174.351 16.2396 174.448 16.3366 174.932C16.5668 176.081 18.1065 175.919 18.9738 175.949C19.8174 175.978 20.6744 175.653 20.1466 176.882C19.9516 177.336 19.9021 177.914 20.4755 178.051C20.7227 178.11 21.5821 178.014 21.5483 178.107C21.348 178.654 21.407 178.64 21.0695 179.215C20.4414 180.285 21.8404 180.109 21.6429 181.568C21.5544 182.222 22.1336 182.51 22.099 183.511C22.077 184.149 22.4554 184.386 21.5674 184.651C20.7302 184.901 21.6407 185.529 21.5903 185.768C21.483 186.275 20.3478 186.664 20.9154 187.255C21.2152 187.567 21.2109 187.772 21.302 188.174C21.134 189.095 21.2049 189.16 21.2391 189.955C21.2626 190.504 20.7809 191.204 20.2952 191.469C19.4994 191.904 19.2072 191.444 18.4429 191.263C17.8075 191.112 16.3645 189.777 16.5985 191.067C16.685 191.544 16.4426 191.962 16.0513 192.201C15.5392 192.515 16.2418 193.021 15.2142 193.519C14.6978 193.769 14.6917 193.534 14.344 194.255C14.1448 194.668 14.1175 195.413 13.6466 195.851C12.9726 196.478 12.0945 195.984 12.0945 197.193C12.0945 197.48 11.9154 198.294 12.3216 198.215C13.3219 198.021 13.4551 199.143 14.2776 197.711C14.7328 196.919 15.4367 197.276 16.2066 197.354C16.6859 197.402 17.1677 197.533 17.7279 197.576C18.4825 197.633 19.132 197.74 19.9087 197.758C21.5795 197.796 22.2344 198.187 23.0164 196.516C23.5328 195.414 23.5933 195.319 24.8075 194.792C25.09 194.669 26.1696 194.771 26.6054 194.745C26.9543 194.723 28.5173 194.746 28.7213 194.972C29.111 195.403 28.0946 197.108 30.9271 196.485C32.0565 196.237 32.9699 196.186 34.1061 196.12C35.0395 196.066 35.8141 195.421 36.9675 195.242C37.4938 195.161 38.2869 195.065 38.4375 195.739C38.5272 196.141 39.1083 197.413 39.3566 197.667L39.57 197.843C40.1738 198.147 40.0013 198.077 40.3844 198.381C41.2578 199.075 41.3633 197.295 42.7946 197.843C43.4782 198.105 44.4688 197.957 45.161 197.828C45.7062 197.726 45.5907 197.939 46.2971 197.534C47.0124 197.125 47.1412 196.633 47.6712 196.055C48.3695 195.294 47.9398 195.561 48.9435 195.18C49.5543 194.948 49.8594 194.673 50.6279 194.444C52.3473 193.93 51.7767 193.23 52.0128 191.829C52.036 191.692 52.6376 190.838 52.7625 190.739C53.2962 190.314 53.6104 191.161 54.4002 190.611C54.938 190.236 54.6276 189.701 55.8498 190.046C56.954 190.358 56.5092 189.752 57.4414 189.581C57.7046 189.533 57.306 190.121 58.1546 190.025C58.428 189.994 59.3567 190.01 59.2505 190.438C59.1216 190.958 58.5177 191.792 58.1126 192.163C57.9201 192.34 57.5585 193.222 57.6021 193.535C57.7854 194.852 57.3295 194.501 57.9166 196.092C58.4099 197.428 58.9338 196.122 59.5406 196.793C59.9465 197.241 60.4823 196.959 60.6852 196.43C61.0137 195.572 62.0306 196.584 62.7844 195.648C63.4623 194.806 64.3639 194.477 64.8924 193.877C65.1215 193.618 65.4248 193.437 65.6613 193.166C66.455 191.917 67.2916 191.814 68.6234 191.433C70.1437 190.996 72.4574 190.883 74.1 190.798C74.4486 190.78 74.7492 190.691 75.1415 190.691C75.115 189.823 75.1678 186.731 75.8947 186.201C76.498 185.761 76.844 186.286 77.3647 185.38C77.6034 184.965 78.0284 185.181 78.5631 185.093C80.6904 184.742 79.2367 183.104 80.0811 182.857C81.1647 182.541 81.3174 181.929 81.6607 181.814C81.9597 181.713 81.8268 182.939 83.3176 182.145C84.1491 181.702 84.1513 182.909 84.5569 180.889C84.6054 180.647 85.0051 179.648 85.1459 179.428C85.7735 178.1 85.8962 178.578 86.275 178.021C86.7144 177.376 85.4531 177.485 86.0879 176.644C86.4213 176.203 86.4977 176.615 86.9706 175.566C87.2005 175.056 87.6104 173.316 88.4279 173.676C88.7699 173.827 89.608 173.836 89.3389 173.207C89.2207 172.932 89.4369 172.673 89.1711 171.983C89.0062 171.555 89.6972 170.965 89.657 170.282C89.6445 170.071 89.0299 169.441 88.8289 169.405C88.1199 169.276 86.6124 168.994 86.7435 168.007C86.8643 167.097 87.5387 166.822 86.7116 166.097C85.9036 165.389 86.1693 165.415 86.6925 164.514C86.8195 164.296 86.8354 164.291 87.0125 164.117C87.0357 163.515 87.0351 163.53 86.4151 163.53C85.8896 163.53 85.5241 163.383 85.4905 162.763C85.4323 161.691 87.0436 161.862 86.9148 161.194C86.6757 159.954 88.7211 159.563 88.8847 158.47C89.053 157.345 88.7212 157.794 88.5034 157.051C88.2662 156.241 88.0897 156.69 88.6083 155.807C89.0351 155.079 89.297 154.292 89.4856 153.477C89.5425 153.231 89.6459 152.9 89.7863 152.692C90.1288 152.717 90.2826 152.398 90.5977 152.747C90.928 153.113 91.7461 152.983 92.1179 152.733C92.6834 152.352 94.1432 152.016 94.5424 152.729C94.997 153.541 96.3157 152.342 96.4211 153.654C96.4712 154.277 96.6235 154.479 96.8762 154.649C97.2932 153.935 97.4824 153.417 97.8421 152.734C97.9759 152.48 97.9893 152.284 98.1998 151.906C98.6861 151.032 98.6358 151.042 99.6087 151.04C100.174 151.039 100.153 151.424 100.682 150.624C101.213 149.822 101.66 151.023 102.04 151.147C102.74 151.375 102.731 150.107 103.461 150.502C104.484 151.055 105.372 149.031 106.387 149.466C107.242 149.832 106.407 151.154 107.791 150.657C108.92 150.252 108.458 152.487 110.178 151.36C110.896 150.89 111.284 150.643 112.167 150.75C112.629 150.807 112.883 150.911 113.443 150.951C113.676 150.968 113.798 150.979 114.027 151.019C115.27 151.194 114.9 151.396 115.348 151.502C115.762 151.6 115.809 151.042 116.643 150.951C117.604 150.846 117.277 149.945 117.428 149.845C117.523 149.782 118.558 149.2 118.57 149.198C118.989 149.121 119.033 149.706 119.859 148.878C120.138 148.599 120.448 148.477 120.843 148.501C120.955 148.508 120.233 149.729 121.266 149.128C121.586 148.942 121.672 149.352 122.082 149.642C123.336 150.529 123.389 148.848 123.694 149.376C123.756 149.484 124.651 149.886 124.751 149.889C126.058 149.928 125.461 150.541 126.929 150.137C127.365 150.017 127.359 150.261 127.988 149.768C128.274 149.544 128.756 148.815 129.019 148.917C129.314 149.03 128.582 149.832 129.708 149.955C130.138 150.002 130.34 150.169 130.009 149.31C129.77 148.692 129.714 147.868 130.176 147.349C130.714 146.745 130.456 146.264 130.981 146.112C131.454 145.973 132.198 145.353 132.413 144.916C132.577 144.583 132.802 144.848 133.109 145.056C133.485 145.31 133.322 145.945 134.121 146.028C134.903 146.109 134.734 146.838 136.14 146.954C136.247 146.963 136.344 146.988 136.447 147.013L136.783 146.94C136.783 145.798 137.03 144.489 137.47 143.443C137.645 143.025 138.251 142.322 137.973 141.864C137.842 141.649 136.57 141.648 136.405 141.696C134.578 142.235 135.253 141.177 136.093 140.737C136.473 140.538 135.595 140.042 134.843 140.249C134.383 140.376 133.805 140.253 134.228 139.672C134.487 139.316 134.639 138.907 134.47 138.466C134.229 137.833 135.166 137.712 135.21 137.482C135.308 136.965 135.185 137.009 135.378 136.327C135.415 136.009 135.474 134.978 135.325 134.68C135.057 134.144 135.145 133.15 134.303 132.865C132.944 132.403 134.434 131.762 134.434 131.203C134.434 130.683 132.553 129.868 133.111 129.432C133.267 129.31 134.568 129.572 134.247 128.96C133.811 128.13 134.749 129.391 134.911 128.71C135.083 127.987 135.11 128.141 135.645 127.985C136.018 127.876 136.315 129.008 137.131 127.486C137.498 126.801 138.791 128.115 139.053 126.658C139.204 125.821 138.919 125.564 138.781 124.923C138.668 124.401 138.335 123.874 138.235 123.495C138.033 122.723 137.426 121.753 136.991 121.062C136.538 120.343 136.438 120.574 136.11 120.263C136.005 120.164 136.922 119.537 137.124 119.256C137.262 119.065 137.92 119.626 138.375 119.59C138.839 119.553 138.982 119.754 139.195 119.781C139.81 119.856 139.886 120.375 140.301 120.205C141.227 119.827 140.739 119.536 141.775 119.962C142.126 120.107 143.019 119.03 143.222 118.835C143.517 118.231 144.324 117.725 144.969 117.554C146.202 117.226 146.171 115.929 145.213 115.555C144.172 115.147 144.535 113.711 144.166 113.197C143.861 112.772 143.328 111.284 143.975 111.019C144.485 110.81 144.933 110.623 145.377 110.257C146.343 109.459 146.303 108.446 147.107 108.123C147.871 107.815 148.73 108.194 149.495 107.879C149.958 107.689 149.56 107.057 149.43 106.751C149.123 106.031 147.553 104.994 148.749 104.952C149.425 104.928 150.059 104.699 150.725 104.573C150.768 104.565 151.875 104.237 151.91 104.224C152.468 104.006 152.828 103.909 152.828 103.315C152.828 102.875 153.853 103.128 154.128 103.148C154.76 103.195 154.962 103.229 155.303 102.58C155.075 102.112 154.573 101.794 154.149 101.469C153.317 100.831 153.208 99.969 152.167 99.8904C151.084 99.8085 150.82 99.946 150.587 98.9135C150.493 98.496 151.379 97.8608 151.669 97.6377C152.234 97.2031 151.176 97.2745 150.933 97.3423C150.154 97.5595 148.625 97.8905 147.889 97.4628C147.7 97.3531 146.965 97.0984 146.766 97.1602C146.276 97.3128 145.685 98.4687 144.646 98.9063C144.632 98.9125 143.244 99.0985 143.238 99.0987C142.749 99.1161 141.701 99.6769 141.652 99.1442C141.584 98.3963 142.376 98.4253 141.844 97.5814C141.344 96.7878 143.357 95.9852 141.606 95.2396C141.096 95.0228 141.228 94.9881 140.915 94.7835C140.151 94.2848 140.688 94.1182 140.524 93.7942C140.094 92.9507 140.726 92.9568 140.482 92.1462C140.376 91.7976 141.489 90.7304 141.733 90.6117C142.549 90.2146 142.714 89.2712 143.243 89.4664C143.984 89.7401 144.31 88.8803 144.055 88.3447C143.561 87.3067 144.447 86.9506 144.251 86.7243C143.986 86.4169 144.003 86.9089 143.536 85.9901C143.47 85.5205 143.284 85.1235 143.157 84.6934C142.765 83.3616 143.374 83.3895 143.542 82.6152C143.783 81.504 143.15 81.4988 143.264 80.4039C143.32 79.8581 143.549 79.0713 142.699 79.2923C141.912 79.4976 142.003 78.9989 141.301 79.4045C140.114 80.091 139.952 78.9335 139.831 78.0184C139.765 77.5168 139.316 76.3998 139.321 76.2098C139.339 75.4989 138.756 75.2843 138.394 75.8352C137.598 77.0488 137.28 75.636 136.465 76.3615C136.118 76.6696 135.698 76.5153 135.383 76.2236C134.619 75.5145 134.458 74.7868 134.764 73.838C134.873 73.5013 134.957 73.4567 135.107 73.2118C135.775 72.1173 135.528 72.7628 135.734 71.3086L135.729 71.2074C135.662 69.944 137.234 70.0976 137.769 70.5463C138.184 70.8947 138.368 70.8905 138.796 71.2037C139.136 71.4516 139.273 70.459 139.831 70.5379C140.713 70.6627 140.274 69.5451 140.343 68.9841C140.453 68.0956 139.811 67.7219 139.976 66.9526C140.086 66.4443 139.331 66.6055 139.09 66.7291C137.989 67.2948 138.266 66.4095 137.447 66.7573C136.499 67.1597 136.608 66.2575 135.795 66.1418C134.59 65.9703 135.619 65.0737 136.049 64.7091C136.428 64.3873 136.359 63.6964 136.911 63.966C137.453 64.2312 137.651 64.3399 138.23 64.5551C139.065 64.8655 139.399 64.2139 139.719 64.6042C139.981 64.9241 140.665 65.0886 141.02 65.0165C141.768 64.8647 141.685 64.5395 142.08 64.3999C143.246 63.9883 142.89 63.7697 143.308 63.5256C144.89 62.6001 144.71 64.4262 145.201 64.5833C146.319 64.9407 145.588 62.3165 146.001 61.6188C146.277 61.152 146.746 60.232 146.475 59.6808C145.969 58.656 145.817 58.4339 145.76 57.1933C145.327 57.1834 144.699 57.577 144.297 57.5708C143.656 57.5608 143.07 58.6764 143.199 59.2877C143.345 59.9776 142.803 59.661 142.51 59.4321C141.92 58.9694 141.086 58.9704 140.915 58.7034C140.528 58.1018 141.541 57.7751 141.182 57.4395C140.39 56.6993 142.149 56.8041 140.863 55.8984C140.676 55.7673 139.243 55.4102 138.999 55.3895C137.78 55.2861 138.22 54.2763 138.015 54.2078C137.613 54.0735 136.819 54.5383 136.51 54.7741C135.945 55.2059 135.817 54.449 135.264 54.3061C134.546 54.1203 134.824 53.7168 135.304 53.4497C136.052 53.0335 135.652 52.604 135.058 52.4898C134.734 52.4274 134.47 52.4869 134.224 52.4743C133.822 52.4534 133.875 53.41 133.446 53.4198C132.71 53.4367 132.483 53.142 132.483 52.4797C132.483 51.5793 132.172 51.5123 132.51 50.6284C132.795 49.8808 131.817 50.2656 131.894 49.6847C131.957 49.2154 131.742 49.4569 131.246 49.216C130.661 48.9324 131.246 47.0715 131.372 46.6855L131.414 46.6272C131.726 46.141 132.245 45.9144 131.896 45.4983C131.033 44.4694 131.25 44.052 130.979 42.8472C130.867 42.3548 130.613 42.8715 130.515 43.1061C130.083 44.1456 130.297 43.6879 129.597 44.3681C128.654 45.2851 128.463 44.6641 127.932 44.6511C127.372 44.6374 126.879 46.486 125.896 45.7362C125.484 45.4226 125.6 45.2794 124.864 44.8242C124.184 44.4027 123.732 43.8143 123.758 42.9766C123.78 42.2849 123.425 41.6409 123.444 40.986C123.447 40.8614 122.999 39.9967 122.935 39.8966C122.4 39.0622 122.52 38.4274 122.517 38.4218C122.49 38.3685 121.707 38.8124 121.608 38.8623C121.097 39.1186 120.371 39.5153 119.899 39.8271C119.793 39.8971 118 40.5749 117.928 40.5629C117.379 40.4717 117.639 39.9996 117.214 39.5753C116.602 38.9625 117.033 38.758 116.985 38.3816C116.941 38.0304 116.776 38.2371 116.682 37.1644C116.526 36.8402 116.357 34.6844 116.077 34.0464C115.74 33.2782 115.474 33.0182 114.656 32.83C114.125 32.7076 113.605 32.6945 113.083 32.6631C113.083 32.1339 112.81 31.2234 112.642 30.8084C112.535 30.6596 112.371 30.4796 112.305 30.3079C112.063 29.6816 111.511 29.7299 110.891 29.7195C109.562 29.6973 110.598 26.8863 108.593 26.8863C107.33 26.8863 107.823 25.9048 106.862 25.6541C105.636 25.3341 105.05 26.4011 105.05 24.8992C105.05 24.0118 103.872 24.043 104.625 23.2231C105.093 22.7136 105.282 23.1175 105.518 22.6094C105.781 22.0442 106.65 21.5526 106.686 21.4121C106.878 21.3681 106.712 20.5535 106.672 20.4402C106.527 20.0334 106.856 19.6906 107.09 19.7606C108.136 20.0748 107.852 19.4638 107.991 19.126C108.239 18.5255 108.135 18.7941 108.154 18.2085C108.174 17.5702 106.632 17.9913 106.6 17.0844C106.582 16.5889 106.624 16.2405 106.602 15.7283C106.128 14.5738 105.942 14.3012 105.21 13.3456C104.717 12.7002 104.323 12.5878 103.975 11.8901C103.545 11.029 104.394 9.96198 104.761 9.20187C105.008 8.69137 103.341 8.63556 102.989 8.53434C102.398 8.36452 101.935 8.39267 101.692 7.86137C101.525 7.49571 100.841 7.36989 100.467 7.38067C99.6174 7.40502 99.1654 6.80257 98.6964 7.02237C98.0772 7.31269 97.9014 7.213 97.1984 7.213C96.7698 7.213 96.078 6.88234 95.9315 6.43691C95.8466 6.17855 95.2097 6.24234 94.9841 6.27456C93.388 6.50248 94.1767 6.19478 93.3757 5.71129C92.5945 5.2396 92.4426 5.42275 92.1072 6.24158C91.9286 6.67726 91.4855 6.69806 91.611 7.213C91.6968 7.56572 91.2703 8.37745 91.0339 8.53612C90.7066 8.75567 90.7117 8.7251 90.7036 9.03939C90.6851 9.75232 91.3913 10.293 91.8872 10.6772C92.6423 11.2623 91.4197 11.156 91.101 11.156C90.3816 11.156 90.6051 10.8343 90.0326 11.1488C89.3649 11.5154 89.8352 11.4567 89.0431 11.4707C88.3072 11.4836 87.961 10.9312 87.7985 10.9726C87.3824 11.0789 87.4869 11.0824 86.9074 11.1351C86.2694 10.975 86.214 10.9725 85.8677 10.4483C85.5832 10.0177 84.9976 10.4702 84.761 10.8012C84.5758 11.0602 84.0207 11.2326 83.7249 11.0721C83.2755 10.8284 82.0653 13.156 81.945 13.5158C81.6414 14.4246 81.0379 14.2286 80.9437 13.8196C80.7353 12.9152 80.1843 12.9943 79.9179 11.5701C79.8528 11.2229 79.9044 10.9221 79.8759 10.7768C79.8093 10.4376 78.3894 11.0361 78.2506 11.1278C76.9767 11.9706 77.0157 11.1509 76.6357 11.2644C76.0086 11.4518 76.5312 12.7216 75.8927 12.8705C74.9383 13.093 74.9808 12.1737 74.3826 12.5037C73.455 13.0154 73.8553 12.6583 73.229 12.6871C72.3366 12.7282 71.4297 11.6227 71.2192 11.6731C70.2839 11.8973 70.3018 13.2977 69.4764 12.8549C69.2673 12.7427 69.0927 12.8379 68.9959 13.0526C68.6513 13.8169 67.9502 13.3293 67.8843 13.8952C67.8029 14.5951 66.7842 14.407 66.2795 14.407C65.7425 14.407 65.0014 14.6211 64.8504 14.0714C64.6926 13.4976 64.7805 13.7326 64.5129 13.2534C64.2485 12.78 64.0322 13.0625 63.8101 12.4564C63.6137 11.9205 64.1424 11.6232 63.6249 11.6821C62.9581 11.7581 62.7172 11.9936 61.9871 11.82C61.1409 11.6188 60.9857 11.6837 60.2289 11.0511L60.1432 10.9271C59.876 10.6166 59.8729 10.6393 59.626 10.2824C59.0133 9.39618 59.5756 8.92435 58.7901 9.39782C57.986 9.88245 57.7808 10.3273 56.7263 10.7227C56.3404 10.8674 56.0651 10.6282 56.0989 10.8851C56.1461 11.2439 56.3347 11.2507 56.3487 11.9075C56.3545 12.1752 55.5234 12.1642 55.3318 12.1784C54.9273 12.2083 54.4419 11.8997 54.4265 12.2939C54.3964 13.0528 55.99 13.26 56.0551 13.6291C56.1168 13.9783 53.982 15.4629 53.7078 15.6006C52.5516 16.1815 52.3934 16.2653 51.1275 16.2526C50.6618 16.2479 50.0354 16.4256 49.7384 16.424C48.9371 16.4196 49.4844 14.3013 48.9606 13.9245C48.42 13.5356 48.6164 12.8304 48.305 12.7536C47.8018 12.6294 47.3107 13.4571 47.1851 13.8353C47.0831 14.1419 46.352 14.9696 46.1238 15.1182C45.7133 15.3859 45.1025 15.7911 44.6609 15.4083C44.1843 14.995 43.7839 14.6225 44.0372 13.942C44.5067 12.6808 43.2933 12.9952 42.9465 12.2568C42.5693 11.4537 41.9291 11.2472 41.6025 10.8151C41.2177 10.3062 39.8627 9.54545 39.7867 9.38044C39.1597 8.02016 38.5399 9.34088 37.9812 8.83507C37.4062 8.31467 37.0948 8.87933 37.0948 7.78095C37.0948 6.74663 36.2827 7.51435 36.2087 7.88585C35.9895 8.98371 35.4891 7.74696 35.2858 8.84711C35.2542 9.01783 34.962 9.65682 34.8717 9.77173C34.2781 10.5268 33.9408 9.53556 33.4875 10.1757C32.8007 11.1455 32.3844 11.8456 31.348 12.5193L31.2689 12.5348C31.1013 12.557 30.9508 12.57 30.8155 12.5736C30.844 12.9447 30.072 14.704 29.7535 14.9633C29.1124 15.4852 28.9457 15.5505 28.537 16.4086C28.5275 16.5195 29.0636 17.8194 29.5648 17.4837C30.4933 16.8613 30.1977 17.3621 30.1292 17.9187C30.0538 18.5301 31.1374 17.9937 31.0766 18.485C31.0241 18.9108 29.1773 19.1609 28.4968 20.0791C28.3279 20.3071 28.3406 20.4421 28.2571 20.6945C28.1458 21.0316 27.9494 22.0667 27.8586 22.2166C27.3197 23.1073 27.3075 22.7506 26.623 23.1814C26.1594 23.4731 25.2442 23.835 24.6988 23.856C23.6717 23.8957 24.0845 23.4459 23.7076 24.2162C23.4666 24.7089 23.7375 25.0653 24.2392 25.132C24.8619 25.2148 24.4838 25.3497 25.4119 25.3225C26.5005 25.8595 25.9272 25.8647 26.5002 26.3704C26.8951 26.7188 27.4444 26.867 27.9318 27.3051C28.3695 27.6987 28.4167 27.4463 28.821 28.1321C29.0687 28.552 29.6657 29.146 29.7109 29.5147C29.7224 29.6091 29.5553 31.3397 29.5468 31.3604C29.4599 31.5701 29.5889 31.8537 29.0015 32.0453C28.5213 32.2019 28.2728 32.4107 27.7011 32.4492C27.3591 32.4723 27.4125 32.7163 27.6729 32.8968C27.718 32.928 28.4718 34.0165 28.7024 34.1971C28.7949 34.2697 30.2112 36.4998 30.4852 36.8134C30.922 37.4543 31.3053 37.9576 31.3643 38.7376C31.3877 39.0492 31.8665 40.4931 32.184 40.6782C32.2702 40.7284 32.6103 41.0626 32.6036 41.218C32.5817 41.7266 32.312 41.8188 32.0162 42.2301C31.5398 42.8927 31.1857 42.5494 30.91 43.6036C30.6544 44.5811 31.266 44.3756 31.0515 45.2851C30.872 46.0465 31.3616 46.3826 30.8855 46.6573C30.1195 47.0992 31.0062 47.3455 30.6038 48.2232C30.4688 48.5177 28.3319 49.7418 27.9199 49.8747C27.2267 50.0983 26.9611 50.8564 27.8287 51.1631C28.0816 51.2525 28.7036 51.497 28.5556 51.8307C28.4129 52.1525 28.3373 52.7227 28.3459 53.0681C28.0032 54.4414 28.5232 53.8092 29.4155 54.3529C29.7626 54.5643 29.4954 54.7933 29.9609 55.0552C30.1965 55.1879 30.2574 55.5459 30.1549 55.7946C30.0008 56.1692 29.9644 56.0346 29.6253 56.298C29.4448 56.4383 28.4398 56.5283 28.9978 57.137C29.137 57.2886 29.571 58.3068 29.5624 58.5787C29.5485 59.0155 30.345 60.8054 30.5217 61.3718C30.7764 62.1881 30.7098 61.8542 31.1929 62.3942C31.5181 62.7577 31.6177 63.003 31.5741 63.4555C31.5453 63.7545 31.571 63.8047 31.4763 64.1267C31.4183 64.3239 31.636 64.86 31.4116 65.4252C31.4116 65.4252 31.368 65.5826 31.3661 65.5894Z"/>
<path d="M73.24 83H64.36V79H77.56V82.84L70.68 107H66.2L73.24 83Z"/>
<path d="M89.2556 83H80.3756V79H93.5756V82.84L86.6956 107H82.2156L89.2556 83Z"/>
</mask>
<path d="M73.24 83H64.36V79H77.56V82.84L70.68 107H66.2L73.24 83Z" fill="white"/>
<path d="M89.2556 83H80.3756V79H93.5756V82.84L86.6956 107H82.2156L89.2556 83Z" fill="white"/>
<path fill-rule="evenodd" clip-rule="evenodd" d="M31.3661 65.5894C31.2882 66.1954 31.0123 67.2946 31.6964 67.6765C32.114 67.9095 31.6555 68.5988 31.7192 69.1182C31.8158 69.9063 30.6497 70.8638 31.1583 72.1018C31.3644 72.6037 31.3776 73.2071 32.1632 72.7046C32.8018 72.2962 33.6808 72.0895 33.7501 73.1187C33.7973 73.8186 35.0385 75.3264 33.4774 75.3264C33.2406 75.3264 32.1023 75.2806 32.0147 75.4522C31.9769 75.5259 32.2837 75.9306 32.2837 76.3469C32.2837 76.5974 32.2801 76.7767 32.095 76.9623C31.3416 77.8497 31.8237 77.2625 31.1457 77.5651C31.0076 77.6268 30.541 78.4007 30.6094 78.5353C30.9999 79.3032 30.7694 78.981 31.4867 79.4007C31.7733 79.5683 31.625 80.0525 31.3399 80.2187C31.1785 80.3128 30.4763 81.2447 30.4116 81.4507C30.3732 81.5733 29.6466 82.7525 29.4869 83.1076C29.0742 84.0259 29.1721 83.8435 28.5504 84.707C28.0012 85.4696 28.2018 86.3425 29.0082 86.7936C29.5384 87.0902 29.6524 87.1951 29.0274 87.4354L28.9698 87.4491L28.6993 88.0075C28.917 88.2899 29.126 88.6213 29.4141 88.8311C30.1503 89.3669 29.9333 89.3028 30.0397 90.2116C30.1027 90.7494 30.4329 91.0215 29.7288 91.2951C29.4855 91.3897 28.9665 91.1683 28.5943 91.6936C28.1684 92.2947 28.5483 94.1255 27.0843 92.4348C26.7218 92.0162 26.1598 91.7468 25.9726 92.475C25.8532 92.9393 25.276 92.2898 24.7772 92.7686C24.4737 93.0599 25.041 93.4204 24.3158 93.8436C23.63 94.2439 24.2402 95.3361 24.468 95.8463C24.6756 96.3117 25.1682 96.1841 24.9712 97.0418C24.9173 97.2771 24.6753 97.4796 24.6932 98.0067C24.6968 98.1119 24.6416 98.9624 24.583 99.0553C24.013 99.9588 23.7637 99.8532 22.7649 100.075C22.2656 100.185 21.2361 100.279 21.9529 101.018C22.4239 101.505 22.9249 101.575 22.7793 102.401C22.7676 102.467 22.7607 102.474 22.7637 102.542C22.724 103.036 22.6266 104.004 23.4612 103.785C23.6811 103.727 24.6303 103.846 24.6303 104.262C24.6303 105.128 24.8074 106.904 24.2546 107.578C23.4353 108.576 22.4909 108.114 22.2447 108.997C22.2115 109.116 22.3105 109.864 22.2447 110.236C22.2001 110.489 22.21 111.894 22.1398 112.064C22.088 112.191 22.042 112.524 21.9194 112.781C21.6012 113.449 21.6417 113.629 21.0857 114.162C20.4898 114.732 20.2064 115.528 20.5559 116.308C20.7368 116.712 20.7137 117.791 20.5614 118.147C20.5472 118.169 20.1701 118.884 20.0581 118.959C19.7864 119.141 19.5873 118.876 19.6578 119.61C19.6956 120.003 19.9641 119.799 19.5319 120.307C19.4148 120.445 19.1562 120.794 19.1562 120.984C19.1562 121.173 19.3343 122.243 19.5337 122.259C19.7401 122.276 20.6126 122.425 20.4829 122.74C20.258 123.287 20.8485 123.869 21.1121 124.292C21.5219 124.95 21.0639 125.972 21.0037 126.692C20.9604 127.209 20.3053 127.938 19.9112 128.228C19.2847 128.689 20.0472 129.455 19.9795 129.619C19.6931 130.315 19.5754 130.057 19.946 130.878C20.3666 131.809 19.9979 131.983 20.2331 132.718C20.4337 133.345 19.0975 133.349 19.8939 134.237C20.0459 134.407 19.9881 134.437 20.079 134.59C20.088 135.625 20.1834 135.241 19.8411 136.198C19.6562 136.715 20.1546 137.107 20.121 137.626C20.1208 137.63 20.2952 138.463 20.308 138.633C20.3629 139.36 21.5646 139.398 21.9511 139.958C22.2654 140.413 22.2641 140.598 22.4928 141.1C22.8905 141.974 23.3671 142.351 24.0119 142.98C24.186 143.149 24.6648 143.659 24.7826 143.861C24.8585 143.991 25.5794 144.565 24.7981 144.406C24.3361 144.312 23.8561 144.187 23.3862 144.177C23.0627 144.17 22.9079 144.079 22.5275 144.191C21.5923 144.467 22.694 144.731 21.35 145.516C20.5333 145.992 19.9935 146.227 19.046 145.84C18.5483 145.637 18.2108 145.419 17.905 145.853C17.6805 146.172 16.486 146.372 16.4541 146.395C16.2496 146.541 16.4968 146.936 16.704 147.071C17.0457 147.295 17.6719 147.88 17.2476 148.286C16.8991 148.619 17.1224 148.728 16.393 148.971C15.8962 149.136 15.8388 149.708 14.738 149.691C14.231 149.684 13.4039 149.637 13.0481 149.978L12.948 150.09C12.7166 151.653 12.7421 151.057 12.2768 150.831C11.8464 150.622 11.8222 151.262 11.7105 151.369C11.481 151.59 10.5238 151.634 10.6181 152.397C10.6411 152.584 11.291 152.713 11.4588 152.774C11.8444 152.915 12.2559 153.024 12.2559 153.487C12.2413 153.491 12.0316 153.629 11.9532 153.654C11.2373 153.88 10.7458 154.29 10.7458 155.052C10.7458 155.753 11.2612 156.518 10.9765 156.948C10.6919 157.378 10.0741 156.678 9.31294 157.215C8.52176 157.774 7.5662 157.865 6.63969 157.689C6.09849 157.587 4.80987 157.671 5.50238 158.395C5.68413 158.586 6.11079 158.827 6.31613 159.108C6.55065 159.428 6.75256 159.894 6.83564 160.298C6.94662 160.278 7.08057 160.357 7.26511 160.592C7.32066 160.663 7.751 161.99 7.95419 162.354C8.13936 162.686 8.20303 163.074 8.45225 163.475C8.63717 163.772 8.75159 164.062 8.96404 164.396C10.2376 166.396 8.50604 166.941 9.00602 168.585C9.18155 169.162 9.20121 169.831 9.44638 170.502C9.79555 171.457 9.85529 173.044 11.2388 172.986C12.9933 172.911 12.3938 173.701 13.0246 173.786C13.5057 173.851 14.203 172.927 15.2268 173.077C15.3582 173.096 15.9515 173.555 16.1215 173.661C16.294 174.351 16.2396 174.448 16.3366 174.932C16.5668 176.081 18.1065 175.919 18.9738 175.949C19.8174 175.978 20.6744 175.653 20.1466 176.882C19.9516 177.336 19.9021 177.914 20.4755 178.051C20.7227 178.11 21.5821 178.014 21.5483 178.107C21.348 178.654 21.407 178.64 21.0695 179.215C20.4414 180.285 21.8404 180.109 21.6429 181.568C21.5544 182.222 22.1336 182.51 22.099 183.511C22.077 184.149 22.4554 184.386 21.5674 184.651C20.7302 184.901 21.6407 185.529 21.5903 185.768C21.483 186.275 20.3478 186.664 20.9154 187.255C21.2152 187.567 21.2109 187.772 21.302 188.174C21.134 189.095 21.2049 189.16 21.2391 189.955C21.2626 190.504 20.7809 191.204 20.2952 191.469C19.4994 191.904 19.2072 191.444 18.4429 191.263C17.8075 191.112 16.3645 189.777 16.5985 191.067C16.685 191.544 16.4426 191.962 16.0513 192.201C15.5392 192.515 16.2418 193.021 15.2142 193.519C14.6978 193.769 14.6917 193.534 14.344 194.255C14.1448 194.668 14.1175 195.413 13.6466 195.851C12.9726 196.478 12.0945 195.984 12.0945 197.193C12.0945 197.48 11.9154 198.294 12.3216 198.215C13.3219 198.021 13.4551 199.143 14.2776 197.711C14.7328 196.919 15.4367 197.276 16.2066 197.354C16.6859 197.402 17.1677 197.533 17.7279 197.576C18.4825 197.633 19.132 197.74 19.9087 197.758C21.5795 197.796 22.2344 198.187 23.0164 196.516C23.5328 195.414 23.5933 195.319 24.8075 194.792C25.09 194.669 26.1696 194.771 26.6054 194.745C26.9543 194.723 28.5173 194.746 28.7213 194.972C29.111 195.403 28.0946 197.108 30.9271 196.485C32.0565 196.237 32.9699 196.186 34.1061 196.12C35.0395 196.066 35.8141 195.421 36.9675 195.242C37.4938 195.161 38.2869 195.065 38.4375 195.739C38.5272 196.141 39.1083 197.413 39.3566 197.667L39.57 197.843C40.1738 198.147 40.0013 198.077 40.3844 198.381C41.2578 199.075 41.3633 197.295 42.7946 197.843C43.4782 198.105 44.4688 197.957 45.161 197.828C45.7062 197.726 45.5907 197.939 46.2971 197.534C47.0124 197.125 47.1412 196.633 47.6712 196.055C48.3695 195.294 47.9398 195.561 48.9435 195.18C49.5543 194.948 49.8594 194.673 50.6279 194.444C52.3473 193.93 51.7767 193.23 52.0128 191.829C52.036 191.692 52.6376 190.838 52.7625 190.739C53.2962 190.314 53.6104 191.161 54.4002 190.611C54.938 190.236 54.6276 189.701 55.8498 190.046C56.954 190.358 56.5092 189.752 57.4414 189.581C57.7046 189.533 57.306 190.121 58.1546 190.025C58.428 189.994 59.3567 190.01 59.2505 190.438C59.1216 190.958 58.5177 191.792 58.1126 192.163C57.9201 192.34 57.5585 193.222 57.6021 193.535C57.7854 194.852 57.3295 194.501 57.9166 196.092C58.4099 197.428 58.9338 196.122 59.5406 196.793C59.9465 197.241 60.4823 196.959 60.6852 196.43C61.0137 195.572 62.0306 196.584 62.7844 195.648C63.4623 194.806 64.3639 194.477 64.8924 193.877C65.1215 193.618 65.4248 193.437 65.6613 193.166C66.455 191.917 67.2916 191.814 68.6234 191.433C70.1437 190.996 72.4574 190.883 74.1 190.798C74.4486 190.78 74.7492 190.691 75.1415 190.691C75.115 189.823 75.1678 186.731 75.8947 186.201C76.498 185.761 76.844 186.286 77.3647 185.38C77.6034 184.965 78.0284 185.181 78.5631 185.093C80.6904 184.742 79.2367 183.104 80.0811 182.857C81.1647 182.541 81.3174 181.929 81.6607 181.814C81.9597 181.713 81.8268 182.939 83.3176 182.145C84.1491 181.702 84.1513 182.909 84.5569 180.889C84.6054 180.647 85.0051 179.648 85.1459 179.428C85.7735 178.1 85.8962 178.578 86.275 178.021C86.7144 177.376 85.4531 177.485 86.0879 176.644C86.4213 176.203 86.4977 176.615 86.9706 175.566C87.2005 175.056 87.6104 173.316 88.4279 173.676C88.7699 173.827 89.608 173.836 89.3389 173.207C89.2207 172.932 89.4369 172.673 89.1711 171.983C89.0062 171.555 89.6972 170.965 89.657 170.282C89.6445 170.071 89.0299 169.441 88.8289 169.405C88.1199 169.276 86.6124 168.994 86.7435 168.007C86.8643 167.097 87.5387 166.822 86.7116 166.097C85.9036 165.389 86.1693 165.415 86.6925 164.514C86.8195 164.296 86.8354 164.291 87.0125 164.117C87.0357 163.515 87.0351 163.53 86.4151 163.53C85.8896 163.53 85.5241 163.383 85.4905 162.763C85.4323 161.691 87.0436 161.862 86.9148 161.194C86.6757 159.954 88.7211 159.563 88.8847 158.47C89.053 157.345 88.7212 157.794 88.5034 157.051C88.2662 156.241 88.0897 156.69 88.6083 155.807C89.0351 155.079 89.297 154.292 89.4856 153.477C89.5425 153.231 89.6459 152.9 89.7863 152.692C90.1288 152.717 90.2826 152.398 90.5977 152.747C90.928 153.113 91.7461 152.983 92.1179 152.733C92.6834 152.352 94.1432 152.016 94.5424 152.729C94.997 153.541 96.3157 152.342 96.4211 153.654C96.4712 154.277 96.6235 154.479 96.8762 154.649C97.2932 153.935 97.4824 153.417 97.8421 152.734C97.9759 152.48 97.9893 152.284 98.1998 151.906C98.6861 151.032 98.6358 151.042 99.6087 151.04C100.174 151.039 100.153 151.424 100.682 150.624C101.213 149.822 101.66 151.023 102.04 151.147C102.74 151.375 102.731 150.107 103.461 150.502C104.484 151.055 105.372 149.031 106.387 149.466C107.242 149.832 106.407 151.154 107.791 150.657C108.92 150.252 108.458 152.487 110.178 151.36C110.896 150.89 111.284 150.643 112.167 150.75C112.629 150.807 112.883 150.911 113.443 150.951C113.676 150.968 113.798 150.979 114.027 151.019C115.27 151.194 114.9 151.396 115.348 151.502C115.762 151.6 115.809 151.042 116.643 150.951C117.604 150.846 117.277 149.945 117.428 149.845C117.523 149.782 118.558 149.2 118.57 149.198C118.989 149.121 119.033 149.706 119.859 148.878C120.138 148.599 120.448 148.477 120.843 148.501C120.955 148.508 120.233 149.729 121.266 149.128C121.586 148.942 121.672 149.352 122.082 149.642C123.336 150.529 123.389 148.848 123.694 149.376C123.756 149.484 124.651 149.886 124.751 149.889C126.058 149.928 125.461 150.541 126.929 150.137C127.365 150.017 127.359 150.261 127.988 149.768C128.274 149.544 128.756 148.815 129.019 148.917C129.314 149.03 128.582 149.832 129.708 149.955C130.138 150.002 130.34 150.169 130.009 149.31C129.77 148.692 129.714 147.868 130.176 147.349C130.714 146.745 130.456 146.264 130.981 146.112C131.454 145.973 132.198 145.353 132.413 144.916C132.577 144.583 132.802 144.848 133.109 145.056C133.485 145.31 133.322 145.945 134.121 146.028C134.903 146.109 134.734 146.838 136.14 146.954C136.247 146.963 136.344 146.988 136.447 147.013L136.783 146.94C136.783 145.798 137.03 144.489 137.47 143.443C137.645 143.025 138.251 142.322 137.973 141.864C137.842 141.649 136.57 141.648 136.405 141.696C134.578 142.235 135.253 141.177 136.093 140.737C136.473 140.538 135.595 140.042 134.843 140.249C134.383 140.376 133.805 140.253 134.228 139.672C134.487 139.316 134.639 138.907 134.47 138.466C134.229 137.833 135.166 137.712 135.21 137.482C135.308 136.965 135.185 137.009 135.378 136.327C135.415 136.009 135.474 134.978 135.325 134.68C135.057 134.144 135.145 133.15 134.303 132.865C132.944 132.403 134.434 131.762 134.434 131.203C134.434 130.683 132.553 129.868 133.111 129.432C133.267 129.31 134.568 129.572 134.247 128.96C133.811 128.13 134.749 129.391 134.911 128.71C135.083 127.987 135.11 128.141 135.645 127.985C136.018 127.876 136.315 129.008 137.131 127.486C137.498 126.801 138.791 128.115 139.053 126.658C139.204 125.821 138.919 125.564 138.781 124.923C138.668 124.401 138.335 123.874 138.235 123.495C138.033 122.723 137.426 121.753 136.991 121.062C136.538 120.343 136.438 120.574 136.11 120.263C136.005 120.164 136.922 119.537 137.124 119.256C137.262 119.065 137.92 119.626 138.375 119.59C138.839 119.553 138.982 119.754 139.195 119.781C139.81 119.856 139.886 120.375 140.301 120.205C141.227 119.827 140.739 119.536 141.775 119.962C142.126 120.107 143.019 119.03 143.222 118.835C143.517 118.231 144.324 117.725 144.969 117.554C146.202 117.226 146.171 115.929 145.213 115.555C144.172 115.147 144.535 113.711 144.166 113.197C143.861 112.772 143.328 111.284 143.975 111.019C144.485 110.81 144.933 110.623 145.377 110.257C146.343 109.459 146.303 108.446 147.107 108.123C147.871 107.815 148.73 108.194 149.495 107.879C149.958 107.689 149.56 107.057 149.43 106.751C149.123 106.031 147.553 104.994 148.749 104.952C149.425 104.928 150.059 104.699 150.725 104.573C150.768 104.565 151.875 104.237 151.91 104.224C152.468 104.006 152.828 103.909 152.828 103.315C152.828 102.875 153.853 103.128 154.128 103.148C154.76 103.195 154.962 103.229 155.303 102.58C155.075 102.112 154.573 101.794 154.149 101.469C153.317 100.831 153.208 99.969 152.167 99.8904C151.084 99.8085 150.82 99.946 150.587 98.9135C150.493 98.496 151.379 97.8608 151.669 97.6377C152.234 97.2031 151.176 97.2745 150.933 97.3423C150.154 97.5595 148.625 97.8905 147.889 97.4628C147.7 97.3531 146.965 97.0984 146.766 97.1602C146.276 97.3128 145.685 98.4687 144.646 98.9063C144.632 98.9125 143.244 99.0985 143.238 99.0987C142.749 99.1161 141.701 99.6769 141.652 99.1442C141.584 98.3963 142.376 98.4253 141.844 97.5814C141.344 96.7878 143.357 95.9852 141.606 95.2396C141.096 95.0228 141.228 94.9881 140.915 94.7835C140.151 94.2848 140.688 94.1182 140.524 93.7942C140.094 92.9507 140.726 92.9568 140.482 92.1462C140.376 91.7976 141.489 90.7304 141.733 90.6117C142.549 90.2146 142.714 89.2712 143.243 89.4664C143.984 89.7401 144.31 88.8803 144.055 88.3447C143.561 87.3067 144.447 86.9506 144.251 86.7243C143.986 86.4169 144.003 86.9089 143.536 85.9901C143.47 85.5205 143.284 85.1235 143.157 84.6934C142.765 83.3616 143.374 83.3895 143.542 82.6152C143.783 81.504 143.15 81.4988 143.264 80.4039C143.32 79.8581 143.549 79.0713 142.699 79.2923C141.912 79.4976 142.003 78.9989 141.301 79.4045C140.114 80.091 139.952 78.9335 139.831 78.0184C139.765 77.5168 139.316 76.3998 139.321 76.2098C139.339 75.4989 138.756 75.2843 138.394 75.8352C137.598 77.0488 137.28 75.636 136.465 76.3615C136.118 76.6696 135.698 76.5153 135.383 76.2236C134.619 75.5145 134.458 74.7868 134.764 73.838C134.873 73.5013 134.957 73.4567 135.107 73.2118C135.775 72.1173 135.528 72.7628 135.734 71.3086L135.729 71.2074C135.662 69.944 137.234 70.0976 137.769 70.5463C138.184 70.8947 138.368 70.8905 138.796 71.2037C139.136 71.4516 139.273 70.459 139.831 70.5379C140.713 70.6627 140.274 69.5451 140.343 68.9841C140.453 68.0956 139.811 67.7219 139.976 66.9526C140.086 66.4443 139.331 66.6055 139.09 66.7291C137.989 67.2948 138.266 66.4095 137.447 66.7573C136.499 67.1597 136.608 66.2575 135.795 66.1418C134.59 65.9703 135.619 65.0737 136.049 64.7091C136.428 64.3873 136.359 63.6964 136.911 63.966C137.453 64.2312 137.651 64.3399 138.23 64.5551C139.065 64.8655 139.399 64.2139 139.719 64.6042C139.981 64.9241 140.665 65.0886 141.02 65.0165C141.768 64.8647 141.685 64.5395 142.08 64.3999C143.246 63.9883 142.89 63.7697 143.308 63.5256C144.89 62.6001 144.71 64.4262 145.201 64.5833C146.319 64.9407 145.588 62.3165 146.001 61.6188C146.277 61.152 146.746 60.232 146.475 59.6808C145.969 58.656 145.817 58.4339 145.76 57.1933C145.327 57.1834 144.699 57.577 144.297 57.5708C143.656 57.5608 143.07 58.6764 143.199 59.2877C143.345 59.9776 142.803 59.661 142.51 59.4321C141.92 58.9694 141.086 58.9704 140.915 58.7034C140.528 58.1018 141.541 57.7751 141.182 57.4395C140.39 56.6993 142.149 56.8041 140.863 55.8984C140.676 55.7673 139.243 55.4102 138.999 55.3895C137.78 55.2861 138.22 54.2763 138.015 54.2078C137.613 54.0735 136.819 54.5383 136.51 54.7741C135.945 55.2059 135.817 54.449 135.264 54.3061C134.546 54.1203 134.824 53.7168 135.304 53.4497C136.052 53.0335 135.652 52.604 135.058 52.4898C134.734 52.4274 134.47 52.4869 134.224 52.4743C133.822 52.4534 133.875 53.41 133.446 53.4198C132.71 53.4367 132.483 53.142 132.483 52.4797C132.483 51.5793 132.172 51.5123 132.51 50.6284C132.795 49.8808 131.817 50.2656 131.894 49.6847C131.957 49.2154 131.742 49.4569 131.246 49.216C130.661 48.9324 131.246 47.0715 131.372 46.6855L131.414 46.6272C131.726 46.141 132.245 45.9144 131.896 45.4983C131.033 44.4694 131.25 44.052 130.979 42.8472C130.867 42.3548 130.613 42.8715 130.515 43.1061C130.083 44.1456 130.297 43.6879 129.597 44.3681C128.654 45.2851 128.463 44.6641 127.932 44.6511C127.372 44.6374 126.879 46.486 125.896 45.7362C125.484 45.4226 125.6 45.2794 124.864 44.8242C124.184 44.4027 123.732 43.8143 123.758 42.9766C123.78 42.2849 123.425 41.6409 123.444 40.986C123.447 40.8614 122.999 39.9967 122.935 39.8966C122.4 39.0622 122.52 38.4274 122.517 38.4218C122.49 38.3685 121.707 38.8124 121.608 38.8623C121.097 39.1186 120.371 39.5153 119.899 39.8271C119.793 39.8971 118 40.5749 117.928 40.5629C117.379 40.4717 117.639 39.9996 117.214 39.5753C116.602 38.9625 117.033 38.758 116.985 38.3816C116.941 38.0304 116.776 38.2371 116.682 37.1644C116.526 36.8402 116.357 34.6844 116.077 34.0464C115.74 33.2782 115.474 33.0182 114.656 32.83C114.125 32.7076 113.605 32.6945 113.083 32.6631C113.083 32.1339 112.81 31.2234 112.642 30.8084C112.535 30.6596 112.371 30.4796 112.305 30.3079C112.063 29.6816 111.511 29.7299 110.891 29.7195C109.562 29.6973 110.598 26.8863 108.593 26.8863C107.33 26.8863 107.823 25.9048 106.862 25.6541C105.636 25.3341 105.05 26.4011 105.05 24.8992C105.05 24.0118 103.872 24.043 104.625 23.2231C105.093 22.7136 105.282 23.1175 105.518 22.6094C105.781 22.0442 106.65 21.5526 106.686 21.4121C106.878 21.3681 106.712 20.5535 106.672 20.4402C106.527 20.0334 106.856 19.6906 107.09 19.7606C108.136 20.0748 107.852 19.4638 107.991 19.126C108.239 18.5255 108.135 18.7941 108.154 18.2085C108.174 17.5702 106.632 17.9913 106.6 17.0844C106.582 16.5889 106.624 16.2405 106.602 15.7283C106.128 14.5738 105.942 14.3012 105.21 13.3456C104.717 12.7002 104.323 12.5878 103.975 11.8901C103.545 11.029 104.394 9.96198 104.761 9.20187C105.008 8.69137 103.341 8.63556 102.989 8.53434C102.398 8.36452 101.935 8.39267 101.692 7.86137C101.525 7.49571 100.841 7.36989 100.467 7.38067C99.6174 7.40502 99.1654 6.80257 98.6964 7.02237C98.0772 7.31269 97.9014 7.213 97.1984 7.213C96.7698 7.213 96.078 6.88234 95.9315 6.43691C95.8466 6.17855 95.2097 6.24234 94.9841 6.27456C93.388 6.50248 94.1767 6.19478 93.3757 5.71129C92.5945 5.2396 92.4426 5.42275 92.1072 6.24158C91.9286 6.67726 91.4855 6.69806 91.611 7.213C91.6968 7.56572 91.2703 8.37745 91.0339 8.53612C90.7066 8.75567 90.7117 8.7251 90.7036 9.03939C90.6851 9.75232 91.3913 10.293 91.8872 10.6772C92.6423 11.2623 91.4197 11.156 91.101 11.156C90.3816 11.156 90.6051 10.8343 90.0326 11.1488C89.3649 11.5154 89.8352 11.4567 89.0431 11.4707C88.3072 11.4836 87.961 10.9312 87.7985 10.9726C87.3824 11.0789 87.4869 11.0824 86.9074 11.1351C86.2694 10.975 86.214 10.9725 85.8677 10.4483C85.5832 10.0177 84.9976 10.4702 84.761 10.8012C84.5758 11.0602 84.0207 11.2326 83.7249 11.0721C83.2755 10.8284 82.0653 13.156 81.945 13.5158C81.6414 14.4246 81.0379 14.2286 80.9437 13.8196C80.7353 12.9152 80.1843 12.9943 79.9179 11.5701C79.8528 11.2229 79.9044 10.9221 79.8759 10.7768C79.8093 10.4376 78.3894 11.0361 78.2506 11.1278C76.9767 11.9706 77.0157 11.1509 76.6357 11.2644C76.0086 11.4518 76.5312 12.7216 75.8927 12.8705C74.9383 13.093 74.9808 12.1737 74.3826 12.5037C73.455 13.0154 73.8553 12.6583 73.229 12.6871C72.3366 12.7282 71.4297 11.6227 71.2192 11.6731C70.2839 11.8973 70.3018 13.2977 69.4764 12.8549C69.2673 12.7427 69.0927 12.8379 68.9959 13.0526C68.6513 13.8169 67.9502 13.3293 67.8843 13.8952C67.8029 14.5951 66.7842 14.407 66.2795 14.407C65.7425 14.407 65.0014 14.6211 64.8504 14.0714C64.6926 13.4976 64.7805 13.7326 64.5129 13.2534C64.2485 12.78 64.0322 13.0625 63.8101 12.4564C63.6137 11.9205 64.1424 11.6232 63.6249 11.6821C62.9581 11.7581 62.7172 11.9936 61.9871 11.82C61.1409 11.6188 60.9857 11.6837 60.2289 11.0511L60.1432 10.9271C59.876 10.6166 59.8729 10.6393 59.626 10.2824C59.0133 9.39618 59.5756 8.92435 58.7901 9.39782C57.986 9.88245 57.7808 10.3273 56.7263 10.7227C56.3404 10.8674 56.0651 10.6282 56.0989 10.8851C56.1461 11.2439 56.3347 11.2507 56.3487 11.9075C56.3545 12.1752 55.5234 12.1642 55.3318 12.1784C54.9273 12.2083 54.4419 11.8997 54.4265 12.2939C54.3964 13.0528 55.99 13.26 56.0551 13.6291C56.1168 13.9783 53.982 15.4629 53.7078 15.6006C52.5516 16.1815 52.3934 16.2653 51.1275 16.2526C50.6618 16.2479 50.0354 16.4256 49.7384 16.424C48.9371 16.4196 49.4844 14.3013 48.9606 13.9245C48.42 13.5356 48.6164 12.8304 48.305 12.7536C47.8018 12.6294 47.3107 13.4571 47.1851 13.8353C47.0831 14.1419 46.352 14.9696 46.1238 15.1182C45.7133 15.3859 45.1025 15.7911 44.6609 15.4083C44.1843 14.995 43.7839 14.6225 44.0372 13.942C44.5067 12.6808 43.2933 12.9952 42.9465 12.2568C42.5693 11.4537 41.9291 11.2472 41.6025 10.8151C41.2177 10.3062 39.8627 9.54545 39.7867 9.38044C39.1597 8.02016 38.5399 9.34088 37.9812 8.83507C37.4062 8.31467 37.0948 8.87933 37.0948 7.78095C37.0948 6.74663 36.2827 7.51435 36.2087 7.88585C35.9895 8.98371 35.4891 7.74696 35.2858 8.84711C35.2542 9.01783 34.962 9.65682 34.8717 9.77173C34.2781 10.5268 33.9408 9.53556 33.4875 10.1757C32.8007 11.1455 32.3844 11.8456 31.348 12.5193L31.2689 12.5348C31.1013 12.557 30.9508 12.57 30.8155 12.5736C30.844 12.9447 30.072 14.704 29.7535 14.9633C29.1124 15.4852 28.9457 15.5505 28.537 16.4086C28.5275 16.5195 29.0636 17.8194 29.5648 17.4837C30.4933 16.8613 30.1977 17.3621 30.1292 17.9187C30.0538 18.5301 31.1374 17.9937 31.0766 18.485C31.0241 18.9108 29.1773 19.1609 28.4968 20.0791C28.3279 20.3071 28.3406 20.4421 28.2571 20.6945C28.1458 21.0316 27.9494 22.0667 27.8586 22.2166C27.3197 23.1073 27.3075 22.7506 26.623 23.1814C26.1594 23.4731 25.2442 23.835 24.6988 23.856C23.6717 23.8957 24.0845 23.4459 23.7076 24.2162C23.4666 24.7089 23.7375 25.0653 24.2392 25.132C24.8619 25.2148 24.4838 25.3497 25.4119 25.3225C26.5005 25.8595 25.9272 25.8647 26.5002 26.3704C26.8951 26.7188 27.4444 26.867 27.9318 27.3051C28.3695 27.6987 28.4167 27.4463 28.821 28.1321C29.0687 28.552 29.6657 29.146 29.7109 29.5147C29.7224 29.6091 29.5553 31.3397 29.5468 31.3604C29.4599 31.5701 29.5889 31.8537 29.0015 32.0453C28.5213 32.2019 28.2728 32.4107 27.7011 32.4492C27.3591 32.4723 27.4125 32.7163 27.6729 32.8968C27.718 32.928 28.4718 34.0165 28.7024 34.1971C28.7949 34.2697 30.2112 36.4998 30.4852 36.8134C30.922 37.4543 31.3053 37.9576 31.3643 38.7376C31.3877 39.0492 31.8665 40.4931 32.184 40.6782C32.2702 40.7284 32.6103 41.0626 32.6036 41.218C32.5817 41.7266 32.312 41.8188 32.0162 42.2301C31.5398 42.8927 31.1857 42.5494 30.91 43.6036C30.6544 44.5811 31.266 44.3756 31.0515 45.2851C30.872 46.0465 31.3616 46.3826 30.8855 46.6573C30.1195 47.0992 31.0062 47.3455 30.6038 48.2232C30.4688 48.5177 28.3319 49.7418 27.9199 49.8747C27.2267 50.0983 26.9611 50.8564 27.8287 51.1631C28.0816 51.2525 28.7036 51.497 28.5556 51.8307C28.4129 52.1525 28.3373 52.7227 28.3459 53.0681C28.0032 54.4414 28.5232 53.8092 29.4155 54.3529C29.7626 54.5643 29.4954 54.7933 29.9609 55.0552C30.1965 55.1879 30.2574 55.5459 30.1549 55.7946C30.0008 56.1692 29.9644 56.0346 29.6253 56.298C29.4448 56.4383 28.4398 56.5283 28.9978 57.137C29.137 57.2886 29.571 58.3068 29.5624 58.5787C29.5485 59.0155 30.345 60.8054 30.5217 61.3718C30.7764 62.1881 30.7098 61.8542 31.1929 62.3942C31.5181 62.7577 31.6177 63.003 31.5741 63.4555C31.5453 63.7545 31.571 63.8047 31.4763 64.1267C31.4183 64.3239 31.636 64.86 31.4116 65.4252C31.4116 65.4252 31.368 65.5826 31.3661 65.5894Z" stroke="#E42313" stroke-width="10" mask="url(#path-1-outside-1_85_711)"/>
<path d="M73.24 83H64.36V79H77.56V82.84L70.68 107H66.2L73.24 83Z" stroke="#E42313" stroke-width="10" mask="url(#path-1-outside-1_85_711)"/>
<path d="M89.2556 83H80.3756V79H93.5756V82.84L86.6956 107H82.2156L89.2556 83Z" stroke="#E42313" stroke-width="10" mask="url(#path-1-outside-1_85_711)"/>
</svg>
