<svg width="161" height="176" viewBox="0 0 161 176" fill="none" xmlns="http://www.w3.org/2000/svg">
<mask id="path-1-outside-1_85_713" maskUnits="userSpaceOnUse" x="0.302734" y="0.159668" width="160" height="176" fill="black">
<rect fill="white" x="0.302734" y="0.159668" width="160" height="176"/>
<path fill-rule="evenodd" clip-rule="evenodd" d="M96.5599 14.2057C96.8879 14.1838 99.4366 13.71 98.9845 14.9406C98.5755 16.0544 101.249 15.6793 102.076 16.8803C102.394 17.3413 103.344 17.6513 103.915 17.2461C104.577 16.7774 105.308 16.3231 105.974 15.8159C106.51 15.408 107.34 15.2952 107.036 16.3282C106.793 17.1485 106.515 18.5474 107.2 19.1922C107.825 19.7809 107.563 20.5302 107.822 21.1587C108.211 22.105 108.033 21.5958 108.481 22.3028C108.774 22.7664 108.516 25.1478 110.03 24.3332C110.504 24.0778 111.152 22.9361 112.11 23.2907C113.24 23.7091 115.534 21.2651 116.135 22.0005C116.438 22.3712 116.532 22.3044 116.88 22.9154C116.896 22.9443 117.253 23.2781 117.273 23.2812C118.499 23.7483 118.163 23.6038 119.102 23.1588C119.796 22.8302 121.938 22.5858 122.799 22.5858C124.957 22.5858 122.891 24.2241 125.031 24.0528C125.508 24.0148 126.43 22.6153 126.857 22.3205C128.625 21.0996 128.123 21.9963 129.815 21.3782C130.854 20.9991 132.366 20.7356 133.347 20.2042C134.256 19.7118 135.563 19.3584 136.449 18.8773C136.936 18.6126 139.231 18.3721 139.413 19.4595C139.489 19.915 139.736 20.4485 139.705 21.0301C139.682 21.4809 139.944 23.2334 140.181 23.6567C140.754 24.678 141.123 26.2587 141.928 27.1875C142.923 28.3358 143.277 30.1075 145.039 30.3441C145.734 30.4375 145.833 31.5475 146.332 32.1037C146.651 32.4593 146.84 32.6704 147.171 33.0154C148.092 34.198 148.374 34.57 149.915 34.0674C150.391 33.9123 152.314 32.9707 152.733 32.7226C153.113 33.2152 153.478 33.7935 153.98 34.1595C155.265 35.0945 154.886 34.9825 155.072 36.5683C155.182 37.5066 155.758 37.9813 154.529 38.4587C154.105 38.6238 153.199 38.2376 152.55 39.154C151.807 40.2029 152.47 43.3972 149.915 40.4472C149.283 39.717 148.302 39.2469 147.976 40.5174C147.767 41.3276 146.76 40.1943 145.89 41.0297C145.36 41.538 146.35 42.167 145.085 42.9054C143.888 43.6039 144.953 45.5094 145.35 46.3997C145.713 47.2117 146.572 46.9891 146.229 48.4857C146.134 48.8962 145.712 49.2494 145.743 50.1691C145.75 50.3528 145.653 51.8366 145.551 51.9988C144.557 53.5751 144.122 53.391 142.379 53.7774C141.508 53.9706 139.712 54.1337 140.962 55.4241C141.784 56.2723 142.658 56.3944 142.404 57.8364C142.384 57.9513 142.372 57.9632 142.377 58.083C142.308 58.9449 142.138 60.6339 143.594 60.2515C143.977 60.1508 145.634 60.3584 145.634 61.0838C145.634 62.5948 145.943 65.6939 144.978 66.8689C143.549 68.6101 141.901 67.8037 141.471 69.3448C141.413 69.5535 141.586 70.857 141.471 71.5071C141.393 71.9482 141.411 74.4002 141.288 74.6972C141.198 74.9173 141.118 75.4985 140.904 75.9477C140.348 77.1128 140.419 77.4277 139.449 78.3565C138.409 79.3519 137.915 80.7401 138.525 82.1018C138.84 82.8057 138.8 84.6885 138.534 85.3097C138.509 85.3487 137.852 86.5964 137.656 86.7274C137.182 87.0452 136.835 86.5815 136.958 87.8617C137.024 88.5482 137.492 88.1917 136.738 89.0789C136.534 89.3192 136.082 89.9291 136.082 90.2593C136.082 90.5901 136.393 92.4574 136.741 92.4853C137.101 92.5143 138.624 92.7741 138.397 93.3238C138.005 94.2776 139.035 95.2936 139.495 96.0318C140.21 97.1797 139.411 98.9636 139.306 100.219C139.23 101.121 138.087 102.394 137.4 102.899C136.307 103.703 137.637 105.04 137.519 105.327C137.019 106.541 136.814 106.09 137.46 107.523C138.194 109.148 137.551 109.451 137.962 110.734C138.311 111.827 135.98 111.835 137.37 113.384C137.635 113.68 137.534 113.733 137.693 114C137.708 115.806 137.875 115.135 137.277 116.805C136.955 117.708 137.825 118.391 137.766 119.297C137.765 119.304 138.07 120.757 138.092 121.053C138.188 122.323 140.285 122.389 140.959 123.365C141.507 124.16 141.505 124.483 141.904 125.359C142.598 126.883 143.43 127.542 144.555 128.638C144.858 128.934 145.694 129.823 145.899 130.175C146.032 130.402 147.29 131.405 145.926 131.126C145.12 130.962 144.283 130.745 143.463 130.727C142.898 130.715 142.628 130.555 141.965 130.751C140.333 131.232 142.255 131.695 139.91 133.063C138.485 133.894 137.543 134.305 135.89 133.63C135.022 133.275 134.433 132.894 133.899 133.651C133.508 134.207 131.423 134.557 131.368 134.597C131.011 134.851 131.442 135.541 131.804 135.777C132.4 136.167 133.493 137.189 132.752 137.897C132.144 138.478 132.534 138.668 131.261 139.092C130.394 139.38 130.294 140.377 128.374 140.348C127.489 140.335 126.046 140.255 125.425 140.848L125.25 141.044C124.847 143.772 124.891 142.732 124.079 142.337C123.328 141.972 123.286 143.089 123.091 143.276C122.691 143.661 121.021 143.739 121.185 145.069C121.225 145.396 122.359 145.621 122.652 145.728C123.325 145.973 124.043 146.164 124.043 146.972C124.017 146.977 123.651 147.218 123.515 147.262C122.265 147.657 121.408 148.372 121.408 149.701C121.408 150.926 122.307 152.26 121.81 153.01C121.314 153.76 120.236 152.54 118.908 153.476C117.527 154.451 115.86 154.609 114.244 154.304C113.299 154.125 111.051 154.272 112.259 155.535C112.576 155.867 113.321 156.289 113.679 156.778C114.088 157.337 114.441 158.149 114.586 158.854C113.906 158.973 113.711 161.208 111.868 161.277C110.575 161.326 110.141 162.596 108.834 162.299C107.061 161.896 108.302 161.607 105.72 162.335C105.423 162.353 104.847 162.457 104.589 162.396C103.425 162.121 103.616 160.833 102.991 160.369C101.155 159.006 100.212 160.917 100.733 158.188C100.987 156.861 99.1144 157.629 98.8464 156.441C98.6136 155.409 97.7439 155.869 96.8974 155.861C95.624 155.849 96.3052 153.092 93.9457 157.002C93.0878 158.424 92.2152 162.598 90.1671 162.598C88.7534 162.598 88.8028 160.893 86.8861 161.457C85.1513 161.968 85.483 160.393 84.6777 160.643C84.1035 160.821 81.9148 164.117 81.5119 164.812C81.2799 165.213 79.6051 166.604 79.2984 165.913C78.8872 164.986 79.3354 161.57 79.9331 160.759C81.1686 159.081 78.3402 160.54 78.0541 160.03C77.9751 159.889 79.0045 157.273 79.1519 156.876C79.2856 156.515 79.8481 155.464 79.5733 155.255C79.5412 155.231 77.3269 155.067 76.9469 154.967C76.3113 154.8 75.333 156.824 75.1726 155.145C75.0758 154.135 75.2055 154.543 74.6414 153.946C74.057 153.328 72.7117 155.355 72.7478 153.651C72.7832 151.976 71.4685 152.675 71.5738 151.644C71.6955 150.451 70.9615 150.383 70.5981 150.961C70.1562 151.663 70.1526 152.107 69.5148 153.034C69.0271 153.743 67.7223 153.366 67.6581 154.633C67.5933 155.913 67.062 155.841 66.2799 156.636C64.353 158.596 66.6335 158.717 65.9318 160.402C64.9647 162.725 63.0474 159.812 61.736 161.015C60.4241 162.219 59.2973 159.741 58.9485 160.18C58.3092 160.983 59.5865 161.851 59.378 163.013C58.9405 165.452 61.9442 165.051 61.3941 165.602C60.3099 166.687 60.2657 166.429 58.9452 166.297C57.4151 166.144 56.776 166.349 54.9627 166.032C54.0906 166.194 53.3107 166.371 52.4127 166.447C50.4641 166.611 48.9877 167.856 49.3397 165.217C49.5101 163.938 50.0753 162.264 48.199 163.507C47.3014 164.101 45.9156 164.313 45.6007 165.144C44.9651 166.822 44.7513 167.24 42.9115 167.632C41.142 168.01 40.8602 167.588 39.3012 167.373C36.4752 166.984 36.3314 166.926 35.2078 169.465C34.8785 170.209 33.4872 171.103 32.7609 170.767C31.5613 170.212 32.7744 169.234 29.7132 169.642C28.8734 169.754 26.9753 170.451 26.382 170.313C25.3703 170.079 24.2193 170.548 23.2841 170.17C21.4072 169.411 20.6635 170.053 19.9017 169.814C17.0339 168.912 20.3773 167.38 20.3105 167.053C20.2618 166.815 17.5432 167.237 17.2364 167.322C15.9257 167.686 16.4048 165.656 16.538 165.08L16.4774 164.676C16.3415 163.77 15.7495 163.144 15.8794 162.817C16.1147 162.226 16.9713 162.309 17.8189 161.418C18.5686 160.629 18.6419 160.078 19.5275 160.445C21.2556 161.162 19.1971 157.312 19.4992 156.663C20.0582 155.462 20.0007 155.665 19.8409 154.401C19.665 153.006 19.1053 152.884 18.5016 151.896C17.1065 149.614 20.3127 148.735 19.1301 147.292C18.5669 146.605 20.2295 145.027 20.8562 144.724C21.9007 144.22 20.9921 143.333 20.8102 142.971C20.1781 141.711 19.4173 140.953 19.609 139.391C19.7163 138.515 19.0644 138.832 18.1942 138.631C16.8779 138.329 17.0103 138.134 17.6724 136.829C17.8866 136.324 18.3662 135.474 18.3343 134.963C18.238 133.421 19.3233 133.044 19.7982 132.145C20.229 131.329 17.4763 130.881 16.9585 130.788C16.0706 130.627 15.8847 130.519 15.0963 130.315C14.2438 130.095 13.8023 129.618 13.0616 129.656C12.2473 129.699 11.4198 129.758 10.7068 130.145C10.1686 130.436 9.20795 130.44 8.91074 129.921C8.38715 129.007 9.91058 128.472 8.5237 127.671C7.39972 127.022 8.58897 126.28 9.28274 125.984C10.4299 125.496 9.62553 125.192 9.94155 124.783C10.2919 124.33 10.5169 125.435 10.811 123.856C11.0859 122.736 10.6583 121.616 10.2496 120.578C9.71383 119.218 10.7247 119.129 10.9418 118.55C11.301 117.59 9.26814 118.248 9.63705 117.049C9.8475 116.365 9.62708 115.265 9.31372 114.615C8.67218 113.285 9.82161 112.775 8.31966 112.981C7.812 113.05 7.758 112.768 7.67014 112.874C7.34284 112.167 5.83514 111.252 5.49655 110.904C5.06325 110.459 5.4441 109.484 5.786 109.048C6.52979 108.098 5.30003 106.796 7.03037 106.183C7.86466 105.888 7.9981 104.817 8.59449 104.842C9.41529 104.877 10.2283 104.533 10.2047 103.564C10.1668 102.021 10.455 99.2721 10.8267 97.8525C10.9031 97.2419 11.3417 96.6309 11.4393 96.2184C11.8201 94.6102 13.1973 94.8003 12.9986 94.1052C12.6301 92.8173 12.8191 93.155 13.1415 92.0735C13.3161 91.4884 14.0526 90.6211 14.5689 90.4268C15.8737 89.9358 14.7258 89.452 16.2364 88.9326C16.947 88.6885 18.8548 89.5272 19.4266 89.0331C19.7696 88.7365 19.2361 87.3189 19.1704 86.8741C18.9931 85.6747 18.8612 86.1564 18.402 85.8986C17.3732 85.321 17.6155 86.3602 17.1211 86.8039C16.993 86.9188 15.8449 85.923 15.5966 85.7583C14.7251 85.1807 14.7623 85.8424 13.9833 84.6784C12.7947 82.9024 13.0802 84.6755 11.9914 83.8365C11.5785 83.5183 10.4401 81.7583 10.4607 81.2385C10.4926 80.4356 10.6282 80.4086 10.5738 79.4453C10.5466 78.9627 9.90924 76.7884 10.9093 77.3594C12.2652 78.1333 12.706 77.8031 13.9676 77.9418C15.2124 78.0788 15.659 77.7984 16.6453 77.7984C18.0059 77.7984 18.2601 78.8195 19.2436 79.2497C19.7371 79.4657 20.1824 80.55 20.3875 79.9941C20.7221 79.0875 20.0642 79.2353 21.6223 79.0061C21.7131 79.0061 21.6938 79.016 21.7958 78.9968C22.8977 78.7876 25.447 79.8439 25.8945 79.5088C27.0793 78.6219 26.9368 79.226 27.5412 79.1158C28.8165 78.8832 28.4655 76.4872 28.4655 75.539C28.4655 74.2074 29.1122 73.4506 29.3532 72.3363C29.4751 71.7729 31.0742 69.3369 31.6126 69.1014C32.0059 68.9295 33.2863 67.4875 32.9794 67.21C32.2779 66.5764 31.3705 67.609 31.8689 64.6976C31.9317 64.4634 31.9174 64.2576 31.8689 64.021C31.4234 61.8512 34.2275 62.9504 35.3579 61.9068C36.4383 60.9096 37.6029 61.9776 37.5777 60.3971C37.5503 58.6862 38.5025 58.4773 36.529 57.6838C34.7216 56.9572 35.5407 57.0097 34.5163 56.2074C32.6332 54.7329 33.7346 54.0339 33.0524 53.539C31.6861 52.5487 32.7789 51.3395 32.6007 50.6451C32.5087 50.2859 30.5953 49.981 30.3287 49.9863C27.7786 50.0365 28.9973 49.2766 28.2272 48.5592C27.0282 47.4421 28.1889 46.3615 27.4805 45.8084C26.7901 45.2689 27.3564 44.5459 28.0902 44.7072C28.8796 44.8809 28.8714 44.6997 29.2706 44.7168C29.7163 44.7358 30.3614 44.5039 30.7345 44.424C31.3946 44.2826 31.2767 42.7005 31.4391 41.9992C31.6943 40.8972 31.3847 41.089 31.9421 39.7398C31.991 39.5961 32.043 39.4441 32.0935 39.3016C32.3896 38.4646 32.0756 37.3814 33.1161 37.3214C35.7312 37.1707 33.0692 35.2423 35.2386 35.2386C36.2132 35.2368 36.0948 35.2695 37.0747 34.9825C38.2938 34.6253 38.4304 35.2381 39.5108 34.4888C40.8436 33.5644 41.4732 36.5944 43.3326 34.9028C44.8319 33.539 44.0173 32.9581 44.4178 32.0727C44.6602 31.5369 44.8775 31.4338 45.3265 31.735C46.3389 32.4137 46.4881 31.6064 46.2172 31.052C45.808 30.2151 46.41 30.0296 47.0798 29.283C47.8285 28.4487 48.2571 26.58 48.8396 25.9675C49.1355 25.6563 49.2335 24.6793 49.081 24.2872C48.3939 22.5214 49.7418 23.5454 49.6144 21.9547C49.5809 21.5388 48.7462 20.3636 48.4003 20.125C47.6787 19.6271 47.6074 19.4182 47.0192 18.9267C46.4586 18.4584 47.4923 17.9735 47.8243 17.8653C48.732 17.5696 49.0545 17.3457 49.9833 16.9412C50.3668 16.5249 51.3593 16.3415 51.9198 16.4716C53.9294 16.9385 53.3999 18.5856 54.951 17.3311C57.1549 15.5485 55.7735 14.9353 56.2683 14.5863C57.5377 13.6912 56.7596 13.4891 57.1529 13.2324C58.0825 12.6254 59.124 12.1649 60.1473 12.8394C61.9389 14.0205 60.8253 11.3421 63.8069 11.3421C64.922 11.3421 65.4566 9.824 66.4846 11.1319C68.1251 13.2196 67.1735 9.65248 67.4118 9.07312C68.0702 7.4738 66.6286 5.89284 66.8442 5.30397C66.9519 5.0092 67.8489 5.24643 68.1071 5.31326C68.4864 5.41152 70.0404 5.10857 70.074 5.23073C70.3476 6.22059 70.3914 6.09134 71.0619 6.66096C71.5401 7.06727 72.975 6.87629 73.5871 6.80127C74.8399 6.64747 74.288 6.13474 75.5631 7.35321L77.0549 7.72829C77.8697 8.74118 78.1211 9.57348 79.5799 9.44845C79.6038 9.44646 80.7783 9.79612 81.0436 9.81737C81.374 9.84392 81.8991 10.2035 82.8463 10.1803C83.2769 10.1697 83.5463 10.2737 84.0716 10.1163C84.2821 10.0535 85.7464 10.0099 85.7278 10.5921C85.7024 11.3956 86.5181 11.4136 87.0326 12.559C87.5787 13.7744 88.6753 13.4099 87.8264 15.3036C87.7341 15.5089 86.2753 16.3184 86.7796 17.5358C87.189 18.5237 85.8847 19.4739 89.4458 18.0848C90.1772 17.7996 92.1335 17.0326 92.2021 18.4445C92.245 19.329 92.2362 20.1836 93.2329 20.3872C93.7994 20.503 94.5138 20.2494 94.9562 19.8778C95.6364 19.3064 95.1379 18.3816 95.5844 17.2703C95.8285 16.663 96.1357 15.8196 96.1908 15.1843C96.2202 14.8457 96.2935 14.5091 96.5599 14.2057Z"/>
<path d="M70.84 102.4C68.7067 102.4 67.08 101.8 65.96 100.6C64.84 99.3733 64.28 97.6267 64.28 95.36V94.84H68.44V95.64C68.44 97.48 69.2 98.4 70.72 98.4C71.5467 98.4 72.16 98.1467 72.56 97.64C72.96 97.1333 73.16 96.24 73.16 94.96V89.6H73.08C72.3067 91.2267 70.9733 92.04 69.08 92.04C67.48 92.04 66.2667 91.4933 65.44 90.4C64.6133 89.3067 64.2 87.72 64.2 85.64V80.64C64.2 78.4 64.7733 76.6667 65.92 75.44C67.0667 74.2133 68.72 73.6 70.88 73.6C73.04 73.6 74.6933 74.2133 75.84 75.44C76.9867 76.6667 77.56 78.4 77.56 80.64V95.12C77.56 99.9733 75.32 102.4 70.84 102.4ZM70.88 88.04C72.4 88.04 73.16 87.12 73.16 85.28V80.32C73.16 78.5067 72.4 77.6 70.88 77.6C69.36 77.6 68.6 78.5067 68.6 80.32V85.28C68.6 87.12 69.36 88.04 70.88 88.04Z"/>
<path d="M86.8156 80.64H82.2156V77.52C83.469 77.52 84.469 77.4133 85.2156 77.2C85.989 76.9867 86.6023 76.64 87.0556 76.16C87.509 75.6533 87.909 74.9333 88.2556 74H91.2156V102H86.8156V80.64Z"/>
</mask>
<path d="M70.84 102.4C68.7067 102.4 67.08 101.8 65.96 100.6C64.84 99.3733 64.28 97.6267 64.28 95.36V94.84H68.44V95.64C68.44 97.48 69.2 98.4 70.72 98.4C71.5467 98.4 72.16 98.1467 72.56 97.64C72.96 97.1333 73.16 96.24 73.16 94.96V89.6H73.08C72.3067 91.2267 70.9733 92.04 69.08 92.04C67.48 92.04 66.2667 91.4933 65.44 90.4C64.6133 89.3067 64.2 87.72 64.2 85.64V80.64C64.2 78.4 64.7733 76.6667 65.92 75.44C67.0667 74.2133 68.72 73.6 70.88 73.6C73.04 73.6 74.6933 74.2133 75.84 75.44C76.9867 76.6667 77.56 78.4 77.56 80.64V95.12C77.56 99.9733 75.32 102.4 70.84 102.4ZM70.88 88.04C72.4 88.04 73.16 87.12 73.16 85.28V80.32C73.16 78.5067 72.4 77.6 70.88 77.6C69.36 77.6 68.6 78.5067 68.6 80.32V85.28C68.6 87.12 69.36 88.04 70.88 88.04Z" fill="white"/>
<path d="M86.8156 80.64H82.2156V77.52C83.469 77.52 84.469 77.4133 85.2156 77.2C85.989 76.9867 86.6023 76.64 87.0556 76.16C87.509 75.6533 87.909 74.9333 88.2556 74H91.2156V102H86.8156V80.64Z" fill="white"/>
<path fill-rule="evenodd" clip-rule="evenodd" d="M96.5599 14.2057C96.8879 14.1838 99.4366 13.71 98.9845 14.9406C98.5755 16.0544 101.249 15.6793 102.076 16.8803C102.394 17.3413 103.344 17.6513 103.915 17.2461C104.577 16.7774 105.308 16.3231 105.974 15.8159C106.51 15.408 107.34 15.2952 107.036 16.3282C106.793 17.1485 106.515 18.5474 107.2 19.1922C107.825 19.7809 107.563 20.5302 107.822 21.1587C108.211 22.105 108.033 21.5958 108.481 22.3028C108.774 22.7664 108.516 25.1478 110.03 24.3332C110.504 24.0778 111.152 22.9361 112.11 23.2907C113.24 23.7091 115.534 21.2651 116.135 22.0005C116.438 22.3712 116.532 22.3044 116.88 22.9154C116.896 22.9443 117.253 23.2781 117.273 23.2812C118.499 23.7483 118.163 23.6038 119.102 23.1588C119.796 22.8302 121.938 22.5858 122.799 22.5858C124.957 22.5858 122.891 24.2241 125.031 24.0528C125.508 24.0148 126.43 22.6153 126.857 22.3205C128.625 21.0996 128.123 21.9963 129.815 21.3782C130.854 20.9991 132.366 20.7356 133.347 20.2042C134.256 19.7118 135.563 19.3584 136.449 18.8773C136.936 18.6126 139.231 18.3721 139.413 19.4595C139.489 19.915 139.736 20.4485 139.705 21.0301C139.682 21.4809 139.944 23.2334 140.181 23.6567C140.754 24.678 141.123 26.2587 141.928 27.1875C142.923 28.3358 143.277 30.1075 145.039 30.3441C145.734 30.4375 145.833 31.5475 146.332 32.1037C146.651 32.4593 146.84 32.6704 147.171 33.0154C148.092 34.198 148.374 34.57 149.915 34.0674C150.391 33.9123 152.314 32.9707 152.733 32.7226C153.113 33.2152 153.478 33.7935 153.98 34.1595C155.265 35.0945 154.886 34.9825 155.072 36.5683C155.182 37.5066 155.758 37.9813 154.529 38.4587C154.105 38.6238 153.199 38.2376 152.55 39.154C151.807 40.2029 152.47 43.3972 149.915 40.4472C149.283 39.717 148.302 39.2469 147.976 40.5174C147.767 41.3276 146.76 40.1943 145.89 41.0297C145.36 41.538 146.35 42.167 145.085 42.9054C143.888 43.6039 144.953 45.5094 145.35 46.3997C145.713 47.2117 146.572 46.9891 146.229 48.4857C146.134 48.8962 145.712 49.2494 145.743 50.1691C145.75 50.3528 145.653 51.8366 145.551 51.9988C144.557 53.5751 144.122 53.391 142.379 53.7774C141.508 53.9706 139.712 54.1337 140.962 55.4241C141.784 56.2723 142.658 56.3944 142.404 57.8364C142.384 57.9513 142.372 57.9632 142.377 58.083C142.308 58.9449 142.138 60.6339 143.594 60.2515C143.977 60.1508 145.634 60.3584 145.634 61.0838C145.634 62.5948 145.943 65.6939 144.978 66.8689C143.549 68.6101 141.901 67.8037 141.471 69.3448C141.413 69.5535 141.586 70.857 141.471 71.5071C141.393 71.9482 141.411 74.4002 141.288 74.6972C141.198 74.9173 141.118 75.4985 140.904 75.9477C140.348 77.1128 140.419 77.4277 139.449 78.3565C138.409 79.3519 137.915 80.7401 138.525 82.1018C138.84 82.8057 138.8 84.6885 138.534 85.3097C138.509 85.3487 137.852 86.5964 137.656 86.7274C137.182 87.0452 136.835 86.5815 136.958 87.8617C137.024 88.5482 137.492 88.1917 136.738 89.0789C136.534 89.3192 136.082 89.9291 136.082 90.2593C136.082 90.5901 136.393 92.4574 136.741 92.4853C137.101 92.5143 138.624 92.7741 138.397 93.3238C138.005 94.2776 139.035 95.2936 139.495 96.0318C140.21 97.1797 139.411 98.9636 139.306 100.219C139.23 101.121 138.087 102.394 137.4 102.899C136.307 103.703 137.637 105.04 137.519 105.327C137.019 106.541 136.814 106.09 137.46 107.523C138.194 109.148 137.551 109.451 137.962 110.734C138.311 111.827 135.98 111.835 137.37 113.384C137.635 113.68 137.534 113.733 137.693 114C137.708 115.806 137.875 115.135 137.277 116.805C136.955 117.708 137.825 118.391 137.766 119.297C137.765 119.304 138.07 120.757 138.092 121.053C138.188 122.323 140.285 122.389 140.959 123.365C141.507 124.16 141.505 124.483 141.904 125.359C142.598 126.883 143.43 127.542 144.555 128.638C144.858 128.934 145.694 129.823 145.899 130.175C146.032 130.402 147.29 131.405 145.926 131.126C145.12 130.962 144.283 130.745 143.463 130.727C142.898 130.715 142.628 130.555 141.965 130.751C140.333 131.232 142.255 131.695 139.91 133.063C138.485 133.894 137.543 134.305 135.89 133.63C135.022 133.275 134.433 132.894 133.899 133.651C133.508 134.207 131.423 134.557 131.368 134.597C131.011 134.851 131.442 135.541 131.804 135.777C132.4 136.167 133.493 137.189 132.752 137.897C132.144 138.478 132.534 138.668 131.261 139.092C130.394 139.38 130.294 140.377 128.374 140.348C127.489 140.335 126.046 140.255 125.425 140.848L125.25 141.044C124.847 143.772 124.891 142.732 124.079 142.337C123.328 141.972 123.286 143.089 123.091 143.276C122.691 143.661 121.021 143.739 121.185 145.069C121.225 145.396 122.359 145.621 122.652 145.728C123.325 145.973 124.043 146.164 124.043 146.972C124.017 146.977 123.651 147.218 123.515 147.262C122.265 147.657 121.408 148.372 121.408 149.701C121.408 150.926 122.307 152.26 121.81 153.01C121.314 153.76 120.236 152.54 118.908 153.476C117.527 154.451 115.86 154.609 114.244 154.304C113.299 154.125 111.051 154.272 112.259 155.535C112.576 155.867 113.321 156.289 113.679 156.778C114.088 157.337 114.441 158.149 114.586 158.854C113.906 158.973 113.711 161.208 111.868 161.277C110.575 161.326 110.141 162.596 108.834 162.299C107.061 161.896 108.302 161.607 105.72 162.335C105.423 162.353 104.847 162.457 104.589 162.396C103.425 162.121 103.616 160.833 102.991 160.369C101.155 159.006 100.212 160.917 100.733 158.188C100.987 156.861 99.1144 157.629 98.8464 156.441C98.6136 155.409 97.7439 155.869 96.8974 155.861C95.624 155.849 96.3052 153.092 93.9457 157.002C93.0878 158.424 92.2152 162.598 90.1671 162.598C88.7534 162.598 88.8028 160.893 86.8861 161.457C85.1513 161.968 85.483 160.393 84.6777 160.643C84.1035 160.821 81.9148 164.117 81.5119 164.812C81.2799 165.213 79.6051 166.604 79.2984 165.913C78.8872 164.986 79.3354 161.57 79.9331 160.759C81.1686 159.081 78.3402 160.54 78.0541 160.03C77.9751 159.889 79.0045 157.273 79.1519 156.876C79.2856 156.515 79.8481 155.464 79.5733 155.255C79.5412 155.231 77.3269 155.067 76.9469 154.967C76.3113 154.8 75.333 156.824 75.1726 155.145C75.0758 154.135 75.2055 154.543 74.6414 153.946C74.057 153.328 72.7117 155.355 72.7478 153.651C72.7832 151.976 71.4685 152.675 71.5738 151.644C71.6955 150.451 70.9615 150.383 70.5981 150.961C70.1562 151.663 70.1526 152.107 69.5148 153.034C69.0271 153.743 67.7223 153.366 67.6581 154.633C67.5933 155.913 67.062 155.841 66.2799 156.636C64.353 158.596 66.6335 158.717 65.9318 160.402C64.9647 162.725 63.0474 159.812 61.736 161.015C60.4241 162.219 59.2973 159.741 58.9485 160.18C58.3092 160.983 59.5865 161.851 59.378 163.013C58.9405 165.452 61.9442 165.051 61.3941 165.602C60.3099 166.687 60.2657 166.429 58.9452 166.297C57.4151 166.144 56.776 166.349 54.9627 166.032C54.0906 166.194 53.3107 166.371 52.4127 166.447C50.4641 166.611 48.9877 167.856 49.3397 165.217C49.5101 163.938 50.0753 162.264 48.199 163.507C47.3014 164.101 45.9156 164.313 45.6007 165.144C44.9651 166.822 44.7513 167.24 42.9115 167.632C41.142 168.01 40.8602 167.588 39.3012 167.373C36.4752 166.984 36.3314 166.926 35.2078 169.465C34.8785 170.209 33.4872 171.103 32.7609 170.767C31.5613 170.212 32.7744 169.234 29.7132 169.642C28.8734 169.754 26.9753 170.451 26.382 170.313C25.3703 170.079 24.2193 170.548 23.2841 170.17C21.4072 169.411 20.6635 170.053 19.9017 169.814C17.0339 168.912 20.3773 167.38 20.3105 167.053C20.2618 166.815 17.5432 167.237 17.2364 167.322C15.9257 167.686 16.4048 165.656 16.538 165.08L16.4774 164.676C16.3415 163.77 15.7495 163.144 15.8794 162.817C16.1147 162.226 16.9713 162.309 17.8189 161.418C18.5686 160.629 18.6419 160.078 19.5275 160.445C21.2556 161.162 19.1971 157.312 19.4992 156.663C20.0582 155.462 20.0007 155.665 19.8409 154.401C19.665 153.006 19.1053 152.884 18.5016 151.896C17.1065 149.614 20.3127 148.735 19.1301 147.292C18.5669 146.605 20.2295 145.027 20.8562 144.724C21.9007 144.22 20.9921 143.333 20.8102 142.971C20.1781 141.711 19.4173 140.953 19.609 139.391C19.7163 138.515 19.0644 138.832 18.1942 138.631C16.8779 138.329 17.0103 138.134 17.6724 136.829C17.8866 136.324 18.3662 135.474 18.3343 134.963C18.238 133.421 19.3233 133.044 19.7982 132.145C20.229 131.329 17.4763 130.881 16.9585 130.788C16.0706 130.627 15.8847 130.519 15.0963 130.315C14.2438 130.095 13.8023 129.618 13.0616 129.656C12.2473 129.699 11.4198 129.758 10.7068 130.145C10.1686 130.436 9.20795 130.44 8.91074 129.921C8.38715 129.007 9.91058 128.472 8.5237 127.671C7.39972 127.022 8.58897 126.28 9.28274 125.984C10.4299 125.496 9.62553 125.192 9.94155 124.783C10.2919 124.33 10.5169 125.435 10.811 123.856C11.0859 122.736 10.6583 121.616 10.2496 120.578C9.71383 119.218 10.7247 119.129 10.9418 118.55C11.301 117.59 9.26814 118.248 9.63705 117.049C9.8475 116.365 9.62708 115.265 9.31372 114.615C8.67218 113.285 9.82161 112.775 8.31966 112.981C7.812 113.05 7.758 112.768 7.67014 112.874C7.34284 112.167 5.83514 111.252 5.49655 110.904C5.06325 110.459 5.4441 109.484 5.786 109.048C6.52979 108.098 5.30003 106.796 7.03037 106.183C7.86466 105.888 7.9981 104.817 8.59449 104.842C9.41529 104.877 10.2283 104.533 10.2047 103.564C10.1668 102.021 10.455 99.2721 10.8267 97.8525C10.9031 97.2419 11.3417 96.6309 11.4393 96.2184C11.8201 94.6102 13.1973 94.8003 12.9986 94.1052C12.6301 92.8173 12.8191 93.155 13.1415 92.0735C13.3161 91.4884 14.0526 90.6211 14.5689 90.4268C15.8737 89.9358 14.7258 89.452 16.2364 88.9326C16.947 88.6885 18.8548 89.5272 19.4266 89.0331C19.7696 88.7365 19.2361 87.3189 19.1704 86.8741C18.9931 85.6747 18.8612 86.1564 18.402 85.8986C17.3732 85.321 17.6155 86.3602 17.1211 86.8039C16.993 86.9188 15.8449 85.923 15.5966 85.7583C14.7251 85.1807 14.7623 85.8424 13.9833 84.6784C12.7947 82.9024 13.0802 84.6755 11.9914 83.8365C11.5785 83.5183 10.4401 81.7583 10.4607 81.2385C10.4926 80.4356 10.6282 80.4086 10.5738 79.4453C10.5466 78.9627 9.90924 76.7884 10.9093 77.3594C12.2652 78.1333 12.706 77.8031 13.9676 77.9418C15.2124 78.0788 15.659 77.7984 16.6453 77.7984C18.0059 77.7984 18.2601 78.8195 19.2436 79.2497C19.7371 79.4657 20.1824 80.55 20.3875 79.9941C20.7221 79.0875 20.0642 79.2353 21.6223 79.0061C21.7131 79.0061 21.6938 79.016 21.7958 78.9968C22.8977 78.7876 25.447 79.8439 25.8945 79.5088C27.0793 78.6219 26.9368 79.226 27.5412 79.1158C28.8165 78.8832 28.4655 76.4872 28.4655 75.539C28.4655 74.2074 29.1122 73.4506 29.3532 72.3363C29.4751 71.7729 31.0742 69.3369 31.6126 69.1014C32.0059 68.9295 33.2863 67.4875 32.9794 67.21C32.2779 66.5764 31.3705 67.609 31.8689 64.6976C31.9317 64.4634 31.9174 64.2576 31.8689 64.021C31.4234 61.8512 34.2275 62.9504 35.3579 61.9068C36.4383 60.9096 37.6029 61.9776 37.5777 60.3971C37.5503 58.6862 38.5025 58.4773 36.529 57.6838C34.7216 56.9572 35.5407 57.0097 34.5163 56.2074C32.6332 54.7329 33.7346 54.0339 33.0524 53.539C31.6861 52.5487 32.7789 51.3395 32.6007 50.6451C32.5087 50.2859 30.5953 49.981 30.3287 49.9863C27.7786 50.0365 28.9973 49.2766 28.2272 48.5592C27.0282 47.4421 28.1889 46.3615 27.4805 45.8084C26.7901 45.2689 27.3564 44.5459 28.0902 44.7072C28.8796 44.8809 28.8714 44.6997 29.2706 44.7168C29.7163 44.7358 30.3614 44.5039 30.7345 44.424C31.3946 44.2826 31.2767 42.7005 31.4391 41.9992C31.6943 40.8972 31.3847 41.089 31.9421 39.7398C31.991 39.5961 32.043 39.4441 32.0935 39.3016C32.3896 38.4646 32.0756 37.3814 33.1161 37.3214C35.7312 37.1707 33.0692 35.2423 35.2386 35.2386C36.2132 35.2368 36.0948 35.2695 37.0747 34.9825C38.2938 34.6253 38.4304 35.2381 39.5108 34.4888C40.8436 33.5644 41.4732 36.5944 43.3326 34.9028C44.8319 33.539 44.0173 32.9581 44.4178 32.0727C44.6602 31.5369 44.8775 31.4338 45.3265 31.735C46.3389 32.4137 46.4881 31.6064 46.2172 31.052C45.808 30.2151 46.41 30.0296 47.0798 29.283C47.8285 28.4487 48.2571 26.58 48.8396 25.9675C49.1355 25.6563 49.2335 24.6793 49.081 24.2872C48.3939 22.5214 49.7418 23.5454 49.6144 21.9547C49.5809 21.5388 48.7462 20.3636 48.4003 20.125C47.6787 19.6271 47.6074 19.4182 47.0192 18.9267C46.4586 18.4584 47.4923 17.9735 47.8243 17.8653C48.732 17.5696 49.0545 17.3457 49.9833 16.9412C50.3668 16.5249 51.3593 16.3415 51.9198 16.4716C53.9294 16.9385 53.3999 18.5856 54.951 17.3311C57.1549 15.5485 55.7735 14.9353 56.2683 14.5863C57.5377 13.6912 56.7596 13.4891 57.1529 13.2324C58.0825 12.6254 59.124 12.1649 60.1473 12.8394C61.9389 14.0205 60.8253 11.3421 63.8069 11.3421C64.922 11.3421 65.4566 9.824 66.4846 11.1319C68.1251 13.2196 67.1735 9.65248 67.4118 9.07312C68.0702 7.4738 66.6286 5.89284 66.8442 5.30397C66.9519 5.0092 67.8489 5.24643 68.1071 5.31326C68.4864 5.41152 70.0404 5.10857 70.074 5.23073C70.3476 6.22059 70.3914 6.09134 71.0619 6.66096C71.5401 7.06727 72.975 6.87629 73.5871 6.80127C74.8399 6.64747 74.288 6.13474 75.5631 7.35321L77.0549 7.72829C77.8697 8.74118 78.1211 9.57348 79.5799 9.44845C79.6038 9.44646 80.7783 9.79612 81.0436 9.81737C81.374 9.84392 81.8991 10.2035 82.8463 10.1803C83.2769 10.1697 83.5463 10.2737 84.0716 10.1163C84.2821 10.0535 85.7464 10.0099 85.7278 10.5921C85.7024 11.3956 86.5181 11.4136 87.0326 12.559C87.5787 13.7744 88.6753 13.4099 87.8264 15.3036C87.7341 15.5089 86.2753 16.3184 86.7796 17.5358C87.189 18.5237 85.8847 19.4739 89.4458 18.0848C90.1772 17.7996 92.1335 17.0326 92.2021 18.4445C92.245 19.329 92.2362 20.1836 93.2329 20.3872C93.7994 20.503 94.5138 20.2494 94.9562 19.8778C95.6364 19.3064 95.1379 18.3816 95.5844 17.2703C95.8285 16.663 96.1357 15.8196 96.1908 15.1843C96.2202 14.8457 96.2935 14.5091 96.5599 14.2057Z" stroke="#E42313" stroke-width="10" mask="url(#path-1-outside-1_85_713)"/>
<path d="M70.84 102.4C68.7067 102.4 67.08 101.8 65.96 100.6C64.84 99.3733 64.28 97.6267 64.28 95.36V94.84H68.44V95.64C68.44 97.48 69.2 98.4 70.72 98.4C71.5467 98.4 72.16 98.1467 72.56 97.64C72.96 97.1333 73.16 96.24 73.16 94.96V89.6H73.08C72.3067 91.2267 70.9733 92.04 69.08 92.04C67.48 92.04 66.2667 91.4933 65.44 90.4C64.6133 89.3067 64.2 87.72 64.2 85.64V80.64C64.2 78.4 64.7733 76.6667 65.92 75.44C67.0667 74.2133 68.72 73.6 70.88 73.6C73.04 73.6 74.6933 74.2133 75.84 75.44C76.9867 76.6667 77.56 78.4 77.56 80.64V95.12C77.56 99.9733 75.32 102.4 70.84 102.4ZM70.88 88.04C72.4 88.04 73.16 87.12 73.16 85.28V80.32C73.16 78.5067 72.4 77.6 70.88 77.6C69.36 77.6 68.6 78.5067 68.6 80.32V85.28C68.6 87.12 69.36 88.04 70.88 88.04Z" stroke="#E42313" stroke-width="10" mask="url(#path-1-outside-1_85_713)"/>
<path d="M86.8156 80.64H82.2156V77.52C83.469 77.52 84.469 77.4133 85.2156 77.2C85.989 76.9867 86.6023 76.64 87.0556 76.16C87.509 75.6533 87.909 74.9333 88.2556 74H91.2156V102H86.8156V80.64Z" stroke="#E42313" stroke-width="10" mask="url(#path-1-outside-1_85_713)"/>
</svg>
