<svg width="125" height="210" viewBox="0 0 125 210" fill="none" xmlns="http://www.w3.org/2000/svg">
<mask id="path-1-outside-1_85_707" maskUnits="userSpaceOnUse" x="0" y="0" width="125" height="211" fill="black">
<rect fill="white" width="125" height="211"/>
<path fill-rule="evenodd" clip-rule="evenodd" d="M108.792 50.0497C107.807 45.8527 108.82 47.453 108.605 44.7665C108.526 43.7838 106.376 37.4422 105.887 36.6168C106.503 36.2601 107.122 35.8886 107.748 35.4939C110.835 33.5469 111.503 31.7572 113.791 29.1097C116.883 25.5316 121.009 19.3408 119.219 14.4658C117.067 8.60873 112.554 10.2257 107.602 8.3437C106.278 7.84023 96.2019 5.1584 95.2192 5.10693C93.4982 5.01582 92.2002 4.98385 91.1696 5.00752C86.9685 5.10336 87.1856 6.12569 81.1362 7.85501C78.5745 8.58744 76.7481 10.0363 74.6709 10.7977C71.0537 12.1236 68.6825 15.7698 65.925 17.8422C63.4916 19.6715 60.892 21.4914 58.4977 23.4266C55.613 25.7576 52.4046 28.4317 49.5867 30.8456C49.4364 30.9745 49.3068 31.1017 49.195 31.262C47.1734 34.1598 43.6988 37.6765 39.9893 40.4275C37.3483 42.3864 34.5872 43.9571 32.1468 44.6404C26.1808 46.3112 17.042 52.3611 15.557 58.8483C14.4613 63.634 11.5156 71.8244 7.47896 74.8458L10.9423 78.8488C9.89514 83.9255 9.39586 82.0501 8.03276 85.7548C7.48314 87.2493 8.87698 91.5781 10.4371 92.7093C11.7304 93.6471 12.5811 96.3709 9.45852 96.5975C4.48651 96.9584 6.27442 102.086 5.78278 103.357C3.93277 108.14 5.78395 110.246 7.00388 114.72C7.2997 115.803 8.54272 117.552 8.693 118.423C9.15506 123.209 9.74075 123.962 12.0439 127.913C12.9148 129.406 16.2114 130.644 17.523 128.785C18.0413 128.049 19.8829 126.589 20.9218 127.717C23.0931 130.075 21.5756 129.252 22.3169 131.239C22.941 132.913 25.6856 132.854 26.8559 136.684C28.1285 140.849 27.661 140.646 31.2924 141.83C32.9643 142.376 32.3698 142.857 35.2137 142.783C37.1531 142.733 41.5494 143.198 41.4672 145.791C41.4317 146.907 44.152 148.669 44.7206 150.415C44.8915 150.938 45.5814 151.423 45.6742 151.784C47.8627 153.347 48.0194 152.971 50.1741 153.766C56.1057 155.953 47.891 156.835 51.6419 159.342C56.5139 162.599 52.7187 161.795 53.9564 164.405C55.4473 167.548 54.5261 166.903 54.1853 170.079L58.1735 171.082C60.3519 173.79 61.0239 176.015 64.9239 175.68C64.9878 175.675 68.1276 176.61 68.8369 176.667C69.7202 176.738 71.1242 177.699 73.6563 177.637C74.8076 177.609 75.5276 177.887 76.9322 177.466C77.4948 177.298 81.4096 177.181 81.3599 178.738C81.2918 180.886 83.4725 180.934 84.8481 183.996C86.3082 187.246 89.2397 186.271 86.9703 191.334C86.7235 191.883 82.8235 194.047 84.1719 197.301C85.2664 199.942 81.7793 202.483 91.2997 198.769C93.2551 198.007 98.485 195.956 98.6684 199.731C98.7832 202.095 98.7595 204.38 101.424 204.924C102.939 205.234 104.849 204.556 106.031 203.563C107.85 202.035 106.517 199.563 107.711 196.591C108.363 194.968 109.185 192.713 109.332 191.015C109.411 190.11 109.606 189.21 110.319 188.399C105.97 187.041 107.993 187.118 105.533 185.341C104.026 184.252 103.352 180.754 104.253 178.836C106.644 173.746 105.868 171.779 110.294 167.339C111.567 166.062 113.256 160.146 112.496 158.176C112.058 157.041 112.638 156.708 111.101 155.233C110.526 154.681 109.471 152.96 109.536 152.2C109.634 151.059 108.95 151.446 109.757 148.704C110.474 146.266 111.047 144.866 111.909 142.515C112.274 141.52 113.221 138.301 113.156 137.427C111.171 133.524 112.788 133.984 115.088 130.285C115.551 129.54 116.944 127.295 116.873 126.47L113.183 123.022C112.527 122.299 105.039 120.122 103.05 119.019C101.014 117.89 99.6239 117.747 97.9792 116.964C96.3552 116.192 96.0925 116.36 94.5939 115.952C91.4346 115.092 88.8368 115.352 85.8533 114.672C82.6881 113.951 80.9594 116.015 78.3036 114.46C76.2068 113.232 75.3212 112.909 75.3212 110.597C75.3212 107.049 72.13 107.934 71.578 107.083C69.8315 104.39 73.328 103.006 70.4545 101.196C69.6214 100.671 63.9874 98.6836 62.6923 98.2357C57.1695 96.3259 57.1867 95.8562 52.1384 92.4981C52.614 89.4282 54.0132 85.7915 55.2899 82.8842C55.8674 81.5702 57.3689 79.1493 58.4036 78.214C60.2294 76.5639 63.0142 72.0575 65.7333 72.897C66.9716 73.2798 70.5769 74.7973 71.2117 73.5904C72.0051 72.0824 71.1094 70.2016 75.1839 69.9874C77.9391 69.8425 79.178 69.4467 81.8758 70.0768C85.5291 70.9293 86.4354 68.3581 88.2683 65.9845C91.5565 61.726 88.4629 63.3801 94.2531 60.0641C97.826 58.0177 97.6248 56.8048 100.937 54.546C101.541 54.1342 102.184 53.758 102.812 53.3639L108.792 50.0497Z"/>
<path d="M64.84 155.4C62.7067 155.4 61.08 154.8 59.96 153.6C58.84 152.373 58.28 150.627 58.28 148.36V147.84H62.44V148.64C62.44 150.48 63.2 151.4 64.72 151.4C65.5467 151.4 66.16 151.147 66.56 150.64C66.96 150.133 67.16 149.24 67.16 147.96V142.6H67.08C66.3067 144.227 64.9733 145.04 63.08 145.04C61.48 145.04 60.2667 144.493 59.44 143.4C58.6133 142.307 58.2 140.72 58.2 138.64V133.64C58.2 131.4 58.7733 129.667 59.92 128.44C61.0667 127.213 62.72 126.6 64.88 126.6C67.04 126.6 68.6933 127.213 69.84 128.44C70.9867 129.667 71.56 131.4 71.56 133.64V148.12C71.56 152.973 69.32 155.4 64.84 155.4ZM64.88 141.04C66.4 141.04 67.16 140.12 67.16 138.28V133.32C67.16 131.507 66.4 130.6 64.88 130.6C63.36 130.6 62.6 131.507 62.6 133.32V138.28C62.6 140.12 63.36 141.04 64.88 141.04Z"/>
<path d="M74.5756 151.96C74.5756 149.96 74.8956 148.253 75.5356 146.84C76.1756 145.4 77.3223 143.813 78.9756 142.08C80.6023 140.347 81.7223 138.867 82.3356 137.64C82.9756 136.413 83.2956 135.133 83.2956 133.8C83.2956 132.6 83.0956 131.773 82.6956 131.32C82.3223 130.84 81.7623 130.6 81.0156 130.6C79.4956 130.6 78.7356 131.52 78.7356 133.36V136.36H74.5756V133.64C74.5756 131.373 75.1356 129.64 76.2556 128.44C77.3756 127.213 79.0023 126.6 81.1356 126.6C83.269 126.6 84.8956 127.213 86.0156 128.44C87.1356 129.64 87.6956 131.373 87.6956 133.64C87.6956 135.347 87.2823 137.013 86.4556 138.64C85.6556 140.267 84.2556 142.133 82.2556 144.24C80.949 145.627 80.069 146.76 79.6156 147.64C79.1623 148.493 78.9356 149.413 78.9356 150.4V151H87.2956V155H74.5756V151.96Z"/>
</mask>
<path d="M64.84 155.4C62.7067 155.4 61.08 154.8 59.96 153.6C58.84 152.373 58.28 150.627 58.28 148.36V147.84H62.44V148.64C62.44 150.48 63.2 151.4 64.72 151.4C65.5467 151.4 66.16 151.147 66.56 150.64C66.96 150.133 67.16 149.24 67.16 147.96V142.6H67.08C66.3067 144.227 64.9733 145.04 63.08 145.04C61.48 145.04 60.2667 144.493 59.44 143.4C58.6133 142.307 58.2 140.72 58.2 138.64V133.64C58.2 131.4 58.7733 129.667 59.92 128.44C61.0667 127.213 62.72 126.6 64.88 126.6C67.04 126.6 68.6933 127.213 69.84 128.44C70.9867 129.667 71.56 131.4 71.56 133.64V148.12C71.56 152.973 69.32 155.4 64.84 155.4ZM64.88 141.04C66.4 141.04 67.16 140.12 67.16 138.28V133.32C67.16 131.507 66.4 130.6 64.88 130.6C63.36 130.6 62.6 131.507 62.6 133.32V138.28C62.6 140.12 63.36 141.04 64.88 141.04Z" fill="white"/>
<path d="M74.5756 151.96C74.5756 149.96 74.8956 148.253 75.5356 146.84C76.1756 145.4 77.3223 143.813 78.9756 142.08C80.6023 140.347 81.7223 138.867 82.3356 137.64C82.9756 136.413 83.2956 135.133 83.2956 133.8C83.2956 132.6 83.0956 131.773 82.6956 131.32C82.3223 130.84 81.7623 130.6 81.0156 130.6C79.4956 130.6 78.7356 131.52 78.7356 133.36V136.36H74.5756V133.64C74.5756 131.373 75.1356 129.64 76.2556 128.44C77.3756 127.213 79.0023 126.6 81.1356 126.6C83.269 126.6 84.8956 127.213 86.0156 128.44C87.1356 129.64 87.6956 131.373 87.6956 133.64C87.6956 135.347 87.2823 137.013 86.4556 138.64C85.6556 140.267 84.2556 142.133 82.2556 144.24C80.949 145.627 80.069 146.76 79.6156 147.64C79.1623 148.493 78.9356 149.413 78.9356 150.4V151H87.2956V155H74.5756V151.96Z" fill="white"/>
<path d="M41.3439 42.5344L41.468 42.4433L38.5105 38.4117L38.3864 38.5028L41.3439 42.5344ZM108.792 50.0497L111.216 54.4229L114.524 52.5894L113.66 48.9072L108.792 50.0497ZM102.812 53.3639L100.388 48.9907L100.269 49.0567L100.154 49.1291L102.812 53.3639ZM100.937 54.546L98.1204 50.4146L98.1195 50.4153L100.937 54.546ZM94.2531 60.0641L96.738 64.4029L96.7382 64.4028L94.2531 60.0641ZM88.2683 65.9845L92.2257 69.0404L92.2258 69.0403L88.2683 65.9845ZM81.8758 70.0768L80.7386 74.9457L80.7395 74.9459L81.8758 70.0768ZM75.1839 69.9874L75.4464 74.9805L75.4466 74.9805L75.1839 69.9874ZM71.2117 73.5904L66.7867 71.2625L66.7865 71.2628L71.2117 73.5904ZM65.7333 72.897L67.21 68.1201L67.2083 68.1195L65.7333 72.897ZM58.4036 78.214L55.0511 74.5044L55.0507 74.5048L58.4036 78.214ZM55.2899 82.8842L50.7124 80.8727L50.7119 80.8738L55.2899 82.8842ZM52.1384 92.4981L47.1973 91.7326L46.708 94.8911L49.3692 96.6612L52.1384 92.4981ZM62.6923 98.2357L64.3265 93.5103L64.3264 93.5102L62.6923 98.2357ZM70.4545 101.196L67.7893 105.427L67.7898 105.427L70.4545 101.196ZM71.578 107.083L75.7733 104.363L75.773 104.362L71.578 107.083ZM78.3036 114.46L75.7763 118.774L75.7767 118.774L78.3036 114.46ZM85.8533 114.672L84.7425 119.547L84.7425 119.547L85.8533 114.672ZM94.5939 115.952L93.2794 120.777L93.2815 120.777L94.5939 115.952ZM97.9792 116.964L100.128 112.449L100.127 112.449L97.9792 116.964ZM103.05 119.019L100.625 123.392L100.626 123.392L103.05 119.019ZM113.183 123.022L109.479 126.38L109.618 126.534L109.769 126.675L113.183 123.022ZM116.873 126.47L121.855 126.045L121.692 124.129L120.287 122.816L116.873 126.47ZM108.605 44.7665L113.589 44.368L113.589 44.3674L108.605 44.7665ZM105.887 36.6168L103.381 32.2903L99.0102 34.8219L101.586 39.1666L105.887 36.6168ZM107.748 35.4939L105.081 31.2646L105.079 31.2655L107.748 35.4939ZM113.791 29.1097L117.574 32.3794L117.574 32.3788L113.791 29.1097ZM119.219 14.4658L114.525 16.1896L114.525 16.1899L119.219 14.4658ZM107.602 8.3437L105.825 13.0172L105.826 13.0175L107.602 8.3437ZM95.2192 5.10693L94.9549 10.0999L94.9577 10.1001L95.2192 5.10693ZM91.1696 5.00752L91.2836 10.0062L91.2844 10.0062L91.1696 5.00752ZM81.1362 7.85501L79.7619 3.04759L79.7617 3.04764L81.1362 7.85501ZM74.6709 10.7977L76.3916 15.4923L76.3917 15.4923L74.6709 10.7977ZM65.925 17.8422L62.921 13.8452L62.9205 13.8456L65.925 17.8422ZM58.4977 23.4266L61.6402 27.3156L61.6407 27.3152L58.4977 23.4266ZM49.5867 30.8456L46.3339 27.0483L46.3303 27.0514L49.5867 30.8456ZM49.195 31.262L53.2957 34.1228L53.2961 34.1222L49.195 31.262ZM39.9893 40.4275L37.0108 36.4114L37.0106 36.4116L39.9893 40.4275ZM32.1468 44.6404L30.7986 39.8256L30.7984 39.8257L32.1468 44.6404ZM15.557 58.8483L20.4309 59.9642L20.4309 59.964L15.557 58.8483ZM7.47896 74.8458L4.48281 70.8429L0.186363 74.0588L3.69777 78.1173L7.47896 74.8458ZM10.9423 78.8488L15.8392 79.8588L16.3376 77.4428L14.7235 75.5773L10.9423 78.8488ZM8.03276 85.7548L3.3403 84.0283L3.34006 84.0289L8.03276 85.7548ZM10.4371 92.7093L13.3721 88.6614L13.3721 88.6614L10.4371 92.7093ZM9.45852 96.5975L9.09664 91.6106L9.09655 91.6106L9.45852 96.5975ZM5.78278 103.357L1.11958 101.553L1.11942 101.553L5.78278 103.357ZM7.00388 114.72L2.18005 116.035L2.18049 116.037L7.00388 114.72ZM8.693 118.423L13.6699 117.943L13.6519 117.757L13.6202 117.573L8.693 118.423ZM12.0439 127.913L7.72451 130.431L7.7248 130.432L12.0439 127.913ZM17.523 128.785L21.6088 131.667L21.61 131.665L17.523 128.785ZM20.9218 127.717L17.2437 131.104L17.2439 131.104L20.9218 127.717ZM22.3169 131.239L27.0017 129.492L27.0015 129.491L22.3169 131.239ZM26.8559 136.684L22.0741 138.145L22.0741 138.145L26.8559 136.684ZM31.2924 141.83L32.8432 137.077L32.8421 137.076L31.2924 141.83ZM35.2137 142.783L35.0841 137.785L35.0837 137.785L35.2137 142.783ZM41.4672 145.791L46.4647 145.95L46.4647 145.95L41.4672 145.791ZM44.7206 150.415L39.9664 151.963L39.9676 151.967L44.7206 150.415ZM45.6742 151.784L40.8321 153.03L41.286 154.794L42.7682 155.853L45.6742 151.784ZM50.1741 153.766L48.4431 158.457L48.4443 158.457L50.1741 153.766ZM51.6419 159.342L54.4203 155.185L54.4201 155.185L51.6419 159.342ZM53.9564 164.405L49.4387 166.547L49.4388 166.547L53.9564 164.405ZM54.1853 170.079L49.2139 169.546L48.7501 173.868L52.9661 174.928L54.1853 170.079ZM58.1735 171.082L62.0694 167.948L61.0185 166.641L59.3927 166.233L58.1735 171.082ZM64.9239 175.68L64.5087 170.698L64.4969 170.699L64.9239 175.68ZM68.8369 176.667L69.2375 171.683L69.236 171.683L68.8369 176.667ZM73.6563 177.637L73.7789 182.636L73.7796 182.635L73.6563 177.637ZM76.9322 177.466L75.5014 172.675L75.4976 172.676L76.9322 177.466ZM81.3599 178.738L76.3624 178.578L76.3624 178.58L81.3599 178.738ZM84.8481 183.996L80.2871 186.045L80.2874 186.046L84.8481 183.996ZM86.9703 191.334L91.531 193.383L91.5328 193.379L86.9703 191.334ZM84.1719 197.301L79.5526 199.215L79.5528 199.216L84.1719 197.301ZM91.2997 198.769L89.4829 194.111L89.4827 194.111L91.2997 198.769ZM98.6684 199.731L103.663 199.488L103.663 199.488L98.6684 199.731ZM101.424 204.924L102.425 200.026L102.425 200.026L101.424 204.924ZM106.031 203.563L109.247 207.391L109.247 207.391L106.031 203.563ZM107.711 196.591L103.072 194.727L103.071 194.727L107.711 196.591ZM109.332 191.015L104.351 190.582L104.351 190.583L109.332 191.015ZM110.319 188.399L114.076 191.698L119.152 185.917L111.808 183.626L110.319 188.399ZM105.533 185.341L108.462 181.288L108.461 181.288L105.533 185.341ZM104.253 178.836L99.7273 176.71L99.727 176.711L104.253 178.836ZM110.294 167.339L113.835 170.869L113.835 170.869L110.294 167.339ZM112.496 158.176L107.831 159.976L107.831 159.977L112.496 158.176ZM111.101 155.233L114.565 151.626L114.564 151.626L111.101 155.233ZM109.536 152.2L114.518 152.627L114.518 152.626L109.536 152.2ZM109.757 148.704L104.96 147.291L104.96 147.292L109.757 148.704ZM111.909 142.515L107.215 140.793L107.214 140.794L111.909 142.515ZM113.156 137.427L118.143 137.059L118.068 136.056L117.613 135.16L113.156 137.427ZM115.088 130.285L110.842 127.645L110.842 127.645L115.088 130.285ZM59.96 153.6L56.2676 156.971L56.286 156.992L56.3047 157.012L59.96 153.6ZM58.28 147.84V142.84H53.28V147.84H58.28ZM62.44 147.84H67.44V142.84H62.44V147.84ZM67.16 142.6H72.16V137.6H67.16V142.6ZM67.08 142.6V137.6H63.9208L62.5643 140.453L67.08 142.6ZM59.92 128.44L63.5726 131.854L59.92 128.44ZM69.84 128.44L66.1874 131.854H66.1874L69.84 128.44ZM75.5356 146.84L80.0904 148.903L80.0976 148.887L80.1047 148.871L75.5356 146.84ZM78.9756 142.08L82.5937 145.531L82.6077 145.516L82.6216 145.502L78.9756 142.08ZM82.3356 137.64L77.9027 135.327L77.8828 135.365L77.8635 135.404L82.3356 137.64ZM82.6956 131.32L78.7489 134.39L78.844 134.512L78.9464 134.628L82.6956 131.32ZM78.7356 136.36V141.36H83.7356V136.36H78.7356ZM74.5756 136.36H69.5756V141.36H74.5756V136.36ZM76.2556 128.44L79.9109 131.852L79.9296 131.832L79.9481 131.811L76.2556 128.44ZM86.0156 128.44L82.3232 131.811L82.3417 131.832L82.3604 131.852L86.0156 128.44ZM86.4556 138.64L81.9982 136.375L81.9833 136.404L81.9689 136.433L86.4556 138.64ZM82.2556 144.24L78.6295 140.797L78.6231 140.804L78.6167 140.811L82.2556 144.24ZM79.6156 147.64L84.0312 149.986L84.046 149.958L84.0605 149.93L79.6156 147.64ZM78.9356 151H73.9356V156H78.9356V151ZM87.2956 151H92.2956V146H87.2956V151ZM87.2956 155V160H92.2956V155H87.2956ZM74.5756 155H69.5756V160H74.5756V155ZM106.369 45.6764L100.388 48.9907L105.236 57.7372L111.216 54.4229L106.369 45.6764ZM100.154 49.1291C99.7132 49.4058 98.8223 49.9362 98.1204 50.4146L103.753 58.6774C104.259 58.3323 104.656 58.1101 105.47 57.5988L100.154 49.1291ZM98.1195 50.4153C95.9908 51.8671 94.8964 53.0804 94.0914 53.9163C93.4983 54.532 93.0234 55.0064 91.768 55.7254L96.7382 64.4028C99.0557 63.0754 100.267 61.9201 101.294 60.8531C102.11 60.0062 102.571 59.4838 103.754 58.6767L98.1195 50.4153ZM91.7683 55.7253C90.3681 56.5271 89.325 57.1295 88.5942 57.6092C87.8402 58.104 86.9215 58.7768 86.1834 59.8658C85.8659 60.3343 85.6588 60.7705 85.5706 60.9546C85.4619 61.1817 85.4292 61.2545 85.3592 61.3864C85.2502 61.592 84.9895 62.0497 84.3108 62.9287L92.2258 69.0403C93.1912 67.7901 93.7769 66.8575 94.1935 66.072C94.3865 65.7082 94.5364 65.3852 94.5898 65.2737C94.6638 65.1193 94.5983 65.2741 94.4615 65.4759C94.0849 66.0317 93.6839 66.2301 94.0811 65.9694C94.5015 65.6935 95.243 65.2591 96.738 64.4029L91.7683 55.7253ZM84.3108 62.9286C84.0123 63.3151 83.7467 63.6875 83.5228 64.007C83.2691 64.3689 83.1286 64.5759 82.9369 64.8451C82.575 65.3534 82.4279 65.5073 82.3835 65.5478C82.3803 65.5507 82.4325 65.5026 82.5391 65.4417C82.6514 65.3775 82.788 65.3198 82.9351 65.2827C83.2479 65.2038 83.3353 65.283 83.0121 65.2076L80.7395 74.9459C82.2429 75.2968 83.8136 75.3743 85.381 74.9789C86.9721 74.5776 88.1977 73.7803 89.1258 72.933C89.9938 72.1406 90.6453 71.2599 91.083 70.6452C91.6206 69.8902 91.8409 69.5388 92.2257 69.0404L84.3108 62.9286ZM83.0129 65.2078C79.3982 64.3636 76.9126 64.8895 74.9212 64.9943L75.4466 74.9805C78.9656 74.7954 78.9578 74.5298 80.7386 74.9457L83.0129 65.2078ZM74.9215 64.9943C72.2358 65.1355 69.2445 65.938 67.6067 68.8573C67.0088 69.9232 66.7877 71.0157 66.7245 71.2869C66.6113 71.7728 66.6385 71.5441 66.7867 71.2625L75.6367 75.9184C75.9253 75.3697 76.1073 74.8605 76.2285 74.4603C76.3431 74.0818 76.4246 73.7237 76.4637 73.5558C76.5158 73.332 76.5232 73.3098 76.5206 73.3182C76.5112 73.3488 76.457 73.5201 76.328 73.7501C76.1898 73.9965 75.9915 74.2646 75.7258 74.5083C75.464 74.7485 75.2147 74.8934 75.0406 74.9733C74.8777 75.048 74.8031 75.0557 74.8754 75.041C74.9481 75.0261 75.1262 74.9973 75.4464 74.9805L74.9215 64.9943ZM66.7865 71.2628C67.3073 70.2726 68.1044 69.6751 68.7819 69.3682C69.3856 69.0948 69.8656 69.0583 70.0219 69.0508C70.2989 69.0375 70.3055 69.0849 69.8812 68.9817C69.5306 68.8964 69.1096 68.7649 68.6298 68.602C68.3901 68.5206 68.1769 68.4457 67.9375 68.3626C67.7262 68.2893 67.4579 68.1967 67.21 68.1201L64.2566 77.674C64.4892 77.7459 64.7105 77.832 65.415 78.0712C65.9794 78.2628 66.7315 78.507 67.5164 78.698C68.2276 78.8711 69.332 79.0956 70.5022 79.0393C71.4968 78.9915 74.2108 78.6293 75.6369 75.918L66.7865 71.2628ZM67.2083 68.1195C64.9523 67.423 62.9225 67.9515 61.4926 68.6541C60.1319 69.3227 59.0317 70.2758 58.2499 71.0351C57.4455 71.8164 56.707 72.6662 56.1712 73.2795C55.5405 74.0015 55.2397 74.334 55.0511 74.5044L61.7561 81.9235C62.4804 81.2689 63.2124 80.4193 63.7023 79.8585C64.2871 79.1891 64.7571 78.6553 65.217 78.2087C65.6995 77.7401 65.9195 77.6209 65.9028 77.6291C65.8168 77.6713 65.1548 77.9513 64.2583 77.6745L67.2083 68.1195ZM55.0507 74.5048C54.0289 75.4285 53.1061 76.7249 52.4846 77.6797C51.8145 78.7095 51.1446 79.8892 50.7124 80.8727L59.8675 84.8958C60.0127 84.5652 60.3823 83.8776 60.8659 83.1345C61.0957 82.7815 61.3163 82.47 61.506 82.2265C61.7165 81.9562 61.8023 81.8818 61.7565 81.9231L55.0507 74.5048ZM50.7119 80.8738C49.4107 83.8368 47.7792 87.9774 47.1973 91.7326L57.0794 93.2637C57.4489 90.879 58.6157 87.7461 59.8679 84.8947L50.7119 80.8738ZM49.3692 96.6612C51.5502 98.112 53.2498 99.364 54.6995 100.218C56.4449 101.246 58.1898 101.969 61.0583 102.961L64.3264 93.5102C61.6721 92.5924 60.6641 92.1256 59.7753 91.602C58.5909 90.9043 57.7749 90.2423 54.9076 88.335L49.3692 96.6612ZM61.0582 102.961C61.6818 103.177 63.3801 103.774 65.0141 104.377C65.834 104.68 66.6071 104.973 67.2098 105.215C67.5132 105.337 67.742 105.433 67.8973 105.503C68.1288 105.606 68.0165 105.57 67.7893 105.427L73.1196 96.9657C72.4464 96.5416 71.4621 96.1467 70.9349 95.9351C70.2064 95.6427 69.3339 95.3126 68.4792 94.9969C66.7642 94.3634 64.998 93.7425 64.3265 93.5103L61.0582 102.961ZM67.7898 105.427C67.929 105.515 67.0612 105.011 66.738 103.681C66.4712 102.583 66.8466 101.764 66.6856 102.257C66.6409 102.394 66.1732 103.619 66.0817 104.935C65.9696 106.549 66.3544 108.217 67.3829 109.803L75.773 104.362C75.9283 104.602 76.0953 105.087 76.0577 105.628C76.0409 105.87 75.9402 106.131 76.1921 105.36C76.3277 104.944 76.9293 103.271 76.4553 101.32C75.925 99.1376 74.4166 97.7826 73.1191 96.9654L67.7898 105.427ZM67.3826 109.803C68.1675 111.014 69.2191 111.605 69.8141 111.878C70.4056 112.149 70.9582 112.288 71.2076 112.349C71.3533 112.385 71.4978 112.417 71.5895 112.438C71.6962 112.462 71.7621 112.477 71.8226 112.492C71.9437 112.521 71.9416 112.526 71.8843 112.504C71.7454 112.451 71.2007 112.212 70.7508 111.585C70.2989 110.955 70.3212 110.463 70.3212 110.597H80.3212C80.3212 108.956 79.9445 107.245 78.877 105.757C77.8115 104.271 76.4345 103.535 75.4288 103.153C74.9381 102.967 74.494 102.85 74.1873 102.775C74.0338 102.738 73.8893 102.705 73.792 102.683C73.6796 102.658 73.6265 102.646 73.5838 102.635C73.4564 102.604 73.6691 102.645 73.9805 102.787C74.2953 102.932 75.1264 103.365 75.7733 104.363L67.3826 109.803ZM70.3212 110.597C70.3212 112.438 70.6947 114.532 72.3537 116.328C73.0302 117.06 73.7615 117.561 74.2794 117.888C74.7526 118.188 75.3841 118.544 75.7763 118.774L80.8308 110.146C80.6879 110.062 80.5522 109.983 80.4287 109.912C80.3016 109.838 80.1938 109.776 80.0886 109.715C79.8764 109.591 79.7347 109.506 79.6267 109.438C79.5203 109.371 79.4898 109.346 79.501 109.355C79.5157 109.366 79.5937 109.428 79.6984 109.541C79.8082 109.66 79.9294 109.816 80.0399 110.007C80.1502 110.198 80.2234 110.378 80.2693 110.526C80.3531 110.797 80.3212 110.886 80.3212 110.597H70.3212ZM75.7767 118.774C78.7136 120.494 81.3317 120.088 82.866 119.782C84.3362 119.489 84.4118 119.472 84.7425 119.547L86.9641 109.797C84.1296 109.151 81.7582 109.806 80.9088 109.976C80.4059 110.076 80.3733 110.051 80.4697 110.057C80.5394 110.062 80.6287 110.076 80.7193 110.103C80.8079 110.13 80.8473 110.155 80.8304 110.145L75.7767 118.774ZM84.7425 119.547C86.632 119.978 88.4002 120.107 89.7097 120.224C91.0937 120.349 92.1561 120.47 93.2794 120.777L95.9083 111.128C93.8724 110.574 92.0563 110.395 90.6056 110.265C89.0806 110.127 88.0582 110.046 86.964 109.797L84.7425 119.547ZM93.2815 120.777C93.7854 120.914 94.1899 121.004 94.52 121.071C94.9139 121.152 94.9611 121.158 95.1136 121.193C95.1605 121.204 95.289 121.221 95.8311 121.479L100.127 112.449C99.0454 111.934 98.2306 111.65 97.3655 111.45C97.062 111.38 96.661 111.302 96.5333 111.276C96.342 111.237 96.1516 111.194 95.9062 111.128L93.2815 120.777ZM95.8306 121.479C96.9892 122.03 98.1237 122.38 98.7577 122.595C99.4412 122.828 99.9811 123.034 100.625 123.392L105.475 114.646C104.083 113.874 102.91 113.445 101.978 113.128C100.997 112.794 100.614 112.681 100.128 112.449L95.8306 121.479ZM100.626 123.392C101.494 123.873 102.67 124.333 103.631 124.692C104.682 125.084 105.884 125.503 106.962 125.881C108.081 126.273 109.053 126.618 109.78 126.902C110.149 127.047 110.367 127.142 110.469 127.191C110.521 127.216 110.475 127.197 110.372 127.134C110.344 127.117 109.923 126.871 109.479 126.38L116.887 119.663C116.36 119.082 115.805 118.735 115.594 118.606C115.308 118.431 115.031 118.289 114.813 118.184C114.372 117.971 113.882 117.769 113.425 117.59C112.502 117.229 111.355 116.825 110.271 116.445C109.147 116.05 108.062 115.672 107.13 115.324C106.667 115.151 106.277 114.999 105.966 114.868C105.812 114.803 105.691 114.75 105.6 114.707C105.505 114.663 105.468 114.643 105.474 114.646L100.626 123.392ZM109.769 126.675L113.46 130.123L120.287 122.816L116.596 119.368L109.769 126.675ZM113.66 48.9072C113.167 46.8086 113.46 47.1682 113.289 47.9344C113.274 47.9993 113.241 48.118 113.309 47.8756C113.363 47.6851 113.449 47.3684 113.517 46.9641C113.655 46.1441 113.664 45.3054 113.589 44.368L103.621 45.1649C103.653 45.5708 103.616 45.5395 103.655 45.3063C103.674 45.1952 103.697 45.1167 103.688 45.1486C103.684 45.1629 103.68 45.1762 103.671 45.2097C103.663 45.2378 103.65 45.282 103.636 45.3306C103.608 45.4303 103.569 45.5756 103.531 45.7489C103.153 47.4358 103.432 49.0937 103.925 51.1921L113.66 48.9072ZM113.589 44.3674C113.542 43.7841 113.4 43.2112 113.336 42.9552C113.245 42.5916 113.131 42.1862 113.011 41.778C112.768 40.9558 112.456 39.9837 112.14 39.0405C111.822 38.096 111.486 37.1399 111.19 36.3482C110.974 35.7711 110.587 34.7401 110.188 34.0671L101.586 39.1666C101.445 38.9294 101.413 38.8159 101.524 39.0837C101.598 39.2617 101.7 39.5197 101.824 39.8522C102.071 40.5124 102.369 41.3579 102.66 42.2248C102.952 43.093 103.223 43.9421 103.421 44.6111C103.52 44.9486 103.591 45.2063 103.635 45.3808C103.705 45.6629 103.648 45.5032 103.621 45.1655L113.589 44.3674ZM108.393 40.9434C109.054 40.5608 109.728 40.1564 110.416 39.7224L105.079 31.2655C104.516 31.6207 103.952 31.9594 103.381 32.2903L108.393 40.9434ZM110.414 39.7233C112.486 38.417 113.815 37.0989 114.933 35.7372C115.433 35.1287 115.915 34.4779 116.3 33.9715C116.71 33.4297 117.106 32.9206 117.574 32.3794L110.008 25.84C109.332 26.6225 108.786 27.33 108.331 27.9293C107.85 28.5638 107.544 28.9785 107.204 29.3918C106.645 30.0736 106.097 30.6239 105.081 31.2646L110.414 39.7233ZM117.574 32.3788C119.289 30.3946 121.417 27.5502 122.881 24.3583C124.293 21.2785 125.479 17.0064 123.912 12.7417L114.525 16.1899C114.749 16.8002 114.767 18.061 113.791 20.1899C112.866 22.2066 111.385 24.2466 110.008 25.8406L117.574 32.3788ZM123.912 12.742C123.146 10.6575 122.039 8.89728 120.482 7.53731C118.936 6.18691 117.257 5.50387 115.806 5.09839C114.489 4.73073 112.993 4.51 112.077 4.34746C111.01 4.15812 110.169 3.97055 109.378 3.66986L105.826 13.0175C107.51 13.6578 109.091 13.9739 110.33 14.1937C111.72 14.4403 112.416 14.5343 113.116 14.7298C113.68 14.8874 113.843 15.016 113.903 15.0685C113.952 15.1115 114.215 15.3456 114.525 16.1896L123.912 12.742ZM109.379 3.67017C108.405 3.29962 105.225 2.42407 102.557 1.72089C101.134 1.34599 99.7052 0.980838 98.5563 0.703341C97.9851 0.565381 97.4562 0.442554 97.0204 0.349767C96.7544 0.293118 96.0762 0.144958 95.4808 0.113771L94.9577 10.1001C94.608 10.0818 94.4596 10.0287 94.9378 10.1305C95.2464 10.1962 95.6762 10.2953 96.2085 10.4238C97.2666 10.6794 98.6236 11.0258 100.008 11.3907C101.391 11.7551 102.777 12.1316 103.89 12.4453C104.448 12.6025 104.924 12.7401 105.289 12.8501C105.705 12.9753 105.847 13.0258 105.825 13.0172L109.379 3.67017ZM95.4836 0.113919C93.7083 0.019937 92.2677 -0.0190167 91.0548 0.00883436L91.2844 10.0062C92.1327 9.98672 93.2881 10.0117 94.9549 10.0999L95.4836 0.113919ZM91.0556 0.00881767C88.3451 0.070652 86.768 0.474938 85.0122 1.16712C83.627 1.7132 82.4853 2.26907 79.7619 3.04759L82.5105 12.6624C85.8365 11.7116 87.6109 10.8917 88.6798 10.4703C89.378 10.195 89.7929 10.0402 91.2836 10.0062L91.0556 0.00881767ZM79.7617 3.04764C77.956 3.56393 76.479 4.31576 75.3816 4.89698C74.155 5.54668 73.5803 5.87219 72.9501 6.1032L76.3917 15.4923C77.8387 14.9619 79.2158 14.1822 80.0621 13.734C81.0376 13.2174 81.7547 12.8785 82.5107 12.6624L79.7617 3.04764ZM72.9502 6.10316C70.1251 7.13865 68.0099 8.99354 66.5098 10.436C64.7282 12.1493 63.9804 13.049 62.921 13.8452L68.9289 21.8393C70.6271 20.563 72.4436 18.6034 73.4413 17.644C74.7206 16.4138 75.5995 15.7827 76.3916 15.4923L72.9502 6.10316ZM62.9205 13.8456C60.6832 15.5275 57.8292 17.5379 55.3547 19.5379L61.6407 27.3152C63.9548 25.4448 66.3 23.8156 68.9295 21.8389L62.9205 13.8456ZM55.3552 19.5375C52.4309 21.9005 49.1858 24.6054 46.3339 27.0483L52.8395 34.6429C55.6234 32.2581 58.795 29.6146 61.6402 27.3156L55.3552 19.5375ZM46.3303 27.0514C46.0258 27.3127 45.5459 27.7536 45.0939 28.4018L53.2961 34.1222C53.0677 34.4497 52.847 34.6364 52.8431 34.6397L46.3303 27.0514ZM45.0943 28.4012C43.4352 30.7794 40.368 33.9217 37.0108 36.4114L42.9677 44.4436C47.0295 41.4312 50.9117 37.5402 53.2957 34.1228L45.0943 28.4012ZM37.0106 36.4116C34.5934 38.2044 32.3997 39.3773 30.7986 39.8256L33.4949 49.4553C36.7748 48.5369 40.1031 46.5683 42.9679 44.4434L37.0106 36.4116ZM30.7984 39.8257C27.0933 40.8633 22.7351 43.1306 19.0784 46.0098C15.5387 48.7968 11.806 52.8272 10.683 57.7326L20.4309 59.964C20.793 58.3823 22.3722 56.1441 25.2646 53.8667C28.04 51.6814 31.2343 50.0883 33.4951 49.4552L30.7984 39.8257ZM10.6831 57.7324C10.201 59.8379 9.29211 62.7559 8.07107 65.4351C6.77236 68.2847 5.45345 70.1164 4.48281 70.8429L10.4751 78.8487C13.5411 76.5538 15.7134 72.7796 17.1706 69.5822C18.7055 66.2144 19.8172 62.6444 20.4309 59.9642L10.6831 57.7324ZM3.69777 78.1173L7.16113 82.1202L14.7235 75.5773L11.2601 71.5743L3.69777 78.1173ZM6.0454 77.8387C5.80588 78.9999 5.63495 79.5733 5.53521 79.8493C5.49103 79.9716 5.46917 80.0117 5.47347 80.0033C5.48066 79.9893 5.48674 79.982 5.4668 80.0115C5.40214 80.1069 5.39778 80.1072 5.20469 80.3781C5.04966 80.5956 4.84855 80.8864 4.62845 81.253C4.17937 82.001 3.76504 82.8739 3.3403 84.0283L12.7252 87.4813C12.982 86.7833 13.1413 86.5014 13.2019 86.4004C13.3978 86.0741 13.2141 86.4049 13.7452 85.6211C14.7134 84.1923 15.2651 82.642 15.8392 79.8588L6.0454 77.8387ZM3.34006 84.0289C2.78379 85.5415 2.88868 87.0603 2.9944 87.9218C3.12085 88.9522 3.38152 90.0023 3.70505 90.9634C4.02939 91.927 4.46272 92.9373 5.00171 93.8658C5.49075 94.7083 6.29181 95.8797 7.50208 96.7573L13.3721 88.6614C13.6266 88.8459 13.7429 88.9929 13.7452 88.9957C13.7563 89.0093 13.7201 88.9659 13.6502 88.8455C13.5062 88.5975 13.3329 88.22 13.1825 87.7732C13.0313 87.3239 12.949 86.9408 12.92 86.7038C12.9057 86.5879 12.9129 86.5761 12.9096 86.6531C12.9075 86.7016 12.8937 87.0232 12.7255 87.4807L3.34006 84.0289ZM7.50207 96.7573C7.15202 96.5034 6.97674 96.2535 6.87796 96.0722C6.78377 95.8992 6.59201 95.4797 6.6047 94.8234C6.61959 94.0534 6.93766 93.0468 7.78629 92.2915C8.5368 91.6234 9.1986 91.6032 9.09664 91.6106L9.82039 101.584C11.2797 101.479 13.0062 101.033 14.435 99.7611C15.9619 98.4019 16.572 96.6133 16.6028 95.0168C16.6556 92.2882 15.1124 89.9233 13.3721 88.6614L7.50207 96.7573ZM9.09655 91.6106C6.95019 91.7664 4.87044 92.5063 3.28132 94.131C1.7552 95.6913 1.21206 97.5315 1.0024 98.8517C0.798948 100.133 0.848831 101.366 0.867775 101.972C0.879891 102.359 0.88245 102.491 0.880191 102.566C0.875092 102.736 0.856359 102.233 1.11958 101.553L10.446 105.161C10.6604 104.607 10.7543 104.109 10.8016 103.772C10.8509 103.423 10.8685 103.107 10.8757 102.866C10.8892 102.416 10.8716 101.937 10.8629 101.659C10.8403 100.935 10.8461 100.625 10.8786 100.42C10.9049 100.255 10.8778 100.666 10.4302 101.123C9.91957 101.645 9.48084 101.609 9.82049 101.584L9.09655 91.6106ZM1.11942 101.553C-0.166573 104.878 -0.237246 107.616 0.367316 110.266C0.631979 111.427 1.01614 112.518 1.32022 113.385C1.64571 114.313 1.92957 115.117 2.18005 116.035L11.8277 113.404C11.4682 112.086 11.0632 110.949 10.7563 110.074C10.428 109.139 10.2363 108.566 10.1169 108.042C9.95338 107.326 9.88212 106.619 10.4461 105.16L1.11942 101.553ZM2.18049 116.037C2.37846 116.762 2.67397 117.406 2.8751 117.82C3.08964 118.261 3.33192 118.708 3.49928 119.019C3.69398 119.381 3.80619 119.594 3.88037 119.752C3.91361 119.823 3.91259 119.827 3.89585 119.782C3.88444 119.751 3.81619 119.565 3.76581 119.273L13.6202 117.573C13.4621 116.657 13.1077 115.876 12.9342 115.506C12.7238 115.058 12.4786 114.603 12.3068 114.283C12.1076 113.913 11.9743 113.665 11.8678 113.446C11.748 113.199 11.7772 113.219 11.8273 113.402L2.18049 116.037ZM3.71613 118.904C3.96059 121.436 4.27366 123.357 5.01088 125.275C5.6869 127.034 6.6919 128.66 7.72451 130.431L16.3634 125.394C15.0928 123.215 14.6533 122.489 14.3452 121.688C14.0983 121.045 13.8875 120.197 13.6699 117.943L3.71613 118.904ZM7.7248 130.432C9.04447 132.694 11.4634 133.99 13.4492 134.467C15.4802 134.956 19.2503 135.01 21.6088 131.667L13.4372 125.903C13.89 125.261 14.5376 124.909 15.0659 124.782C15.5121 124.674 15.7756 124.742 15.7872 124.745C15.8154 124.751 15.8121 124.751 15.8288 124.762C15.8441 124.772 15.8995 124.81 15.9816 124.89C16.0592 124.967 16.2082 125.128 16.3631 125.394L7.7248 130.432ZM21.61 131.665C21.5088 131.809 21.4341 131.889 21.4124 131.912C21.384 131.942 21.3694 131.955 21.3667 131.957C21.3635 131.96 21.3558 131.966 21.3386 131.978C21.3226 131.989 21.2776 132.018 21.2 132.055C21.0999 132.104 20.6227 132.326 19.869 132.302C18.949 132.273 17.9568 131.878 17.2437 131.104L24.6 124.33C21.802 121.291 18.1978 122.401 16.8544 123.049C15.4227 123.74 14.1778 124.852 13.436 125.904L21.61 131.665ZM17.2439 131.104C17.4713 131.351 17.6101 131.513 17.6901 131.612C17.7752 131.717 17.7525 131.7 17.6866 131.592C17.6181 131.48 17.4549 131.193 17.3274 130.762C17.1847 130.28 17.1418 129.806 17.1607 129.39C17.1688 129.213 17.1866 129.081 17.1935 129.033C17.1957 129.018 17.2047 128.961 17.186 129.077C17.159 129.244 17.1004 129.619 17.0922 130.096C17.0749 131.108 17.2865 132.06 17.6322 132.986L27.0015 129.491C26.9765 129.424 27.0999 129.734 27.0908 130.267C27.0867 130.505 27.0562 130.682 27.0584 130.669C27.0651 130.628 27.057 130.678 27.0685 130.608C27.0738 130.574 27.0829 130.518 27.0923 130.452C27.1113 130.32 27.1386 130.105 27.1504 129.843C27.177 129.259 27.1194 128.611 26.9164 127.925C26.7287 127.29 26.4597 126.77 26.2166 126.373C25.773 125.648 25.18 124.96 24.5997 124.33L17.2439 131.104ZM17.632 132.986C18.2393 134.614 19.3129 135.613 20.0077 136.167C20.3442 136.435 20.6789 136.665 20.8866 136.808C21.1335 136.978 21.2681 137.069 21.4085 137.173C21.7096 137.396 21.8827 137.519 22.0741 138.145L31.6377 135.223C30.6588 132.019 28.8745 130.257 27.3547 129.133C27.0398 128.9 26.7278 128.688 26.5509 128.567C26.335 128.418 26.2688 128.369 26.2419 128.348C26.2101 128.322 26.7065 128.7 27.0017 129.492L17.632 132.986ZM22.0741 138.145C22.3185 138.945 22.6235 140.024 22.8242 140.637C23.0504 141.326 23.4485 142.456 24.2907 143.505C25.2309 144.676 26.349 145.303 27.245 145.694C28.0111 146.029 28.9565 146.328 29.7427 146.584L32.8421 137.076C32.3674 136.922 32.0261 136.811 31.7364 136.711C31.4465 136.612 31.3086 136.557 31.2473 136.53C31.1698 136.496 31.6444 136.692 32.0884 137.245C32.4345 137.676 32.484 138.001 32.3264 137.521C32.2586 137.314 32.1795 137.049 32.0603 136.644C31.9471 136.258 31.8065 135.776 31.6376 135.223L22.0741 138.145ZM29.7416 146.584C29.8331 146.613 29.8342 146.619 29.8372 146.62C29.9481 146.68 29.8513 146.63 30.0974 146.766C30.2544 146.853 30.5119 146.992 30.8336 147.13C32.3014 147.763 33.7889 147.822 35.3437 147.782L35.0837 137.785C33.7946 137.818 34.1574 137.673 34.7936 137.948C34.9073 137.997 34.9752 138.036 34.9386 138.016C34.912 138.001 34.8937 137.991 34.8233 137.951C34.7647 137.918 34.6805 137.871 34.5839 137.819C34.1392 137.579 33.5876 137.32 32.8432 137.077L29.7416 146.584ZM35.3433 147.782C35.603 147.775 36.0109 147.785 36.4606 147.836C36.9209 147.888 37.2974 147.968 37.5484 148.05C37.8522 148.149 37.6802 148.154 37.3621 147.853C37.1753 147.676 36.9261 147.381 36.7341 146.949C36.5353 146.503 36.4567 146.042 36.4697 145.633L46.4647 145.95C46.5369 143.673 45.5486 141.831 44.2329 140.587C43.0531 139.471 41.6761 138.877 40.6487 138.542C38.5867 137.87 36.3837 137.751 35.0841 137.785L35.3433 147.782ZM36.4697 145.632C36.4328 146.792 36.7567 147.725 37.0226 148.31C37.2934 148.905 37.6182 149.385 37.8633 149.716C38.3278 150.343 38.9009 150.946 39.2161 151.283C39.6215 151.716 39.8545 151.97 40.0273 152.191C40.2178 152.435 40.0877 152.335 39.9664 151.963L49.4747 148.866C49.0691 147.621 48.3858 146.647 47.9074 146.035C47.4114 145.4 46.8599 144.816 46.5186 144.451C46.324 144.243 46.1855 144.094 46.0665 143.961C46.0104 143.898 45.9692 143.85 45.9391 143.813C45.9087 143.777 45.8968 143.761 45.898 143.762C45.8985 143.763 45.922 143.795 45.9585 143.854C45.9941 143.911 46.0561 144.018 46.1244 144.168C46.2461 144.435 46.4927 145.069 46.4647 145.95L36.4697 145.632ZM39.9676 151.967C40.2347 152.785 40.6319 153.389 40.8763 153.728C41.1269 154.074 41.3812 154.36 41.4845 154.476C41.5591 154.561 41.5752 154.578 41.6008 154.608C41.62 154.63 41.5936 154.601 41.5485 154.542C41.5066 154.488 41.4 154.346 41.2795 154.136C41.1639 153.935 40.9672 153.556 40.8321 153.03L50.5164 150.538C50.3581 149.923 50.1195 149.449 49.9477 149.15C49.771 148.843 49.5939 148.6 49.4716 148.441C49.2573 148.163 49.003 147.883 48.9689 147.844C48.8667 147.729 48.9107 147.773 48.981 147.87C49.045 147.958 49.2919 148.306 49.4735 148.862L39.9676 151.967ZM42.7682 155.853C44.0786 156.789 45.1035 157.375 46.3069 157.79C46.7632 157.947 47.2777 158.086 47.4908 158.147C47.767 158.226 48.0558 158.314 48.4431 158.457L51.9051 149.075C51.215 148.821 50.6763 148.657 50.2487 148.535C49.758 148.394 49.6925 148.38 49.5667 148.336C49.5408 148.327 49.5137 148.319 49.4175 148.266C49.2877 148.194 49.0373 148.042 48.5803 147.715L42.7682 155.853ZM48.4443 158.457C49.016 158.668 49.1069 158.755 48.9741 158.665C48.8999 158.615 47.9739 157.993 47.5705 156.58C47.1074 154.958 47.7029 153.685 48.0084 153.193C48.2513 152.802 48.4828 152.617 48.2684 152.822C48.2246 152.864 47.7455 153.304 47.3995 153.683C47.038 154.079 46.3041 154.939 45.9015 156.199C45.6844 156.879 45.5638 157.672 45.6424 158.537C45.7211 159.403 45.9856 160.186 46.3529 160.862C47.0447 162.134 48.0669 162.967 48.8637 163.499L54.4201 155.185C54.2792 155.091 54.7376 155.348 55.1375 156.083C55.6567 157.038 55.7588 158.204 55.4271 159.243C55.2912 159.668 55.1147 159.971 55.0023 160.14C54.8903 160.309 54.8011 160.407 54.7868 160.423C54.7716 160.44 54.7833 160.426 54.859 160.353C54.8956 160.318 54.9351 160.281 54.9918 160.228C55.0433 160.179 55.1126 160.114 55.1832 160.046C55.3905 159.848 56.0095 159.264 56.504 158.468C57.061 157.571 57.772 155.886 57.1863 153.835C56.6603 151.993 55.3736 150.924 54.5986 150.397C53.7651 149.83 52.8151 149.411 51.904 149.075L48.4443 158.457ZM48.8635 163.499C49.3977 163.856 49.7388 164.109 49.9475 164.277C50.1726 164.459 50.1468 164.466 50.0253 164.319C49.9039 164.171 49.5193 163.668 49.3228 162.836C49.0998 161.892 49.2389 161.05 49.4393 160.474C49.5233 160.233 49.6078 160.066 49.6317 160.02C49.6429 159.998 49.6661 159.957 49.5922 160.09C49.4974 160.261 49.1966 160.794 48.9797 161.497C48.7431 162.265 48.6298 163.136 48.7279 164.085C48.8222 164.998 49.0952 165.823 49.4387 166.547L58.474 162.262C58.6016 162.531 58.8616 163.387 58.5357 164.444C58.4245 164.805 58.2796 165.044 58.3374 164.94C58.3398 164.935 58.4385 164.76 58.5177 164.607C58.6095 164.429 58.7545 164.132 58.8847 163.758C59.1777 162.915 59.3525 161.797 59.055 160.538C58.784 159.39 58.2145 158.532 57.7445 157.961C56.8908 156.925 55.671 156.021 54.4203 155.185L48.8635 163.499ZM49.4388 166.547C49.7816 167.27 49.8482 167.497 49.8463 167.49C49.8365 167.455 49.803 167.321 49.7878 167.117C49.7717 166.902 49.783 166.703 49.8044 166.548C49.8218 166.422 49.8414 166.362 49.8136 166.471C49.7996 166.525 49.7837 166.584 49.7547 166.692C49.7284 166.79 49.6942 166.917 49.658 167.059C49.5008 167.676 49.3294 168.469 49.2139 169.546L59.1568 170.612C59.2117 170.101 59.2832 169.784 59.348 169.53C59.3584 169.489 59.6165 168.599 59.711 167.911C60.0175 165.685 59.2323 163.861 58.474 162.262L49.4388 166.547ZM52.9661 174.928L56.9543 175.931L59.3927 166.233L55.4046 165.23L52.9661 174.928ZM54.2776 174.216C54.7334 174.782 55.0463 175.24 55.573 175.955C56.0266 176.571 56.6758 177.427 57.5191 178.203C59.5987 180.115 62.1754 180.934 65.3509 180.662L64.4969 170.699C64.0001 170.741 63.9103 170.676 64.0363 170.716C64.2007 170.768 64.3058 170.858 64.2871 170.841C64.2026 170.763 64.0316 170.577 63.6247 170.024C63.2908 169.571 62.7028 168.735 62.0694 167.948L54.2776 174.216ZM65.3391 180.663C64.9324 180.697 64.614 180.672 64.5128 180.663C64.37 180.652 64.2566 180.636 64.1932 180.626C64.0659 180.608 63.9683 180.588 63.9299 180.58C63.845 180.562 63.7838 180.547 63.7753 180.545C63.7471 180.538 63.7416 180.536 63.78 180.547C63.8483 180.565 63.9575 180.595 64.1181 180.64C64.4233 180.725 64.8641 180.849 65.3243 180.975C65.7807 181.099 66.2955 181.236 66.7601 181.348C66.9915 181.404 67.2404 181.461 67.4807 181.509C67.6748 181.549 68.0405 181.619 68.4379 181.651L69.236 171.683C69.456 171.7 69.5684 171.729 69.4549 171.706C69.3874 171.693 69.2742 171.668 69.1104 171.628C68.7848 171.549 68.3776 171.442 67.9524 171.326C67.531 171.211 67.1306 171.099 66.8069 171.008C66.653 170.966 66.501 170.923 66.3825 170.891C66.3276 170.876 66.2474 170.855 66.1658 170.835C66.1306 170.826 66.0481 170.806 65.9475 170.786C65.9013 170.776 65.7972 170.755 65.665 170.735C65.5991 170.726 65.4836 170.71 65.339 170.698C65.2361 170.689 64.9164 170.664 64.5087 170.698L65.3391 180.663ZM68.4364 181.651C67.9846 181.614 67.7199 181.498 68.0156 181.597C68.1049 181.627 68.7063 181.841 69.1461 181.977C70.2709 182.326 71.8143 182.684 73.7789 182.636L73.5337 172.639C72.9662 172.652 72.5415 172.56 72.1105 172.427C71.7724 172.322 71.699 172.285 71.1974 172.117C70.9024 172.018 70.1309 171.755 69.2375 171.683L68.4364 181.651ZM73.7796 182.635C73.854 182.634 73.9483 182.636 74.1486 182.648C74.2927 182.657 74.6998 182.687 75.0654 182.697C75.9956 182.722 77.0684 182.645 78.3667 182.256L75.4976 172.676C75.4115 172.702 75.3861 172.703 75.4014 172.701C75.4161 172.699 75.4082 172.702 75.3331 172.7C75.1993 172.697 75.1227 172.689 74.7641 172.667C74.4617 172.648 74.0343 172.626 73.533 172.639L73.7796 182.635ZM78.3629 182.257C77.9514 182.38 77.6757 182.395 77.788 182.383C77.8001 182.382 77.868 182.376 77.9832 182.374C78.2259 182.368 78.491 182.38 78.6897 182.408C78.98 182.448 78.7654 182.467 78.3359 182.227C78.0894 182.09 77.5846 181.764 77.1316 181.126C76.6265 180.416 76.3324 179.518 76.3624 178.578L86.3573 178.898C86.4528 175.907 84.4475 174.185 83.2004 173.49C82.0332 172.841 80.814 172.607 80.0616 172.503C79.2174 172.386 78.4015 172.361 77.7535 172.376C77.3171 172.386 76.3551 172.42 75.5014 172.675L78.3629 182.257ZM76.3624 178.58C76.315 180.077 76.6851 181.445 77.4151 182.64C78.0316 183.65 78.8257 184.375 79.1458 184.675C79.862 185.345 80.0528 185.523 80.2871 186.045L89.409 181.948C88.2678 179.407 86.6805 178.03 85.9795 177.374C85.5909 177.01 85.7667 177.129 85.9504 177.43C86.2477 177.917 86.3707 178.474 86.3574 178.896L76.3624 178.58ZM80.2874 186.046C80.9736 187.573 81.8513 188.609 82.5794 189.337C82.876 189.634 83.2431 189.968 83.3392 190.058C83.5093 190.218 83.4733 190.196 83.3924 190.095C83.2843 189.959 83.0991 189.688 82.9624 189.298C82.8239 188.902 82.7971 188.562 82.804 188.348C82.8136 188.049 82.8817 188.231 82.4077 189.288L91.5328 193.379C92.1935 191.905 92.7463 190.31 92.7989 188.668C92.8621 186.693 92.1967 185.101 91.2231 183.875C90.8264 183.376 90.4162 182.985 90.18 182.764C89.8697 182.473 89.7983 182.414 89.6502 182.266C89.4889 182.105 89.4526 182.045 89.4087 181.947L80.2874 186.046ZM82.4095 189.284C82.7144 188.606 83.0986 188.187 83.1536 188.125C83.2163 188.055 83.2652 188.006 83.2893 187.982C83.3026 187.969 83.3126 187.959 83.3187 187.953C83.3248 187.947 83.3282 187.944 83.3282 187.944C83.3283 187.944 83.326 187.946 83.3209 187.951C83.3158 187.955 83.3087 187.962 83.2991 187.97C83.2794 187.988 83.254 188.01 83.2197 188.04C83.2147 188.044 82.9985 188.232 82.9518 188.273C82.5336 188.638 81.8062 189.283 81.1136 190.124C79.7198 191.816 77.8635 195.138 79.5526 199.215L88.7911 195.388C88.8924 195.632 88.929 196.018 88.8342 196.371C88.7663 196.624 88.6838 196.662 88.8322 196.482C88.9769 196.306 89.1865 196.104 89.5268 195.807C89.637 195.711 89.9208 195.468 90.1195 195.284C90.2306 195.182 90.4171 195.005 90.6131 194.785C90.7517 194.63 91.1953 194.13 91.531 193.383L82.4095 189.284ZM79.5528 199.216C79.3658 198.764 79.4362 198.428 79.4133 198.948C79.4092 199.041 79.3665 199.694 79.4128 200.292C79.46 200.9 79.6462 202.427 80.875 203.78C82.2023 205.241 83.8744 205.576 84.9003 205.627C85.8749 205.675 86.7892 205.505 87.4717 205.344C88.8774 205.013 90.7355 204.356 93.1167 203.427L89.4827 194.111C88.3285 194.561 87.411 194.901 86.6815 195.152C85.9396 195.406 85.4638 195.543 85.1752 195.612C85.0359 195.644 84.9847 195.65 85.0011 195.648C85.0109 195.647 85.1579 195.627 85.3982 195.639C85.636 195.651 86.0726 195.699 86.6002 195.903C87.1629 196.12 87.7624 196.49 88.2772 197.056C88.7806 197.611 89.0543 198.189 89.2002 198.633C89.3381 199.052 89.3722 199.381 89.3829 199.519C89.3939 199.661 89.3895 199.741 89.3908 199.69C89.3924 199.626 89.3953 199.579 89.4037 199.387C89.4294 198.803 89.5251 197.159 88.7909 195.387L79.5528 199.216ZM93.1165 203.427C93.6138 203.233 94.1599 203.021 94.7442 202.839C95.3543 202.647 95.8067 202.553 96.0792 202.53C96.2038 202.519 96.183 202.534 96.0539 202.515C95.9241 202.496 95.576 202.427 95.1499 202.173C94.6849 201.895 94.2637 201.475 93.9822 200.954C93.7179 200.466 93.6796 200.082 93.6743 199.973L103.663 199.488C103.552 197.221 102.538 194.938 100.279 193.589C98.4009 192.466 96.4062 192.464 95.2179 192.567C92.7984 192.776 90.318 193.785 89.4829 194.111L93.1165 203.427ZM93.6743 199.973C93.7129 200.769 93.7245 202.894 94.3937 204.726C94.7867 205.802 95.4551 206.982 96.592 207.978C97.7306 208.975 99.0656 209.546 100.424 209.823L102.425 200.026C102.45 200.031 102.789 200.112 103.179 200.454C103.567 200.794 103.735 201.154 103.786 201.295C103.821 201.388 103.784 201.331 103.748 200.965C103.731 200.797 103.717 200.597 103.703 200.343C103.688 200.063 103.68 199.839 103.663 199.488L93.6743 199.973ZM100.423 209.823C103.808 210.515 107.224 209.09 109.247 207.391L102.815 199.734C102.806 199.742 102.754 199.782 102.658 199.834C102.563 199.885 102.458 199.929 102.358 199.96C102.257 199.992 102.196 200 102.185 200.001C102.171 200.002 102.258 199.992 102.425 200.026L100.423 209.823ZM109.247 207.391C111.968 205.106 112.057 202.022 112.102 200.802C112.157 199.288 112.152 198.949 112.35 198.456L103.071 194.727C102.076 197.205 102.14 199.588 102.109 200.435C102.088 200.99 102.055 200.972 102.108 200.796C102.207 200.47 102.445 200.045 102.815 199.734L109.247 207.391ZM112.35 198.456C112.977 196.896 114.093 193.989 114.313 191.447L104.351 190.583C104.276 191.438 103.75 193.04 103.072 194.727L112.35 198.456ZM114.313 191.448C114.324 191.325 114.334 191.259 114.339 191.228C114.345 191.199 114.343 191.217 114.327 191.265C114.309 191.317 114.279 191.391 114.231 191.477C114.183 191.563 114.128 191.638 114.076 191.698L106.562 185.099C104.824 187.078 104.468 189.235 104.351 190.582L114.313 191.448ZM111.808 183.626C110.761 183.299 110.325 183.126 110.169 183.055C110.101 183.023 110.48 183.192 110.885 183.629C111.018 183.772 111.101 183.894 111.011 183.771C110.944 183.679 110.761 183.426 110.518 183.141C109.989 182.518 109.342 181.924 108.462 181.288L102.604 189.393C103.35 189.932 102.321 189.099 103.55 190.426C104.3 191.235 105.142 191.75 105.995 192.142C106.76 192.493 107.702 192.82 108.829 193.172L111.808 183.626ZM108.461 181.288C108.711 181.468 108.86 181.637 108.931 181.727C109.004 181.819 109.029 181.871 109.023 181.86C109.019 181.852 108.999 181.809 108.972 181.729C108.946 181.651 108.919 181.553 108.897 181.441C108.851 181.203 108.841 180.984 108.851 180.832C108.855 180.761 108.862 180.733 108.86 180.744C108.858 180.753 108.839 180.833 108.779 180.962L99.727 176.711C98.6672 178.967 98.7202 181.501 99.0829 183.358C99.4213 185.09 100.33 187.75 102.605 189.394L108.461 181.288ZM108.778 180.962C109.479 179.471 109.945 178.212 110.313 177.139C110.714 175.969 110.888 175.379 111.167 174.665C111.561 173.657 112.08 172.629 113.835 170.869L106.753 163.809C104.082 166.488 102.776 168.664 101.854 171.023C101.475 171.991 101.118 173.125 100.854 173.894C100.556 174.761 100.222 175.656 99.7273 176.71L108.778 180.962ZM113.835 170.869C114.874 169.827 115.522 168.451 115.883 167.603C116.321 166.574 116.703 165.411 116.999 164.267C117.293 163.127 117.533 161.878 117.634 160.676C117.719 159.658 117.776 157.971 117.16 156.376L107.831 159.977C107.682 159.59 107.679 159.357 107.683 159.423C107.686 159.458 107.69 159.593 107.669 159.842C107.627 160.344 107.508 161.022 107.316 161.768C107.125 162.508 106.894 163.187 106.681 163.688C106.575 163.938 106.496 164.089 106.457 164.156C106.396 164.262 106.481 164.082 106.753 163.809L113.835 170.869ZM117.161 156.376C117.19 156.451 117.215 156.533 117.234 156.613C117.253 156.69 117.259 156.739 117.257 156.723C117.255 156.71 117.252 156.691 117.246 156.639C117.24 156.597 117.229 156.514 117.217 156.428C117.191 156.248 117.146 155.961 117.063 155.626C116.648 153.957 115.701 152.718 114.565 151.626L107.638 158.839C107.858 159.05 107.832 159.06 107.728 158.902C107.669 158.813 107.594 158.683 107.521 158.516C107.446 158.346 107.394 158.181 107.358 158.039C107.326 157.908 107.315 157.821 107.318 157.843C107.32 157.858 107.322 157.876 107.33 157.937C107.337 157.988 107.348 158.073 107.362 158.167C107.391 158.365 107.436 158.637 107.512 158.955C107.59 159.277 107.693 159.617 107.831 159.976L117.161 156.376ZM114.564 151.626C114.622 151.681 114.662 151.724 114.683 151.748C114.706 151.772 114.718 151.787 114.721 151.79C114.724 151.795 114.709 151.776 114.677 151.731C114.61 151.637 114.529 151.51 114.457 151.38C114.379 151.239 114.364 151.187 114.381 151.236C114.391 151.264 114.431 151.378 114.467 151.561C114.499 151.724 114.562 152.107 114.518 152.627L104.554 151.773C104.444 153.055 104.796 154.129 104.963 154.597C105.178 155.2 105.45 155.756 105.7 156.208C106.142 157.009 106.835 158.068 107.639 158.84L114.564 151.626ZM114.518 152.626C114.551 152.244 114.556 151.856 114.526 151.462C114.496 151.061 114.436 150.723 114.375 150.455C114.347 150.33 114.319 150.225 114.303 150.161C114.273 150.048 114.288 150.107 114.275 150.057C114.274 150.053 114.303 150.162 114.326 150.316C114.433 151.036 114.202 151.308 114.553 150.115L104.96 147.292C104.504 148.842 104.212 150.292 104.435 151.789C104.487 152.138 104.556 152.416 104.597 152.574C104.657 152.804 104.625 152.679 104.621 152.662C104.555 152.369 104.531 152.042 104.554 151.774L114.518 152.626ZM114.553 150.116C115.211 147.882 115.696 146.712 116.604 144.235L107.214 140.794C106.398 143.02 105.738 144.65 104.96 147.291L114.553 150.116ZM116.603 144.237C116.857 143.544 117.23 142.331 117.528 141.202C117.68 140.625 117.834 139.993 117.948 139.403C118.027 138.996 118.214 138.024 118.143 137.059L108.17 137.796C108.154 137.587 108.16 137.436 108.163 137.375C108.164 137.339 108.166 137.312 108.168 137.296C108.169 137.28 108.17 137.272 108.17 137.271C108.17 137.271 108.17 137.276 108.168 137.287C108.167 137.298 108.164 137.314 108.161 137.334C108.154 137.375 108.145 137.43 108.131 137.499C108.075 137.789 107.981 138.187 107.859 138.649C107.609 139.596 107.326 140.49 107.215 140.793L116.603 144.237ZM117.613 135.16C117.412 134.766 117.301 134.513 117.243 134.36C117.183 134.205 117.207 134.23 117.232 134.382C117.261 134.559 117.284 134.868 117.22 135.253C117.155 135.641 117.028 135.942 116.931 136.125C116.85 136.277 116.801 136.325 116.895 136.203C117.005 136.062 117.121 135.925 117.393 135.595C117.892 134.99 118.587 134.127 119.334 132.925L110.842 127.645C110.439 128.292 110.069 128.759 109.68 129.23C109.423 129.542 108.623 130.449 108.099 131.434C107.373 132.803 107.092 134.331 107.362 135.987C107.582 137.343 108.149 138.611 108.7 139.694L117.613 135.16ZM119.334 132.926C119.563 132.557 120.116 131.668 120.609 130.73C120.852 130.267 121.136 129.685 121.366 129.078C121.513 128.688 121.977 127.467 121.855 126.045L111.891 126.895C111.863 126.562 111.879 126.295 111.897 126.123C111.915 125.946 111.942 125.812 111.96 125.732C111.995 125.579 112.025 125.507 112.012 125.541C111.986 125.61 111.907 125.791 111.753 126.086C111.45 126.662 111.076 127.269 110.842 127.645L119.334 132.926ZM64.84 150.4C64.2325 150.4 63.8985 150.314 63.7503 150.259C63.6788 150.233 63.6454 150.212 63.6356 150.206C63.6268 150.2 63.6222 150.196 63.6153 150.188L56.3047 157.012C58.6325 159.506 61.7585 160.4 64.84 160.4V150.4ZM63.6524 150.229C63.6393 150.214 63.28 149.839 63.28 148.36H53.28C53.28 151.414 54.0407 154.532 56.2676 156.971L63.6524 150.229ZM63.28 148.36V147.84H53.28V148.36H63.28ZM58.28 152.84H62.44V142.84H58.28V152.84ZM57.44 147.84V148.64H67.44V147.84H57.44ZM57.44 148.64C57.44 150.123 57.7267 152.165 59.1552 153.894C60.7348 155.807 62.9109 156.4 64.72 156.4V146.4C64.8344 146.4 65.1614 146.416 65.5935 146.591C66.0561 146.777 66.5083 147.094 66.8648 147.526C67.5333 148.335 67.44 148.997 67.44 148.64H57.44ZM64.72 156.4C66.6088 156.4 68.8798 155.771 70.4844 153.738L62.6356 147.542C62.9813 147.104 63.4298 146.779 63.8912 146.589C64.3188 146.412 64.634 146.4 64.72 146.4V156.4ZM70.4844 153.738C71.9964 151.823 72.16 149.431 72.16 147.96H62.16C62.16 148.152 62.1524 148.293 62.1435 148.389C62.1346 148.487 62.1261 148.518 62.1308 148.498C62.1351 148.479 62.1591 148.376 62.2268 148.218C62.2948 148.059 62.4195 147.815 62.6356 147.542L70.4844 153.738ZM72.16 147.96V142.6H62.16V147.96H72.16ZM67.16 137.6H67.08V147.6H67.16V137.6ZM62.5643 140.453C62.5411 140.502 62.5489 140.471 62.6104 140.4C62.6754 140.325 62.7723 140.237 62.8962 140.161C63.0189 140.087 63.121 140.052 63.1729 140.039C63.2196 140.027 63.1968 140.04 63.08 140.04V150.04C64.7498 150.04 66.5012 149.676 68.1038 148.699C69.7219 147.711 70.8571 146.3 71.5957 144.747L62.5643 140.453ZM63.08 140.04C62.8474 140.04 62.8679 140.001 63.0239 140.071C63.1002 140.106 63.1846 140.156 63.2653 140.221C63.3454 140.285 63.3988 140.345 63.4283 140.384L55.4517 146.416C57.3891 148.978 60.2099 150.04 63.08 150.04V140.04ZM63.4283 140.384C63.4804 140.453 63.4215 140.41 63.3485 140.13C63.2732 139.841 63.2 139.363 63.2 138.64H53.2C53.2 141.275 53.7067 144.108 55.4517 146.416L63.4283 140.384ZM63.2 138.64V133.64H53.2V138.64H63.2ZM63.2 133.64C63.2 132.235 63.5479 131.881 63.5726 131.854L56.2674 125.026C53.9987 127.452 53.2 130.565 53.2 133.64H63.2ZM63.5726 131.854C63.5889 131.837 63.6229 131.798 63.759 131.748C63.9198 131.688 64.2645 131.6 64.88 131.6V121.6C61.7547 121.6 58.6121 122.517 56.2674 125.026L63.5726 131.854ZM64.88 131.6C65.4955 131.6 65.8402 131.688 66.001 131.748C66.1371 131.798 66.1711 131.837 66.1874 131.854L73.4926 125.026C71.1479 122.517 68.0053 121.6 64.88 121.6V131.6ZM66.1874 131.854C66.2121 131.881 66.56 132.235 66.56 133.64H76.56C76.56 130.565 75.7613 127.452 73.4926 125.026L66.1874 131.854ZM66.56 133.64V148.12H76.56V133.64H66.56ZM66.56 148.12C66.56 149.871 66.1476 150.252 66.206 150.189C66.3342 150.05 66.2019 150.4 64.84 150.4V160.4C67.9581 160.4 71.1858 159.537 73.554 156.971C75.8524 154.482 76.56 151.223 76.56 148.12H66.56ZM64.88 146.04C66.6891 146.04 68.8652 145.447 70.4448 143.534C71.8733 141.805 72.16 139.763 72.16 138.28H62.16C62.16 138.637 62.0667 137.975 62.7352 137.166C63.0917 136.734 63.5439 136.417 64.0065 136.231C64.4386 136.056 64.7656 136.04 64.88 136.04V146.04ZM72.16 138.28V133.32H62.16V138.28H72.16ZM72.16 133.32C72.16 131.837 71.8675 129.793 70.4219 128.068C68.8345 126.174 66.6651 125.6 64.88 125.6V135.6C64.7734 135.6 64.4549 135.585 64.0299 135.416C63.5744 135.235 63.1206 134.924 62.7582 134.492C62.0725 133.674 62.16 132.99 62.16 133.32H72.16ZM64.88 125.6C63.0949 125.6 60.9255 126.174 59.3382 128.068C57.8925 129.793 57.6 131.837 57.6 133.32H67.6C67.6 132.99 67.6875 133.674 67.0018 134.492C66.6394 134.924 66.1856 135.235 65.7301 135.416C65.3051 135.585 64.9866 135.6 64.88 135.6V125.6ZM57.6 133.32V138.28H67.6V133.32H57.6ZM57.6 138.28C57.6 139.763 57.8867 141.805 59.3152 143.534C60.8948 145.447 63.0709 146.04 64.88 146.04V136.04C64.9944 136.04 65.3214 136.056 65.7535 136.231C66.2161 136.417 66.6683 136.734 67.0248 137.166C67.6933 137.975 67.6 138.637 67.6 138.28H57.6ZM79.5756 151.96C79.5756 150.474 79.8157 149.509 80.0904 148.903L70.9809 144.777C69.9756 146.997 69.5756 149.446 69.5756 151.96H79.5756ZM80.1047 148.871C80.4234 148.154 81.1522 147.042 82.5937 145.531L75.3576 138.629C73.4924 140.584 71.9279 142.646 70.9666 144.809L80.1047 148.871ZM82.6216 145.502C84.3749 143.633 85.8757 141.74 86.8078 139.876L77.8635 135.404C77.5688 135.993 76.8297 137.06 75.3297 138.658L82.6216 145.502ZM86.7685 139.953C87.7665 138.04 88.2956 135.97 88.2956 133.8H78.2956C78.2956 134.297 78.1847 134.787 77.9027 135.327L86.7685 139.953ZM88.2956 133.8C88.2956 132.409 88.1387 129.932 86.4448 128.012L78.9464 134.628C78.4343 134.048 78.3038 133.53 78.2858 133.456C78.2633 133.363 78.2956 133.448 78.2956 133.8H88.2956ZM86.6424 128.25C85.1058 126.275 82.9155 125.6 81.0156 125.6V135.6C80.8605 135.6 80.4919 135.575 80.026 135.376C79.5301 135.163 79.0826 134.819 78.7489 134.39L86.6424 128.25ZM81.0156 125.6C79.2065 125.6 77.0304 126.193 75.4508 128.106C74.0223 129.835 73.7356 131.877 73.7356 133.36H83.7356C83.7356 133.003 83.8289 133.665 83.1604 134.474C82.804 134.906 82.3517 135.223 81.8891 135.409C81.4571 135.584 81.1301 135.6 81.0156 135.6V125.6ZM73.7356 133.36V136.36H83.7356V133.36H73.7356ZM78.7356 131.36H74.5756V141.36H78.7356V131.36ZM79.5756 136.36V133.64H69.5756V136.36H79.5756ZM79.5756 133.64C79.5756 132.907 79.6676 132.443 79.7535 132.177C79.8329 131.931 79.9041 131.859 79.9109 131.852L72.6003 125.028C70.3331 127.458 69.5756 130.594 69.5756 133.64H79.5756ZM79.9481 131.811C79.9522 131.807 79.9677 131.781 80.0796 131.738C80.2173 131.687 80.5392 131.6 81.1356 131.6V121.6C78.0216 121.6 74.8831 122.528 72.5632 125.069L79.9481 131.811ZM81.1356 131.6C81.7321 131.6 82.0539 131.687 82.1916 131.738C82.3036 131.781 82.319 131.807 82.3232 131.811L89.7081 125.069C87.3882 122.528 84.2497 121.6 81.1356 121.6V131.6ZM82.3604 131.852C82.3672 131.859 82.4384 131.931 82.5178 132.177C82.6037 132.443 82.6956 132.907 82.6956 133.64H92.6956C92.6956 130.594 91.9381 127.458 89.6709 125.028L82.3604 131.852ZM82.6956 133.64C82.6956 134.505 82.4935 135.4 81.9982 136.375L90.9131 140.905C92.0711 138.626 92.6956 136.188 92.6956 133.64H82.6956ZM81.9689 136.433C81.4845 137.418 80.4644 138.865 78.6295 140.797L85.8818 147.683C88.0468 145.402 89.8268 143.115 90.9424 140.847L81.9689 136.433ZM78.6167 140.811C77.2274 142.285 75.9537 143.83 75.1708 145.35L84.0605 149.93C84.1842 149.69 84.6705 148.968 85.8946 147.669L78.6167 140.811ZM75.2 145.294C74.3546 146.886 73.9356 148.613 73.9356 150.4H83.9356C83.9356 150.213 83.97 150.101 84.0312 149.986L75.2 145.294ZM73.9356 150.4V151H83.9356V150.4H73.9356ZM78.9356 156H87.2956V146H78.9356V156ZM82.2956 151V155H92.2956V151H82.2956ZM87.2956 150H74.5756V160H87.2956V150ZM79.5756 155V151.96H69.5756V155H79.5756Z" fill="#E42313" mask="url(#path-1-outside-1_85_707)"/>
</svg>
