<svg width="161" height="162" viewBox="0 0 161 162" fill="none" xmlns="http://www.w3.org/2000/svg">
<mask id="path-1-outside-1_85_709" maskUnits="userSpaceOnUse" x="-0.346924" y="0.000488281" width="161" height="162" fill="black">
<rect fill="white" x="-0.346924" y="0.000488281" width="161" height="162"/>
<path fill-rule="evenodd" clip-rule="evenodd" d="M66.605 127.384L66.1354 123.243C66.3484 119.944 65.5585 115.699 64.7492 112.479C63.0148 105.577 64.3646 105.491 58.6085 101.204C55.7487 99.0741 57.5422 95.2797 56.1621 92.409C54.217 88.3637 50.1732 88.9878 46.4024 89.1007C44.5853 89.1551 41.2662 88.7209 39.4287 88.8598C37.7935 88.9831 37.3787 88.771 36.0379 88.788C33.1218 88.8253 30.4108 89.0634 27.4305 89.0228C24.7327 88.9859 24.752 88.5002 21.4457 88.71L19.9612 89.4915C19.1746 86.1398 19.983 87.4178 19.8115 85.2724C19.7486 84.4876 18.0317 79.4232 17.641 78.7641C18.1328 78.4792 18.6275 78.1825 19.1269 77.8674C21.5927 76.3125 22.1256 74.8833 23.9531 72.769C26.4222 69.9115 29.7177 64.9676 28.2876 61.0745C26.5697 56.3971 22.9652 57.6883 19.0106 56.1854C17.9532 55.7834 9.90666 53.6417 9.12189 53.6006C7.74749 53.5278 6.71092 53.5023 5.88788 53.5212L5.65308 48.5811C6.94385 46.4711 8.48736 42.8704 11.1422 42.9554C13.3939 43.0277 12.441 43.8933 14.9507 43.8933C17.3891 43.8933 18.7224 46.6988 21.1807 46.5495C22.8131 46.4503 26.9098 50.289 28.5649 46.5698C29.3053 44.9067 30.1023 45.7897 30.0295 43.2101C29.9946 41.9651 31.7786 40.1745 32.9985 41.0807C34.2609 42.0185 37.3783 42.2344 37.2956 40.2992C37.2715 39.7389 38.336 36.5488 39.5814 36.6272C40.79 36.7033 42.3023 36.415 43.4679 36.9196C44.074 37.1819 46.6797 36.355 49.2495 38.132C50.4727 38.9777 50.7051 38.7453 52.0819 40.1631C53.2484 41.3637 54.7749 42.2354 55.9684 43.7232C56.636 44.5557 57.9022 45.3012 58.9374 46.764C60.9378 49.5903 64.4444 47.4335 66.7968 46.9983C68.7065 46.6449 69.7535 46.5419 71.8286 46.6279C73.8957 48.2173 75.8932 50.6543 78.4696 49.5383C78.5806 49.4901 81.4594 49.2274 81.9073 49.4202C85.0756 50.7842 86.7784 45.9669 89.9345 44.8817C90.6928 44.6213 93.6788 42.9195 94.0378 42.0762C94.5609 40.8454 95.6825 40.1627 96.9081 40.6696C98.7295 41.4227 100.527 39.1313 101.304 37.7989C101.666 37.1767 103.635 35.6454 104.643 36.0602C105.705 36.4973 106.171 33.6228 106.518 33.5018C106.595 33.2812 108.093 33.4366 109.09 32.8768C110.483 32.0939 112.003 30.6883 113.003 30.1426C113.295 27.0281 113.386 28.6255 115.034 26.5282C116.618 24.5141 115.53 21.8541 118.139 20.0639C119.966 18.81 120.684 15.4536 121.05 13.4428C121.507 10.9401 124.882 9.82323 126.91 7.79729C127.21 7.49822 128.578 6.19562 128.863 6.00049C132.918 8.00091 130.783 8.02029 132.917 9.90401C134.388 11.2019 136.434 11.7542 138.25 13.3861C139.88 14.8521 140.056 13.9119 141.562 16.4666C142.485 18.0309 144.709 20.2435 144.877 21.6169C144.92 21.9684 144.297 28.4152 144.266 28.4922C143.942 29.2737 144.423 30.3301 142.235 31.0436C140.446 31.6271 139.52 32.4048 137.39 32.5484C136.117 32.6344 136.316 33.5434 137.286 34.2157C137.453 34.3319 140.262 38.3866 141.121 39.0594C141.465 39.3297 146.741 47.6371 147.762 48.8055C149.389 51.1929 150.817 53.0676 151.036 55.9733C151.124 57.1342 152.907 62.5127 154.09 63.202C154.411 63.3891 155.678 64.6341 155.653 65.2128C155.571 67.1074 154.566 67.4509 153.465 68.9831C151.69 71.4513 150.371 70.1728 149.344 74.0995C148.392 77.7408 150.67 76.9754 149.871 80.3634C149.203 83.1997 151.026 84.4517 149.253 85.475C146.399 87.1211 149.702 88.0387 148.203 91.3081C147.701 92.4052 139.74 96.965 138.205 97.4601C135.623 98.2931 134.634 101.117 137.866 102.259C138.808 102.593 141.125 103.503 140.573 104.746C140.042 105.945 139.76 108.069 139.792 109.356C138.516 114.472 140.453 112.117 143.777 114.142C145.07 114.93 144.074 115.782 145.808 116.758C146.686 117.252 146.913 118.586 146.531 119.512C145.957 120.908 145.822 120.406 144.558 121.388C143.886 121.91 140.142 122.246 142.221 124.513C142.739 125.078 144.356 128.871 144.324 129.884C144.272 131.511 147.239 138.178 147.898 140.288C148.846 143.329 148.598 142.085 150.398 144.097C151.609 145.451 151.98 146.365 151.818 148.05C151.71 149.164 151.806 149.351 151.453 150.55C151.238 151.285 152.048 153.282 151.212 155.387C151.212 155.39 151.05 155.974 151.043 155.999L146.961 155.784C146.556 155.56 144.249 155.237 143.778 154.931C140.473 152.785 139.958 150.158 139.46 146.455C139.166 144.264 136.207 143.181 134.918 142.165C132.037 139.893 131.358 138.659 127.87 136.792C124.231 134.843 125.607 133.331 122.547 131.604C119.732 130.016 120.103 128.141 116.432 127.247C113.904 126.63 114.552 127.568 112.981 125.861C111.956 124.747 110.085 121.697 108.548 121.485C107.528 121.345 103.754 119 103.657 118.985C99.707 118.37 95.9896 117.247 92.2902 119.603C90.74 120.591 91.1572 120.23 89.7635 120.874C87.6553 121.847 88.2274 121.695 85.2778 122.11C83.6634 122.699 81.3507 123.948 79.9262 124.952C77.8346 126.427 75.727 122.788 73.6892 125.011C73.1397 125.611 72.9323 125.778 72.3767 126.303C71.3826 127.243 67.9289 127.291 66.605 127.384Z"/>
<path d="M88.84 91.4C86.7067 91.4 85.08 90.8 83.96 89.6C82.84 88.3733 82.28 86.6267 82.28 84.36V83.84H86.44V84.64C86.44 86.48 87.2 87.4 88.72 87.4C89.5467 87.4 90.16 87.1467 90.56 86.64C90.96 86.1333 91.16 85.24 91.16 83.96V78.6H91.08C90.3067 80.2267 88.9733 81.04 87.08 81.04C85.48 81.04 84.2667 80.4933 83.44 79.4C82.6133 78.3067 82.2 76.72 82.2 74.64V69.64C82.2 67.4 82.7733 65.6667 83.92 64.44C85.0667 63.2133 86.72 62.6 88.88 62.6C91.04 62.6 92.6933 63.2133 93.84 64.44C94.9867 65.6667 95.56 67.4 95.56 69.64V84.12C95.56 88.9733 93.32 91.4 88.84 91.4ZM88.88 77.04C90.4 77.04 91.16 76.12 91.16 74.28V69.32C91.16 67.5067 90.4 66.6 88.88 66.6C87.36 66.6 86.6 67.5067 86.6 69.32V74.28C86.6 76.12 87.36 77.04 88.88 77.04Z"/>
<path d="M104.896 91.4C102.736 91.4 101.096 90.8 99.9756 89.6C98.8823 88.4 98.3356 86.68 98.3356 84.44V82.16H102.496V84.64C102.496 86.48 103.256 87.4 104.776 87.4C105.522 87.4 106.082 87.1733 106.456 86.72C106.856 86.24 107.056 85.4133 107.056 84.24V81.96C107.056 80.68 106.829 79.7733 106.376 79.24C105.922 78.68 105.189 78.4 104.176 78.4H102.696V74.4H104.296C105.176 74.4 105.829 74.1733 106.256 73.72C106.709 73.2667 106.936 72.5067 106.936 71.44V69.4C106.936 68.44 106.736 67.7333 106.336 67.28C105.936 66.8267 105.402 66.6 104.736 66.6C103.322 66.6 102.616 67.4667 102.616 69.2V71.04H98.4556V69.56C98.4556 67.32 99.0023 65.6 100.096 64.4C101.216 63.2 102.816 62.6 104.896 62.6C107.002 62.6 108.602 63.2 109.696 64.4C110.789 65.5733 111.336 67.28 111.336 69.52V70.52C111.336 72.04 111.082 73.2667 110.576 74.2C110.069 75.1067 109.282 75.76 108.216 76.16V76.24C109.362 76.6667 110.189 77.36 110.696 78.32C111.202 79.28 111.456 80.5067 111.456 82V84.48C111.456 86.72 110.896 88.44 109.776 89.64C108.682 90.8133 107.056 91.4 104.896 91.4Z"/>
</mask>
<path d="M88.84 91.4C86.7067 91.4 85.08 90.8 83.96 89.6C82.84 88.3733 82.28 86.6267 82.28 84.36V83.84H86.44V84.64C86.44 86.48 87.2 87.4 88.72 87.4C89.5467 87.4 90.16 87.1467 90.56 86.64C90.96 86.1333 91.16 85.24 91.16 83.96V78.6H91.08C90.3067 80.2267 88.9733 81.04 87.08 81.04C85.48 81.04 84.2667 80.4933 83.44 79.4C82.6133 78.3067 82.2 76.72 82.2 74.64V69.64C82.2 67.4 82.7733 65.6667 83.92 64.44C85.0667 63.2133 86.72 62.6 88.88 62.6C91.04 62.6 92.6933 63.2133 93.84 64.44C94.9867 65.6667 95.56 67.4 95.56 69.64V84.12C95.56 88.9733 93.32 91.4 88.84 91.4ZM88.88 77.04C90.4 77.04 91.16 76.12 91.16 74.28V69.32C91.16 67.5067 90.4 66.6 88.88 66.6C87.36 66.6 86.6 67.5067 86.6 69.32V74.28C86.6 76.12 87.36 77.04 88.88 77.04Z" fill="white"/>
<path d="M104.896 91.4C102.736 91.4 101.096 90.8 99.9756 89.6C98.8823 88.4 98.3356 86.68 98.3356 84.44V82.16H102.496V84.64C102.496 86.48 103.256 87.4 104.776 87.4C105.522 87.4 106.082 87.1733 106.456 86.72C106.856 86.24 107.056 85.4133 107.056 84.24V81.96C107.056 80.68 106.829 79.7733 106.376 79.24C105.922 78.68 105.189 78.4 104.176 78.4H102.696V74.4H104.296C105.176 74.4 105.829 74.1733 106.256 73.72C106.709 73.2667 106.936 72.5067 106.936 71.44V69.4C106.936 68.44 106.736 67.7333 106.336 67.28C105.936 66.8267 105.402 66.6 104.736 66.6C103.322 66.6 102.616 67.4667 102.616 69.2V71.04H98.4556V69.56C98.4556 67.32 99.0023 65.6 100.096 64.4C101.216 63.2 102.816 62.6 104.896 62.6C107.002 62.6 108.602 63.2 109.696 64.4C110.789 65.5733 111.336 67.28 111.336 69.52V70.52C111.336 72.04 111.082 73.2667 110.576 74.2C110.069 75.1067 109.282 75.76 108.216 76.16V76.24C109.362 76.6667 110.189 77.36 110.696 78.32C111.202 79.28 111.456 80.5067 111.456 82V84.48C111.456 86.72 110.896 88.44 109.776 89.64C108.682 90.8133 107.056 91.4 104.896 91.4Z" fill="white"/>
<path fill-rule="evenodd" clip-rule="evenodd" d="M66.605 127.384L66.1354 123.243C66.3484 119.944 65.5585 115.699 64.7492 112.479C63.0148 105.577 64.3646 105.491 58.6085 101.204C55.7487 99.0741 57.5422 95.2797 56.1621 92.409C54.217 88.3637 50.1732 88.9878 46.4024 89.1007C44.5853 89.1551 41.2662 88.7209 39.4287 88.8598C37.7935 88.9831 37.3787 88.771 36.0379 88.788C33.1218 88.8253 30.4108 89.0634 27.4305 89.0228C24.7327 88.9859 24.752 88.5002 21.4457 88.71L19.9612 89.4915C19.1746 86.1398 19.983 87.4178 19.8115 85.2724C19.7486 84.4876 18.0317 79.4232 17.641 78.7641C18.1328 78.4792 18.6275 78.1825 19.1269 77.8674C21.5927 76.3125 22.1256 74.8833 23.9531 72.769C26.4222 69.9115 29.7177 64.9676 28.2876 61.0745C26.5697 56.3971 22.9652 57.6883 19.0106 56.1854C17.9532 55.7834 9.90666 53.6417 9.12189 53.6006C7.74749 53.5278 6.71092 53.5023 5.88788 53.5212L5.65308 48.5811C6.94385 46.4711 8.48736 42.8704 11.1422 42.9554C13.3939 43.0277 12.441 43.8933 14.9507 43.8933C17.3891 43.8933 18.7224 46.6988 21.1807 46.5495C22.8131 46.4503 26.9098 50.289 28.5649 46.5698C29.3053 44.9067 30.1023 45.7897 30.0295 43.2101C29.9946 41.9651 31.7786 40.1745 32.9985 41.0807C34.2609 42.0185 37.3783 42.2344 37.2956 40.2992C37.2715 39.7389 38.336 36.5488 39.5814 36.6272C40.79 36.7033 42.3023 36.415 43.4679 36.9196C44.074 37.1819 46.6797 36.355 49.2495 38.132C50.4727 38.9777 50.7051 38.7453 52.0819 40.1631C53.2484 41.3637 54.7749 42.2354 55.9684 43.7232C56.636 44.5557 57.9022 45.3012 58.9374 46.764C60.9378 49.5903 64.4444 47.4335 66.7968 46.9983C68.7065 46.6449 69.7535 46.5419 71.8286 46.6279C73.8957 48.2173 75.8932 50.6543 78.4696 49.5383C78.5806 49.4901 81.4594 49.2274 81.9073 49.4202C85.0756 50.7842 86.7784 45.9669 89.9345 44.8817C90.6928 44.6213 93.6788 42.9195 94.0378 42.0762C94.5609 40.8454 95.6825 40.1627 96.9081 40.6696C98.7295 41.4227 100.527 39.1313 101.304 37.7989C101.666 37.1767 103.635 35.6454 104.643 36.0602C105.705 36.4973 106.171 33.6228 106.518 33.5018C106.595 33.2812 108.093 33.4366 109.09 32.8768C110.483 32.0939 112.003 30.6883 113.003 30.1426C113.295 27.0281 113.386 28.6255 115.034 26.5282C116.618 24.5141 115.53 21.8541 118.139 20.0639C119.966 18.81 120.684 15.4536 121.05 13.4428C121.507 10.9401 124.882 9.82323 126.91 7.79729C127.21 7.49822 128.578 6.19562 128.863 6.00049C132.918 8.00091 130.783 8.02029 132.917 9.90401C134.388 11.2019 136.434 11.7542 138.25 13.3861C139.88 14.8521 140.056 13.9119 141.562 16.4666C142.485 18.0309 144.709 20.2435 144.877 21.6169C144.92 21.9684 144.297 28.4152 144.266 28.4922C143.942 29.2737 144.423 30.3301 142.235 31.0436C140.446 31.6271 139.52 32.4048 137.39 32.5484C136.117 32.6344 136.316 33.5434 137.286 34.2157C137.453 34.3319 140.262 38.3866 141.121 39.0594C141.465 39.3297 146.741 47.6371 147.762 48.8055C149.389 51.1929 150.817 53.0676 151.036 55.9733C151.124 57.1342 152.907 62.5127 154.09 63.202C154.411 63.3891 155.678 64.6341 155.653 65.2128C155.571 67.1074 154.566 67.4509 153.465 68.9831C151.69 71.4513 150.371 70.1728 149.344 74.0995C148.392 77.7408 150.67 76.9754 149.871 80.3634C149.203 83.1997 151.026 84.4517 149.253 85.475C146.399 87.1211 149.702 88.0387 148.203 91.3081C147.701 92.4052 139.74 96.965 138.205 97.4601C135.623 98.2931 134.634 101.117 137.866 102.259C138.808 102.593 141.125 103.503 140.573 104.746C140.042 105.945 139.76 108.069 139.792 109.356C138.516 114.472 140.453 112.117 143.777 114.142C145.07 114.93 144.074 115.782 145.808 116.758C146.686 117.252 146.913 118.586 146.531 119.512C145.957 120.908 145.822 120.406 144.558 121.388C143.886 121.91 140.142 122.246 142.221 124.513C142.739 125.078 144.356 128.871 144.324 129.884C144.272 131.511 147.239 138.178 147.898 140.288C148.846 143.329 148.598 142.085 150.398 144.097C151.609 145.451 151.98 146.365 151.818 148.05C151.71 149.164 151.806 149.351 151.453 150.55C151.238 151.285 152.048 153.282 151.212 155.387C151.212 155.39 151.05 155.974 151.043 155.999L146.961 155.784C146.556 155.56 144.249 155.237 143.778 154.931C140.473 152.785 139.958 150.158 139.46 146.455C139.166 144.264 136.207 143.181 134.918 142.165C132.037 139.893 131.358 138.659 127.87 136.792C124.231 134.843 125.607 133.331 122.547 131.604C119.732 130.016 120.103 128.141 116.432 127.247C113.904 126.63 114.552 127.568 112.981 125.861C111.956 124.747 110.085 121.697 108.548 121.485C107.528 121.345 103.754 119 103.657 118.985C99.707 118.37 95.9896 117.247 92.2902 119.603C90.74 120.591 91.1572 120.23 89.7635 120.874C87.6553 121.847 88.2274 121.695 85.2778 122.11C83.6634 122.699 81.3507 123.948 79.9262 124.952C77.8346 126.427 75.727 122.788 73.6892 125.011C73.1397 125.611 72.9323 125.778 72.3767 126.303C71.3826 127.243 67.9289 127.291 66.605 127.384Z" stroke="#E42313" stroke-width="10" mask="url(#path-1-outside-1_85_709)"/>
<path d="M88.84 91.4C86.7067 91.4 85.08 90.8 83.96 89.6C82.84 88.3733 82.28 86.6267 82.28 84.36V83.84H86.44V84.64C86.44 86.48 87.2 87.4 88.72 87.4C89.5467 87.4 90.16 87.1467 90.56 86.64C90.96 86.1333 91.16 85.24 91.16 83.96V78.6H91.08C90.3067 80.2267 88.9733 81.04 87.08 81.04C85.48 81.04 84.2667 80.4933 83.44 79.4C82.6133 78.3067 82.2 76.72 82.2 74.64V69.64C82.2 67.4 82.7733 65.6667 83.92 64.44C85.0667 63.2133 86.72 62.6 88.88 62.6C91.04 62.6 92.6933 63.2133 93.84 64.44C94.9867 65.6667 95.56 67.4 95.56 69.64V84.12C95.56 88.9733 93.32 91.4 88.84 91.4ZM88.88 77.04C90.4 77.04 91.16 76.12 91.16 74.28V69.32C91.16 67.5067 90.4 66.6 88.88 66.6C87.36 66.6 86.6 67.5067 86.6 69.32V74.28C86.6 76.12 87.36 77.04 88.88 77.04Z" stroke="#E42313" stroke-width="10" mask="url(#path-1-outside-1_85_709)"/>
<path d="M104.896 91.4C102.736 91.4 101.096 90.8 99.9756 89.6C98.8823 88.4 98.3356 86.68 98.3356 84.44V82.16H102.496V84.64C102.496 86.48 103.256 87.4 104.776 87.4C105.522 87.4 106.082 87.1733 106.456 86.72C106.856 86.24 107.056 85.4133 107.056 84.24V81.96C107.056 80.68 106.829 79.7733 106.376 79.24C105.922 78.68 105.189 78.4 104.176 78.4H102.696V74.4H104.296C105.176 74.4 105.829 74.1733 106.256 73.72C106.709 73.2667 106.936 72.5067 106.936 71.44V69.4C106.936 68.44 106.736 67.7333 106.336 67.28C105.936 66.8267 105.402 66.6 104.736 66.6C103.322 66.6 102.616 67.4667 102.616 69.2V71.04H98.4556V69.56C98.4556 67.32 99.0023 65.6 100.096 64.4C101.216 63.2 102.816 62.6 104.896 62.6C107.002 62.6 108.602 63.2 109.696 64.4C110.789 65.5733 111.336 67.28 111.336 69.52V70.52C111.336 72.04 111.082 73.2667 110.576 74.2C110.069 75.1067 109.282 75.76 108.216 76.16V76.24C109.362 76.6667 110.189 77.36 110.696 78.32C111.202 79.28 111.456 80.5067 111.456 82V84.48C111.456 86.72 110.896 88.44 109.776 89.64C108.682 90.8133 107.056 91.4 104.896 91.4Z" stroke="#E42313" stroke-width="10" mask="url(#path-1-outside-1_85_709)"/>
</svg>
