<svg width="128" height="110" viewBox="0 0 128 110" fill="none" xmlns="http://www.w3.org/2000/svg">
<mask id="path-1-outside-1_85_710" maskUnits="userSpaceOnUse" x="0.653076" y="0.133301" width="127" height="110" fill="black">
<rect fill="white" x="0.653076" y="0.133301" width="127" height="110"/>
<path fill-rule="evenodd" clip-rule="evenodd" d="M9.78734 70.5727C7.00901 69.7057 8.30162 69.7549 6.73009 68.6191C5.76745 67.9237 5.33698 65.6888 5.91222 64.4639C7.4399 61.212 6.94439 59.9553 9.77147 57.1191C10.5848 56.3031 11.6639 52.5236 11.1782 51.2654C10.8986 50.5405 11.2689 50.3277 10.2874 49.3851C9.92003 49.0324 9.24577 47.933 9.28734 47.4477C9.3497 46.719 8.91278 46.9662 9.4283 45.214C9.88676 43.6568 10.2527 42.7626 10.8033 41.2602C11.0365 40.6245 11.6412 38.5681 11.6 38.0102C10.3316 35.5169 11.3649 35.8105 12.834 33.4476C13.13 32.9717 14.0197 31.5374 13.9747 31.0102C16.0652 31.3957 17.4602 31.5075 19.5631 31.4557C20.5881 31.4304 21.403 31.8636 23.1881 31.763C26.4517 31.579 32.1754 27.2318 35.422 25.7218C38.6297 24.2297 38.9234 23.1639 42.2342 25.3768C43.4573 26.1943 46.5773 25.0174 49.3594 26.8773C51.6407 28.4023 51.0817 28.3097 53.8431 28.5754C54.7158 28.6593 56.0854 29.8109 57.047 29.888C57.5723 29.93 57.928 30.2682 59.3075 30.2682C62.0911 30.2682 63.4623 29.6136 63.9843 26.7521C64.2303 25.4032 64.2969 25.9482 64.2969 24.3306C64.2969 22.4117 66.1568 19.8961 64.1147 17.3933C63.0507 16.089 60.4686 16.9144 58.5217 15.4094C57.0568 14.2767 55.6062 14.6637 54.3699 15.8255C50.8005 19.1802 50.3723 13.8201 49.0008 16.5754C48.3325 17.9171 49.9535 18.995 46.1665 20.545C45.6861 20.7608 45.1653 21.1758 44.7503 20.6898C44.3387 20.2083 44.4865 19.099 44.6875 18.5256C45.0028 17.6276 45.3025 16.9692 45.5602 16.0255C45.7296 15.4049 45.8327 15.3841 45.9064 14.6353C45.9767 13.9203 46.0134 13.2086 46.1253 12.5022C47.1843 12.4277 49.9471 12.3899 50.7424 11.6378C51.1868 11.2175 51.3528 11.0837 51.7923 10.6041C53.4224 8.82583 55.1085 11.7364 56.7817 10.5569C57.9212 9.75333 59.7712 8.75478 61.0627 8.28348C63.4223 7.95126 62.9646 8.07333 64.651 7.29437C65.766 6.77922 65.4322 7.06797 66.6723 6.27805C69.6317 4.39319 72.6054 5.2916 75.7651 5.78369C75.8425 5.79579 78.862 7.67119 79.6777 7.78345C80.9071 7.95277 82.4038 10.3928 83.224 11.2837C84.4811 12.6492 83.9621 11.8993 85.9849 12.3926C88.9216 13.108 88.6249 14.6078 90.876 15.8781C93.3244 17.2598 92.2234 18.4693 95.1348 20.0284C97.9248 21.522 98.4679 22.5092 100.772 24.3264C101.804 25.1394 104.171 26.0057 104.406 27.7586C104.804 30.7202 105.217 32.8217 107.86 34.5387C108.237 34.7836 110.082 35.0418 110.406 35.2209L113.672 35.3933C113.44 37.1991 112.618 40.4745 114.656 41.6125C115.901 42.3068 114.534 44.361 114.724 45.9087C115.012 48.2573 111.537 51.1104 113.053 54.7996C113.667 56.2952 113.706 58.0935 116.047 56.5961C117.95 55.3791 120.569 54.763 120.776 57.8301C120.917 59.9156 124.615 64.4087 119.964 64.4087C119.258 64.4087 115.866 64.2723 115.605 64.7836C115.492 65.0032 116.406 66.2093 116.406 67.4497C116.406 68.1962 116.396 68.7306 115.844 69.2836C113.599 71.9281 115.036 70.1782 113.015 71.08C112.604 71.2636 111.213 73.5699 111.417 73.9709C112.581 76.2594 111.894 75.299 114.031 76.5497C114.885 77.0494 114.444 78.492 113.594 78.9875C113.113 79.2679 111.021 82.0447 110.828 82.6585C110.713 83.024 108.548 86.5378 108.072 87.5961C106.842 90.3325 107.134 89.789 105.281 92.3621C103.645 94.6347 104.243 97.2358 106.646 98.5802C108.226 99.4638 108.565 99.7764 106.703 100.493L106.531 100.533L105.725 102.198C105.01 102.621 101.724 104.229 100.913 104.494C98.2801 105.353 97.7978 104.717 96.2248 102.698C95.6598 102.108 95.3377 101.748 94.7927 101.14C93.9405 100.191 93.7707 98.2948 92.584 98.1353C89.5755 97.7313 88.9708 94.7054 87.2715 92.7442C85.8969 91.1579 85.2661 88.4582 84.2876 86.714C83.882 85.991 83.4349 82.9979 83.475 82.228C83.5267 81.2347 83.1046 80.3235 82.9749 79.5457C82.665 77.6884 78.7445 78.0993 77.9126 78.5513C76.4008 79.373 74.1679 79.9766 72.616 80.8175C70.9406 81.725 68.3576 82.1751 66.5839 82.8226C63.6936 83.8782 64.5516 82.3467 61.5321 84.4319C60.8027 84.9353 59.2278 87.3255 58.4125 87.3905C54.7577 87.683 58.2863 84.8851 54.6001 84.8851C53.1307 84.8851 49.4724 85.3023 48.2876 85.8636C46.6831 86.6236 47.2576 86.8704 45.1623 86.0726C45.1286 86.0673 44.519 85.4973 44.491 85.4478C43.8969 84.4043 43.7378 84.5184 43.2196 83.8854C42.1923 82.6294 38.2756 86.8035 36.3446 86.0888C34.7096 85.4833 33.603 87.4332 32.7926 87.8694C30.2074 89.2606 30.6474 85.1935 30.1466 84.4017C29.3824 83.1941 29.6855 84.0638 29.0214 82.4476C28.58 81.3743 29.0263 80.0945 27.959 79.0891C26.7896 77.9878 27.2651 75.5987 27.6785 74.1977C28.1986 72.4334 26.7813 72.6261 25.8659 73.3227C24.7278 74.189 23.4799 74.9649 22.3498 75.7654C21.3736 76.4575 19.751 75.9279 19.209 75.1407C17.7962 73.0895 13.2298 73.7301 13.9282 71.8279C14.7004 69.7261 10.3475 70.5353 9.78734 70.5727Z"/>
<path d="M63.84 69.4C61.7067 69.4 60.08 68.8 58.96 67.6C57.84 66.3733 57.28 64.6267 57.28 62.36V61.84H61.44V62.64C61.44 64.48 62.2 65.4 63.72 65.4C64.5467 65.4 65.16 65.1467 65.56 64.64C65.96 64.1333 66.16 63.24 66.16 61.96V56.6H66.08C65.3067 58.2267 63.9733 59.04 62.08 59.04C60.48 59.04 59.2667 58.4933 58.44 57.4C57.6133 56.3067 57.2 54.72 57.2 52.64V47.64C57.2 45.4 57.7733 43.6667 58.92 42.44C60.0667 41.2133 61.72 40.6 63.88 40.6C66.04 40.6 67.6933 41.2133 68.84 42.44C69.9867 43.6667 70.56 45.4 70.56 47.64V62.12C70.56 66.9733 68.32 69.4 63.84 69.4ZM63.88 55.04C65.4 55.04 66.16 54.12 66.16 52.28V47.32C66.16 45.5067 65.4 44.6 63.88 44.6C62.36 44.6 61.6 45.5067 61.6 47.32V52.28C61.6 54.12 62.36 55.04 63.88 55.04Z"/>
<path d="M81.0156 63.92H72.6156V59.92L80.6156 41H85.4156V59.92H87.4956V63.92H85.4156V69H81.0156V63.92ZM81.0156 59.92V49H80.9356L76.6156 59.92H81.0156Z"/>
</mask>
<path d="M63.84 69.4C61.7067 69.4 60.08 68.8 58.96 67.6C57.84 66.3733 57.28 64.6267 57.28 62.36V61.84H61.44V62.64C61.44 64.48 62.2 65.4 63.72 65.4C64.5467 65.4 65.16 65.1467 65.56 64.64C65.96 64.1333 66.16 63.24 66.16 61.96V56.6H66.08C65.3067 58.2267 63.9733 59.04 62.08 59.04C60.48 59.04 59.2667 58.4933 58.44 57.4C57.6133 56.3067 57.2 54.72 57.2 52.64V47.64C57.2 45.4 57.7733 43.6667 58.92 42.44C60.0667 41.2133 61.72 40.6 63.88 40.6C66.04 40.6 67.6933 41.2133 68.84 42.44C69.9867 43.6667 70.56 45.4 70.56 47.64V62.12C70.56 66.9733 68.32 69.4 63.84 69.4ZM63.88 55.04C65.4 55.04 66.16 54.12 66.16 52.28V47.32C66.16 45.5067 65.4 44.6 63.88 44.6C62.36 44.6 61.6 45.5067 61.6 47.32V52.28C61.6 54.12 62.36 55.04 63.88 55.04Z" fill="white"/>
<path d="M81.0156 63.92H72.6156V59.92L80.6156 41H85.4156V59.92H87.4956V63.92H85.4156V69H81.0156V63.92ZM81.0156 59.92V49H80.9356L76.6156 59.92H81.0156Z" fill="white"/>
<path d="M111.486 33.9753C111.47 34.0163 111.448 34.0789 111.44 34.1004C111.436 34.1137 111.428 34.1359 111.426 34.1449C111.42 34.1622 111.416 34.1759 111.414 34.1814C111.41 34.1938 111.408 34.2035 111.407 34.2066C111.404 34.2143 111.403 34.2205 111.402 34.2224C111.401 34.2275 111.399 34.2322 111.399 34.2346C111.397 34.2404 111.395 34.2472 111.393 34.2541C111.389 34.2682 111.384 34.2875 111.378 34.3099C111.365 34.3548 111.349 34.4145 111.332 34.4744C111.316 34.5343 111.299 34.5948 111.286 34.6415C111.279 34.6649 111.274 34.6847 111.27 34.6994C111.268 34.7068 111.266 34.7127 111.265 34.7172C111.264 34.7194 111.264 34.7211 111.264 34.7224C111.263 34.7239 111.263 34.7243 111.263 34.7242L116.081 36.0624C116.084 36.051 116.118 35.9264 116.151 35.8088C116.167 35.7491 116.184 35.6904 116.196 35.6465C116.202 35.6245 116.207 35.6069 116.21 35.595C116.212 35.5889 116.213 35.5855 116.213 35.5841C116.213 35.5831 116.213 35.585 116.212 35.5882C116.212 35.5892 116.21 35.5947 116.208 35.6019C116.207 35.6047 116.205 35.6142 116.201 35.6264C116.199 35.6319 116.195 35.6455 116.19 35.6628C116.187 35.6718 116.179 35.694 116.175 35.7072C116.168 35.7287 116.145 35.7914 116.129 35.8323L111.486 33.9753ZM13.9747 31.0102L14.8815 26.0931L8.43571 24.9044L8.99281 31.4351L13.9747 31.0102ZM19.5631 31.4557L19.6862 36.4542L19.6866 36.4542L19.5631 31.4557ZM23.1881 31.763L23.4692 36.7551L23.4696 36.7551L23.1881 31.763ZM35.422 25.7218L37.5305 30.2555L37.5309 30.2553L35.422 25.7218ZM42.2342 25.3768L45.0128 21.2199L45.0127 21.2198L42.2342 25.3768ZM49.3594 26.8773L46.5806 31.0339L46.5807 31.034L49.3594 26.8773ZM53.8431 28.5754L53.3642 33.5524L53.3645 33.5524L53.8431 28.5754ZM57.047 29.888L56.6473 34.872L56.6489 34.8721L57.047 29.888ZM63.9843 26.7521L68.9031 27.6494L68.9031 27.6494L63.9843 26.7521ZM64.1147 17.3933L60.2402 20.5537L60.2406 20.5542L64.1147 17.3933ZM58.5217 15.4094L55.4633 19.3649L55.4637 19.3652L58.5217 15.4094ZM54.3699 15.8255L50.9458 12.182L50.9457 12.1821L54.3699 15.8255ZM49.0008 16.5754L53.4764 18.8044L53.4768 18.8036L49.0008 16.5754ZM46.1665 20.545L44.2725 15.9176L44.1944 15.9496L44.1175 15.9841L46.1665 20.545ZM44.7503 20.6898L48.5528 17.4431L48.551 17.441L44.7503 20.6898ZM44.6875 18.5256L39.9697 16.8696L39.9693 16.871L44.6875 18.5256ZM45.5602 16.0255L50.3836 17.3428L50.3839 17.3415L45.5602 16.0255ZM45.9064 14.6353L50.8824 15.1252L50.8824 15.1245L45.9064 14.6353ZM46.1253 12.5022L45.7746 7.51451L41.8087 7.79334L41.1868 11.7201L46.1253 12.5022ZM113.672 35.3933L118.631 36.0306L119.318 30.6843L113.935 30.4002L113.672 35.3933ZM110.406 35.2209L107.986 39.5963L108.993 40.1533L110.143 40.214L110.406 35.2209ZM107.86 34.5387L110.585 30.3464L110.584 30.3457L107.86 34.5387ZM104.406 27.7586L99.4508 28.4243L99.4509 28.4245L104.406 27.7586ZM100.772 24.3264L97.6763 28.2526L97.6772 28.2533L100.772 24.3264ZM95.1348 20.0284L92.7744 24.4361L92.7749 24.4364L95.1348 20.0284ZM90.876 15.8781L93.3335 11.5237L93.3333 11.5235L90.876 15.8781ZM85.9849 12.3926L84.8005 17.2503L84.8014 17.2505L85.9849 12.3926ZM83.224 11.2837L86.9026 7.89725L86.9024 7.89706L83.224 11.2837ZM79.6777 7.78345L80.3598 2.8302L80.3594 2.83014L79.6777 7.78345ZM75.7651 5.78369L76.5362 0.843516L76.5345 0.843248L75.7651 5.78369ZM66.6723 6.27805L63.9863 2.06078L63.986 2.06096L66.6723 6.27805ZM64.651 7.29437L66.7477 11.8335L66.7482 11.8333L64.651 7.29437ZM61.0627 8.28348L60.3656 3.33231L59.8437 3.40579L59.3486 3.58648L61.0627 8.28348ZM56.7817 10.5569L59.6627 14.6434L59.6631 14.6431L56.7817 10.5569ZM51.7923 10.6041L48.1066 7.22544L48.1062 7.22587L51.7923 10.6041ZM50.7424 11.6378L47.3071 8.00481L47.3066 8.00524L50.7424 11.6378ZM9.78734 70.5727L8.29785 75.3457L9.18907 75.6238L10.1206 75.5616L9.78734 70.5727ZM6.73009 68.6191L9.65882 64.5666L9.65807 64.5661L6.73009 68.6191ZM5.91222 64.4639L1.38672 62.3379L1.38642 62.3385L5.91222 64.4639ZM9.77147 57.1191L13.3127 60.649L13.3127 60.6489L9.77147 57.1191ZM11.1782 51.2654L6.5134 53.0652L6.51368 53.0659L11.1782 51.2654ZM10.2874 49.3851L13.7507 45.7787L13.7498 45.7779L10.2874 49.3851ZM9.28734 47.4477L14.2691 47.8745L14.2691 47.874L9.28734 47.4477ZM9.4283 45.214L4.63186 43.8018L4.63161 43.8027L9.4283 45.214ZM10.8033 41.2602L6.10919 39.5383L6.10876 39.5395L10.8033 41.2602ZM11.6 38.0102L16.5864 37.642L16.5124 36.6393L16.0565 35.7431L11.6 38.0102ZM12.834 33.4476L8.58818 30.807L8.5878 30.8076L12.834 33.4476ZM114.656 41.6125L112.219 45.9783L112.22 45.9787L114.656 41.6125ZM114.724 45.9087L109.761 46.5171L109.761 46.5173L114.724 45.9087ZM113.053 54.7996L117.678 52.9002L117.678 52.8996L113.053 54.7996ZM116.047 56.5961L113.353 52.3838L113.353 52.384L116.047 56.5961ZM120.776 57.8301L115.788 58.1663V58.1664L120.776 57.8301ZM115.605 64.7836L120.054 67.0655L120.058 67.0578L115.605 64.7836ZM115.844 69.2836L112.305 65.7517L112.163 65.8942L112.032 66.0477L115.844 69.2836ZM113.015 71.08L115.053 75.6459L115.054 75.6457L113.015 71.08ZM111.417 73.9709L106.959 76.2355L106.96 76.2372L111.417 73.9709ZM114.031 76.5497L111.506 80.8652L111.507 80.8655L114.031 76.5497ZM113.594 78.9875L116.112 83.3073L116.113 83.3067L113.594 78.9875ZM110.828 82.6585L106.057 81.1605L106.057 81.1635L110.828 82.6585ZM108.072 87.5961L103.512 85.5456L103.512 85.5464L108.072 87.5961ZM105.281 92.3621L109.339 95.2839L109.339 95.2837L105.281 92.3621ZM106.646 98.5802L104.205 102.944L104.205 102.944L106.646 98.5802ZM106.703 100.493L107.859 105.357L108.185 105.28L108.497 105.159L106.703 100.493ZM106.531 100.533L105.375 95.669L103.066 96.2179L102.031 98.3535L106.531 100.533ZM105.725 102.198L108.274 106.499L109.569 105.732L110.225 104.377L105.725 102.198ZM100.913 104.494L102.463 109.248L102.464 109.248L100.913 104.494ZM96.2248 102.698L100.17 99.6253L100.012 99.4224L99.8336 99.2369L96.2248 102.698ZM94.7927 101.14L98.5142 97.8011L98.5141 97.8011L94.7927 101.14ZM92.584 98.1353L93.25 93.1799L93.2495 93.1798L92.584 98.1353ZM87.2715 92.7442L91.0504 89.47L91.0501 89.4697L87.2715 92.7442ZM84.2876 86.714L79.9267 89.16L79.9269 89.1603L84.2876 86.714ZM83.475 82.228L78.4817 81.9677L78.4817 81.9682L83.475 82.228ZM82.9749 79.5457L87.9069 78.7237L87.9067 78.7227L82.9749 79.5457ZM77.9126 78.5513L75.5253 74.158L75.525 74.1582L77.9126 78.5513ZM72.616 80.8175L74.9973 85.2141L74.9982 85.2136L72.616 80.8175ZM66.5839 82.8226L64.8694 78.1257L64.8685 78.126L66.5839 82.8226ZM61.5321 84.4319L64.3722 88.547L64.3734 88.5462L61.5321 84.4319ZM58.4125 87.3905L58.0151 82.4063L58.0136 82.4064L58.4125 87.3905ZM48.2876 85.8636L46.1471 81.3449L46.1469 81.345L48.2876 85.8636ZM45.1623 86.0726L46.9415 81.3999L46.4543 81.2143L45.9392 81.1333L45.1623 86.0726ZM44.491 85.4478L48.8444 82.9886L48.8403 82.9813L48.8361 82.9739L44.491 85.4478ZM43.2196 83.8854L39.3493 87.051L39.3504 87.0523L43.2196 83.8854ZM36.3446 86.0888L34.6083 90.7776L34.609 90.7779L36.3446 86.0888ZM32.7926 87.8694L35.1621 92.2723L35.1624 92.2721L32.7926 87.8694ZM30.1466 84.4017L34.3724 81.729L34.3716 81.7278L30.1466 84.4017ZM29.0214 82.4476L33.6462 80.5473L33.6456 80.5459L29.0214 82.4476ZM27.959 79.0891L31.3872 75.4495L31.387 75.4493L27.959 79.0891ZM27.6785 74.1977L32.4741 75.6129L32.4745 75.6114L27.6785 74.1977ZM25.8659 73.3227L22.8381 69.3437L22.8374 69.3442L25.8659 73.3227ZM22.3498 75.7654L19.4596 71.6854L19.4583 71.6863L22.3498 75.7654ZM19.209 75.1407L23.3274 72.3054L23.3268 72.3045L19.209 75.1407ZM13.9282 71.8279L9.23494 70.1037L9.23463 70.1045L13.9282 71.8279ZM58.96 67.6L55.2676 70.9713L55.286 70.9916L55.3047 71.0116L58.96 67.6ZM57.28 61.84V56.84H52.28V61.84H57.28ZM61.44 61.84H66.44V56.84H61.44V61.84ZM66.16 56.6H71.16V51.6H66.16V56.6ZM66.08 56.6V51.6H62.9208L61.5643 54.4532L66.08 56.6ZM58.92 42.44L62.5726 45.8544V45.8544L58.92 42.44ZM68.84 42.44L65.1874 45.8544L65.1874 45.8544L68.84 42.44ZM81.0156 63.92H86.0156V58.92H81.0156V63.92ZM72.6156 63.92H67.6156V68.92H72.6156V63.92ZM72.6156 59.92L68.0104 57.9728L67.6156 58.9064V59.92H72.6156ZM80.6156 41V36H77.3012L76.0104 39.0527L80.6156 41ZM85.4156 41H90.4156V36H85.4156V41ZM85.4156 59.92H80.4156V64.92H85.4156V59.92ZM87.4956 59.92H92.4956V54.92H87.4956V59.92ZM87.4956 63.92V68.92H92.4956V63.92H87.4956ZM85.4156 63.92V58.92H80.4156V63.92H85.4156ZM85.4156 69V74H90.4156V69H85.4156ZM81.0156 69H76.0156V74H81.0156V69ZM81.0156 59.92V64.92H86.0156V59.92H81.0156ZM81.0156 49H86.0156V44H81.0156V49ZM80.9356 49V44H77.5366L76.2862 47.1607L80.9356 49ZM76.6156 59.92L71.9662 58.0807L69.2606 64.92H76.6156V59.92ZM13.0679 35.9272C15.4928 36.3744 17.2329 36.5146 19.6862 36.4542L19.4401 26.4573C17.6875 26.5004 16.6376 26.4169 14.8815 26.0931L13.0679 35.9272ZM19.6866 36.4542C19.5698 36.4571 19.5164 36.4445 19.6041 36.457C19.7864 36.483 19.8201 36.4948 20.2681 36.5695C21.0333 36.6971 22.0788 36.8334 23.4692 36.7551L22.9069 26.7709C22.5122 26.7932 22.2578 26.7632 21.9131 26.7057C21.8061 26.6879 21.3323 26.6024 21.0177 26.5574C20.6086 26.499 20.069 26.4417 19.4396 26.4573L19.6866 36.4542ZM23.4696 36.7551C25.176 36.6589 26.7947 36.0715 28.0214 35.5357C29.3241 34.9667 30.6365 34.2494 31.8151 33.5676C34.4826 32.0245 36.1647 30.8907 37.5305 30.2555L33.3135 21.1882C31.4327 22.0629 28.6297 23.8576 26.8077 24.9116C25.7416 25.5284 24.8083 26.0268 24.0184 26.3718C23.1526 26.7501 22.8319 26.7752 22.9065 26.771L23.4696 36.7551ZM37.5309 30.2553C38.4629 29.8218 39.2987 29.3616 39.6769 29.1654C39.9038 29.0476 39.9981 29.005 40.0326 28.9907C40.0559 28.981 39.9528 29.0265 39.7632 29.0642C39.556 29.1053 39.3127 29.124 39.0593 29.1032C38.8157 29.0831 38.6505 29.0336 38.5893 29.0125C38.5315 28.9925 38.7535 29.0643 39.4558 29.5337L45.0127 21.2198C43.2062 20.0124 40.8084 18.6614 37.8157 19.2556C36.6099 19.495 35.616 20.0065 35.0713 20.2891C34.3888 20.6432 33.985 20.8758 33.3131 21.1883L37.5309 30.2553ZM39.4557 29.5337C40.9305 30.5194 42.5094 30.6417 43.1414 30.6836C43.695 30.7203 44.853 30.7273 45.0544 30.7336C46.0419 30.7648 46.3686 30.8923 46.5806 31.0339L52.1383 22.7206C49.5681 21.0024 46.9437 20.7883 45.37 20.7386C44.2907 20.7045 44.2655 20.7362 43.8032 20.7055C43.4192 20.6801 44.1495 20.6429 45.0128 21.2199L39.4557 29.5337ZM46.5807 31.034C46.8358 31.2046 47.0533 31.3539 47.2526 31.4915C47.4374 31.6191 47.653 31.7691 47.8401 31.8951C48.2098 32.1442 48.7883 32.5237 49.5281 32.8263C50.3073 33.1451 51.0187 33.2813 51.5987 33.3632C52.112 33.4358 52.7493 33.4932 53.3642 33.5524L54.322 23.5984C53.5562 23.5247 53.2278 23.4941 52.9981 23.4616C52.8349 23.4386 53.0258 23.4528 53.3144 23.5708C53.5636 23.6728 53.6815 23.7728 53.4281 23.6021C53.3036 23.5182 53.1671 23.4231 52.935 23.2628C52.7174 23.1126 52.4534 22.9312 52.1382 22.7205L46.5807 31.034ZM53.3645 33.5524C52.7416 33.4925 52.382 33.2998 52.5078 33.3569C52.5845 33.3918 52.6963 33.4508 53.0401 33.636C53.3044 33.7784 53.7735 34.0325 54.2758 34.2501C54.7419 34.452 55.5985 34.7879 56.6473 34.872L57.4466 24.904C58.0146 24.9495 58.3395 25.1125 58.2511 25.0742C58.1989 25.0516 58.0907 24.9981 57.7834 24.8325C57.5554 24.7097 57.1011 24.4602 56.6455 24.2531C56.239 24.0684 55.3809 23.7002 54.3216 23.5983L53.3645 33.5524ZM56.6489 34.8721C56.2858 34.8431 56.0316 34.7662 56.0259 34.7646C56.024 34.764 56.0301 34.7658 56.0532 34.7729C56.0961 34.7861 56.0869 34.7834 56.1525 34.8037C56.2391 34.8304 56.3738 34.8717 56.5327 34.9153C57.2745 35.119 58.1533 35.2682 59.3075 35.2682V25.2682C59.1697 25.2682 59.1174 25.26 59.1269 25.2613C59.1307 25.2618 59.1415 25.2635 59.1568 25.2667C59.1722 25.27 59.1821 25.2727 59.1811 25.2724C59.1765 25.2711 59.1611 25.2668 59.1062 25.2498C59.0752 25.2403 58.9439 25.199 58.8297 25.1657C58.5664 25.0888 58.0708 24.9538 57.445 24.9039L56.6489 34.8721ZM59.3075 35.2682C60.8705 35.2682 63.2463 35.1381 65.3326 33.6994C67.6441 32.1053 68.5281 29.7052 68.9031 27.6494L59.0654 25.8549C58.9935 26.2492 58.9382 26.2971 59.0055 26.1699C59.0443 26.0966 59.1168 25.9785 59.2351 25.8423C59.3555 25.7038 59.4984 25.5754 59.6555 25.4671C59.9736 25.2477 60.2044 25.2092 60.1546 25.2192C60.1282 25.2245 60.0499 25.2379 59.9022 25.2493C59.7548 25.2607 59.5611 25.2682 59.3075 25.2682V35.2682ZM68.9031 27.6494C68.9449 27.4204 68.9725 27.3055 68.9885 27.2412C69.0067 27.1685 69.0042 27.1808 69.0361 27.0558C69.0588 26.9667 69.097 26.8146 69.1338 26.6323C69.2959 25.8301 69.2969 25.0667 69.2969 24.3306H59.2969C59.2969 24.7239 59.2923 24.8851 59.2891 24.9467C59.2882 24.9645 59.2948 24.8353 59.3319 24.652C59.345 24.5869 59.3556 24.5479 59.3465 24.5835C59.3408 24.606 59.3369 24.6207 59.3245 24.669C59.3139 24.7098 59.3004 24.7626 59.2853 24.8231C59.2197 25.0865 59.1467 25.4094 59.0654 25.8549L68.9031 27.6494ZM69.2969 24.3306C69.2969 24.5575 69.2515 24.5947 69.3929 24.054C69.4835 23.7074 69.7434 22.8066 69.8946 21.9546C70.2567 19.9145 70.2444 16.9969 67.9888 14.2324L60.2406 20.5542C60.2455 20.5602 60.2122 20.5199 60.172 20.4331C60.1314 20.3453 60.1022 20.2502 60.086 20.1614C60.0553 19.9937 60.092 19.9622 60.0485 20.2072C59.99 20.5368 59.9125 20.7812 59.7182 21.5241C59.5747 22.0729 59.2969 23.1442 59.2969 24.3306H69.2969ZM67.9892 14.2328C66.8819 12.8754 65.5082 12.2641 64.5327 11.9647C63.6546 11.6952 62.7366 11.5807 62.3508 11.5261C61.216 11.3652 61.3719 11.2929 61.5798 11.4536L55.4637 19.3652C57.6184 21.0309 60.0389 21.2983 60.9478 21.4271C61.5839 21.5173 61.6326 21.535 61.5987 21.5246C61.4675 21.4843 60.8155 21.259 60.2402 20.5537L67.9892 14.2328ZM61.5802 11.4539C59.9224 10.172 57.8602 9.49082 55.6505 9.80761C53.6021 10.1013 52.026 11.1668 50.9458 12.182L57.794 19.4691C57.9501 19.3224 57.7174 19.6135 57.0696 19.7064C56.7274 19.7555 56.3673 19.7314 56.0354 19.6351C55.7146 19.542 55.5246 19.4123 55.4633 19.3649L61.5802 11.4539ZM50.9457 12.1821C50.4955 12.6052 50.9284 11.9974 52.109 11.9717C53.3354 11.9449 54.0702 12.5889 53.9733 12.5118C53.9536 12.4962 53.9271 12.4742 53.8321 12.3937C53.7623 12.3346 53.6049 12.2006 53.4335 12.0671C53.1978 11.8835 52.2961 11.1675 50.9762 10.8812C50.2206 10.7173 49.3472 10.6946 48.4348 10.9331C47.5398 11.1672 46.8282 11.5946 46.2974 12.0324C45.3397 12.8223 44.805 13.784 44.5247 14.3472L53.4768 18.8036C53.5394 18.6779 53.3181 19.2044 52.6603 19.7469C52.2794 20.0611 51.7144 20.4118 50.9646 20.6079C50.1974 20.8085 49.4678 20.7865 48.8566 20.654C48.2858 20.5302 47.8747 20.3232 47.6583 20.1998C47.4419 20.0764 47.3067 19.9705 47.2889 19.9566C47.2722 19.9436 47.2743 19.9443 47.3705 20.0257C47.4414 20.0858 47.5876 20.2103 47.7491 20.3387C48.3768 20.8379 49.9736 22.0207 52.3271 21.9693C54.6347 21.919 56.4597 20.7232 57.7942 19.4689L50.9457 12.1821ZM44.5251 14.3464C43.8421 15.7178 43.8107 16.9637 43.8086 17.5251C43.8081 17.6449 43.8099 17.7823 43.8103 17.8219C43.8108 17.8874 43.8103 17.8921 43.8107 17.8772C43.8116 17.842 43.8182 17.6193 43.8917 17.3135C43.9711 16.9831 44.1087 16.6353 44.3132 16.3086C44.5104 15.9937 44.7113 15.7916 44.8324 15.6863C44.9453 15.5881 44.9867 15.5758 44.889 15.631C44.7927 15.6854 44.6005 15.7833 44.2725 15.9176L48.0604 25.1724C50.2891 24.2603 52.8691 22.7527 53.6147 19.6507C53.764 19.0294 53.7976 18.4945 53.807 18.1475C53.8117 17.9766 53.8107 17.8256 53.8099 17.7349C53.8089 17.6184 53.8084 17.5995 53.8085 17.5624C53.8088 17.4958 53.8253 18.1038 53.4764 18.8044L44.5251 14.3464ZM44.1175 15.9841C43.9464 16.061 43.801 16.1342 43.7171 16.1769C43.5809 16.2462 43.6177 16.2283 43.5581 16.2582C43.4814 16.2968 43.7005 16.1769 44.0457 16.0772C44.4147 15.9705 45.2022 15.803 46.1874 16.027C47.2589 16.2705 48.0537 16.8586 48.5528 17.4431L40.9478 23.9364C41.6543 24.764 42.67 25.4825 43.9708 25.7782C45.1853 26.0543 46.2109 25.8607 46.8221 25.684C47.4093 25.5143 47.8747 25.2806 48.0436 25.1958C48.3649 25.0346 48.2215 25.1032 48.2155 25.1059L44.1175 15.9841ZM48.551 17.441C49.1446 18.1354 49.3448 18.8144 49.4153 19.1256C49.4911 19.4604 49.4895 19.6938 49.4875 19.772C49.4843 19.8964 49.4727 19.9896 49.4058 20.1803L39.9693 16.871C39.7013 17.6351 39.5153 18.5696 39.4909 19.5123C39.4734 20.1864 39.4782 22.2172 40.9496 23.9386L48.551 17.441ZM49.4054 20.1816C49.5536 19.7594 50.0713 18.486 50.3836 17.3428L40.7369 14.7081C40.5336 15.4524 40.452 15.4958 39.9697 16.8696L49.4054 20.1816ZM50.3839 17.3415C50.3914 17.314 50.3955 17.3014 50.4046 17.2748C50.4164 17.2403 50.4185 17.2352 50.445 17.1592C50.4651 17.1016 50.4981 17.0068 50.5334 16.8958C50.6129 16.6463 50.6893 16.3646 50.7536 16.0333C50.8139 15.7222 50.8534 15.4192 50.8824 15.1252L40.9305 14.1455C40.9226 14.2259 40.9216 14.2062 40.9365 14.129C40.9554 14.0316 40.9817 13.9343 41.005 13.8611C41.0122 13.8383 41.0156 13.8296 41.0045 13.8614C40.9998 13.8748 40.969 13.9622 40.9461 14.0287C40.886 14.2038 40.8137 14.4266 40.7365 14.7094L50.3839 17.3415ZM50.8824 15.1245C50.9838 14.0938 50.9814 13.8041 51.0637 13.2843L41.1868 11.7201C41.0454 12.6131 40.9697 13.7468 40.9304 14.1462L50.8824 15.1245ZM113.935 30.4002L110.67 30.2279L110.143 40.214L113.408 40.3863L113.935 30.4002ZM112.826 30.8456C112.51 30.6708 112.236 30.5617 112.086 30.5056C111.918 30.4424 111.768 30.3948 111.657 30.3615C111.439 30.2959 111.231 30.2443 111.078 30.2081C110.784 30.1382 110.423 30.0632 110.2 30.0153C109.921 29.9556 109.755 29.9176 109.656 29.8914C109.608 29.8785 109.645 29.8865 109.733 29.9175C109.779 29.934 109.872 29.9682 109.994 30.0229C110.104 30.0724 110.323 30.1759 110.585 30.3464L105.135 38.731C105.687 39.0893 106.204 39.2765 106.396 39.3445C106.658 39.4372 106.904 39.5069 107.086 39.5555C107.45 39.6522 107.836 39.7359 108.106 39.7937C108.432 39.8634 108.617 39.9017 108.771 39.9383C108.843 39.9554 108.835 39.9552 108.781 39.939C108.753 39.9304 108.676 39.9069 108.571 39.8673C108.484 39.8348 108.262 39.7487 107.986 39.5963L112.826 30.8456ZM110.584 30.3457C110.269 30.1415 110.122 29.9923 110.053 29.9125C109.989 29.8383 109.935 29.7562 109.876 29.6198C109.708 29.2339 109.568 28.6292 109.362 27.0927L99.4509 28.4245C99.6424 29.8497 99.9081 31.7765 100.707 33.611C101.601 35.6663 103.036 37.3671 105.136 38.7318L110.584 30.3457ZM109.362 27.093C108.953 24.0515 106.78 22.3278 105.799 21.6252C105.232 21.2186 104.653 20.875 104.319 20.6745C103.872 20.4054 103.827 20.3681 103.867 20.3996L97.6772 28.2533C97.9874 28.4978 98.2893 28.6994 98.5193 28.8466C98.7511 28.9949 98.9876 29.1371 99.1651 29.2439C99.573 29.4892 99.7938 29.6242 99.9763 29.7549C100.157 29.8843 100.102 29.8734 99.9732 29.7122C99.818 29.5174 99.5385 29.0771 99.4508 28.4243L109.362 27.093ZM103.868 20.4003C102.489 19.3123 100.751 17.3636 97.4947 15.6203L92.7749 24.4364C93.824 24.9981 94.3618 25.4077 94.8861 25.8561C95.3293 26.2351 96.4644 27.2969 97.6763 28.2526L103.868 20.4003ZM97.4952 15.6206C97.1283 15.4241 97.0901 15.3485 97.17 15.4307C97.2537 15.5167 97.2851 15.5955 97.1397 15.3487C97.0195 15.1446 96.5947 14.3702 95.9502 13.6235C95.2429 12.8039 94.3852 12.1172 93.3335 11.5237L88.4185 20.2324C88.591 20.3298 88.5138 20.3124 88.3797 20.157C88.3084 20.0744 88.2493 19.9588 88.5239 20.4248C88.7732 20.848 89.2283 21.6078 90.0008 22.4022C90.7697 23.1929 91.6855 23.853 92.7744 24.4361L97.4952 15.6206ZM93.3333 11.5235C93.0802 11.3807 93.2556 11.5059 92.3643 10.5388C91.9161 10.0525 91.2601 9.40333 90.3095 8.81292C89.3646 8.22607 88.3232 7.81598 87.1685 7.53467L84.8014 17.2505C85.1151 17.3269 85.1378 17.3726 85.0335 17.3078C84.9236 17.2396 84.8848 17.1789 85.0109 17.3157C85.2682 17.5949 86.4207 19.1051 88.4187 20.2326L93.3333 11.5235ZM87.1694 7.5349C86.7979 7.44432 86.4554 7.37514 86.1342 7.32327C85.8096 7.27085 85.5253 7.23912 85.2749 7.21912C85.0415 7.20048 84.8319 7.19251 84.783 7.19027C84.7458 7.18856 84.7699 7.18929 84.8136 7.19267C84.8618 7.1964 84.9681 7.20575 85.108 7.22815C85.2531 7.25139 85.4348 7.28865 85.6403 7.34974C85.8483 7.41157 86.0531 7.48959 86.2512 7.58312C86.6451 7.76905 86.9156 7.97076 87.0491 8.07897C87.1159 8.13305 87.1596 8.17302 87.1759 8.18815C87.1925 8.20355 87.1931 8.20491 87.1733 8.18489C87.1284 8.13953 87.048 8.05522 86.9026 7.89725L79.5454 14.6701C79.8183 14.9666 80.263 15.451 80.7534 15.8483C81.0466 16.086 81.4552 16.3773 81.982 16.626C82.5391 16.889 83.0672 17.0288 83.5266 17.1023C83.9115 17.164 84.2509 17.1764 84.3247 17.1798C84.4568 17.1858 84.457 17.1856 84.479 17.1874C84.484 17.1878 84.5009 17.1891 84.54 17.1954C84.5825 17.2022 84.6662 17.2175 84.8005 17.2503L87.1694 7.5349ZM86.9024 7.89706C86.9147 7.9104 86.8846 7.8781 86.7912 7.76139C86.702 7.64984 86.5984 7.51587 86.4572 7.33274C86.1992 6.99796 85.8221 6.50548 85.416 6.02706C85.0211 5.56189 84.4671 4.95096 83.7994 4.4052C83.2177 3.92968 82.0246 3.05947 80.3598 2.8302L78.9955 12.7367C78.4245 12.6581 78.0197 12.4757 77.813 12.3665C77.6023 12.2551 77.4869 12.161 77.4708 12.1478C77.4552 12.135 77.5572 12.2216 77.7927 12.4989C78.0169 12.763 78.2446 13.0582 78.5363 13.4367C78.67 13.6103 78.8275 13.8144 78.9819 14.0075C79.1322 14.1954 79.3282 14.4342 79.5455 14.6703L86.9024 7.89706ZM80.3594 2.83014C80.6439 2.8693 80.8465 2.92659 80.9253 2.95003C81.0179 2.97755 81.0726 2.99872 81.0788 3.00112C81.0871 3.00431 81.0322 2.98281 80.8994 2.91895C80.6365 2.7926 80.2833 2.60468 79.8843 2.38165C79.4962 2.16469 79.1216 1.94651 78.8175 1.76876C78.676 1.68606 78.526 1.59815 78.4144 1.53402C78.3622 1.50396 78.2816 1.45789 78.1987 1.41289C78.1627 1.39333 78.0777 1.34745 77.9725 1.29613C77.9233 1.27215 77.8167 1.22088 77.6791 1.1641C77.61 1.13554 77.4936 1.08916 77.3465 1.04023C77.2314 1.00192 76.932 0.905292 76.5362 0.843516L74.9939 10.7239C74.5994 10.6623 74.3015 10.5661 74.1883 10.5284C74.0432 10.4801 73.9291 10.4346 73.8625 10.4071C73.7303 10.3525 73.6302 10.3043 73.5891 10.2842C73.4999 10.2407 73.4363 10.2061 73.4269 10.2009C73.3972 10.1848 73.3902 10.1804 73.4295 10.203C73.5011 10.2441 73.6061 10.3056 73.7713 10.4022C74.0806 10.583 74.5264 10.8429 75.0048 11.1104C75.4723 11.3717 76.0318 11.6745 76.5669 11.9317C76.833 12.0596 77.1485 12.2032 77.4783 12.3305C77.7352 12.4296 78.3067 12.6419 78.9959 12.7368L80.3594 2.83014ZM76.5345 0.843248C74.3793 0.507592 68.9428 -1.0961 63.9863 2.06078L69.3583 10.4953C69.776 10.2293 70.1926 10.1105 70.9762 10.1367C71.4203 10.1516 71.9409 10.2132 72.632 10.3246C72.9771 10.3802 73.3265 10.4417 73.7289 10.5119C74.1178 10.5798 74.5505 10.6548 74.9956 10.7241L76.5345 0.843248ZM63.986 2.06096C63.3619 2.4585 63.4378 2.38293 63.6351 2.29783C63.6646 2.28511 63.6783 2.28025 63.6358 2.29681C63.6098 2.30699 63.5062 2.34696 63.4124 2.38434C63.1862 2.47445 62.9157 2.58827 62.5539 2.75543L66.7482 11.8333C66.9438 11.7429 67.0497 11.6996 67.1133 11.6743C67.1643 11.654 67.184 11.6466 67.2713 11.6126C67.3422 11.5849 67.4594 11.5389 67.5944 11.4807C68.2136 11.2137 68.7426 10.8875 69.3586 10.4951L63.986 2.06096ZM62.5544 2.7552C62.3288 2.85938 62.1369 2.94956 61.9894 3.01859C61.8321 3.09226 61.7403 3.1348 61.6706 3.16595C61.5551 3.21759 61.6338 3.17688 61.7748 3.13783C61.8775 3.10937 61.9013 3.1143 61.6376 3.15399C61.3498 3.1973 61.0217 3.23994 60.3656 3.33231L61.7598 13.2346C62.2835 13.1609 62.783 13.0942 63.1258 13.0426C63.4925 12.9874 63.9497 12.9119 64.4438 12.7751C64.9761 12.6276 65.4041 12.4506 65.7508 12.2957C66.0067 12.1813 66.439 11.9761 66.7477 11.8335L62.5544 2.7552ZM59.3486 3.58648C57.5928 4.22724 55.354 5.44552 53.9003 6.47059L59.6631 14.6431C60.4884 14.0611 61.9497 13.2823 62.7768 12.9805L59.3486 3.58648ZM53.9007 6.4703C54.8123 5.8276 55.8397 5.78262 56.4545 5.89888C56.7209 5.94926 56.9579 6.068 56.2419 5.76087C55.8739 5.60302 54.6102 5.02887 53.0772 5.01267C52.2146 5.00355 51.2777 5.16257 50.3454 5.5843C49.4278 5.99937 48.6894 6.58965 48.1066 7.22544L55.4781 13.9828C55.3028 14.174 54.9736 14.4662 54.4668 14.6955C53.9453 14.9314 53.4205 15.0169 52.9715 15.0121C52.2653 15.0046 51.8334 14.751 52.2998 14.9511C52.3947 14.9918 52.7675 15.1572 53.0784 15.2787C53.4287 15.4154 53.9596 15.6043 54.5964 15.7247C55.2527 15.8488 56.0852 15.9132 57.0186 15.7493C57.9758 15.5812 58.8701 15.2022 59.6627 14.6434L53.9007 6.4703ZM48.1062 7.22587C47.9514 7.3948 47.8742 7.47124 47.8061 7.5367C47.7604 7.58057 47.7095 7.62821 47.6234 7.7085C47.5417 7.7846 47.4339 7.88483 47.3071 8.00481L54.1777 15.2708C54.5193 14.9478 54.8815 14.6337 55.4784 13.9823L48.1062 7.22587ZM47.3066 8.00524C47.703 7.63036 48.0606 7.44439 48.2104 7.37309C48.2982 7.3313 48.3648 7.30544 48.4027 7.29165C48.4413 7.27759 48.4628 7.27153 48.4632 7.2714C48.4641 7.27115 48.4515 7.27474 48.4236 7.28108C48.396 7.28737 48.358 7.2953 48.3088 7.30432C48.2084 7.32274 48.0812 7.34211 47.926 7.36108C47.6098 7.39973 47.2544 7.42765 46.8757 7.45086C46.6877 7.46239 46.5099 7.47185 46.3257 7.48179C46.1555 7.49097 45.9548 7.50184 45.7746 7.51451L46.4759 17.4899C46.7046 17.4738 48.057 17.4195 49.1395 17.2872C49.724 17.2157 50.4642 17.0994 51.2056 16.888C51.8083 16.7161 53.0846 16.3047 54.1781 15.2704L47.3066 8.00524ZM11.2768 65.7997C10.6224 65.5955 10.4351 65.513 10.4454 65.5177C10.4719 65.5299 10.6189 65.5986 10.8213 65.7359C11.0493 65.8907 11.2728 66.0815 11.4738 66.2983C11.6375 66.4751 11.7467 66.6315 11.6846 66.547C11.6456 66.4939 11.4932 66.2828 11.2912 66.045C10.8434 65.5177 10.317 65.0423 9.65882 64.5666L3.80136 72.6716C3.92899 72.7638 3.8303 72.7081 3.66893 72.5181C3.61021 72.449 3.56564 72.3859 3.62633 72.4685C3.66389 72.5196 3.86453 72.7993 4.13857 73.095C4.82636 73.8373 5.58493 74.2897 6.27171 74.6051C6.8701 74.8799 7.56311 75.1164 8.29785 75.3457L11.2768 65.7997ZM9.65807 64.5661C10.263 65.0031 10.5095 65.4597 10.5681 65.5744C10.6108 65.6581 10.6317 65.7156 10.6402 65.7413C10.6492 65.7683 10.6516 65.781 10.6517 65.7814C10.6518 65.7821 10.6521 65.7831 10.6524 65.7881C10.6528 65.7927 10.6541 65.8147 10.6515 65.8561C10.6484 65.9034 10.6287 66.1833 10.438 66.5892L1.38642 62.3385C0.489303 64.2489 0.562733 66.2937 0.837209 67.6987C1.08734 68.9791 1.79952 71.2254 3.80212 72.6721L9.65807 64.5661ZM10.4377 66.5899C10.9223 65.5584 11.2437 64.6882 11.4915 63.966C11.7731 63.1453 11.8507 62.8669 12.0112 62.4566C12.1675 62.0569 12.357 61.6077 13.3127 60.649L6.23028 53.5892C4.35888 55.4666 3.38261 57.0639 2.69798 58.8145C2.43796 59.4795 2.17633 60.3022 2.03284 60.7204C1.85554 61.2371 1.66598 61.7434 1.38672 62.3379L10.4377 66.5899ZM13.3127 60.6489C14.2362 59.7224 14.7602 58.5667 15.0036 57.9948C15.324 57.2415 15.5958 56.4117 15.8034 55.6074C16.0095 54.8086 16.1854 53.9071 16.2602 53.0135C16.3198 52.3029 16.3898 50.882 15.8428 49.4649L6.51368 53.0659C6.41528 52.811 6.36603 52.6025 6.34066 52.47C6.31468 52.3343 6.30565 52.2356 6.30221 52.1852C6.29588 52.0925 6.30313 52.0835 6.29516 52.1787C6.28792 52.265 6.27171 52.3949 6.24099 52.5646C6.21073 52.7318 6.17022 52.9164 6.12059 53.1088C6.01741 53.5086 5.89728 53.8553 5.80187 54.0795C5.7543 54.1913 5.7358 54.2185 5.75753 54.1809C5.76982 54.1597 5.8063 54.0982 5.86998 54.0098C5.92983 53.9267 6.04769 53.7724 6.2302 53.5893L13.3127 60.6489ZM15.8431 49.4656C15.9517 49.747 15.9941 49.9904 16.0066 50.0761C16.0076 50.0825 16.0075 50.0823 16.0031 50.0487C16.0001 50.0258 15.9916 49.9607 15.982 49.8931C15.9614 49.7493 15.9225 49.499 15.8483 49.2003C15.6803 48.525 15.399 47.8664 14.9797 47.2284C14.5995 46.65 14.1606 46.1724 13.7507 45.7787L6.82411 52.9914C6.85844 53.0244 6.85029 53.0192 6.81571 52.9793C6.78047 52.9386 6.70909 52.8517 6.62301 52.7208C6.53417 52.5856 6.43617 52.4133 6.34549 52.2058C6.25333 51.995 6.18844 51.793 6.14377 51.6134C6.10205 51.4456 6.08468 51.3226 6.08256 51.3077C6.0821 51.3046 6.08211 51.3043 6.08772 51.3471C6.09193 51.3793 6.10061 51.4458 6.11152 51.5206C6.13473 51.6795 6.17285 51.9116 6.23895 52.186C6.30601 52.4644 6.39486 52.7579 6.5134 53.0652L15.8431 49.4656ZM13.7498 45.7779C13.8826 45.9053 13.964 46.0022 13.9915 46.0354C14.0255 46.0766 14.0415 46.0992 14.0418 46.0996C14.0433 46.1017 14.0389 46.0956 14.031 46.083C14.0232 46.0706 14.0167 46.0594 14.0126 46.052C13.9938 46.0178 14.0302 46.0756 14.0835 46.225C14.1113 46.3027 14.1647 46.464 14.2094 46.6913C14.2499 46.8971 14.3165 47.3208 14.2691 47.8745L4.30559 47.0209C4.20169 48.2337 4.53391 49.218 4.6653 49.5861C4.84483 50.0892 5.06499 50.5348 5.25542 50.8802C5.57875 51.4667 6.12459 52.3199 6.82498 52.9922L13.7498 45.7779ZM14.2691 47.874C14.2975 47.5427 14.3029 47.1983 14.2762 46.841C14.249 46.4781 14.1938 46.1725 14.1399 45.9342C14.1151 45.8245 14.0916 45.7343 14.0786 45.6849C14.0725 45.6619 14.0661 45.6377 14.0642 45.6308C14.0612 45.6195 14.0614 45.6203 14.0625 45.6245C14.0691 45.6497 14.1051 45.7887 14.1333 45.9778C14.1974 46.4083 14.1705 46.7394 14.1502 46.886C14.1363 46.9867 14.1345 46.9329 14.225 46.6253L4.63161 43.8027C4.32139 44.8571 4.04025 46.0942 4.24247 47.4515C4.28914 47.7647 4.35076 48.0119 4.38432 48.141C4.43661 48.342 4.39729 48.189 4.38646 48.1411C4.30649 47.7877 4.27382 47.3921 4.30555 47.0213L14.2691 47.874ZM14.2247 46.6261C14.6232 45.2727 14.9013 44.6087 15.4979 42.981L6.10876 39.5395C5.60404 40.9164 5.15029 42.041 4.63186 43.8018L14.2247 46.6261ZM15.4975 42.9822C15.6854 42.4698 15.9397 41.6367 16.1388 40.8827C16.2417 40.4933 16.3506 40.0471 16.4342 39.6161C16.4823 39.3682 16.6519 38.5282 16.5864 37.642L6.6136 38.3785C6.59673 38.15 6.60209 37.9763 6.60629 37.8896C6.6109 37.7945 6.61812 37.7279 6.62146 37.6995C6.62765 37.6469 6.63008 37.6455 6.61721 37.7119C6.59173 37.8432 6.54265 38.0554 6.47032 38.3293C6.40062 38.5933 6.32222 38.8659 6.25001 39.1023C6.21421 39.2195 6.18202 39.321 6.15543 39.4021C6.14222 39.4423 6.13127 39.4748 6.12274 39.4997C6.11853 39.5119 6.11521 39.5214 6.11278 39.5283C6.11031 39.5352 6.10913 39.5385 6.10919 39.5383L15.4975 42.9822ZM16.0565 35.7431C15.9457 35.5254 15.9043 35.4236 15.8967 35.4037C15.8881 35.3815 15.9449 35.5206 15.9863 35.7752C16.0316 36.0537 16.0554 36.4513 15.9772 36.9189C15.8984 37.3898 15.7438 37.7664 15.6063 38.0253C15.4857 38.2524 15.3843 38.3755 15.4165 38.3339C15.4281 38.3189 15.4524 38.2883 15.5039 38.2257C15.5715 38.1435 15.5998 38.1099 15.6995 37.9892C16.0385 37.5783 16.5405 36.9557 17.0803 36.0875L8.5878 30.8076C8.39301 31.1209 8.21489 31.3477 7.98664 31.6243C7.88985 31.7416 7.21787 32.5002 6.77464 33.3347C6.12811 34.552 5.87964 35.9269 6.11596 37.3802C6.30327 38.5322 6.77178 39.5465 7.14353 40.2773L16.0565 35.7431ZM17.0799 36.0882C17.2256 35.8538 17.6115 35.2353 17.9603 34.5703C18.1314 34.2439 18.3506 33.7997 18.5338 33.3153C18.6351 33.0474 19.0716 31.9333 18.9566 30.5852L8.99281 31.4351C8.96285 31.0838 8.97921 30.796 8.99941 30.6018C9.02012 30.4027 9.05104 30.2444 9.0752 30.1382C9.1215 29.9346 9.16986 29.8056 9.18039 29.7778C9.19469 29.7399 9.1978 29.7365 9.1807 29.7731C9.16491 29.807 9.13991 29.8578 9.10417 29.926C9.03119 30.0651 8.94043 30.2251 8.84293 30.3895C8.7472 30.5509 8.65965 30.6921 8.58818 30.807L17.0799 36.0882ZM108.713 34.756C108.669 35.0995 108.285 37.1698 108.313 38.8389C108.343 40.553 108.795 44.0668 112.219 45.9783L117.093 37.2466C117.36 37.3953 117.612 37.6003 117.825 37.8491C118.031 38.0918 118.156 38.3241 118.227 38.4946C118.351 38.7946 118.316 38.9131 118.312 38.6678C118.308 38.4437 118.332 38.1163 118.396 37.6333C118.428 37.3983 118.464 37.1638 118.506 36.8925C118.544 36.643 118.593 36.3297 118.631 36.0306L108.713 34.756ZM112.22 45.9787C111.719 45.6991 111.214 45.2657 110.823 44.6678C110.445 44.0892 110.289 43.5329 110.227 43.1419C110.168 42.7713 110.187 42.5087 110.194 42.4306C110.201 42.3475 110.209 42.3338 110.187 42.4388C110.164 42.5492 110.136 42.6715 110.08 42.9082C110.032 43.1134 109.962 43.4104 109.901 43.7267C109.787 44.312 109.618 45.3448 109.761 46.5171L119.687 45.3003C119.736 45.6987 119.666 45.8943 119.716 45.6375C119.737 45.5328 119.765 45.4074 119.815 45.1963C119.857 45.0167 119.926 44.7288 119.984 44.4423C120.081 43.9709 120.304 42.842 120.104 41.5761C119.85 39.9793 118.936 38.275 117.093 37.2463L112.22 45.9787ZM109.761 46.5173C109.677 45.827 109.901 45.4824 109.728 45.9164C109.456 46.5974 109.411 46.562 108.848 47.8447C108.055 49.6564 106.874 52.9166 108.428 56.6996L117.678 52.8996C117.666 52.871 117.665 52.8918 117.672 52.8357C117.69 52.7014 117.758 52.4286 118.008 51.8582C118.135 51.5687 118.265 51.2955 118.448 50.9075C118.612 50.5581 118.824 50.1026 119.015 49.6234C119.365 48.7466 119.916 47.1647 119.687 45.3001L109.761 46.5173ZM108.428 56.699C108.532 56.9529 108.487 56.8887 108.74 57.5996C108.873 57.9725 109.254 59.0646 110.081 60.045C111.17 61.3345 112.874 62.2629 114.95 62.1501C116.578 62.0615 117.9 61.3462 118.742 60.8081L113.353 52.384C113.024 52.5947 113.463 52.2161 114.407 52.1648C114.964 52.1345 115.638 52.2232 116.321 52.5367C116.987 52.8429 117.443 53.2628 117.724 53.5954C118.172 54.1265 118.281 54.5822 118.161 54.2441C118.112 54.1077 118.088 54.0306 117.995 53.7573C117.921 53.5389 117.814 53.2316 117.678 52.9002L108.428 56.699ZM118.741 60.8083C118.959 60.6692 119.131 60.5917 119.214 60.5628C119.334 60.5206 119.108 60.6293 118.629 60.589C118.04 60.5394 117.13 60.2517 116.424 59.429C115.796 58.6977 115.781 58.063 115.788 58.1663L125.765 57.4938C125.669 56.0636 125.248 54.3557 124.012 52.9153C122.697 51.3836 120.975 50.7509 119.467 50.6241C116.885 50.407 114.592 51.5918 113.353 52.3838L118.741 60.8083ZM115.788 58.1664C115.846 59.0323 116.063 59.7856 116.22 60.2664C116.388 60.7781 116.587 61.2712 116.739 61.6395C117.111 62.5463 117.257 62.8888 117.329 63.1627C117.354 63.259 117.295 63.0875 117.304 62.7446C117.314 62.3697 117.412 61.6442 117.924 60.8837C119.045 59.2167 120.614 59.4087 119.964 59.4087V69.4087C121.639 69.4087 124.49 69.0391 126.222 66.4645C127.813 64.0979 127.245 61.5594 127.005 60.6403C126.716 59.5302 126.202 58.3584 125.987 57.8362C125.613 56.9279 125.735 57.0466 125.765 57.4938L115.788 58.1664ZM119.964 59.4087C119.893 59.4087 118.507 59.3747 117.464 59.4068C116.916 59.4236 116.189 59.4619 115.499 59.5734C115.172 59.6262 114.638 59.728 114.064 59.946C113.778 60.0544 112.094 60.664 111.152 62.5095L120.058 67.0578C119.573 68.0071 118.904 68.5525 118.524 68.814C118.128 69.0865 117.785 69.2299 117.612 69.2954C117.422 69.3674 117.279 69.4045 117.213 69.4205C117.14 69.4379 117.098 69.4448 117.095 69.4453C117.093 69.4454 117.153 69.4364 117.291 69.426C117.421 69.4161 117.582 69.4079 117.771 69.402C118.154 69.3903 118.572 69.3906 118.965 69.3951C119.159 69.3973 119.336 69.4004 119.499 69.4031C119.643 69.4056 119.823 69.4087 119.964 69.4087V59.4087ZM111.156 62.5017C110.634 63.5199 110.585 64.456 110.597 64.9562C110.609 65.4815 110.7 65.8997 110.758 66.1325C110.873 66.5857 111.028 66.9515 111.085 67.0851C111.158 67.2536 111.237 67.4226 111.276 67.5079C111.328 67.6183 111.361 67.6887 111.392 67.7596C111.558 68.1331 111.406 67.9357 111.406 67.4497H121.406C121.406 66.5397 121.241 65.75 121.069 65.1545C120.896 64.5558 120.686 64.0504 120.535 63.7081C120.459 63.537 120.386 63.3813 120.341 63.2853C120.285 63.1643 120.277 63.1466 120.279 63.1518C120.283 63.1608 120.304 63.2082 120.33 63.2812C120.355 63.3482 120.406 63.4924 120.455 63.6883C120.5 63.8646 120.582 64.2332 120.594 64.716C120.605 65.1739 120.562 66.0748 120.054 67.0655L111.156 62.5017ZM111.406 67.4497C111.406 67.6507 111.404 67.6839 111.405 67.6803C111.406 67.6599 111.416 67.4979 111.472 67.2635C111.533 67.0108 111.639 66.7158 111.808 66.4149C111.975 66.1181 112.158 65.8984 112.305 65.7517L119.383 72.8155C120.297 71.8999 120.901 70.8167 121.192 69.6149C121.427 68.641 121.406 67.7148 121.406 67.4497H111.406ZM112.032 66.0477C111.75 66.3796 111.543 66.6227 111.383 66.8071C111.215 67.0011 111.145 67.0764 111.128 67.0943C111.123 67.0998 111.159 67.0614 111.226 67.0001C111.289 66.9425 111.431 66.817 111.638 66.6731C111.848 66.5268 112.185 66.3191 112.639 66.1468C113.124 65.9625 113.645 65.8559 114.179 65.8381C114.676 65.8215 115.061 65.8875 115.227 65.9195C115.307 65.9351 115.368 65.9492 115.368 65.9492C115.394 65.9553 115.33 65.9404 115.294 65.9323C115.179 65.9067 114.974 65.864 114.716 65.8326C114.454 65.801 114.177 65.7855 113.883 65.7919C113.301 65.8048 112.768 65.9021 112.298 66.0317C111.835 66.1589 111.394 66.3281 110.977 66.5142L115.054 75.6457C115.282 75.5436 114.871 75.7726 114.104 75.7895C113.66 75.7993 113.301 75.7335 113.119 75.6929C112.944 75.654 113.228 75.7184 113.333 75.7385C113.544 75.7792 113.971 75.8506 114.512 75.8325C115.791 75.7898 116.757 75.2943 117.352 74.8796C117.837 74.5423 118.193 74.1758 118.35 74.0119C118.692 73.6543 119.141 73.1257 119.656 72.5195L112.032 66.0477ZM110.978 66.514C109.95 66.9727 109.304 67.6816 109.188 67.8047C108.929 68.0781 108.713 68.3517 108.554 68.5649C108.228 69.0022 107.915 69.4916 107.651 69.9513C107.395 70.3968 107.099 70.9619 106.869 71.5487C106.759 71.8274 106.599 72.2745 106.498 72.8063C106.454 73.0395 106.122 74.588 106.959 76.2355L115.875 71.7063C116.321 72.5851 116.386 73.3711 116.395 73.7582C116.405 74.1806 116.354 74.5048 116.323 74.6718C116.26 75.0001 116.178 75.1998 116.177 75.203C116.163 75.2388 116.202 75.1407 116.32 74.9366C116.429 74.7466 116.528 74.5999 116.572 74.5406C116.599 74.5056 116.557 74.5657 116.453 74.6763C116.4 74.7321 116.285 74.8501 116.114 74.9914C115.977 75.1047 115.61 75.3975 115.053 75.6459L110.978 66.514ZM106.96 76.2372C107.146 76.6024 107.459 77.2414 107.594 77.4975C107.772 77.8345 108.233 78.7142 109.144 79.4787C109.572 79.8384 109.973 80.0684 110.222 80.2012C110.43 80.3116 110.668 80.423 110.728 80.452C110.907 80.5377 111.132 80.6463 111.506 80.8652L116.556 72.2342C116.218 72.036 115.923 71.8744 115.662 71.7387C115.401 71.6028 115.19 71.501 115.041 71.4299C114.958 71.39 114.929 71.3765 114.894 71.3595C114.865 71.3455 114.883 71.3536 114.921 71.3739C115.001 71.4167 115.266 71.5617 115.574 71.8203C115.904 72.0973 116.138 72.3808 116.29 72.5978C116.413 72.7739 116.47 72.8916 116.438 72.8294C116.407 72.7721 116.362 72.6806 116.256 72.4667C116.159 72.2721 116.032 72.016 115.874 71.7046L106.96 76.2372ZM111.507 80.8655C110.559 80.3112 109.938 79.434 109.663 78.5381C109.415 77.7312 109.486 77.0611 109.575 76.6654C109.728 75.9912 110.142 75.2126 111.075 74.6683L116.113 83.3067C117.896 82.2669 118.955 80.5192 119.328 78.8749C119.701 77.2304 119.599 74.0141 116.556 72.2339L111.507 80.8655ZM111.076 74.6677C110.4 75.0618 109.916 75.558 109.804 75.6707C109.584 75.8912 109.376 76.1232 109.2 76.3274C108.841 76.7428 108.458 77.2261 108.11 77.689C107.76 78.1529 107.4 78.6559 107.096 79.1186C106.945 79.3474 106.782 79.607 106.632 79.8716C106.532 80.0484 106.25 80.5465 106.057 81.1605L115.598 84.1566C115.51 84.4383 115.418 84.6316 115.391 84.6864C115.372 84.7267 115.357 84.756 115.348 84.7725C115.339 84.7895 115.334 84.7991 115.333 84.8005C115.332 84.8022 115.341 84.7861 115.363 84.75C115.385 84.7151 115.414 84.6692 115.452 84.6122C115.609 84.3729 115.838 84.049 116.096 83.707C116.354 83.364 116.597 83.0621 116.772 82.8588C116.863 82.7537 116.899 82.7179 116.886 82.7305C116.88 82.7369 116.829 82.7877 116.743 82.8617C116.698 82.9001 116.628 82.9584 116.536 83.0272C116.448 83.0926 116.304 83.1954 116.112 83.3073L111.076 74.6677ZM106.057 81.1635C106.125 80.9443 106.193 80.784 106.217 80.7293C106.248 80.6575 106.272 80.6068 106.281 80.5868C106.3 80.5479 106.306 80.5393 106.286 80.5768C106.247 80.6483 106.179 80.7722 106.072 80.959C105.86 81.3304 105.582 81.8064 105.265 82.3516C104.957 82.879 104.621 83.4597 104.327 83.9818C104.064 84.4504 103.735 85.0505 103.512 85.5456L112.632 89.6466C112.626 89.6606 112.653 89.6007 112.74 89.4364C112.82 89.2869 112.922 89.0995 113.047 88.8773C113.297 88.4315 113.598 87.9124 113.906 87.3834C114.204 86.8722 114.518 86.3351 114.759 85.9118C114.88 85.7012 115.002 85.4824 115.106 85.2877C115.158 85.192 115.222 85.0694 115.285 84.9383C115.314 84.8779 115.473 84.5565 115.599 84.1535L106.057 81.1635ZM103.512 85.5464C102.816 87.0937 102.736 87.2772 102.607 87.4937C102.561 87.5726 102.483 87.6946 102.256 88.012C102 88.3706 101.734 88.7313 101.224 89.4405L109.339 95.2837C110.122 94.1957 110.749 93.3709 111.213 92.5869C111.71 91.7478 112.098 90.8349 112.633 89.6458L103.512 85.5464ZM101.224 89.4403C99.6905 91.5696 98.9715 94.2244 99.568 96.9052C100.164 99.5818 101.935 101.674 104.205 102.944L109.087 94.2166C109.01 94.1734 109.044 94.1755 109.119 94.27C109.196 94.3682 109.283 94.5264 109.329 94.7332C109.375 94.9405 109.363 95.1206 109.335 95.2408C109.308 95.3564 109.279 95.3667 109.339 95.2839L101.224 89.4403ZM104.205 102.944C104.629 103.181 104.686 103.227 104.628 103.185C104.592 103.158 104.353 102.984 104.074 102.663C103.808 102.357 103.247 101.621 103.043 100.477C102.81 99.1715 103.154 97.9914 103.687 97.1446C104.138 96.4269 104.657 96.0442 104.834 95.9203C105.165 95.6882 105.332 95.6629 104.908 95.8258L108.497 105.159C109.005 104.964 109.828 104.631 110.57 104.111C111.131 103.718 113.457 101.916 112.887 98.7211C112.659 97.4379 112.019 96.5605 111.624 96.1062C111.217 95.6375 110.799 95.3092 110.538 95.1175C110.03 94.7454 109.452 94.4209 109.086 94.2164L104.205 102.944ZM105.546 95.6282L105.375 95.669L107.688 105.398L107.859 105.357L105.546 95.6282ZM102.031 98.3535L101.225 100.018L110.225 104.377L111.031 102.713L102.031 98.3535ZM103.176 97.8959C103.187 97.8896 103.138 97.9184 102.998 97.9927C102.872 98.0598 102.71 98.1441 102.517 98.2422C102.132 98.4382 101.661 98.6712 101.183 98.9017C100.703 99.1332 100.237 99.3518 99.8578 99.5222C99.4004 99.7277 99.2743 99.7695 99.3613 99.7411L102.464 109.248C103.259 108.988 104.624 108.345 105.527 107.909C106.509 107.436 107.702 106.838 108.274 106.499L103.176 97.8959ZM99.3626 99.7407C99.1354 99.8147 98.993 99.8523 98.9139 99.8703C98.8345 99.8883 98.8572 99.8776 98.9553 99.871C99.06 99.864 99.2553 99.8612 99.5113 99.904C99.7762 99.9482 100.045 100.031 100.3 100.151C100.789 100.381 101.005 100.646 100.909 100.543C100.868 100.499 100.792 100.412 100.659 100.247C100.524 100.081 100.375 99.8888 100.17 99.6253L92.28 105.77C92.6244 106.212 93.1004 106.831 93.592 107.359C94.1116 107.917 94.9077 108.666 96.043 109.2C98.542 110.375 100.959 109.738 102.463 109.248L99.3626 99.7407ZM99.8336 99.2369C99.3323 98.7141 99.0601 98.4096 98.5142 97.8011L91.0713 104.48C91.6154 105.086 91.9872 105.503 92.616 106.158L99.8336 99.2369ZM98.5141 97.8011C98.7607 98.0758 98.8301 98.2658 98.7418 98.0862C98.7056 98.0126 98.6639 97.9219 98.5886 97.7553C98.5247 97.6137 98.4225 97.386 98.312 97.1585C98.1142 96.7507 97.7023 95.9346 97.004 95.169C96.2154 94.3045 94.9738 93.4115 93.25 93.1799L91.918 103.091C91.4033 103.022 90.9174 102.85 90.4916 102.605C90.0806 102.369 89.7948 102.104 89.6158 101.908C89.4419 101.717 89.3453 101.566 89.3136 101.514C89.2814 101.461 89.28 101.451 89.3155 101.525C89.3537 101.603 89.395 101.694 89.4759 101.873C89.5454 102.027 89.65 102.259 89.7681 102.499C89.9884 102.947 90.3987 103.73 91.0713 104.48L98.5141 97.8011ZM93.2495 93.1798C93.3492 93.1932 93.5308 93.2565 93.6796 93.3657C93.776 93.4363 93.728 93.4338 93.5272 93.1481C93.2871 92.8067 93.1045 92.4808 92.6722 91.7669C92.3081 91.1658 91.7699 90.3005 91.0504 89.47L83.4926 96.0184C83.6227 96.1685 83.7973 96.4169 84.1186 96.9473C84.3716 97.365 84.8468 98.1886 85.3464 98.8992C86.4891 100.525 88.4696 102.628 91.9185 103.091L93.2495 93.1798ZM91.0501 89.4697C90.9428 89.3459 90.6968 88.953 90.2506 87.8755C90.15 87.6324 90.0508 87.385 89.9392 87.1072C89.8316 86.8393 89.7118 86.5411 89.588 86.2441C89.3464 85.6649 89.0357 84.9583 88.6482 84.2676L79.9269 89.1603C80.2225 89.6874 80.4211 90.2757 81.0114 91.7012C81.4689 92.8061 82.2255 94.5562 83.4929 96.0186L91.0501 89.4697ZM88.6484 84.268C88.7479 84.4453 88.8068 84.582 88.8323 84.6438C88.8607 84.7124 88.8749 84.7547 88.8769 84.7609C88.8797 84.7694 88.8643 84.7229 88.8353 84.6066C88.7776 84.375 88.7095 84.0428 88.6447 83.6581C88.5809 83.2795 88.5306 82.9114 88.4999 82.6225C88.4845 82.4779 88.4765 82.3772 88.4732 82.3201C88.4681 82.2335 88.4773 82.3138 88.4682 82.4878L78.4817 81.9682C78.4295 82.9714 78.6317 84.4171 78.7836 85.319C78.8763 85.8692 78.9935 86.469 79.1324 87.026C79.2299 87.4168 79.463 88.3332 79.9267 89.16L88.6484 84.268ZM88.4682 82.4883C88.5337 81.2318 88.2926 80.1734 88.136 79.5632C88.0712 79.3106 87.9623 78.9243 87.941 78.8454C87.8941 78.6727 87.8971 78.6647 87.9069 78.7237L78.043 80.3677C78.1176 80.8157 78.2219 81.2132 78.2891 81.4611C78.3225 81.5843 78.3617 81.7243 78.3853 81.8095C78.4131 81.9097 78.4332 81.9837 78.4499 82.0489C78.5239 82.3372 78.468 82.2309 78.4817 81.9677L88.4682 82.4883ZM87.9067 78.7227C87.4949 76.2546 85.8266 74.793 84.4359 74.086C83.1633 73.4391 81.8609 73.2513 80.9636 73.193C80.0007 73.1305 79.064 73.1915 78.2726 73.3096C77.6571 73.4015 76.5345 73.6097 75.5253 74.158L80.2999 82.9446C80.0781 83.0651 79.9061 83.132 79.8286 83.1604C79.7408 83.1927 79.6835 83.2087 79.6659 83.2135C79.6335 83.2223 79.6615 83.2131 79.7493 83.2C79.9367 83.172 80.1554 83.1616 80.3154 83.172C80.541 83.1867 80.3288 83.2161 79.9045 83.0004C79.6596 82.8759 79.2554 82.6233 78.8667 82.1584C78.452 81.6624 78.1554 81.0417 78.0431 80.3687L87.9067 78.7227ZM75.525 74.1582C75.1231 74.3766 74.5303 74.6118 73.4986 75.005C72.6384 75.3329 71.3584 75.8121 70.2338 76.4215L74.9982 85.2136C75.4255 84.982 76.0379 84.7389 77.0601 84.3493C77.9108 84.0251 79.1903 83.5477 80.3003 82.9444L75.525 74.1582ZM70.2348 76.421C69.929 76.5866 69.3422 76.8024 68.2664 77.109C67.4246 77.3489 65.983 77.7192 64.8694 78.1257L68.2983 87.5194C68.9585 87.2785 69.6952 87.1 71.0071 86.7261C72.0851 86.4189 73.6276 85.9559 74.9973 85.2141L70.2348 76.421ZM64.8685 78.126C64.4428 78.2815 64.3683 78.2644 64.5005 78.2511C64.5592 78.2452 64.5989 78.2465 64.5648 78.2461C64.5206 78.2457 64.5121 78.2451 64.4006 78.2429C64.3166 78.2413 64.1757 78.239 64.0136 78.242C63.1552 78.258 62.249 78.414 61.2264 78.8504C60.3777 79.2126 59.5422 79.7297 58.6909 80.3176L64.3734 88.5462C65.0317 88.0915 65.2213 88.0181 65.1513 88.048C65.0851 88.0762 64.9309 88.1349 64.7091 88.1808C64.4791 88.2285 64.2905 88.2386 64.1993 88.2403C64.1683 88.2409 64.158 88.2401 64.2077 88.2411C64.2299 88.2415 64.3585 88.2445 64.4581 88.2456C64.712 88.2483 65.0672 88.2445 65.4991 88.2011C66.3778 88.113 67.2798 87.8914 68.2992 87.5191L64.8685 78.126ZM58.6921 80.3168C58.2417 80.6276 57.8935 80.9599 57.699 81.1529C57.4785 81.3719 57.276 81.594 57.1143 81.7759C56.9497 81.9611 56.7842 82.1538 56.6447 82.3163C56.4958 82.4899 56.3706 82.6361 56.2466 82.7774C56.1241 82.917 56.0259 83.0251 55.9458 83.1093C55.8622 83.1969 55.8283 83.2267 55.8363 83.2196C55.8426 83.2141 55.873 83.1875 55.9257 83.1477C55.9767 83.1091 56.0702 83.0418 56.2027 82.9633C56.3319 82.8867 56.5395 82.775 56.8173 82.6708C57.0926 82.5675 57.5012 82.4473 58.0151 82.4063L58.81 92.3747C59.9852 92.281 60.8599 91.8273 61.2987 91.5674C61.7877 91.2778 62.1788 90.9592 62.4463 90.7235C62.9758 90.2571 63.4486 89.7313 63.7624 89.3738C64.2579 88.8092 64.2495 88.8009 64.5889 88.4189C64.9045 88.0638 64.7621 88.2779 64.3722 88.547L58.6921 80.3168ZM58.0136 82.4064C57.7968 82.4238 57.9331 82.3893 58.266 82.4513C58.6262 82.5184 59.4105 82.7371 60.176 83.4404C60.9782 84.1773 61.3039 85.0257 61.4297 85.5416C61.524 85.9282 61.5255 86.2519 61.511 85.9803C61.5064 85.8957 61.4866 85.2745 61.3289 84.6064C61.1466 83.8337 60.7483 82.8076 59.8633 81.8753C58.9908 80.9562 57.9609 80.4608 57.0573 80.2003C56.192 79.9509 55.3399 79.8851 54.6001 79.8851V89.8851C55.1874 89.8851 53.8423 90.0575 52.6107 88.7601C51.9704 88.0855 51.7037 87.3585 51.5963 86.9035C51.5136 86.553 51.512 86.2678 51.5252 86.5146C51.5284 86.5745 51.5472 87.2251 51.7145 87.911C51.9133 88.7263 52.3677 89.8464 53.4107 90.8045C54.4169 91.7289 55.554 92.1182 56.4352 92.2823C57.289 92.4413 58.1145 92.4303 58.8115 92.3745L58.0136 82.4064ZM54.6001 79.8851C53.5464 79.8851 52.0136 80.0204 50.644 80.2121C49.9356 80.3113 49.1843 80.4374 48.4851 80.5924C47.8764 80.7273 46.9721 80.9541 46.1471 81.3449L50.428 90.3823C50.1954 90.4924 50.1928 90.4566 50.6492 90.3554C51.015 90.2743 51.4923 90.1909 52.0303 90.1156C53.1534 89.9584 54.1844 89.8851 54.6001 89.8851V79.8851ZM46.1469 81.345C45.536 81.6344 45.0989 81.8944 44.9252 81.9942C44.8839 82.018 44.8814 82.019 44.8948 82.0118C44.9097 82.0037 44.9677 81.9726 45.0541 81.9328C45.2389 81.8477 45.5778 81.711 46.0295 81.6303C46.493 81.5474 46.9034 81.5538 47.22 81.5902C47.5019 81.6226 47.6851 81.6765 47.7029 81.6817C47.7237 81.6877 47.6856 81.6773 47.5361 81.6231C47.3916 81.5707 47.2076 81.5012 46.9415 81.3999L43.383 90.7453C43.8343 90.9172 44.4092 91.1383 44.915 91.2852C45.4611 91.4437 46.5118 91.7025 47.7886 91.4743C48.9338 91.2697 49.802 90.7253 49.9088 90.6639C50.1442 90.5286 50.2369 90.4728 50.4282 90.3822L46.1469 81.345ZM45.9392 81.1333C46.5578 81.2306 47.0115 81.4236 47.1796 81.4978C47.3958 81.5933 47.5618 81.6852 47.6561 81.7395C47.8442 81.8481 47.983 81.945 48.0399 81.9854C48.1648 82.0739 48.2542 82.1465 48.276 82.1641C48.3348 82.2119 48.3675 82.2414 48.354 82.2294C48.3392 82.2164 48.2959 82.1773 48.2349 82.1204C48.1753 82.0648 48.1279 82.0194 48.1055 81.9974C48.0908 81.983 48.1083 81.9996 48.143 82.036C48.1577 82.0514 48.2076 82.1038 48.2722 82.1778C48.3039 82.2143 48.3645 82.2848 48.4372 82.378C48.4817 82.435 48.6611 82.6641 48.8444 82.9886L40.1376 87.907C40.3227 88.2346 40.505 88.4679 40.5534 88.53C40.6301 88.6282 40.6957 88.7047 40.7334 88.748C40.81 88.8359 40.8759 88.9056 40.91 88.9413C40.9836 89.0184 41.0535 89.0877 41.1004 89.1338C41.2012 89.2328 41.3136 89.3395 41.4141 89.4332C41.5132 89.5256 41.6304 89.6331 41.7403 89.73C41.789 89.773 41.8751 89.8482 41.9738 89.9284C42.0155 89.9622 42.1215 90.0477 42.2591 90.1451C42.3223 90.1899 42.4664 90.2904 42.6588 90.4014C42.7552 90.457 42.9231 90.5499 43.1409 90.646C43.3106 90.7209 43.7657 90.9144 44.3853 91.0118L45.9392 81.1333ZM48.8361 82.9739C48.3858 82.183 47.9478 81.5697 47.3842 80.9991C47.2751 80.8887 47.1783 80.7971 47.1262 80.7479C47.0607 80.686 47.0556 80.6813 47.0436 80.6696C47.0423 80.6683 47.0527 80.6786 47.0673 80.6942C47.0816 80.7097 47.0893 80.719 47.0888 80.7184L39.3504 87.0523C39.6186 87.3799 39.8569 87.6291 40.063 87.83C40.1481 87.913 40.235 87.9944 40.2597 88.0177C40.2977 88.0536 40.2891 88.0461 40.2695 88.0263C40.2005 87.9565 40.1286 87.8723 40.0765 87.8011C40.0414 87.7529 40.061 87.7726 40.1459 87.9217L48.8361 82.9739ZM47.0898 80.7197C45.8877 79.25 44.2524 78.7006 42.8866 78.6519C41.7192 78.6103 40.7549 78.9207 40.2252 79.1197C39.1826 79.5113 38.1144 80.1621 37.5772 80.4796C36.8215 80.9262 36.4397 81.1407 36.1758 81.25C35.71 81.4429 36.6682 80.8771 38.0802 81.3997L34.609 90.7779C35.862 91.2417 37.0318 91.2195 37.8808 91.0945C38.7239 90.9703 39.4559 90.7152 40.0022 90.4889C41.0479 90.0558 42.0715 89.4393 42.6648 89.0886C43.0186 88.8796 43.2705 88.7315 43.4923 88.6107C43.7229 88.4852 43.787 88.464 43.7418 88.4809C43.7109 88.4926 43.5987 88.5334 43.4215 88.5716C43.2488 88.6088 42.938 88.6601 42.5303 88.6456C41.5828 88.6118 40.2947 88.2067 39.3493 87.051L47.0898 80.7197ZM38.081 81.4C34.7785 80.177 32.2027 81.8299 31.1341 82.6856C30.6138 83.1022 30.134 83.5828 29.988 83.7236C29.6386 84.0607 29.9101 83.7426 30.4229 83.4666L35.1624 92.2721C35.7001 91.9827 36.1075 91.6568 36.3395 91.4606C36.5845 91.2534 36.8006 91.0463 36.9311 90.9204C37.0994 90.7581 37.1626 90.6948 37.2623 90.6013C37.3436 90.525 37.3786 90.4962 37.3846 90.4914C37.4259 90.4583 37.1683 90.6832 36.6578 90.8372C36.3812 90.9206 36.0404 90.9803 35.6555 90.9726C35.2671 90.9648 34.9111 90.8898 34.6083 90.7776L38.081 81.4ZM30.4232 83.4665C30.4884 83.4313 30.88 83.2266 31.5275 83.1708C32.2594 83.1077 33.1266 83.2556 33.931 83.7381C34.6718 84.1825 35.0714 84.7373 35.2524 85.0426C35.429 85.3404 35.4864 85.549 35.4865 85.5492C35.4907 85.5636 35.4755 85.5128 35.4476 85.3531C35.4181 85.1842 35.3956 85.0237 35.3541 84.7424C35.3214 84.5213 35.2643 84.1344 35.179 83.7505C35.1342 83.5491 35.066 83.2745 34.962 82.9701C34.8643 82.684 34.6865 82.2257 34.3724 81.729L25.9208 87.0743C25.6693 86.6766 25.5468 86.3428 25.4989 86.2027C25.4447 86.0441 25.4209 85.9368 25.4171 85.9196C25.4137 85.9043 25.4245 85.9541 25.4615 86.2039C25.51 86.5325 25.6313 87.4776 25.8894 88.3591C26.0962 89.0654 26.746 91.0893 28.787 92.3136C31.2774 93.8075 33.7714 93.0207 35.1621 92.2723L30.4232 83.4665ZM34.3716 81.7278C34.1163 81.3244 33.8929 81.0038 33.6696 80.7203C33.5583 80.579 33.4672 80.4729 33.4253 80.4239C33.368 80.3572 33.4476 80.4474 33.5308 80.5571C33.7784 80.8836 33.9025 81.1541 33.8998 81.1484C33.8798 81.1054 33.8159 80.9604 33.6462 80.5473L24.3966 84.348C24.5589 84.743 24.7062 85.0953 24.84 85.3815C24.9911 85.705 25.2118 86.1365 25.5621 86.5986C25.6967 86.7761 25.8292 86.9277 25.8344 86.9338C25.8549 86.9577 25.8358 86.9358 25.8139 86.9081C25.7695 86.8517 25.7948 86.8752 25.9216 87.0755L34.3716 81.7278ZM33.6456 80.5459C33.7756 80.8619 33.7913 81.0736 33.7783 80.9728C33.7716 80.9203 33.765 80.8562 33.749 80.6925C33.7357 80.5564 33.7137 80.328 33.6814 80.0845C33.5371 78.9983 33.1278 77.089 31.3872 75.4495L24.5307 82.7288C24.2537 82.4678 24.0332 82.1372 23.8934 81.7997C23.7728 81.5082 23.7569 81.3145 23.7684 81.4012C23.7746 81.4476 23.7813 81.5102 23.7963 81.6642C23.8087 81.7906 23.8301 82.0159 23.8602 82.25C23.9211 82.7225 24.0465 83.4967 24.3972 84.3494L33.6456 80.5459ZM31.387 75.4493C31.9 75.9324 32.1031 76.4427 32.1747 76.6957C32.2399 76.9259 32.22 77.016 32.2234 76.8897C32.2264 76.7792 32.2447 76.5959 32.2931 76.3443C32.3402 76.1001 32.4046 75.8483 32.4741 75.6129L22.883 72.7824C22.6253 73.6558 22.2682 75.0814 22.227 76.6219C22.1906 77.9785 22.3637 80.6879 24.5309 82.729L31.387 75.4493ZM32.4745 75.6114C32.7263 74.7574 33.034 73.2567 32.4804 71.6182C31.7859 69.5629 30.1018 68.3166 28.3438 67.9453C26.9078 67.642 25.6722 67.9485 24.961 68.1967C24.1679 68.4734 23.447 68.8803 22.8381 69.3437L28.8937 77.3017C28.7424 77.4168 28.542 77.5384 28.2559 77.6383C28.0516 77.7095 27.3095 77.9475 26.2772 77.7294C25.7052 77.6086 24.9988 77.3337 24.3389 76.7734C23.6633 76.1998 23.2347 75.4945 23.0065 74.8192C22.7911 74.1815 22.778 73.6496 22.7956 73.341C22.8133 73.0293 22.8684 72.832 22.8826 72.784L32.4745 75.6114ZM22.8374 69.3442C21.7147 70.1989 21.0016 70.5931 19.4596 71.6854L25.24 79.8455C25.9582 79.3368 27.741 78.1791 28.8943 77.3012L22.8374 69.3442ZM19.4583 71.6863C20.542 70.9181 21.5306 71.0846 21.7941 71.1484C21.9885 71.1955 22.1918 71.2745 22.407 71.4066C22.6006 71.5255 22.9741 71.7922 23.3274 72.3054L15.0906 77.9759C16.2562 79.6691 18.0345 80.5268 19.439 80.8672C20.8933 81.2196 23.1814 81.3048 25.2413 79.8445L19.4583 71.6863ZM23.3268 72.3045C22.1938 70.6596 20.6365 69.8389 19.6223 69.4138C18.6251 68.9959 17.5473 68.728 17.0864 68.603C16.7832 68.5207 16.6521 68.4804 16.5876 68.4576C16.4983 68.426 16.7336 68.495 17.0729 68.7258C17.4329 68.9708 18.1868 69.5897 18.6002 70.7361C19.0348 71.9413 18.8291 72.9868 18.6218 73.5513L9.23463 70.1045C8.85275 71.1446 8.63697 72.5861 9.19316 74.1284C9.72814 75.6119 10.7352 76.5089 11.4472 76.9933C12.6287 77.7973 14.0709 78.1463 14.4675 78.2539C15.2375 78.4629 15.5224 78.5383 15.757 78.6366C15.9745 78.7278 15.5178 78.5961 15.0913 77.9769L23.3268 72.3045ZM18.6215 73.5521C18.9522 72.6521 19.2093 71.3633 18.8361 69.9186C18.4436 68.3992 17.5155 67.3277 16.5826 66.6645C15.0351 65.5645 13.2908 65.4402 12.6196 65.405C11.2279 65.3319 8.8099 65.6269 9.45408 65.5838L10.1206 75.5616C10.3816 75.5442 10.7256 75.4977 10.784 75.4903C10.9481 75.4696 11.1111 75.4495 11.2851 75.4318C11.6657 75.3931 11.9428 75.3832 12.0952 75.3912C12.1666 75.395 12.099 75.3978 11.9376 75.3591C11.8062 75.3275 11.3381 75.2055 10.7889 74.8151C10.1642 74.3711 9.45387 73.5809 9.15386 72.4194C8.87314 71.3326 9.09731 70.4783 9.23494 70.1037L18.6215 73.5521ZM63.84 64.4C63.2325 64.4 62.8985 64.3136 62.7503 64.2589C62.6788 64.2326 62.6454 64.2119 62.6356 64.2055C62.6268 64.1997 62.6222 64.1959 62.6153 64.1884L55.3047 71.0116C57.6325 73.5056 60.7584 74.4 63.84 74.4V64.4ZM62.6524 64.2287C62.6393 64.2142 62.28 63.8388 62.28 62.36H52.28C52.28 65.4145 53.0407 68.5324 55.2676 70.9713L62.6524 64.2287ZM62.28 62.36V61.84H52.28V62.36H62.28ZM57.28 66.84H61.44V56.84H57.28V66.84ZM56.44 61.84V62.64H66.44V61.84H56.44ZM56.44 62.64C56.44 64.1231 56.7267 66.1652 58.1552 67.8944C59.7348 69.8065 61.9109 70.4 63.72 70.4V60.4C63.8344 60.4 64.1615 60.4164 64.5935 60.5907C65.0561 60.7774 65.5083 61.0941 65.8648 61.5256C66.5333 62.3348 66.44 62.9969 66.44 62.64H56.44ZM63.72 70.4C65.6089 70.4 67.8798 69.7707 69.4844 67.7382L61.6356 61.5418C61.9813 61.1039 62.4298 60.7793 62.8912 60.5887C63.3187 60.4121 63.634 60.4 63.72 60.4V70.4ZM69.4844 67.7382C70.9964 65.823 71.16 63.4306 71.16 61.96H61.16C61.16 62.1524 61.1524 62.2933 61.1435 62.3893C61.1346 62.4868 61.1261 62.5185 61.1308 62.4976C61.1351 62.4785 61.1591 62.3758 61.2268 62.2179C61.2948 62.0591 61.4195 61.8155 61.6356 61.5418L69.4844 67.7382ZM71.16 61.96V56.6H61.16V61.96H71.16ZM66.16 51.6H66.08V61.6H66.16V51.6ZM61.5643 54.4532C61.5411 54.502 61.5489 54.4712 61.6104 54.3999C61.6754 54.3247 61.7723 54.2371 61.8962 54.1615C62.0188 54.0867 62.121 54.0522 62.1729 54.0392C62.2196 54.0274 62.1968 54.04 62.08 54.04V64.04C63.7498 64.04 65.5012 63.6761 67.1038 62.6985C68.7219 61.7115 69.8571 60.3003 70.5957 58.7468L61.5643 54.4532ZM62.08 54.04C61.8474 54.04 61.8679 54.001 62.0239 54.0713C62.1002 54.1057 62.1846 54.1557 62.2653 54.2206C62.3454 54.285 62.3988 54.3455 62.4283 54.3845L54.4517 60.4155C56.3891 62.9779 59.2099 64.04 62.08 64.04V54.04ZM62.4283 54.3845C62.4804 54.4533 62.4215 54.4098 62.3485 54.1295C62.2732 53.8406 62.2 53.3627 62.2 52.64H52.2C52.2 55.275 52.7067 58.1077 54.4517 60.4155L62.4283 54.3845ZM62.2 52.64V47.64H52.2V52.64H62.2ZM62.2 47.64C62.2 46.2348 62.5479 45.8808 62.5726 45.8544L55.2674 39.0256C52.9987 41.4525 52.2 44.5652 52.2 47.64H62.2ZM62.5726 45.8544C62.5889 45.837 62.6229 45.7983 62.759 45.7478C62.9198 45.6882 63.2645 45.6 63.88 45.6V35.6C60.7547 35.6 57.6121 36.5173 55.2674 39.0256L62.5726 45.8544ZM63.88 45.6C64.4955 45.6 64.8402 45.6882 65.001 45.7478C65.1371 45.7983 65.1711 45.837 65.1874 45.8544L72.4926 39.0256C70.1479 36.5173 67.0053 35.6 63.88 35.6V45.6ZM65.1874 45.8544C65.2121 45.8808 65.56 46.2348 65.56 47.64H75.56C75.56 44.5652 74.7613 41.4525 72.4926 39.0256L65.1874 45.8544ZM65.56 47.64V62.12H75.56V47.64H65.56ZM65.56 62.12C65.56 63.8708 65.1476 64.2518 65.206 64.1886C65.3342 64.0498 65.2019 64.4 63.84 64.4V74.4C66.9581 74.4 70.1859 73.5369 72.554 70.9714C74.8524 68.4815 75.56 65.2225 75.56 62.12H65.56ZM63.88 60.04C65.6891 60.04 67.8652 59.4465 69.4448 57.5344C70.8733 55.8052 71.16 53.7631 71.16 52.28H61.16C61.16 52.6369 61.0667 51.9748 61.7352 51.1656C62.0917 50.7341 62.5439 50.4174 63.0065 50.2308C63.4385 50.0564 63.7656 50.04 63.88 50.04V60.04ZM71.16 52.28V47.32H61.16V52.28H71.16ZM71.16 47.32C71.16 45.8366 70.8675 43.7927 69.4219 42.068C67.8345 40.1743 65.6651 39.6 63.88 39.6V49.6C63.7734 49.6 63.4549 49.5851 63.0299 49.4161C62.5744 49.235 62.1206 48.9244 61.7581 48.492C61.0725 47.674 61.16 46.9901 61.16 47.32H71.16ZM63.88 39.6C62.0949 39.6 59.9255 40.1743 58.3382 42.068C56.8925 43.7927 56.6 45.8366 56.6 47.32H66.6C66.6 46.9901 66.6875 47.674 66.0018 48.492C65.6394 48.9244 65.1856 49.235 64.7301 49.4161C64.3051 49.5851 63.9866 49.6 63.88 49.6V39.6ZM56.6 47.32V52.28H66.6V47.32H56.6ZM56.6 52.28C56.6 53.7631 56.8867 55.8052 58.3152 57.5344C59.8948 59.4465 62.0709 60.04 63.88 60.04V50.04C63.9944 50.04 64.3215 50.0564 64.7535 50.2307C65.2161 50.4174 65.6683 50.7341 66.0248 51.1656C66.6933 51.9748 66.6 52.6369 66.6 52.28H56.6ZM81.0156 58.92H72.6156V68.92H81.0156V58.92ZM77.6156 63.92V59.92H67.6156V63.92H77.6156ZM77.2209 61.8672L85.2209 42.9472L76.0104 39.0527L68.0104 57.9728L77.2209 61.8672ZM80.6156 46H85.4156V36H80.6156V46ZM80.4156 41V59.92H90.4156V41H80.4156ZM85.4156 64.92H87.4956V54.92H85.4156V64.92ZM82.4956 59.92V63.92H92.4956V59.92H82.4956ZM87.4956 58.92H85.4156V68.92H87.4956V58.92ZM80.4156 63.92V69H90.4156V63.92H80.4156ZM85.4156 64H81.0156V74H85.4156V64ZM86.0156 69V63.92H76.0156V69H86.0156ZM86.0156 59.92V49H76.0156V59.92H86.0156ZM81.0156 44H80.9356V54H81.0156V44ZM76.2862 47.1607L71.9662 58.0807L81.265 61.7593L85.585 50.8393L76.2862 47.1607ZM76.6156 64.92H81.0156V54.92H76.6156V64.92Z" fill="#E42313" mask="url(#path-1-outside-1_85_710)"/>
</svg>
