<svg width="168" height="92" viewBox="0 0 168 92" fill="none" xmlns="http://www.w3.org/2000/svg">
<mask id="path-1-outside-1_85_712" maskUnits="userSpaceOnUse" x="-0.697266" y="-0.22168" width="169" height="93" fill="black">
<rect fill="white" x="-0.697266" y="-0.22168" width="169" height="93"/>
<path fill-rule="evenodd" clip-rule="evenodd" d="M98.2531 82.1983C99.1988 81.4969 100.085 80.6003 100.6 79.8615C100.629 79.8206 100.662 79.7882 100.7 79.7553C101.418 79.1399 102.236 78.4581 102.972 77.8638C103.582 77.3704 104.245 76.9064 104.866 76.44C105.569 75.9116 106.173 74.982 107.095 74.6439C107.625 74.4498 108.091 74.0804 108.744 73.8937C110.286 73.4528 110.231 73.1921 111.302 73.1677L111.227 71.5905C111.639 70.9168 112.132 69.7673 112.979 69.7944C113.698 69.8175 113.394 70.0939 114.195 70.0939C114.974 70.0939 115.399 70.9896 116.184 70.9419C116.705 70.9102 118.013 72.1358 118.542 70.9484C118.778 70.4174 119.033 70.6993 119.009 69.8758C118.998 69.4783 119.568 68.9066 119.957 69.1959C120.36 69.4953 121.356 69.5643 121.329 68.9464C121.321 68.7675 121.661 67.7491 122.059 67.7741C122.445 67.7984 122.928 67.7064 123.3 67.8675C123.493 67.9512 124.325 67.6872 125.146 68.2545C125.536 68.5245 125.61 68.4503 126.05 68.903C126.422 69.2863 126.91 69.5646 127.291 70.0396C127.504 70.3053 127.908 70.5434 128.238 71.0104C128.877 71.9127 129.997 71.2241 130.748 71.0852C131.357 70.9724 131.692 70.9395 132.354 70.9669C133.014 71.4743 133.652 72.2524 134.474 71.8961C134.51 71.8807 135.429 71.7968 135.572 71.8584C136.583 72.2939 137.127 70.7559 138.135 70.4094C138.377 70.3263 139.33 69.783 139.445 69.5137C139.612 69.1208 139.97 68.9028 140.361 69.0647C140.942 69.3051 141.516 68.5736 141.764 68.1482C141.88 67.9495 142.509 67.4607 142.83 67.5931C143.17 67.7326 143.318 66.8149 143.429 66.7763C143.453 66.7059 143.932 66.7555 144.25 66.5767C144.695 66.3268 145.18 65.878 145.499 65.7038C145.593 64.7095 145.622 65.2195 146.148 64.5499C146.653 63.9069 146.306 63.0577 147.139 62.4861C147.723 62.0858 147.952 61.0142 148.069 60.3723C148.214 59.5733 149.292 59.2167 149.939 58.5699C150.035 58.4744 150.472 58.0585 150.563 57.9962C149.459 58.0287 149.909 57.8682 149.168 57.7697C148.572 57.6903 148.249 57.2665 148.536 56.6806C148.984 55.7644 148.493 56.2994 149.715 56.2522C150.363 56.2272 151.452 55.7968 152.003 55.4499C152.817 54.9375 152.832 55.3618 153.473 54.3025C153.581 54.1242 153.814 52.8932 153.947 52.4922C154.046 52.1921 154.031 52.0316 154.232 51.7604C155.041 50.6684 157.237 50.371 157.3 49.8646C157.372 49.2803 156.083 49.9182 156.173 49.1911C156.254 48.5291 156.606 47.9336 155.502 48.6737C154.906 49.073 154.268 47.5271 154.28 47.3952C154.766 46.3746 154.964 46.297 155.726 45.6763C156.105 45.3679 157.023 43.2756 156.989 42.8343C155.755 42.8673 155.589 42.2507 155.55 41.0194C155.523 40.1487 154.958 39.8763 154.228 39.5184C153.677 39.2481 152.895 39.2405 152.653 38.984C151.684 37.9607 153.002 37.1454 151.7 35.8147C150.888 34.984 152.464 32.9291 151.606 32.9526C150.794 32.975 150.846 33.9222 150.196 34.0766C149.266 34.2972 150.152 32.8765 149.483 33.1771C148.689 33.5334 149.116 34.2705 148.659 34.457C148.102 34.6847 148.437 36.6808 148.568 37.1682C148.744 37.8204 148.245 38.3139 147.65 38.282C147.459 38.2717 145.671 37.4845 145.306 37.3442C144.19 36.9147 141.176 37.4149 142.255 35.4429C142.639 34.7415 144.591 33.3317 142.802 32.9982C141.442 32.7448 141.849 32.1156 140.824 31.8508C138.947 31.366 139.707 30.9884 139.522 30.5017C139.142 29.5002 137.44 30.3031 137.244 29.2568C137.159 28.8049 136.643 28.9744 136.404 29.1335C135.636 29.6453 135.355 29.6241 134.709 29.9801C133.188 30.8192 134.218 28.0255 134.375 27.6788C134.256 26.6948 131.666 27.1722 130.75 26.4667C129.881 25.7968 128.87 26.0709 127.954 26.5714C126.297 27.4772 126.9 26.0597 125.595 25.3633C124.943 25.0153 125.109 24.3546 124.647 24.4611C123.447 24.7381 123.232 25.4568 122.444 26.2757C122.176 26.5539 121.912 27.1722 121.658 27.1821C120.776 27.2165 120.959 25.3997 120.833 25.193C120.219 24.186 119.225 23.5769 118.786 22.4179C118.112 20.6432 116.316 20.8267 116.316 19.198C116.316 17.5467 114.337 18.9114 113.679 18.7178C113.187 18.5731 113 19.8726 112.974 20.0711L112.899 20.1396C112.184 20.7933 112.148 21.7751 111.375 22.2619C109.772 23.2724 111.689 23.9593 110.7 24.1705C109.615 24.4019 109.128 25.3749 108.103 25.2843C107.055 25.1915 107.197 25.3464 106.304 25.9285C105.534 26.4308 104.193 26.6021 103.396 26.151C100.94 24.7618 99.7959 27.1373 101.019 24.0685C101.309 23.3424 102.627 22.5304 102.042 21.7401C101.541 21.0629 101.267 20.5544 101.084 19.7282C100.947 19.106 99.4704 20.2598 99.1115 20.4639C98.2579 20.9493 98.1692 21.0433 97.2324 20.8757C96.5537 20.7544 95.6463 21.7671 94.6382 20.7945C94.1608 20.3339 93.6822 20.9312 93.7487 21.3845C93.9107 22.4909 94.1386 22.5361 92.8565 22.7464C91.8418 22.9129 91.7729 21.8854 91.3976 21.5427C90.8752 21.0656 91.5041 20.1631 91.7739 19.6848C92.2917 18.7671 90.46 19.028 89.9844 18.5331C89.4543 17.9817 89.3985 18.2592 89.1526 18.0756C88.5639 17.6358 88.9933 19.2338 88.3046 19.4225C87.6177 19.6106 88.0247 17.3542 87.7188 17.08C87.1603 16.5796 85.972 16.9867 85.424 17.3708C83.1522 18.9633 84.1742 16.6205 83.2162 16.9345C82.114 17.296 82.1045 17.1656 81.495 16.3295C81.0942 15.9284 81.1874 15.3896 81.0895 15.0139C80.883 14.2214 81.4342 13.1759 80.7467 13.1347C80.3929 13.1135 79.3521 13.8396 79.506 12.781C79.6261 11.954 78.7156 12.8975 78.5602 13.1759C78.0364 14.1146 77.7356 14.0973 76.8805 14.5899C75.7308 15.2524 75.2707 14.8914 74.0619 15.8969C72.9792 16.7976 73.2142 17.2812 71.5797 17.4335C70.3909 17.5442 70.3105 18.0357 69.6055 18.6929C68.5214 19.7032 68.4774 20.2491 66.9159 20.7131C66.584 20.8119 65.9009 20.2931 65.7187 20.0776C65.26 19.5347 64.1501 19.4653 64.0097 19.1439C63.7917 18.6452 63.1313 19.0285 62.8999 19.3413C62.7942 19.4843 61.519 20.7727 61.3656 20.8899C59.9359 21.9828 59.905 21.4042 58.5962 21.8171C56.768 22.3939 57.0931 21.1122 56.8778 20.9506C56.6687 20.7936 55.3089 21.2929 55.0014 21.3931C53.7127 21.8128 52.3581 22.2768 51.2634 23.0893C50.7041 23.1049 49.8148 23.3989 49.4761 23.3573C49.1428 23.3163 48.8613 22.6473 48.8005 22.3409C48.6623 21.6459 48.4816 21.7967 48.3201 21.2348C48.1302 20.5743 46.8286 21.2754 46.4614 21.4493C45.8576 21.7355 44.586 22.0279 43.8866 22.0166C43.1618 22.005 42.9727 22.3373 42.4563 22.8669C41.6797 23.6635 41.8301 21.8828 41.8783 21.5306C42.0687 20.1393 41.1707 20.6437 40.8101 20.0541C40.3852 19.3594 39.3041 20.5524 38.9122 20.7653C37.8354 21.3498 38.9021 19.7976 37.7962 19.6534C36.7241 19.5138 37.4886 19.3152 36.948 18.8823C35.2046 17.486 35.1901 19.8734 34.2541 19.2189C33.1145 18.4217 33.4678 17.9853 31.965 19.2066C31.4093 19.6583 30.8064 19.767 30.3587 20.0711C29.4811 20.6671 29.6544 20.3978 28.9076 20.2144C27.4274 19.8507 28.0982 19.0389 27.6171 18.1818C27.3694 17.7406 27.2469 16.6944 27.027 16.517C25.7465 15.4847 24.6579 16.6611 25.2139 14.8145C25.3885 14.2342 24.6069 14.1516 24.2511 14.2158C23.502 14.3508 23.4659 13.4331 24.2147 13.3179C25.0688 13.1863 24.1839 12.6763 24.9523 12.5382C25.5923 12.4231 25.654 12.4975 26.5195 12.2887C26.5195 12.2564 26.5503 11.7778 26.5508 11.7755C26.8223 10.5485 25.6512 10.4386 26.8936 9.29543C27.4486 8.78484 26.1654 8.23337 25.8688 8.16444C24.5941 7.86834 25.3143 7.5027 24.5924 7.28142C24.0856 7.12621 23.1344 7.2413 23.1002 6.58303C23.0591 5.79535 22.7855 5.81496 22.778 5.77846C22.6737 5.77031 22.5146 6.13172 22.4873 6.21891C22.424 6.42103 22.0307 7.19393 22.0297 7.19816C21.8919 7.75445 21.9925 7.51492 21.7011 8.32478C21.2343 8.91697 20.9441 8.67608 20.6078 9.31398C20.4955 9.52727 19.1723 10.4021 19.1427 10.4429C18.8079 10.9023 18.7923 10.9589 18.3943 11.4072C17.0922 12.8738 17.0433 12.3916 17.5462 14.3427C17.8555 15.5423 16.8889 16.3598 16.8186 16.9282C16.7043 17.8544 16.5964 17.2527 16.835 18.2936C16.9919 18.9787 17.096 19.0911 16.6483 19.5537C16.0929 20.1275 15.9482 19.7632 16.2427 20.8194C16.2713 20.9215 16.2724 20.9315 16.284 21.0375C16.4024 22.1127 17.0805 22.502 15.9562 23.3095C14.0094 24.7078 15.9317 24.7397 15.411 25.8873C14.9993 26.7945 14.5738 26.5145 14.4282 27.3566C14.2677 28.2857 13.5018 29.0358 14.4305 29.7263C15.1351 30.2504 14.7108 31.1495 14.191 31.6385C13.7003 32.1001 13.8293 32.4243 13.4513 32.8172C13.1481 33.1324 13.0951 33.9508 12.9773 34.0894C12.2569 34.9366 11.663 34.2892 10.855 35.9601L10.7324 36.0664C9.99477 36.7944 10.3569 37.4573 9.93202 37.7917C9.57845 38.07 9.73502 37.9592 9.45386 38.2343C8.31668 39.3467 9.59338 40.3037 9.58282 40.8803C9.55748 42.2699 8.34745 41.9299 7.72282 42.6073C7.55946 42.7844 7.4222 42.8738 7.30273 42.901L8.34353 45.0734C8.62545 44.7503 8.95835 44.4606 9.37527 44.2193C9.9637 43.8784 10.0284 43.612 10.8968 43.2716C12.1646 42.7747 13.563 43.1219 14.8194 43.4625C15.2515 43.5797 17.7517 44.3315 17.9709 44.4602C18.2516 44.6249 18.5519 44.6347 18.8852 44.9092C19.3708 45.3088 20.2113 45.5333 20.4879 46.2875C20.711 46.8952 20.854 47.1655 20.6626 47.8711C20.6042 48.0862 20.5415 48.2772 20.4734 48.4482C20.957 48.7286 21.0833 48.9057 21.5105 48.9582C21.5147 48.9587 22.3153 49.437 22.4334 49.4928C22.5796 49.5619 23.4441 50.1665 23.4875 50.139C24.1419 49.7258 24.0857 51.251 25.0439 50.3529C25.718 49.7212 26.6192 50.4294 27.4514 50.139C28.0184 49.9412 29.4962 50.4772 28.985 49.3302C28.6888 48.6654 29.7277 49.0466 29.5238 48.1621C29.3517 47.4156 29.8694 47.8103 30.3883 47.2142C30.9505 46.5685 30.5921 47.5707 31.4794 47.8542C32.4967 48.1794 31.8452 48.0247 32.8619 47.9876C33.4888 47.9646 33.4327 48.1306 34.3357 47.9811C34.9661 47.8769 36.0371 47.7767 36.1588 46.9919C36.2862 46.1701 36.4229 46.6219 36.2087 45.6278C36.1074 45.1574 36.6799 44.1467 37.2835 44.6786C37.7648 45.1028 38.3544 44.4142 38.6219 44.0878C38.8813 43.7712 39.3414 43.8227 39.7151 43.7784L39.7691 43.7721C40.8961 43.9271 40.7095 44.0081 41.538 44.2645C42.0011 44.4078 42.8384 44.588 42.8893 45.2124C42.9594 46.0727 42.4324 46.8401 43.8036 46.8401C44.6863 46.8401 44.8076 47.1482 45.5312 47.4723C46.3023 47.8177 46.9693 47.9752 46.3955 49.0103C46.2656 49.2447 46.2694 49.4964 45.9866 49.956C45.7931 50.2702 45.681 51.4459 45.2253 52.2008C45.0873 52.4298 44.6636 53.7229 45.0073 53.7994C45.422 53.8917 45.4451 54.9263 45.4313 55.2212C45.8026 55.9821 45.9237 55.8434 46.1383 56.2438C46.3546 56.6474 45.4065 58.7512 46.3293 57.7903C46.8207 57.2787 47.4348 57.3761 48.0504 57.3912C48.4948 57.4021 49.8404 56.8586 49.4886 56.1441C49.4473 56.0602 49.1978 55.0063 49.1978 54.9218C49.2238 54.9165 49.4876 54.571 49.5158 54.5227C49.7092 54.1907 49.7656 54.1323 49.9375 53.7495C50.0852 53.4208 50.5248 53.3336 50.8008 53.0574C51.1222 52.7359 50.606 52.0456 51.5675 52.1281C51.9274 52.159 52.8982 50.1224 53.513 50.3137C53.7358 50.3831 53.7343 51.1285 53.6192 51.3798C53.4278 51.7981 54.0541 52.1919 54.2799 52.3983C54.6127 52.7024 54.972 52.997 55.1908 53.4003C55.1938 53.406 56.3372 54.2289 56.4998 54.3916C57.159 55.0505 57.1502 55.5991 57.529 55.9944C57.9845 56.4697 59.2838 55.0906 59.556 55.5997C59.8119 56.0788 60.5164 56.3699 60.9562 55.9095C61.8552 54.9687 61.709 56.3438 62.4222 56.5474C62.9013 56.6842 63.2162 56.9284 63.871 56.9173C64.5733 56.9054 64.8369 56.9207 65.5443 56.774C66.1845 56.6414 66.2347 57.8133 66.7168 58.0896C68.5406 59.1351 67.8414 58.7384 68.8534 60.341C69.2797 61.016 69.2557 61.5286 70.2565 61.9081C71.1608 62.2511 71.3023 60.8619 72.3141 61.0993C73.6424 61.4111 73.8902 60.7362 75.214 60.4777C75.4742 60.427 75.859 60.2382 76.0121 60.2098C76.6913 59.9958 76.8579 59.9562 77.4069 60.3661C77.7443 60.618 77.2947 61.3174 78.076 61.0893C78.4501 60.9801 78.5376 61.21 78.872 60.584C79.1411 60.0805 78.806 59.6903 79.2298 59.6383C80.1053 59.531 79.8688 57.8077 80.8013 58.4325C81.148 58.6649 81.1882 58.2875 81.7991 58.7631C82.1697 59.0516 83.0752 58.8464 83.4767 58.7296C84.0494 58.5632 84.1476 59.0538 84.9833 58.354C85.461 57.954 86.0901 57.2698 86.3573 58.1581C86.4249 58.3828 85.9197 60.8818 85.7693 61.2824C85.7337 61.3776 85.6747 63.615 85.7011 63.6951C86.4843 63.7364 87.1721 63.795 87.661 63.8456C90.1088 64.0992 91.1909 64.8504 93.1108 66.2174C93.8777 66.7633 95.048 68.7598 94.7904 69.7922C94.59 70.5951 94.3322 71.2052 93.9923 71.7609C94.4653 72.056 94.7035 72.2812 95.2063 72.3178C95.5642 72.3439 95.9798 72.9589 96.5098 72.9437C96.8129 72.9349 98.5554 73.3028 98.5965 73.8166C98.6818 74.88 98.1024 75.1514 97.819 76.2546C97.6004 77.1061 97.5452 77.4649 97.844 78.3086C97.8962 78.4559 98.2273 79.5351 98.1561 79.6349C98.0487 79.7853 98.1271 79.8388 97.8319 80.1339C97.2873 80.6786 98.2105 81.8939 98.2214 82.2215L98.2531 82.1983Z"/>
<path d="M99.84 60.4C97.7067 60.4 96.08 59.8 94.96 58.6C93.84 57.3733 93.28 55.6267 93.28 53.36V52.84H97.44V53.64C97.44 55.48 98.2 56.4 99.72 56.4C100.547 56.4 101.16 56.1467 101.56 55.64C101.96 55.1333 102.16 54.24 102.16 52.96V47.6H102.08C101.307 49.2267 99.9733 50.04 98.08 50.04C96.48 50.04 95.2667 49.4933 94.44 48.4C93.6133 47.3067 93.2 45.72 93.2 43.64V38.64C93.2 36.4 93.7733 34.6667 94.92 33.44C96.0667 32.2133 97.72 31.6 99.88 31.6C102.04 31.6 103.693 32.2133 104.84 33.44C105.987 34.6667 106.56 36.4 106.56 38.64V53.12C106.56 57.9733 104.32 60.4 99.84 60.4ZM99.88 46.04C101.4 46.04 102.16 45.12 102.16 43.28V38.32C102.16 36.5067 101.4 35.6 99.88 35.6C98.36 35.6 97.6 36.5067 97.6 38.32V43.28C97.6 45.12 98.36 46.04 99.88 46.04Z"/>
<path d="M116.096 60.4C113.962 60.4 112.336 59.8 111.216 58.6C110.096 57.3733 109.536 55.6267 109.536 53.36V51.16H113.696V53.68C113.696 55.4933 114.456 56.4 115.976 56.4C117.496 56.4 118.256 55.4933 118.256 53.68V47.4C118.256 45.56 117.496 44.64 115.976 44.64C114.456 44.64 113.696 45.56 113.696 47.4V47.64H109.536L110.336 32H121.936V36H114.256L113.896 42.68H113.976C114.802 41.32 116.069 40.64 117.776 40.64C119.376 40.64 120.589 41.1867 121.416 42.28C122.242 43.3733 122.656 44.96 122.656 47.04V53.36C122.656 55.6267 122.096 57.3733 120.976 58.6C119.856 59.8 118.229 60.4 116.096 60.4Z"/>
</mask>
<path d="M99.84 60.4C97.7067 60.4 96.08 59.8 94.96 58.6C93.84 57.3733 93.28 55.6267 93.28 53.36V52.84H97.44V53.64C97.44 55.48 98.2 56.4 99.72 56.4C100.547 56.4 101.16 56.1467 101.56 55.64C101.96 55.1333 102.16 54.24 102.16 52.96V47.6H102.08C101.307 49.2267 99.9733 50.04 98.08 50.04C96.48 50.04 95.2667 49.4933 94.44 48.4C93.6133 47.3067 93.2 45.72 93.2 43.64V38.64C93.2 36.4 93.7733 34.6667 94.92 33.44C96.0667 32.2133 97.72 31.6 99.88 31.6C102.04 31.6 103.693 32.2133 104.84 33.44C105.987 34.6667 106.56 36.4 106.56 38.64V53.12C106.56 57.9733 104.32 60.4 99.84 60.4ZM99.88 46.04C101.4 46.04 102.16 45.12 102.16 43.28V38.32C102.16 36.5067 101.4 35.6 99.88 35.6C98.36 35.6 97.6 36.5067 97.6 38.32V43.28C97.6 45.12 98.36 46.04 99.88 46.04Z" fill="white"/>
<path d="M116.096 60.4C113.962 60.4 112.336 59.8 111.216 58.6C110.096 57.3733 109.536 55.6267 109.536 53.36V51.16H113.696V53.68C113.696 55.4933 114.456 56.4 115.976 56.4C117.496 56.4 118.256 55.4933 118.256 53.68V47.4C118.256 45.56 117.496 44.64 115.976 44.64C114.456 44.64 113.696 45.56 113.696 47.4V47.64H109.536L110.336 32H121.936V36H114.256L113.896 42.68H113.976C114.802 41.32 116.069 40.64 117.776 40.64C119.376 40.64 120.589 41.1867 121.416 42.28C122.242 43.3733 122.656 44.96 122.656 47.04V53.36C122.656 55.6267 122.096 57.3733 120.976 58.6C119.856 59.8 118.229 60.4 116.096 60.4Z" fill="white"/>
<path fill-rule="evenodd" clip-rule="evenodd" d="M98.2531 82.1983C99.1988 81.4969 100.085 80.6003 100.6 79.8615C100.629 79.8206 100.662 79.7882 100.7 79.7553C101.418 79.1399 102.236 78.4581 102.972 77.8638C103.582 77.3704 104.245 76.9064 104.866 76.44C105.569 75.9116 106.173 74.982 107.095 74.6439C107.625 74.4498 108.091 74.0804 108.744 73.8937C110.286 73.4528 110.231 73.1921 111.302 73.1677L111.227 71.5905C111.639 70.9168 112.132 69.7673 112.979 69.7944C113.698 69.8175 113.394 70.0939 114.195 70.0939C114.974 70.0939 115.399 70.9896 116.184 70.9419C116.705 70.9102 118.013 72.1358 118.542 70.9484C118.778 70.4174 119.033 70.6993 119.009 69.8758C118.998 69.4783 119.568 68.9066 119.957 69.1959C120.36 69.4953 121.356 69.5643 121.329 68.9464C121.321 68.7675 121.661 67.7491 122.059 67.7741C122.445 67.7984 122.928 67.7064 123.3 67.8675C123.493 67.9512 124.325 67.6872 125.146 68.2545C125.536 68.5245 125.61 68.4503 126.05 68.903C126.422 69.2863 126.91 69.5646 127.291 70.0396C127.504 70.3053 127.908 70.5434 128.238 71.0104C128.877 71.9127 129.997 71.2241 130.748 71.0852C131.357 70.9724 131.692 70.9395 132.354 70.9669C133.014 71.4743 133.652 72.2524 134.474 71.8961C134.51 71.8807 135.429 71.7968 135.572 71.8584C136.583 72.2939 137.127 70.7559 138.135 70.4094C138.377 70.3263 139.33 69.783 139.445 69.5137C139.612 69.1208 139.97 68.9028 140.361 69.0647C140.942 69.3051 141.516 68.5736 141.764 68.1482C141.88 67.9495 142.509 67.4607 142.83 67.5931C143.17 67.7326 143.318 66.8149 143.429 66.7763C143.453 66.7059 143.932 66.7555 144.25 66.5767C144.695 66.3268 145.18 65.878 145.499 65.7038C145.593 64.7095 145.622 65.2195 146.148 64.5499C146.653 63.9069 146.306 63.0577 147.139 62.4861C147.723 62.0858 147.952 61.0142 148.069 60.3723C148.214 59.5733 149.292 59.2167 149.939 58.5699C150.035 58.4744 150.472 58.0585 150.563 57.9962C149.459 58.0287 149.909 57.8682 149.168 57.7697C148.572 57.6903 148.249 57.2665 148.536 56.6806C148.984 55.7644 148.493 56.2994 149.715 56.2522C150.363 56.2272 151.452 55.7968 152.003 55.4499C152.817 54.9375 152.832 55.3618 153.473 54.3025C153.581 54.1242 153.814 52.8932 153.947 52.4922C154.046 52.1921 154.031 52.0316 154.232 51.7604C155.041 50.6684 157.237 50.371 157.3 49.8646C157.372 49.2803 156.083 49.9182 156.173 49.1911C156.254 48.5291 156.606 47.9336 155.502 48.6737C154.906 49.073 154.268 47.5271 154.28 47.3952C154.766 46.3746 154.964 46.297 155.726 45.6763C156.105 45.3679 157.023 43.2756 156.989 42.8343C155.755 42.8673 155.589 42.2507 155.55 41.0194C155.523 40.1487 154.958 39.8763 154.228 39.5184C153.677 39.2481 152.895 39.2405 152.653 38.984C151.684 37.9607 153.002 37.1454 151.7 35.8147C150.888 34.984 152.464 32.9291 151.606 32.9526C150.794 32.975 150.846 33.9222 150.196 34.0766C149.266 34.2972 150.152 32.8765 149.483 33.1771C148.689 33.5334 149.116 34.2705 148.659 34.457C148.102 34.6847 148.437 36.6808 148.568 37.1682C148.744 37.8204 148.245 38.3139 147.65 38.282C147.459 38.2717 145.671 37.4845 145.306 37.3442C144.19 36.9147 141.176 37.4149 142.255 35.4429C142.639 34.7415 144.591 33.3317 142.802 32.9982C141.442 32.7448 141.849 32.1156 140.824 31.8508C138.947 31.366 139.707 30.9884 139.522 30.5017C139.142 29.5002 137.44 30.3031 137.244 29.2568C137.159 28.8049 136.643 28.9744 136.404 29.1335C135.636 29.6453 135.355 29.6241 134.709 29.9801C133.188 30.8192 134.218 28.0255 134.375 27.6788C134.256 26.6948 131.666 27.1722 130.75 26.4667C129.881 25.7968 128.87 26.0709 127.954 26.5714C126.297 27.4772 126.9 26.0597 125.595 25.3633C124.943 25.0153 125.109 24.3546 124.647 24.4611C123.447 24.7381 123.232 25.4568 122.444 26.2757C122.176 26.5539 121.912 27.1722 121.658 27.1821C120.776 27.2165 120.959 25.3997 120.833 25.193C120.219 24.186 119.225 23.5769 118.786 22.4179C118.112 20.6432 116.316 20.8267 116.316 19.198C116.316 17.5467 114.337 18.9114 113.679 18.7178C113.187 18.5731 113 19.8726 112.974 20.0711L112.899 20.1396C112.184 20.7933 112.148 21.7751 111.375 22.2619C109.772 23.2724 111.689 23.9593 110.7 24.1705C109.615 24.4019 109.128 25.3749 108.103 25.2843C107.055 25.1915 107.197 25.3464 106.304 25.9285C105.534 26.4308 104.193 26.6021 103.396 26.151C100.94 24.7618 99.7959 27.1373 101.019 24.0685C101.309 23.3424 102.627 22.5304 102.042 21.7401C101.541 21.0629 101.267 20.5544 101.084 19.7282C100.947 19.106 99.4704 20.2598 99.1115 20.4639C98.2579 20.9493 98.1692 21.0433 97.2324 20.8757C96.5537 20.7544 95.6463 21.7671 94.6382 20.7945C94.1608 20.3339 93.6822 20.9312 93.7487 21.3845C93.9107 22.4909 94.1386 22.5361 92.8565 22.7464C91.8418 22.9129 91.7729 21.8854 91.3976 21.5427C90.8752 21.0656 91.5041 20.1631 91.7739 19.6848C92.2917 18.7671 90.46 19.028 89.9844 18.5331C89.4543 17.9817 89.3985 18.2592 89.1526 18.0756C88.5639 17.6358 88.9933 19.2338 88.3046 19.4225C87.6177 19.6106 88.0247 17.3542 87.7188 17.08C87.1603 16.5796 85.972 16.9867 85.424 17.3708C83.1522 18.9633 84.1742 16.6205 83.2162 16.9345C82.114 17.296 82.1045 17.1656 81.495 16.3295C81.0942 15.9284 81.1874 15.3896 81.0895 15.0139C80.883 14.2214 81.4342 13.1759 80.7467 13.1347C80.3929 13.1135 79.3521 13.8396 79.506 12.781C79.6261 11.954 78.7156 12.8975 78.5602 13.1759C78.0364 14.1146 77.7356 14.0973 76.8805 14.5899C75.7308 15.2524 75.2707 14.8914 74.0619 15.8969C72.9792 16.7976 73.2142 17.2812 71.5797 17.4335C70.3909 17.5442 70.3105 18.0357 69.6055 18.6929C68.5214 19.7032 68.4774 20.2491 66.9159 20.7131C66.584 20.8119 65.9009 20.2931 65.7187 20.0776C65.26 19.5347 64.1501 19.4653 64.0097 19.1439C63.7917 18.6452 63.1313 19.0285 62.8999 19.3413C62.7942 19.4843 61.519 20.7727 61.3656 20.8899C59.9359 21.9828 59.905 21.4042 58.5962 21.8171C56.768 22.3939 57.0931 21.1122 56.8778 20.9506C56.6687 20.7936 55.3089 21.2929 55.0014 21.3931C53.7127 21.8128 52.3581 22.2768 51.2634 23.0893C50.7041 23.1049 49.8148 23.3989 49.4761 23.3573C49.1428 23.3163 48.8613 22.6473 48.8005 22.3409C48.6623 21.6459 48.4816 21.7967 48.3201 21.2348C48.1302 20.5743 46.8286 21.2754 46.4614 21.4493C45.8576 21.7355 44.586 22.0279 43.8866 22.0166C43.1618 22.005 42.9727 22.3373 42.4563 22.8669C41.6797 23.6635 41.8301 21.8828 41.8783 21.5306C42.0687 20.1393 41.1707 20.6437 40.8101 20.0541C40.3852 19.3594 39.3041 20.5524 38.9122 20.7653C37.8354 21.3498 38.9021 19.7976 37.7962 19.6534C36.7241 19.5138 37.4886 19.3152 36.948 18.8823C35.2046 17.486 35.1901 19.8734 34.2541 19.2189C33.1145 18.4217 33.4678 17.9853 31.965 19.2066C31.4093 19.6583 30.8064 19.767 30.3587 20.0711C29.4811 20.6671 29.6544 20.3978 28.9076 20.2144C27.4274 19.8507 28.0982 19.0389 27.6171 18.1818C27.3694 17.7406 27.2469 16.6944 27.027 16.517C25.7465 15.4847 24.6579 16.6611 25.2139 14.8145C25.3885 14.2342 24.6069 14.1516 24.2511 14.2158C23.502 14.3508 23.4659 13.4331 24.2147 13.3179C25.0688 13.1863 24.1839 12.6763 24.9523 12.5382C25.5923 12.4231 25.654 12.4975 26.5195 12.2887C26.5195 12.2564 26.5503 11.7778 26.5508 11.7755C26.8223 10.5485 25.6512 10.4386 26.8936 9.29543C27.4486 8.78484 26.1654 8.23337 25.8688 8.16444C24.5941 7.86834 25.3143 7.5027 24.5924 7.28142C24.0856 7.12621 23.1344 7.2413 23.1002 6.58303C23.0591 5.79535 22.7855 5.81496 22.778 5.77846C22.6737 5.77031 22.5146 6.13172 22.4873 6.21891C22.424 6.42103 22.0307 7.19393 22.0297 7.19816C21.8919 7.75445 21.9925 7.51492 21.7011 8.32478C21.2343 8.91697 20.9441 8.67608 20.6078 9.31398C20.4955 9.52727 19.1723 10.4021 19.1427 10.4429C18.8079 10.9023 18.7923 10.9589 18.3943 11.4072C17.0922 12.8738 17.0433 12.3916 17.5462 14.3427C17.8555 15.5423 16.8889 16.3598 16.8186 16.9282C16.7043 17.8544 16.5964 17.2527 16.835 18.2936C16.9919 18.9787 17.096 19.0911 16.6483 19.5537C16.0929 20.1275 15.9482 19.7632 16.2427 20.8194C16.2713 20.9215 16.2724 20.9315 16.284 21.0375C16.4024 22.1127 17.0805 22.502 15.9562 23.3095C14.0094 24.7078 15.9317 24.7397 15.411 25.8873C14.9993 26.7945 14.5738 26.5145 14.4282 27.3566C14.2677 28.2857 13.5018 29.0358 14.4305 29.7263C15.1351 30.2504 14.7108 31.1495 14.191 31.6385C13.7003 32.1001 13.8293 32.4243 13.4513 32.8172C13.1481 33.1324 13.0951 33.9508 12.9773 34.0894C12.2569 34.9366 11.663 34.2892 10.855 35.9601L10.7324 36.0664C9.99477 36.7944 10.3569 37.4573 9.93202 37.7917C9.57845 38.07 9.73502 37.9592 9.45386 38.2343C8.31668 39.3467 9.59338 40.3037 9.58282 40.8803C9.55748 42.2699 8.34745 41.9299 7.72282 42.6073C7.55946 42.7844 7.4222 42.8738 7.30273 42.901L8.34353 45.0734C8.62545 44.7503 8.95835 44.4606 9.37527 44.2193C9.9637 43.8784 10.0284 43.612 10.8968 43.2716C12.1646 42.7747 13.563 43.1219 14.8194 43.4625C15.2515 43.5797 17.7517 44.3315 17.9709 44.4602C18.2516 44.6249 18.5519 44.6347 18.8852 44.9092C19.3708 45.3088 20.2113 45.5333 20.4879 46.2875C20.711 46.8952 20.854 47.1655 20.6626 47.8711C20.6042 48.0862 20.5415 48.2772 20.4734 48.4482C20.957 48.7286 21.0833 48.9057 21.5105 48.9582C21.5147 48.9587 22.3153 49.437 22.4334 49.4928C22.5796 49.5619 23.4441 50.1665 23.4875 50.139C24.1419 49.7258 24.0857 51.251 25.0439 50.3529C25.718 49.7212 26.6192 50.4294 27.4514 50.139C28.0184 49.9412 29.4962 50.4772 28.985 49.3302C28.6888 48.6654 29.7277 49.0466 29.5238 48.1621C29.3517 47.4156 29.8694 47.8103 30.3883 47.2142C30.9505 46.5685 30.5921 47.5707 31.4794 47.8542C32.4967 48.1794 31.8452 48.0247 32.8619 47.9876C33.4888 47.9646 33.4327 48.1306 34.3357 47.9811C34.9661 47.8769 36.0371 47.7767 36.1588 46.9919C36.2862 46.1701 36.4229 46.6219 36.2087 45.6278C36.1074 45.1574 36.6799 44.1467 37.2835 44.6786C37.7648 45.1028 38.3544 44.4142 38.6219 44.0878C38.8813 43.7712 39.3414 43.8227 39.7151 43.7784L39.7691 43.7721C40.8961 43.9271 40.7095 44.0081 41.538 44.2645C42.0011 44.4078 42.8384 44.588 42.8893 45.2124C42.9594 46.0727 42.4324 46.8401 43.8036 46.8401C44.6863 46.8401 44.8076 47.1482 45.5312 47.4723C46.3023 47.8177 46.9693 47.9752 46.3955 49.0103C46.2656 49.2447 46.2694 49.4964 45.9866 49.956C45.7931 50.2702 45.681 51.4459 45.2253 52.2008C45.0873 52.4298 44.6636 53.7229 45.0073 53.7994C45.422 53.8917 45.4451 54.9263 45.4313 55.2212C45.8026 55.9821 45.9237 55.8434 46.1383 56.2438C46.3546 56.6474 45.4065 58.7512 46.3293 57.7903C46.8207 57.2787 47.4348 57.3761 48.0504 57.3912C48.4948 57.4021 49.8404 56.8586 49.4886 56.1441C49.4473 56.0602 49.1978 55.0063 49.1978 54.9218C49.2238 54.9165 49.4876 54.571 49.5158 54.5227C49.7092 54.1907 49.7656 54.1323 49.9375 53.7495C50.0852 53.4208 50.5248 53.3336 50.8008 53.0574C51.1222 52.7359 50.606 52.0456 51.5675 52.1281C51.9274 52.159 52.8982 50.1224 53.513 50.3137C53.7358 50.3831 53.7343 51.1285 53.6192 51.3798C53.4278 51.7981 54.0541 52.1919 54.2799 52.3983C54.6127 52.7024 54.972 52.997 55.1908 53.4003C55.1938 53.406 56.3372 54.2289 56.4998 54.3916C57.159 55.0505 57.1502 55.5991 57.529 55.9944C57.9845 56.4697 59.2838 55.0906 59.556 55.5997C59.8119 56.0788 60.5164 56.3699 60.9562 55.9095C61.8552 54.9687 61.709 56.3438 62.4222 56.5474C62.9013 56.6842 63.2162 56.9284 63.871 56.9173C64.5733 56.9054 64.8369 56.9207 65.5443 56.774C66.1845 56.6414 66.2347 57.8133 66.7168 58.0896C68.5406 59.1351 67.8414 58.7384 68.8534 60.341C69.2797 61.016 69.2557 61.5286 70.2565 61.9081C71.1608 62.2511 71.3023 60.8619 72.3141 61.0993C73.6424 61.4111 73.8902 60.7362 75.214 60.4777C75.4742 60.427 75.859 60.2382 76.0121 60.2098C76.6913 59.9958 76.8579 59.9562 77.4069 60.3661C77.7443 60.618 77.2947 61.3174 78.076 61.0893C78.4501 60.9801 78.5376 61.21 78.872 60.584C79.1411 60.0805 78.806 59.6903 79.2298 59.6383C80.1053 59.531 79.8688 57.8077 80.8013 58.4325C81.148 58.6649 81.1882 58.2875 81.7991 58.7631C82.1697 59.0516 83.0752 58.8464 83.4767 58.7296C84.0494 58.5632 84.1476 59.0538 84.9833 58.354C85.461 57.954 86.0901 57.2698 86.3573 58.1581C86.4249 58.3828 85.9197 60.8818 85.7693 61.2824C85.7337 61.3776 85.6747 63.615 85.7011 63.6951C86.4843 63.7364 87.1721 63.795 87.661 63.8456C90.1088 64.0992 91.1909 64.8504 93.1108 66.2174C93.8777 66.7633 95.048 68.7598 94.7904 69.7922C94.59 70.5951 94.3322 71.2052 93.9923 71.7609C94.4653 72.056 94.7035 72.2812 95.2063 72.3178C95.5642 72.3439 95.9798 72.9589 96.5098 72.9437C96.8129 72.9349 98.5554 73.3028 98.5965 73.8166C98.6818 74.88 98.1024 75.1514 97.819 76.2546C97.6004 77.1061 97.5452 77.4649 97.844 78.3086C97.8962 78.4559 98.2273 79.5351 98.1561 79.6349C98.0487 79.7853 98.1271 79.8388 97.8319 80.1339C97.2873 80.6786 98.2105 81.8939 98.2214 82.2215L98.2531 82.1983Z" stroke="#E42313" stroke-width="10" mask="url(#path-1-outside-1_85_712)"/>
<path d="M99.84 60.4C97.7067 60.4 96.08 59.8 94.96 58.6C93.84 57.3733 93.28 55.6267 93.28 53.36V52.84H97.44V53.64C97.44 55.48 98.2 56.4 99.72 56.4C100.547 56.4 101.16 56.1467 101.56 55.64C101.96 55.1333 102.16 54.24 102.16 52.96V47.6H102.08C101.307 49.2267 99.9733 50.04 98.08 50.04C96.48 50.04 95.2667 49.4933 94.44 48.4C93.6133 47.3067 93.2 45.72 93.2 43.64V38.64C93.2 36.4 93.7733 34.6667 94.92 33.44C96.0667 32.2133 97.72 31.6 99.88 31.6C102.04 31.6 103.693 32.2133 104.84 33.44C105.987 34.6667 106.56 36.4 106.56 38.64V53.12C106.56 57.9733 104.32 60.4 99.84 60.4ZM99.88 46.04C101.4 46.04 102.16 45.12 102.16 43.28V38.32C102.16 36.5067 101.4 35.6 99.88 35.6C98.36 35.6 97.6 36.5067 97.6 38.32V43.28C97.6 45.12 98.36 46.04 99.88 46.04Z" stroke="#E42313" stroke-width="10" mask="url(#path-1-outside-1_85_712)"/>
<path d="M116.096 60.4C113.962 60.4 112.336 59.8 111.216 58.6C110.096 57.3733 109.536 55.6267 109.536 53.36V51.16H113.696V53.68C113.696 55.4933 114.456 56.4 115.976 56.4C117.496 56.4 118.256 55.4933 118.256 53.68V47.4C118.256 45.56 117.496 44.64 115.976 44.64C114.456 44.64 113.696 45.56 113.696 47.4V47.64H109.536L110.336 32H121.936V36H114.256L113.896 42.68H113.976C114.802 41.32 116.069 40.64 117.776 40.64C119.376 40.64 120.589 41.1867 121.416 42.28C122.242 43.3733 122.656 44.96 122.656 47.04V53.36C122.656 55.6267 122.096 57.3733 120.976 58.6C119.856 59.8 118.229 60.4 116.096 60.4Z" stroke="#E42313" stroke-width="10" mask="url(#path-1-outside-1_85_712)"/>
</svg>
